<svg xmlns="http://www.w3.org/2000/svg" viewBox="0 0 500 500"><g id="freepik--Floor--inject-20"><ellipse id="freepik--floor--inject-20" cx="250.05" cy="346.02" rx="227.88" ry="125.27" style="fill:#f5f5f5"></ellipse></g><g id="freepik--Shadows--inject-20"><ellipse id="freepik--Shadow--inject-20" cx="292.78" cy="410.1" rx="72.58" ry="41.9" style="fill:#e0e0e0"></ellipse><path id="freepik--shadow--inject-20" d="M234.13,359.32,365,283.74c1.55-.89,1.55-2.34,0-3.23l-57.4-33.14a6.14,6.14,0,0,0-5.6,0L171.13,323c-1.55.89-1.55,2.34,0,3.23l57.41,33.14A6.12,6.12,0,0,0,234.13,359.32Z" style="fill:#e0e0e0"></path><path id="freepik--shadow--inject-20" d="M123.85,374.48l-83.66-48.3c-1.54-.89-1.54-2.34,0-3.23l136.16-78.62a6.21,6.21,0,0,1,5.6,0l83.66,48.3c1.55.9,1.55,2.34,0,3.24L129.45,374.48A6.21,6.21,0,0,1,123.85,374.48Z" style="fill:#e0e0e0"></path></g><g id="freepik--Photos--inject-20"><g id="freepik--photos--inject-20"><path d="M167.92,236.93,42.23,309.51a3.6,3.6,0,0,0-1.64,2.83v3.31a3.6,3.6,0,0,0,1.64,2.83l82.64,47.72a3.62,3.62,0,0,0,3.27,0l125.72-72.59a3.62,3.62,0,0,0,1.63-2.83v-3.31a3.6,3.6,0,0,0-1.64-2.83l-82.66-47.71A3.62,3.62,0,0,0,167.92,236.93Z" style="fill:#37474f"></path><path d="M124.87,359.11,42.23,311.4a1,1,0,0,1,0-1.89l125.69-72.58a3.62,3.62,0,0,1,3.27,0l82.66,47.71a1,1,0,0,1,0,1.88L128.14,359.11A3.62,3.62,0,0,1,124.87,359.11Z" style="fill:#455a64"></path><path d="M126.61,359.5v7.08a3.39,3.39,0,0,1-1.73-.37L42.22,318.48a3.61,3.61,0,0,1-1.63-2.82v-3.31a3.67,3.67,0,0,1,1.33-2.63c-.58.53-.48,1.22.3,1.67l82.66,47.72A3.4,3.4,0,0,0,126.61,359.5Z" style="fill:#263238"></path><polygon points="234.11 291.5 230.67 293.5 242.88 201.38 246.33 199.39 234.11 291.5" style="fill:#e0e0e0"></polygon><polygon points="230.67 293.5 157 250.98 169.21 158.87 242.88 201.38 230.67 293.5" style="fill:#fafafa"></polygon><polygon points="246.33 199.39 242.88 201.38 169.21 158.87 172.71 156.85 246.33 199.39" style="fill:#ebebeb"></polygon><polygon points="239.03 202.77 171.51 163.8 160.43 247.97 227.95 286.88 239.03 202.77" style="fill:#0093ED"></polygon><polygon points="239.03 202.77 171.51 163.8 160.43 247.97 227.95 286.88 239.03 202.77" style="fill:#fff;opacity:0.8"></polygon><path d="M167.67,215.55,185,199.13c1.81-1.71,3.95-1.18,4.75,1.18l12.42,36.58a.82.82,0,0,0,1.6-.32l-.54-7.71,11.05-7.78a3.79,3.79,0,0,1,5.73,1.45l13,26-4.62,35L163.5,246.13Z" style="fill:#0093ED"></path><path d="M226.42,203c-3-1.76-5.9-.56-6.37,2.67s1.66,7.29,4.74,9.07,5.93.59,6.37-2.66S229.47,204.74,226.42,203Z" style="fill:#0093ED"></path><polygon points="174.57 165.58 163.5 246.13 160.44 247.91 171.51 163.8 174.57 165.58" style="fill:#e0e0e0"></polygon><polygon points="163.5 246.13 228.39 283.57 227.95 286.88 160.44 247.91 163.5 246.13" style="fill:#ebebeb"></polygon><polygon points="215.79 302.12 212.34 304.11 224.56 212 228.01 210.01 215.79 302.12" style="fill:#e0e0e0"></polygon><polygon points="212.34 304.11 138.67 261.59 150.88 169.48 224.56 212 212.34 304.11" style="fill:#fafafa"></polygon><polygon points="228.01 210.01 224.56 212 150.88 169.48 154.38 167.46 228.01 210.01" style="fill:#ebebeb"></polygon><polygon points="220.71 213.38 153.19 174.42 142.11 258.58 209.63 297.5 220.71 213.38" style="fill:#0093ED"></polygon><polygon points="220.71 213.38 153.19 174.42 142.11 258.58 209.63 297.5 220.71 213.38" style="fill:#fff;opacity:0.8"></polygon><path d="M149.34,226.16l17.32-16.41c1.81-1.72,4-1.19,4.75,1.17l12.42,36.58a.82.82,0,0,0,1.6-.32l-.54-7.71,11.05-7.77a3.8,3.8,0,0,1,5.74,1.45l13,26-4.61,35-64.9-37.43Z" style="fill:#0093ED"></path><path d="M208.09,213.6c-3.05-1.76-5.89-.57-6.36,2.66s1.65,7.3,4.74,9.08,5.93.58,6.36-2.67S211.14,215.36,208.09,213.6Z" style="fill:#0093ED"></path><polygon points="156.25 176.19 145.17 256.75 142.12 258.52 153.19 174.42 156.25 176.19" style="fill:#e0e0e0"></polygon><polygon points="145.17 256.75 210.06 294.18 209.63 297.5 142.12 258.52 145.17 256.75" style="fill:#ebebeb"></polygon><polygon points="197.46 312.74 194.02 314.73 206.23 222.62 209.68 220.62 197.46 312.74" style="fill:#e0e0e0"></polygon><polygon points="194.02 314.73 120.34 272.21 132.56 180.1 206.23 222.62 194.02 314.73" style="fill:#fafafa"></polygon><polygon points="209.68 220.62 206.23 222.62 132.56 180.1 136.06 178.08 209.68 220.62" style="fill:#ebebeb"></polygon><polygon points="202.38 224 134.86 185.03 123.78 269.2 191.3 308.11 202.38 224" style="fill:#0093ED"></polygon><polygon points="202.38 224 134.86 185.03 123.78 269.2 191.3 308.11 202.38 224" style="fill:#fff;opacity:0.8"></polygon><path d="M131,236.78l17.32-16.42c1.81-1.71,3.94-1.18,4.75,1.18l12.41,36.58a.82.82,0,0,0,1.6-.32l-.54-7.71,11.06-7.78a3.79,3.79,0,0,1,5.73,1.45l13,26-4.61,35-64.89-37.43Z" style="fill:#0093ED"></path><path d="M189.77,224.21c-3.05-1.76-5.9-.56-6.37,2.67s1.66,7.29,4.74,9.07,5.93.59,6.36-2.66S192.81,226,189.77,224.21Z" style="fill:#0093ED"></path><polygon points="137.92 186.81 126.85 267.37 123.79 269.14 134.86 185.03 137.92 186.81" style="fill:#e0e0e0"></polygon><polygon points="126.85 267.37 191.74 304.8 191.3 308.11 123.79 269.14 126.85 267.37" style="fill:#ebebeb"></polygon><polygon points="179.13 323.35 175.69 325.34 187.91 233.23 191.35 231.24 179.13 323.35" style="fill:#e0e0e0"></polygon><polygon points="175.69 325.34 102.02 282.82 114.23 190.71 187.91 233.23 175.69 325.34" style="fill:#fafafa"></polygon><polygon points="191.35 231.24 187.91 233.23 114.23 190.71 117.73 188.69 191.35 231.24" style="fill:#ebebeb"></polygon><polygon points="184.06 234.61 116.54 195.65 105.46 279.81 172.98 318.73 184.06 234.61" style="fill:#0093ED"></polygon><polygon points="184.06 234.61 116.54 195.65 105.46 279.81 172.98 318.73 184.06 234.61" style="fill:#fff;opacity:0.8"></polygon><path d="M112.69,247.39,130,231c1.81-1.71,4-1.19,4.75,1.17l12.42,36.58a.82.82,0,0,0,1.6-.32l-.54-7.71,11-7.77a3.8,3.8,0,0,1,5.74,1.45l13,26-4.62,35L108.52,278Z" style="fill:#0093ED"></path><path d="M171.44,234.83c-3.05-1.76-5.9-.57-6.36,2.66s1.65,7.3,4.73,9.08,5.94.59,6.37-2.67S174.49,236.59,171.44,234.83Z" style="fill:#0093ED"></path><polygon points="119.59 197.43 108.52 277.98 105.46 279.75 116.54 195.65 119.59 197.43" style="fill:#e0e0e0"></polygon><polygon points="108.52 277.98 173.41 315.41 172.98 318.73 105.46 279.75 108.52 277.98" style="fill:#ebebeb"></polygon><polygon points="160.81 333.96 157.37 335.96 169.58 243.84 173.03 241.85 160.81 333.96" style="fill:#e0e0e0"></polygon><polygon points="157.37 335.96 83.69 293.44 95.91 201.33 169.58 243.84 157.37 335.96" style="fill:#fafafa"></polygon><polygon points="173.03 241.85 169.58 243.84 95.91 201.33 99.4 199.31 173.03 241.85" style="fill:#ebebeb"></polygon><polygon points="165.73 245.23 98.21 206.26 87.13 290.43 154.65 329.34 165.73 245.23" style="fill:#0093ED"></polygon><polygon points="165.73 245.23 98.21 206.26 87.13 290.43 154.65 329.34 165.73 245.23" style="fill:#fff;opacity:0.8"></polygon><path d="M94.37,258l17.32-16.42c1.81-1.71,3.94-1.18,4.74,1.18l12.42,36.58a.82.82,0,0,0,1.6-.32l-.54-7.71L141,263.54A3.8,3.8,0,0,1,146.7,265l13,26-4.61,35L90.2,288.6Z" style="fill:#0093ED"></path><path d="M153.11,245.44c-3-1.75-5.89-.56-6.36,2.67s1.66,7.29,4.74,9.07,5.93.59,6.36-2.66S156.16,247.2,153.11,245.44Z" style="fill:#0093ED"></path><polygon points="101.27 208.04 90.2 288.6 87.14 290.37 98.21 206.26 101.27 208.04" style="fill:#e0e0e0"></polygon><polygon points="90.2 288.6 155.09 326.03 154.65 329.34 87.14 290.37 90.2 288.6" style="fill:#ebebeb"></polygon><polygon points="142.48 344.58 139.04 346.57 151.25 254.46 154.7 252.47 142.48 344.58" style="fill:#e0e0e0"></polygon><polygon points="139.04 346.57 65.37 304.05 77.58 211.94 151.25 254.46 139.04 346.57" style="fill:#fafafa"></polygon><polygon points="154.7 252.47 151.25 254.46 77.58 211.94 81.08 209.92 154.7 252.47" style="fill:#ebebeb"></polygon><polygon points="147.4 255.84 79.89 216.88 68.8 301.04 136.32 339.96 147.4 255.84" style="fill:#0093ED"></polygon><polygon points="147.4 255.84 79.89 216.88 68.8 301.04 136.32 339.96 147.4 255.84" style="fill:#fff;opacity:0.8"></polygon><path d="M76,268.62l17.32-16.41c1.81-1.71,4-1.19,4.75,1.17L110.53,290a.82.82,0,0,0,1.6-.32l-.54-7.71,11-7.77a3.79,3.79,0,0,1,5.73,1.45l13,26-4.62,35L71.87,299.21Z" style="fill:#0093ED"></path><path d="M134.79,256.06c-3-1.76-5.9-.57-6.36,2.67s1.65,7.29,4.73,9.07,5.93.59,6.37-2.67S137.84,257.82,134.79,256.06Z" style="fill:#0093ED"></path><polygon points="82.94 218.66 71.87 299.21 68.81 300.99 79.89 216.88 82.94 218.66" style="fill:#e0e0e0"></polygon><polygon points="71.87 299.21 136.76 336.64 136.32 339.96 68.81 300.99 71.87 299.21" style="fill:#ebebeb"></polygon></g><g id="freepik--photos--inject-20"><path d="M167.92,120.58,42.23,193.16A3.6,3.6,0,0,0,40.59,196v3.31a3.62,3.62,0,0,0,1.64,2.84l82.64,47.71a3.62,3.62,0,0,0,3.27,0l125.72-72.59a3.62,3.62,0,0,0,1.63-2.83v-3.31a3.6,3.6,0,0,0-1.64-2.83l-82.66-47.71A3.62,3.62,0,0,0,167.92,120.58Z" style="fill:#37474f"></path><path d="M124.87,242.76,42.23,195.05a1,1,0,0,1,0-1.89l125.69-72.58a3.62,3.62,0,0,1,3.27,0l82.66,47.71c.91.52.91,1.36,0,1.89L128.14,242.76A3.56,3.56,0,0,1,124.87,242.76Z" style="fill:#455a64"></path><path d="M126.61,243.15v7.09a3.5,3.5,0,0,1-1.73-.38L42.22,202.13a3.61,3.61,0,0,1-1.63-2.82V196a3.67,3.67,0,0,1,1.33-2.63c-.58.53-.48,1.22.3,1.68l82.66,47.71A3.3,3.3,0,0,0,126.61,243.15Z" style="fill:#263238"></path><polygon points="234.11 174.4 230.67 176.39 242.88 84.28 246.33 82.29 234.11 174.4" style="fill:#e0e0e0"></polygon><polygon points="230.67 176.39 157 133.87 169.21 41.76 242.88 84.28 230.67 176.39" style="fill:#fafafa"></polygon><polygon points="246.33 82.29 242.88 84.28 169.21 41.76 172.71 39.74 246.33 82.29" style="fill:#ebebeb"></polygon><polygon points="239.03 85.66 171.51 46.7 160.43 130.86 227.95 169.78 239.03 85.66" style="fill:#0093ED"></polygon><polygon points="239.03 85.66 171.51 46.7 160.43 130.86 227.95 169.78 239.03 85.66" style="fill:#fff;opacity:0.8"></polygon><path d="M167.67,98.44,185,82c1.81-1.72,3.95-1.19,4.75,1.17l12.42,36.58a.82.82,0,0,0,1.6-.32l-.54-7.71L214.27,104a3.78,3.78,0,0,1,5.73,1.44l13,26-4.62,35L163.5,129Z" style="fill:#0093ED"></path><path d="M226.42,85.88c-3-1.76-5.9-.57-6.37,2.66s1.66,7.3,4.74,9.08,5.93.58,6.37-2.67S229.47,87.64,226.42,85.88Z" style="fill:#0093ED"></path><polygon points="174.57 48.47 163.5 129.03 160.44 130.8 171.51 46.7 174.57 48.47" style="fill:#e0e0e0"></polygon><polygon points="163.5 129.03 228.39 166.46 227.95 169.78 160.44 130.8 163.5 129.03" style="fill:#ebebeb"></polygon><polygon points="215.79 185.01 212.34 187 224.56 94.89 228.01 92.9 215.79 185.01" style="fill:#e0e0e0"></polygon><polygon points="212.34 187 138.67 144.49 150.88 52.38 224.56 94.89 212.34 187" style="fill:#fafafa"></polygon><polygon points="228.01 92.9 224.56 94.89 150.88 52.38 154.38 50.36 228.01 92.9" style="fill:#ebebeb"></polygon><polygon points="220.71 96.28 153.19 57.31 142.11 141.47 209.63 180.39 220.71 96.28" style="fill:#0093ED"></polygon><polygon points="220.71 96.28 153.19 57.31 142.11 141.47 209.63 180.39 220.71 96.28" style="fill:#fff;opacity:0.8"></polygon><path d="M149.34,109.05l17.32-16.41c1.81-1.71,4-1.18,4.75,1.18l12.42,36.58a.82.82,0,0,0,1.6-.33l-.54-7.7,11.05-7.78a3.8,3.8,0,0,1,5.74,1.45l13,26-4.61,35-64.9-37.43Z" style="fill:#0093ED"></path><path d="M208.09,96.49c-3.05-1.76-5.89-.56-6.36,2.67s1.65,7.29,4.74,9.07,5.93.59,6.36-2.66S211.14,98.25,208.09,96.49Z" style="fill:#0093ED"></path><polygon points="156.25 59.09 145.17 139.64 142.12 141.42 153.19 57.31 156.25 59.09" style="fill:#e0e0e0"></polygon><polygon points="145.17 139.64 210.06 177.07 209.63 180.39 142.12 141.42 145.17 139.64" style="fill:#ebebeb"></polygon><polygon points="197.46 195.63 194.02 197.62 206.23 105.51 209.68 103.52 197.46 195.63" style="fill:#e0e0e0"></polygon><polygon points="194.02 197.62 120.34 155.1 132.56 62.99 206.23 105.51 194.02 197.62" style="fill:#fafafa"></polygon><polygon points="209.68 103.52 206.23 105.51 132.56 62.99 136.06 60.97 209.68 103.52" style="fill:#ebebeb"></polygon><polygon points="202.38 106.89 134.86 67.92 123.78 152.09 191.3 191 202.38 106.89" style="fill:#0093ED"></polygon><polygon points="202.38 106.89 134.86 67.92 123.78 152.09 191.3 191 202.38 106.89" style="fill:#fff;opacity:0.8"></polygon><path d="M131,119.67l17.32-16.41c1.81-1.72,3.94-1.19,4.75,1.17L165.5,141a.82.82,0,0,0,1.6-.32l-.54-7.71,11.06-7.77a3.78,3.78,0,0,1,5.73,1.44l13,26-4.61,35-64.89-37.43Z" style="fill:#0093ED"></path><path d="M189.77,107.11c-3.05-1.76-5.9-.57-6.37,2.66s1.66,7.3,4.74,9.08,5.93.58,6.36-2.67S192.81,108.87,189.77,107.11Z" style="fill:#0093ED"></path><polygon points="137.92 69.7 126.85 150.26 123.79 152.03 134.86 67.92 137.92 69.7" style="fill:#e0e0e0"></polygon><polygon points="126.85 150.26 191.74 187.69 191.3 191 123.79 152.03 126.85 150.26" style="fill:#ebebeb"></polygon><polygon points="179.13 206.24 175.69 208.23 187.91 116.12 191.35 114.13 179.13 206.24" style="fill:#e0e0e0"></polygon><polygon points="175.69 208.23 102.02 165.72 114.23 73.61 187.91 116.12 175.69 208.23" style="fill:#fafafa"></polygon><polygon points="191.35 114.13 187.91 116.12 114.23 73.61 117.73 71.59 191.35 114.13" style="fill:#ebebeb"></polygon><polygon points="184.06 117.5 116.54 78.54 105.46 162.7 172.98 201.62 184.06 117.5" style="fill:#0093ED"></polygon><polygon points="184.06 117.5 116.54 78.54 105.46 162.7 172.98 201.62 184.06 117.5" style="fill:#fff;opacity:0.8"></polygon><path d="M112.69,130.28,130,113.87c1.81-1.71,4-1.18,4.75,1.18l12.42,36.58a.82.82,0,0,0,1.6-.32l-.54-7.71,11-7.78a3.8,3.8,0,0,1,5.74,1.45l13,26-4.62,35-64.89-37.44Z" style="fill:#0093ED"></path><path d="M171.44,117.72c-3.05-1.76-5.9-.56-6.36,2.67s1.65,7.29,4.73,9.07,5.94.59,6.37-2.66S174.49,119.48,171.44,117.72Z" style="fill:#0093ED"></path><polygon points="119.59 80.32 108.52 160.87 105.46 162.65 116.54 78.54 119.59 80.32" style="fill:#e0e0e0"></polygon><polygon points="108.52 160.87 173.41 198.31 172.98 201.62 105.46 162.65 108.52 160.87" style="fill:#ebebeb"></polygon><polygon points="160.81 216.86 157.37 218.85 169.58 126.74 173.03 124.75 160.81 216.86" style="fill:#e0e0e0"></polygon><polygon points="157.37 218.85 83.69 176.33 95.91 84.22 169.58 126.74 157.37 218.85" style="fill:#fafafa"></polygon><polygon points="173.03 124.75 169.58 126.74 95.91 84.22 99.4 82.2 173.03 124.75" style="fill:#ebebeb"></polygon><polygon points="165.73 128.12 98.21 89.16 87.13 173.32 154.65 212.24 165.73 128.12" style="fill:#0093ED"></polygon><polygon points="165.73 128.12 98.21 89.16 87.13 173.32 154.65 212.24 165.73 128.12" style="fill:#fff;opacity:0.8"></polygon><path d="M94.37,140.9l17.32-16.41c1.81-1.72,3.94-1.19,4.74,1.17l12.42,36.58a.82.82,0,0,0,1.6-.32l-.54-7.71L141,146.44a3.79,3.79,0,0,1,5.74,1.44l13,26-4.61,35L90.2,171.49Z" style="fill:#0093ED"></path><path d="M153.11,128.34c-3-1.76-5.89-.57-6.36,2.66s1.66,7.3,4.74,9.08,5.93.58,6.36-2.67S156.16,130.1,153.11,128.34Z" style="fill:#0093ED"></path><polygon points="101.27 90.93 90.2 171.49 87.14 173.26 98.21 89.16 101.27 90.93" style="fill:#e0e0e0"></polygon><polygon points="90.2 171.49 155.09 208.92 154.65 212.24 87.14 173.26 90.2 171.49" style="fill:#ebebeb"></polygon><polygon points="142.48 227.47 139.04 229.46 151.25 137.35 154.7 135.36 142.48 227.47" style="fill:#e0e0e0"></polygon><polygon points="139.04 229.46 65.37 186.95 77.58 94.84 151.25 137.35 139.04 229.46" style="fill:#fafafa"></polygon><polygon points="154.7 135.36 151.25 137.35 77.58 94.84 81.08 92.82 154.7 135.36" style="fill:#ebebeb"></polygon><polygon points="147.4 138.74 79.89 99.77 68.8 183.93 136.32 222.85 147.4 138.74" style="fill:#0093ED"></polygon><polygon points="147.4 138.74 79.89 99.77 68.8 183.93 136.32 222.85 147.4 138.74" style="fill:#fff;opacity:0.8"></polygon><path d="M76,151.52,93.36,135.1c1.81-1.71,4-1.18,4.75,1.18l12.42,36.58a.82.82,0,0,0,1.6-.32l-.54-7.71,11-7.78a3.79,3.79,0,0,1,5.73,1.45l13,26-4.62,35L71.87,182.1Z" style="fill:#0093ED"></path><path d="M134.79,139c-3-1.76-5.9-.56-6.36,2.67s1.65,7.29,4.73,9.07,5.93.59,6.37-2.66S137.84,140.71,134.79,139Z" style="fill:#0093ED"></path><polygon points="82.94 101.55 71.87 182.1 68.81 183.88 79.89 99.77 82.94 101.55" style="fill:#e0e0e0"></polygon><polygon points="71.87 182.1 136.76 219.53 136.32 222.85 68.81 183.88 71.87 182.1" style="fill:#ebebeb"></polygon></g></g><g id="freepik--Window--inject-20"><g id="freepik--window--inject-20"><path d="M366.2,45.32V269.61a10.29,10.29,0,0,1-4.66,8.07L232.69,352a2.89,2.89,0,0,1-1.54.44,3.07,3.07,0,0,1-.6-.07,1.9,1.9,0,0,1-.4-.14l-.24-.14-.28-.18a2.85,2.85,0,0,1-.26-.23,3.77,3.77,0,0,1-.85-1.22,5.79,5.79,0,0,1-.49-2.36V125a10.3,10.3,0,0,1,4.66-8.07L361.54,42.63a3.38,3.38,0,0,1,3.13-.39,1.6,1.6,0,0,1,.4.23l0,0a1.47,1.47,0,0,1,.31.3,1.15,1.15,0,0,1,.14.17.87.87,0,0,1,.15.24,2.3,2.3,0,0,1,.27.6,1.3,1.3,0,0,1,.11.41.1.1,0,0,1,0,.09,2,2,0,0,1,.07.43A5.63,5.63,0,0,1,366.2,45.32Z" style="fill:#455a64"></path><path d="M364.67,42.24a3.38,3.38,0,0,0-3.13.39L232.69,116.9A10.3,10.3,0,0,0,228,125V140.2l-5.95-3.49V121.59a10.27,10.27,0,0,1,4.65-8L355.59,39.27A3.27,3.27,0,0,1,359,39C359.81,39.5,363.68,41.72,364.67,42.24Z" style="fill:#0093ED"></path><path d="M366.19,45.29c0-2.94-2.09-4.13-4.65-2.65L232.69,116.9A10.32,10.32,0,0,0,228,125V140.2L366.19,60.58Z" style="fill:#0093ED"></path><g style="opacity:0.4"><path d="M361.54,42.64,232.69,116.9a9.69,9.69,0,0,0-3.28,3.46l-5.91-3.43a9.32,9.32,0,0,1,3.24-3.4L355.59,39.27A3.27,3.27,0,0,1,359,39c.84.51,4.71,2.71,5.69,3.24A3.35,3.35,0,0,0,361.54,42.64Z" style="fill:#fff"></path></g><path d="M222.07,136.73V121.59a9.55,9.55,0,0,1,1.42-4.66l5.93,3.41A9.37,9.37,0,0,0,228,125V140.2Z" style="opacity:0.15"></path><path d="M338.14,62.63c-1.45.84-2.63,3.34-2.63,5.57s1.18,3.38,2.63,2.54,2.63-3.34,2.63-5.57S339.59,61.79,338.14,62.63Z" style="fill:#455a64"></path><path d="M347.61,57.15c-1.45.84-2.63,3.34-2.63,5.57s1.18,3.38,2.63,2.54,2.63-3.34,2.63-5.57S349.07,56.31,347.61,57.15Z" style="fill:#455a64"></path><path d="M357.09,51.67c-1.46.84-2.63,3.34-2.63,5.57s1.17,3.38,2.63,2.54,2.63-3.34,2.63-5.57S358.54,50.84,357.09,51.67Z" style="fill:#455a64"></path><path d="M229.74,352c-.17-.11-.37-.22-.58-.34-.43-.26-.92-.54-1.44-.81v0l-.78-.44-.06,0c-.43-.24-.84-.49-1.23-.7l-1-.58a6.19,6.19,0,0,0-.58-.32,2.73,2.73,0,0,1-.8-.65,3.49,3.49,0,0,1-.62-.94,5.75,5.75,0,0,1-.54-2.47v-208L228,140.2V348.12a6.75,6.75,0,0,0,.49,2.36,3.77,3.77,0,0,0,.85,1.22.83.83,0,0,0,.26.23A.38.38,0,0,0,229.74,352Z" style="fill:#37474f"></path><path d="M239.47,152.85a1.85,1.85,0,0,1,.24-.87l3.35-6.93a.49.49,0,0,1,.15-.2s.07-.06.09-.06a.19.19,0,0,1,.26,0,.46.46,0,0,1,.11.34v2.32a2.81,2.81,0,0,1-.07.72,2.71,2.71,0,0,1-.24.64l-1.76,3.66,1.76,1.62a.82.82,0,0,1,.24.36,2,2,0,0,1,.07.64v2.33a1.15,1.15,0,0,1-.11.47.73.73,0,0,1-.26.32l-.09,0a.17.17,0,0,1-.15,0l-3.35-3.07a.67.67,0,0,1-.24-.59Z" style="fill:#0093ED"></path><path d="M251.72,135.47a3.37,3.37,0,0,1,.26-.68,1.15,1.15,0,0,1,.49-.53l1.26-.73a.2.2,0,0,1,.26,0,.48.48,0,0,1,.11.34,1.38,1.38,0,0,1,0,.26l-5.75,24.47a2.9,2.9,0,0,1-.23.66,1.32,1.32,0,0,1-.51.56l-1.21.7a.2.2,0,0,1-.26,0,.44.44,0,0,1-.11-.34,1.38,1.38,0,0,1,0-.26Z" style="fill:#0093ED"></path><path d="M260.61,142.38a1.85,1.85,0,0,1-.24.87L257,150.18a.6.6,0,0,1-.15.2c-.05,0-.07.06-.09.06a.2.2,0,0,1-.26,0,.51.51,0,0,1-.11-.35v-2.32a2.81,2.81,0,0,1,.07-.72,2.71,2.71,0,0,1,.24-.64l1.76-3.66-1.76-1.62a.82.82,0,0,1-.24-.36,2,2,0,0,1-.07-.64v-2.33a1.15,1.15,0,0,1,.11-.47.73.73,0,0,1,.26-.32l.09,0a.21.21,0,0,1,.15,0l3.35,3.07a.67.67,0,0,1,.24.59Z" style="fill:#0093ED"></path><path d="M269.92,140.77a.25.25,0,0,1,.32,0,.57.57,0,0,1,.14.42v2.56a1.34,1.34,0,0,1-.14.58.86.86,0,0,1-.32.39l-1.58.92a.25.25,0,0,1-.33,0,.53.53,0,0,1-.13-.41v-2.57a1.31,1.31,0,0,1,.13-.57.85.85,0,0,1,.33-.4Z" style="fill:#0093ED"></path><path d="M275.2,137.72a.24.24,0,0,1,.32,0,.53.53,0,0,1,.14.42v2.56a1.21,1.21,0,0,1-.14.58.81.81,0,0,1-.32.39l-1.58.92a.24.24,0,0,1-.32,0,.54.54,0,0,1-.14-.42V139.6a1.33,1.33,0,0,1,.14-.57.84.84,0,0,1,.32-.4Z" style="fill:#0093ED"></path><path d="M280.48,134.67a.25.25,0,0,1,.33,0,.57.57,0,0,1,.13.42v2.56a1.33,1.33,0,0,1-.13.58.82.82,0,0,1-.33.39l-1.58.92a.24.24,0,0,1-.32,0,.54.54,0,0,1-.13-.42v-2.56a1.31,1.31,0,0,1,.13-.57.84.84,0,0,1,.32-.4Z" style="fill:#0093ED"></path><path d="M240.88,171.54l77.42-44.69c.91-.53,1.66-.16,1.66.83a3.57,3.57,0,0,1-1.66,2.75l-77.42,44.7c-.91.53-1.65.15-1.65-.84A3.56,3.56,0,0,1,240.88,171.54Z" style="fill:#0093ED"></path><path d="M265.72,200.23l77.42-44.7c.91-.53,1.66-.15,1.66.84a3.54,3.54,0,0,1-1.66,2.74l-77.42,44.7c-.91.53-1.65.15-1.65-.84A3.53,3.53,0,0,1,265.72,200.23Z" style="fill:#fff"></path><path d="M265.72,228.91l37.06-21.38c.91-.53,1.65-.15,1.65.84a3.56,3.56,0,0,1-1.65,2.75l-37.06,21.37c-.91.53-1.65.16-1.65-.83A3.56,3.56,0,0,1,265.72,228.91Z" style="fill:#e0e0e0"></path><path d="M324.72,123.14l30.84-17.87c.91-.53,1.65-.15,1.65.84a3.53,3.53,0,0,1-1.65,2.74l-30.84,17.88c-.92.53-1.66.15-1.66-.84A3.55,3.55,0,0,1,324.72,123.14Z" style="fill:#0093ED"></path><path d="M240.88,329.28l77.42-44.7c.91-.52,1.66-.15,1.66.84a3.57,3.57,0,0,1-1.66,2.75l-77.42,44.7c-.91.52-1.65.15-1.65-.84A3.56,3.56,0,0,1,240.88,329.28Z" style="fill:#0093ED"></path><path d="M324.72,280.88,355.56,263c.91-.53,1.65-.16,1.65.83a3.56,3.56,0,0,1-1.65,2.75l-30.84,17.87c-.92.53-1.66.16-1.66-.83A3.55,3.55,0,0,1,324.72,280.88Z" style="fill:#0093ED"></path><path d="M324.72,237.93l30.84-17.87c.91-.53,1.65-.15,1.65.84a3.56,3.56,0,0,1-1.65,2.75l-30.84,17.87c-.92.53-1.66.15-1.66-.84A3.55,3.55,0,0,1,324.72,237.93Z" style="fill:#0093ED"></path><path d="M324.72,252.27l30.84-17.87c.91-.53,1.65-.16,1.65.83a3.56,3.56,0,0,1-1.65,2.75l-30.84,17.88c-.92.52-1.66.15-1.66-.84A3.55,3.55,0,0,1,324.72,252.27Z" style="fill:#0093ED"></path><path d="M298.42,253.07l17.32-10c.92-.53,1.66-.15,1.66.84a3.55,3.55,0,0,1-1.66,2.75l-17.32,10c-.92.53-1.66.15-1.66-.84A3.55,3.55,0,0,1,298.42,253.07Z" style="fill:#0093ED"></path><path d="M240.88,185.92,286,159.83c.91-.53,1.65-.15,1.65.83a3.55,3.55,0,0,1-1.65,2.75L240.88,189.5c-.91.53-1.65.16-1.65-.83A3.56,3.56,0,0,1,240.88,185.92Z" style="fill:#0093ED"></path><path d="M240.88,185.92,286,159.83c.91-.53,1.65-.15,1.65.83a3.55,3.55,0,0,1-1.65,2.75L240.88,189.5c-.91.53-1.65.16-1.65-.83A3.56,3.56,0,0,1,240.88,185.92Z" style="fill:#fff;opacity:0.6000000000000001"></path><path d="M240.88,200.23l15.32-8.85c.92-.53,1.66-.16,1.66.83A3.55,3.55,0,0,1,256.2,195l-15.32,8.86c-.91.52-1.65.15-1.65-.84A3.56,3.56,0,0,1,240.88,200.23Z" style="fill:#0093ED"></path><path d="M240.88,200.23l15.32-8.85c.92-.53,1.66-.16,1.66.83A3.55,3.55,0,0,1,256.2,195l-15.32,8.86c-.91.52-1.65.15-1.65-.84A3.56,3.56,0,0,1,240.88,200.23Z" style="fill:#fff;opacity:0.6000000000000001"></path><path d="M240.88,214.57l15.32-8.85c.92-.53,1.66-.16,1.66.83a3.55,3.55,0,0,1-1.66,2.75l-15.32,8.86c-.91.53-1.65.15-1.65-.84A3.56,3.56,0,0,1,240.88,214.57Z" style="fill:#0093ED"></path><path d="M240.88,214.57l15.32-8.85c.92-.53,1.66-.16,1.66.83a3.55,3.55,0,0,1-1.66,2.75l-15.32,8.86c-.91.53-1.65.15-1.65-.84A3.56,3.56,0,0,1,240.88,214.57Z" style="fill:#fff;opacity:0.6000000000000001"></path><path d="M240.88,228.91l15.32-8.85c.92-.53,1.66-.16,1.66.83a3.55,3.55,0,0,1-1.66,2.75l-15.32,8.86c-.91.53-1.65.15-1.65-.84A3.56,3.56,0,0,1,240.88,228.91Z" style="fill:#0093ED"></path><path d="M240.88,228.91l15.32-8.86c.92-.53,1.66-.15,1.66.84a3.55,3.55,0,0,1-1.66,2.75l-15.32,8.85c-.91.53-1.65.16-1.65-.83A3.56,3.56,0,0,1,240.88,228.91Z" style="fill:#fff;opacity:0.6000000000000001"></path><path d="M265.72,214.57l45.16-26.09c.91-.53,1.65-.16,1.65.83a3.56,3.56,0,0,1-1.65,2.75l-45.16,26.09c-.91.53-1.65.16-1.65-.83A3.55,3.55,0,0,1,265.72,214.57Z" style="fill:#0093ED"></path><path d="M317.29,184.77l19.64-11.3c.91-.53,1.65-.15,1.65.84a3.56,3.56,0,0,1-1.65,2.75l-19.64,11.3c-.91.53-1.65.15-1.65-.84A3.56,3.56,0,0,1,317.29,184.77Z" style="fill:#0093ED"></path><path d="M240.88,243.25l15.32-8.85c.92-.53,1.66-.16,1.66.83A3.55,3.55,0,0,1,256.2,238l-15.32,8.86c-.91.53-1.65.15-1.65-.84A3.56,3.56,0,0,1,240.88,243.25Z" style="fill:#0093ED"></path><path d="M240.88,243.25l15.32-8.85c.92-.53,1.66-.16,1.66.83A3.55,3.55,0,0,1,256.2,238l-15.32,8.86c-.91.53-1.65.15-1.65-.84A3.56,3.56,0,0,1,240.88,243.25Z" style="fill:#fff;opacity:0.6000000000000001"></path><path d="M292.45,156.12l19.64-11.3c.91-.52,1.66-.15,1.66.84a3.57,3.57,0,0,1-1.66,2.75l-19.64,11.3c-.91.53-1.65.15-1.65-.84A3.56,3.56,0,0,1,292.45,156.12Z" style="fill:#0093ED"></path><path d="M292.45,156.12l19.64-11.3c.91-.52,1.66-.15,1.66.84a3.57,3.57,0,0,1-1.66,2.75l-19.64,11.3c-.91.53-1.65.15-1.65-.84A3.56,3.56,0,0,1,292.45,156.12Z" style="fill:#fff;opacity:0.6000000000000001"></path><path d="M284.35,232.47l45.16-26.09c.91-.53,1.65-.15,1.65.84a3.56,3.56,0,0,1-1.65,2.75l-45.16,26.09c-.91.52-1.65.15-1.65-.84A3.56,3.56,0,0,1,284.35,232.47Z" style="fill:#e0e0e0"></path><path d="M310.4,231.83l45.16-26.09c.91-.53,1.66-.15,1.66.84a3.54,3.54,0,0,1-1.66,2.74L310.4,235.41c-.91.53-1.65.16-1.65-.83A3.56,3.56,0,0,1,310.4,231.83Z" style="fill:#fff"></path><path d="M335.92,202.68l19.64-11.3c.91-.53,1.65-.16,1.65.83a3.56,3.56,0,0,1-1.65,2.75l-19.64,11.3c-.91.53-1.65.16-1.65-.83A3.55,3.55,0,0,1,335.92,202.68Z" style="fill:#e0e0e0"></path><path d="M335.92,259.48l19.64-11.3c.91-.53,1.65-.16,1.65.83a3.56,3.56,0,0,1-1.65,2.75l-19.64,11.3c-.91.53-1.65.15-1.65-.84A3.53,3.53,0,0,1,335.92,259.48Z" style="fill:#e0e0e0"></path><path d="M265.72,185.89l45.16-26.09c.91-.53,1.65-.15,1.65.84a3.56,3.56,0,0,1-1.65,2.75l-45.16,26.09c-.91.52-1.65.15-1.65-.84A3.56,3.56,0,0,1,265.72,185.89Z" style="fill:#0093ED"></path><path d="M265.72,185.89l45.16-26.09c.91-.53,1.65-.15,1.65.84a3.56,3.56,0,0,1-1.65,2.75l-45.16,26.09c-.91.52-1.65.15-1.65-.84A3.56,3.56,0,0,1,265.72,185.89Z" style="fill:#fff;opacity:0.6000000000000001"></path><path d="M317.29,156.1l19.64-11.3c.91-.53,1.65-.16,1.65.83a3.56,3.56,0,0,1-1.65,2.75l-19.64,11.3c-.91.53-1.65.16-1.65-.83A3.53,3.53,0,0,1,317.29,156.1Z" style="fill:#0093ED"></path><path d="M317.29,156.1l19.64-11.3c.91-.53,1.65-.16,1.65.83a3.56,3.56,0,0,1-1.65,2.75l-19.64,11.3c-.91.53-1.65.16-1.65-.83A3.53,3.53,0,0,1,317.29,156.1Z" style="fill:#fff;opacity:0.6000000000000001"></path><path d="M265.72,214.57l45.16-26.09c.91-.53,1.65-.16,1.65.83a3.56,3.56,0,0,1-1.65,2.75l-45.16,26.09c-.91.53-1.65.16-1.65-.83A3.55,3.55,0,0,1,265.72,214.57Z" style="fill:#fff;opacity:0.6000000000000001"></path><path d="M317.29,184.77l19.64-11.3c.91-.53,1.65-.15,1.65.84a3.56,3.56,0,0,1-1.65,2.75l-19.64,11.3c-.91.53-1.65.15-1.65-.84A3.56,3.56,0,0,1,317.29,184.77Z" style="fill:#fff;opacity:0.6000000000000001"></path></g></g><g id="freepik--Icons--inject-20"><g id="freepik--Java--inject-20"><path d="M419.89,64l-10.77,6.17-10.83-1a.76.76,0,0,0-.37.06c.87-.51,10.31-5.91,10.7-6.12a.68.68,0,0,1,.45-.09Z" style="fill:#0093ED"></path><path d="M419.89,64l-10.77,6.17-10.83-1a.76.76,0,0,0-.37.06c.87-.51,10.31-5.91,10.7-6.12a.68.68,0,0,1,.45-.09Z" style="fill:#fff;opacity:0.5"></path><polygon points="453.36 66.16 414.42 43.67 406.68 48.17 409.53 105.95 426.15 125.63 442.77 125.14 450.51 120.64 453.36 66.16" style="fill:#0093ED"></polygon><polygon points="453.36 66.16 445.63 70.66 406.68 48.17 414.42 43.67 453.36 66.16" style="fill:#fff;opacity:0.5"></polygon><polygon points="453.36 66.16 445.63 70.66 442.77 125.14 450.51 120.64 453.36 66.16" style="opacity:0.15"></polygon><path d="M406.68,48.17l1.08,21.88-9.46-.83a.8.8,0,0,0-.66,1.33l10.72,11.61L409.53,106l16.62,19.68,16.62-.49,2.86-54.48Z" style="fill:#0093ED"></path><polygon points="426.15 65.05 441.63 73.98 439.35 118.8 426.15 119.78 426.15 65.05" style="fill:#fff;opacity:0.5"></polygon><polygon points="437.95 76.26 436.32 112.97 426.15 113.55 415.99 101.23 415.47 90.86 419.15 92.98 419.45 99.17 426.15 107.56 432.85 106.9 433.99 79.61 414.65 68.44 414.36 62.64 437.95 76.26" style="fill:#fff"></polygon></g><g id="freepik--CSS--inject-20"><path d="M419.89,156.26l-10.77,6.17-10.83-1a.9.9,0,0,0-.37.05c.87-.51,10.31-5.91,10.7-6.12a.75.75,0,0,1,.45-.09Z" style="fill:#0093ED"></path><polygon points="453.36 158.42 414.42 135.93 406.68 140.43 409.53 198.21 426.15 217.89 442.77 217.4 450.51 212.9 453.36 158.42" style="fill:#0093ED"></polygon><polygon points="453.36 158.42 445.63 162.91 442.77 217.4 450.51 212.9 453.36 158.42" style="opacity:0.35000000000000003"></polygon><path d="M406.68,140.43l1.08,21.87-9.46-.82a.8.8,0,0,0-.66,1.33l10.72,11.61,1.17,23.79,16.62,19.68,16.62-.49,2.86-54.49Z" style="fill:#0093ED"></path><path d="M406.68,140.43l1.08,21.87-9.46-.82a.8.8,0,0,0-.66,1.33l10.72,11.61,1.17,23.79,16.62,19.68,16.62-.49,2.86-54.49Z" style="opacity:0.25"></path><polygon points="426.15 157.3 441.63 166.24 439.35 211.05 426.15 212.04 426.15 157.3" style="fill:#0093ED;opacity:0.7000000000000001"></polygon><polygon points="414.36 154.9 414.6 160.67 433.99 171.86 433.52 183.24 415.11 172.61 415.35 178.38 433.29 188.74 432.85 199.16 426.15 199.82 419.45 191.42 419.15 185.24 415.47 183.12 415.99 193.49 426.15 205.81 436.32 205.23 437.95 168.51 414.36 154.9" style="fill:#fff"></polygon></g><g id="freepik--HTML--inject-20"><polygon points="453.36 250.66 414.42 228.18 406.68 232.67 409.53 290.45 426.15 310.13 442.77 309.64 450.51 305.14 453.36 250.66" style="fill:#0093ED"></polygon><polygon points="453.36 250.66 445.63 255.16 406.68 232.67 414.42 228.18 453.36 250.66" style="opacity:0.25"></polygon><polygon points="453.36 250.66 445.63 255.16 442.77 309.64 450.51 305.14 453.36 250.66" style="opacity:0.55"></polygon><path d="M419.89,248.5l-10.77,6.17-10.83-.95a.76.76,0,0,0-.37.06c.87-.51,10.31-5.92,10.7-6.13a.83.83,0,0,1,.45-.09Z" style="fill:#0093ED"></path><path d="M419.89,248.5l-10.77,6.17-10.83-.95a.76.76,0,0,0-.37.06c.87-.51,10.31-5.92,10.7-6.13a.83.83,0,0,1,.45-.09Z" style="opacity:0.25"></path><path d="M406.68,232.67l1.08,21.88-9.46-.83a.8.8,0,0,0-.66,1.33l10.72,11.61,1.17,23.79,16.62,19.68,16.62-.49,2.86-54.48Z" style="fill:#0093ED"></path><path d="M406.68,232.67l1.08,21.88-9.46-.83a.8.8,0,0,0-.66,1.33l10.72,11.61,1.17,23.79,16.62,19.68,16.62-.49,2.86-54.48Z" style="opacity:0.4"></path><polygon points="426.15 249.55 441.63 258.48 439.35 303.3 426.15 304.28 426.15 249.55" style="fill:#0093ED;opacity:0.5"></polygon><polygon points="437.95 260.76 414.36 247.14 415.35 270.63 433.29 280.98 432.85 291.41 426.15 292.06 419.45 283.67 419.15 277.48 415.47 275.36 415.99 285.74 426.15 298.05 436.32 297.47 437.19 277.6 418.79 266.98 418.31 255.06 437.66 266.23 437.95 260.76" style="fill:#fff"></polygon></g></g><g id="freepik--Character--inject-20"><g id="freepik--character--inject-20"><path d="M250.31,367.18c-2.8,8.36-5.2,19.16-9,35.43-3.55,15.24-3.57,26,1.36,29.7s19.06,1.44,28-17.6c2.8-6,13.33-24.35,13.33-24.35s7.8-2.81,10.49-4.92c0,0,26,.76,38.64-1.83s26.08-18,20.9-19.54c-9.3-2.74-34.08-3.78-55.07-5.13Z" style="fill:#37474f"></path><path d="M320.75,380.35c-5.69,1.32-14.12-.44-18.87-1.82a12.52,12.52,0,0,0-.16-5,16.43,16.43,0,0,1-2.11,6.32c-.78.44-1.44.81-1.92,1.06-3.16,1.61-11.84,6.05-13.45,4.65a16.94,16.94,0,0,0-9.73-6.17c2.72,1.83,10.6,7.48,7.8,14l1.71-3s7.8-2.81,10.49-4.92c0,0,14.55.42,27.16-.44l15-10.37S329.47,374.21,320.75,380.35Z" style="fill:#263238"></path><path d="M306.17,398.09a16.42,16.42,0,0,1-6.76,4,5.88,5.88,0,0,1-2.54,0c-2.92-.61-7.6-.6-9.24,5.23-1.85,6.61-9.24,9.75-11.21,14.28-1,2.26-1.5,8.81-.54,12.84.8,3.3,7.19.85,9.56-3.18s7.45-9.34,10.8-12.4c5.45-3.07,11.5-7.57,14.08-9.38Z" style="fill:#f28f8f"></path><path d="M344.61,361.82c16.77,1.12,17.34,10,13.15,16.76-4.51,7.25-21,17-30,22.16-8.21,4.73-22.22,13.11-22.22,13.11s-7.09-5.54-6.17-11.77c9.28-6.47,21.78-24.89,37.25-27.45Z" style="fill:#263238"></path><path d="M278.41,436.47a3.83,3.83,0,0,1-2.75-.64c-.75-.53-2.41-5.2-1-10.86a24.15,24.15,0,0,1,6.2-11.14c1.83-1.94,2.49-4.17,3.15-7s2.72-6.3,4.15-6.69,3.6.72,3.6.72Z" style="fill:#263238"></path><path d="M300.52,416.47c-.35,1.8-1.83,2.26-3.42,2.89-2.17.86-4.23,3.1-6.19,5.6-1.33,1.7-2.43,3.4-3.64,5.18s-2.23,4.35-3.53,5.71c-1.91,2-5.77,1.62-6.83-1.21-.92-2.44-1.31-8.5,1.47-14.3,1.52-3.17,5.72-6.24,6.82-10.55.73-2.88,1.74-6.31,3.86-8.5,1.26-1.3,2.41-1,4-.54a51.32,51.32,0,0,0,6.36,1.33,9.66,9.66,0,0,1-1.55,5,4.17,4.17,0,0,0-.8,1.62,3.36,3.36,0,0,0,.11,1.22c.12.56.32,1.21.87,1.37a5.34,5.34,0,0,0,.69.05c.86.11,1.28,1.1,1.5,1.94a8,8,0,0,1,.35,2.79A3.58,3.58,0,0,1,300.52,416.47Z" style="fill:#0093ED"></path><path d="M300.52,416.47c-.35,1.8-1.83,2.26-3.42,2.89-2.17.86-4.23,3.1-6.19,5.6-1.33,1.7-2.43,3.4-3.64,5.18s-2.23,4.35-3.53,5.71c-1.91,2-5.77,1.62-6.83-1.21-.92-2.44-1.31-8.5,1.47-14.3,1.52-3.17,5.72-6.24,6.82-10.55.73-2.88,1.74-6.31,3.86-8.5,1.26-1.3,2.41-1,4-.54a51.32,51.32,0,0,0,6.36,1.33,9.66,9.66,0,0,1-1.55,5,4.17,4.17,0,0,0-.8,1.62,3.36,3.36,0,0,0,.11,1.22c.12.56.32,1.21.87,1.37a5.34,5.34,0,0,0,.69.05c.86.11,1.28,1.1,1.5,1.94a8,8,0,0,1,.35,2.79A3.58,3.58,0,0,1,300.52,416.47Z" style="opacity:0.4"></path><path d="M292.87,422.63a2.61,2.61,0,0,0,1.73-1.81c.45-1.22-.09-3.62-1-5.2a1,1,0,0,0-1.73-.15h0a1.06,1.06,0,0,0-.08,1.21A8,8,0,0,1,292.87,422.63Z" style="fill:#f5f5f5"></path><path d="M290,426.16a3,3,0,0,0,1.67-2.21,9.34,9.34,0,0,0-1.07-5.68,1,1,0,0,0-1.68-.15h0a1,1,0,0,0-.07,1.16A8,8,0,0,1,290,426.16Z" style="fill:#f5f5f5"></path><path d="M287.27,430.14a3.38,3.38,0,0,0,1.57-2.32,9,9,0,0,0-1.13-5.47,1,1,0,0,0-1.68-.15h0a1,1,0,0,0-.07,1.17A7.63,7.63,0,0,1,287.27,430.14Z" style="fill:#f5f5f5"></path><path d="M299.48,400.57c3-.75,7.34-1.81,9.14-4.19s5.55-4.68,10.61-1.35c3.2,2.11,7,2.8,10.8,3.05a35.52,35.52,0,0,1,5.06.24,18.65,18.65,0,0,1,5.6,2.59,9.25,9.25,0,0,1,2.79,2.41,5.72,5.72,0,0,1,.09,6.24,3.12,3.12,0,0,1-.79.87,3.29,3.29,0,0,1-1.32.55c-1.75.39-3.21-.16-4.86-.62-1.37-.38-2.77-.67-4.16-.92a70.11,70.11,0,0,0-9.58-1.12c-1.37-.05-4.22-.27-5.59-.17-5.72.39-13.81,3.61-13.81,3.61Z" style="fill:#ffa8a7"></path><path d="M240,428c.94,5.78,7.43,8.57,21.34,5.79s47-23.63,47-23.63-1.29-8-8.9-10.14c0,0-6.92,1.26-18.22,3.72a146,146,0,0,0-15.07,4.17c-7.64,10.25-15.58,6.11-18.44,9.71C243,423.61,240,428,240,428Z" style="fill:#37474f"></path><path d="M345,409.88a3.84,3.84,0,0,0,1.65-2.3c.21-.89-1.61-5.49-6.39-8.85a24.2,24.2,0,0,0-12-4.29c-2.65-.25-4.62-1.49-7-3.17s-6.19-2.94-7.53-2.29-2.23,2.91-2.23,2.91Z" style="fill:#263238"></path><path d="M315.21,409.4c1.45,1.12,2.87.49,4.48-.08,2.2-.78,5.23-.46,8.35.13,2.12.4,4.07,1,6.15,1.5s4.54,1.8,6.42,2c2.74.23,5.4-2.59,4.34-5.41-.92-2.44-4.62-7.26-10.54-9.79-3.22-1.38-8.4-.93-12.07-3.44-2.45-1.68-5.47-3.61-8.51-3.85-1.8-.15-2.46.85-3.36,2.22a51.83,51.83,0,0,1-3.9,5.2,9.74,9.74,0,0,0,4.48,2.76,4.4,4.4,0,0,1,1.67.68,3.59,3.59,0,0,1,.72,1c.28.49.55,1.12.24,1.6a5.55,5.55,0,0,1-.48.49c-.57.66-.23,1.67.15,2.45a8.13,8.13,0,0,0,1.58,2.33A3,3,0,0,0,315.21,409.4Z" style="fill:#0093ED"></path><path d="M315.21,409.4c1.45,1.12,2.87.49,4.48-.08,2.2-.78,5.23-.46,8.35.13,2.12.4,4.07,1,6.15,1.5s4.54,1.8,6.42,2c2.74.23,5.4-2.59,4.34-5.41-.92-2.44-4.62-7.26-10.54-9.79-3.22-1.38-8.4-.93-12.07-3.44-2.45-1.68-5.47-3.61-8.51-3.85-1.8-.15-2.46.85-3.36,2.22a51.83,51.83,0,0,1-3.9,5.2,9.74,9.74,0,0,0,4.48,2.76,4.4,4.4,0,0,1,1.67.68,3.59,3.59,0,0,1,.72,1c.28.49.55,1.12.24,1.6a5.55,5.55,0,0,1-.48.49c-.57.66-.23,1.67.15,2.45a8.13,8.13,0,0,0,1.58,2.33A3,3,0,0,0,315.21,409.4Z" style="opacity:0.4"></path><path d="M325,409a2.6,2.6,0,0,1-2.49-.22c-1.15-.62-2.32-2.78-2.68-4.57a1,1,0,0,1,1.21-1.25h0a1.05,1.05,0,0,1,.85.85A8,8,0,0,0,325,409Z" style="fill:#f5f5f5"></path><path d="M329.52,409.76a3,3,0,0,1-2.72-.57,9.35,9.35,0,0,1-2.94-5A1,1,0,0,1,325,403h0a1,1,0,0,1,.81.83A8.07,8.07,0,0,0,329.52,409.76Z" style="fill:#f5f5f5"></path><path d="M334.19,411a3.38,3.38,0,0,1-2.71-.71,9,9,0,0,1-2.75-4.86,1,1,0,0,1,1.16-1.22h0a1,1,0,0,1,.82.83A7.67,7.67,0,0,0,334.19,411Z" style="fill:#f5f5f5"></path><path d="M275.79,405s-9.34,1.83-16.27,6.49c0,0,7.12-8.34,18.12-9.83Z" style="fill:#263238"></path><path d="M310.77,333.78,299.13,300.9,296.06,302l1.84,36.32,2,5.4C305.11,341,309.36,339,310.77,333.78Z" style="fill:#ffa8a7"></path><path d="M283.39,292.26c7.21.08,13.79,2.7,16.52,8.35S311,331.93,311,331.93,304.14,340,294,339.35Z" style="fill:#0093ED"></path><path d="M283.39,292.26c7.21.08,13.79,2.7,16.52,8.35S311,331.93,311,331.93,304.14,340,294,339.35Z" style="opacity:0.1"></path><path d="M268.6,292.7c-10.11,1.87-16.85,4-18.76,5.89-4.3,8.81,1.29,38.34,1.29,38.34l1,14.05-1.78,16.2c10.93,9.24,44.38,4.7,50.34-8.24,0,0-1.67-42.12-1.67-49.59s-4.14-16.42-15.59-17.09Z" style="fill:#fafafa"></path><path d="M261.24,360.83c-2.93-4.49-2.81-15.91-2.81-15.91s5.12-29.8,3.94-36.9L248.86,321c.86,8.53,2.27,16,2.27,16l1,14.05-1.78,16.2c8.74,7.39,31.88,6,43.85-1.53C276.63,372.69,264.16,365.32,261.24,360.83Z" style="fill:#ebebeb"></path><path d="M263,269s1.52,11.21,2.33,13.09a5,5,0,0,0,2.71,2.54l.42-7.77Z" style="fill:#263238"></path><path d="M267.15,253.37a5.43,5.43,0,0,0-4.62,1.24c-2.08,1.83-1.46,8.1.49,14.34l4.39.84Z" style="fill:#263238"></path><path d="M268.73,269.89c-.92.46-2.06-1.33-3.07-2.56s-4.46-3.06-6.52.56.9,9,3.65,10.09c4.73,1.88,5.69-1.17,5.69-1.17l-1,17.84c4.39,9.56,21.91,6.15,15.93-.42l.32-4.53a51.5,51.5,0,0,0,7.31.55c3.61-.29,5.25-2.64,6.62-6.42,2.2-6.06,3.24-11,2.67-23.31-.61-13.47-16.13-14.77-24.91-10.12S268.73,269.89,268.73,269.89Z" style="fill:#ffa8a7"></path><path d="M268.42,246.12a43.08,43.08,0,0,1,9.37-2.07c6.88-1,13.88-1.8,20.3-4.47a4.3,4.3,0,0,1,2.48-.51c1.62.33,2.18,2.36,2.12,4a13.46,13.46,0,0,1-.92,4.47,2.59,2.59,0,0,1,3.64.33,4.5,4.5,0,0,1,.77,3.88,9.53,9.53,0,0,1-6,6.49,21.49,21.49,0,0,1-9.06,1.11,61.69,61.69,0,0,1-12.68-1.92,9,9,0,0,0-3.07-.45,2.78,2.78,0,0,0-2.45,1.66c-.57,1.65-1.9,13.08-4.26,13-.44,0-1.89-3-2.91-4.14-1.27-1.4-1.91-11.33-2-13.16a1,1,0,0,0-.16-.4c-1.38-2.28.7-5.78,2.69-6.82A21.52,21.52,0,0,1,268.42,246.12Z" style="fill:#263238"></path><path d="M264.43,254.12a3.24,3.24,0,0,1-4.61-4.56Z" style="fill:#263238"></path><path d="M283.72,289.7s-7.89-1.36-10.56-3a9.21,9.21,0,0,1-3.56-4.09,12.46,12.46,0,0,0,1.85,4.65c1.84,2.75,12.05,5.44,12.05,5.44Z" style="fill:#f28f8f"></path><path d="M284.52,269a1.6,1.6,0,1,1-1.47-1.78A1.63,1.63,0,0,1,284.52,269Z" style="fill:#263238"></path><path d="M283.28,262.84l-3.55,1.63a2.05,2.05,0,0,1,1-2.66A1.91,1.91,0,0,1,283.28,262.84Z" style="fill:#263238"></path><path d="M283.72,280.08l3.54,1.64a1.92,1.92,0,0,1-2.57,1A2,2,0,0,1,283.72,280.08Z" style="fill:#f28f8f"></path><path d="M298.64,265.36l-2.93-2.63a1.88,1.88,0,0,1,2.73-.21A2.07,2.07,0,0,1,298.64,265.36Z" style="fill:#263238"></path><path d="M297.37,269.52a1.6,1.6,0,1,1-1.47-1.78A1.64,1.64,0,0,1,297.37,269.52Z" style="fill:#263238"></path><polygon points="289.24 267.88 289.04 277.5 294.18 276.17 289.24 267.88" style="fill:#f28f8f"></polygon><path d="M238.16,365.91c-6.48-6.52-7.52-8.65-6.64-12.72,1.74-8,8.85-33.61,11.55-41.22,3.39-9.56,4.9-13.38,10.54-14.61,4.55,3.6,9,17.08,2.88,29.22l-7.38,26.5" style="fill:#ffa8a7"></path><path d="M258.45,295c-8.71,1-12.4,4.52-15.54,13.93S234.25,340,234.25,340s7.31,7.92,17.56,7.09l8.54-28.3S266.36,298.21,258.45,295Z" style="fill:#0093ED"></path><path d="M258.45,295c-8.71,1-12.4,4.52-15.54,13.93S234.25,340,234.25,340s7.31,7.92,17.56,7.09l8.54-28.3S266.36,298.21,258.45,295Z" style="opacity:0.1"></path><path d="M256.43,392.48v1a2.89,2.89,0,0,0,1.43,2.48l27.26,15.68a2.86,2.86,0,0,0,2.85,0l50-28.87a2.84,2.84,0,0,0,1.43-2.47v-.7l-52.85,30.52Z" style="fill:#ebebeb"></path><path d="M339.4,379.61,309.76,362.5a1.69,1.69,0,0,0-1.71,0l-51.43,29.69a.38.38,0,0,0,0,.66l29.93,17.28Z" style="fill:#fafafa"></path><path d="M326.22,362.27c-4.07-7.22-15.45-28.49-15.45-28.49l-10.86,10c4.43,8.38,16.46,25.24,16.46,25.24C321.9,372.63,328.56,366.43,326.22,362.27Z" style="fill:#ffa8a7"></path><polygon points="286.27 407.61 270.28 398.39 317.04 371.4 333.11 380.57 286.27 407.61" style="fill:#e0e0e0"></polygon><polygon points="278.42 381.96 278.71 382.13 286.55 386.65 300.49 378.61 300.77 378.44 292.64 373.75 278.42 381.96" style="fill:#e0e0e0"></polygon><polygon points="278.71 382.13 286.55 386.65 300.49 378.61 292.64 374.08 278.71 382.13" style="fill:#e6e6e6"></polygon><path d="M286.55,410.13V412a2.78,2.78,0,0,0,1.42-.38l50-28.87a2.84,2.84,0,0,0,1.43-2.47v-.7Z" style="fill:#ebebeb"></path><path d="M286.55,410.13V412a2.78,2.78,0,0,0,1.42-.38l50-28.87a2.84,2.84,0,0,0,1.43-2.47v-.7Z" style="fill:#e0e0e0"></path><path d="M287.35,410.55a3.37,3.37,0,0,0,2.92-.22l49.78-28.75a3.37,3.37,0,0,0,1.65-2.36l5.45-32.5a3.52,3.52,0,0,0,0-.56,3.37,3.37,0,0,0-1-2.4l-51.73,29.87a2.5,2.5,0,0,0-1.22,1.75Z" style="fill:#0093ED"></path><g style="opacity:0.7000000000000001"><path d="M287.35,410.55a3.37,3.37,0,0,0,2.92-.22l49.78-28.75a3.37,3.37,0,0,0,1.65-2.36l5.45-32.5a3.52,3.52,0,0,0,0-.56,3.37,3.37,0,0,0-1-2.4l-51.73,29.87a2.5,2.5,0,0,0-1.22,1.75Z" style="fill:#fff"></path></g><path d="M286.55,410.13l.34.2a3.88,3.88,0,0,0,.46.22l5.89-35.17a2.5,2.5,0,0,1,1.22-1.75l51.73-29.87a3.32,3.32,0,0,0-.69-.53l-51.84,29.93a2.48,2.48,0,0,0-1.21,1.75Z" style="fill:#fafafa"></path><path d="M315.39,380.55c.36-2.18,2.61-5.07,5-6.46s4.06-.75,3.69,1.43-2.61,5.06-5,6.45S315,382.73,315.39,380.55Z" style="fill:#0093ED"></path><path d="M249.11,353.08s3.74,6.21,8.06,12,9,11.89,12.5,12.92c3.29,1,7.15,2.13,8.27,3.16a86.23,86.23,0,0,1,7.5,8.7c1,1.71,3.51,5.19,0,6.3-3.21,1-5.83-.36-8.43-2.15a33.78,33.78,0,0,1-3.49-2.87,12.75,12.75,0,0,1-7.53-1.5c-2-1.12-5.3-3.08-5.3-3.08-2.74-1.88-16.35-14.48-22.53-20.68" style="fill:#ffa8a7"></path></g></g></svg>