<svg xmlns="http://www.w3.org/2000/svg" viewBox="0 0 500 500"><g id="freepik--Shadow--inject-44"><ellipse id="freepik--path--inject-44" cx="250" cy="415.69" rx="193.89" ry="11.32" style="fill:#f5f5f5"/></g><g id="freepik--Plant--inject-44"><path d="M357.59,378.73c-1-37.71,2.07-64.37,9.3-81.5l1.85.78c-7.12,16.86-10.11,43.24-9.15,80.67Z" style="fill:#263238"/><path d="M364.11,302.9c-5.92,6.1-8.68,9.2-13.81,15.45a157.76,157.76,0,0,1,9.92-16.66c-8.41,1.84-12.58,2.77-20.82,4.65,7.56-3.86,11.45-5.77,19.42-9.54l-23.36-7.22L361.54,291c-5.72-9.95-8.28-14.85-12.81-24.39,6.52,7.43,9.93,11.2,17,18.85a216,216,0,0,1,8.13-32.59,140.89,140.89,0,0,0-2.23,28.7l.49.09a232.21,232.21,0,0,1,25.12-24.57A188.17,188.17,0,0,0,374.54,287q14.58-5.49,29.37-10.47c-9.89,5.41-19.53,11-29.16,16.82L398.9,301l-25-1.51c5.25,6.16,8,9.26,13.65,15.51-7-4.63-10.49-6.94-17.34-11.54a160.83,160.83,0,0,0,3.43,19.07c-3.41-7.79-4.92-11.66-7.55-19.31Z" style="fill:#0093ed"/><g style="opacity:.30000000000000004"><path d="M364.11,302.9c-5.92,6.1-8.68,9.2-13.81,15.45a157.76,157.76,0,0,1,9.92-16.66c-8.41,1.84-12.58,2.77-20.82,4.65,7.56-3.86,11.45-5.77,19.42-9.54l-23.36-7.22L361.54,291c-5.72-9.95-8.28-14.85-12.81-24.39,6.52,7.43,9.93,11.2,17,18.85a216,216,0,0,1,8.13-32.59,140.89,140.89,0,0,0-2.23,28.7l.49.09a232.21,232.21,0,0,1,25.12-24.57A188.17,188.17,0,0,0,374.54,287q14.58-5.49,29.37-10.47c-9.89,5.41-19.53,11-29.16,16.82L398.9,301l-25-1.51c5.25,6.16,8,9.26,13.65,15.51-7-4.63-10.49-6.94-17.34-11.54a160.83,160.83,0,0,0,3.43,19.07c-3.41-7.79-4.92-11.66-7.55-19.31Z"/></g><path d="M344.3,311.88c6.95,4.9,10.24,7.43,16.45,12.6A158.88,158.88,0,0,0,347.89,310c8.61.24,12.87.38,21.32.68-8.15-2.38-12.32-3.53-20.85-5.74L370,293.45l-25.36,6.23c3.76-10.85,5.36-16.14,8-26.36-5,8.51-7.66,12.86-13.23,21.7a216.4,216.4,0,0,0-14.07-30.5,139.92,139.92,0,0,1,7.55,27.78l-.46.18A233.35,233.35,0,0,0,303.14,273a187.56,187.56,0,0,1,27.94,25.18c-10.23-1.79-20.52-3.39-30.81-4.8,10.73,3.46,21.24,7.12,31.79,11.07l-22.29,12.07L334,310.41c-4,7-6.12,10.59-10.52,17.78,6-5.86,9-8.78,14.88-14.58a158.06,158.06,0,0,1,.19,19.38c1.9-8.28,2.66-12.37,3.82-20.37Z" style="fill:#0093ed"/><path d="M355.64,378.72l-2,0c.33-26.25-3.42-47.89-11.81-68.09l1.85-.77C352.18,330.29,356,352.18,355.64,378.72Z" style="fill:#263238"/><path d="M361.32,378.78l-2-.09c.81-18,5.87-40.05,12.88-56.21l1.83.8C367.11,339.23,362.12,361,361.32,378.78Z" style="fill:#263238"/><path d="M371.82,322.88c-5.07,3.56-7.47,5.41-12,9.18a115,115,0,0,1,9.38-10.58c-6.28.17-9.39.28-15.54.5,5.93-1.73,9-2.57,15.2-4.19l-15.75-8.35L371.6,314c-2.74-7.9-3.9-11.76-5.85-19.21,3.66,6.2,5.58,9.37,9.65,15.82a156.46,156.46,0,0,1,10.25-22.24,102.12,102.12,0,0,0-5.5,20.25l.33.13a169.48,169.48,0,0,1,21.34-14.17,136.43,136.43,0,0,0-20.37,18.35q11.19-1.95,22.46-3.5c-7.82,2.53-15.48,5.19-23.17,8.07l16.25,8.8-17.68-4.48c2.92,5.13,4.46,7.72,7.67,13-4.4-4.28-6.57-6.4-10.85-10.63a116.42,116.42,0,0,0-.14,14.13c-1.38-6-1.94-9-2.78-14.86Z" style="fill:#0093ed"/><g style="opacity:.2"><path d="M371.82,322.88c-5.07,3.56-7.47,5.41-12,9.18a115,115,0,0,1,9.38-10.58c-6.28.17-9.39.28-15.54.5,5.93-1.73,9-2.57,15.2-4.19l-15.75-8.35L371.6,314c-2.74-7.9-3.9-11.76-5.85-19.21,3.66,6.2,5.58,9.37,9.65,15.82a156.46,156.46,0,0,1,10.25-22.24,102.12,102.12,0,0,0-5.5,20.25l.33.13a169.48,169.48,0,0,1,21.34-14.17,136.43,136.43,0,0,0-20.37,18.35q11.19-1.95,22.46-3.5c-7.82,2.53-15.48,5.19-23.17,8.07l16.25,8.8-17.68-4.48c2.92,5.13,4.46,7.72,7.67,13-4.4-4.28-6.57-6.4-10.85-10.63a116.42,116.42,0,0,0-.14,14.13c-1.38-6-1.94-9-2.78-14.86Z" style="fill:#fff"/></g><path d="M362.86,418.29H354.7a16.07,16.07,0,0,1-16-14.85l-2.59-34.34h45.38l-2.59,34.34A16.06,16.06,0,0,1,362.86,418.29Z" style="fill:#263238"/><path d="M362.86,418.29H354.7a16.07,16.07,0,0,1-16-14.85l-2.59-34.34h45.38l-2.59,34.34A16.06,16.06,0,0,1,362.86,418.29Z" style="fill:#fff;opacity:.6000000000000001"/><polygon points="384.41 372.22 332.77 372.22 331.85 364.18 385.34 364.18 384.41 372.22" style="fill:#0093ed"/><polygon points="384.41 372.22 332.77 372.22 331.85 364.18 385.34 364.18 384.41 372.22" style="fill:#fff;opacity:.6000000000000001"/></g><g id="freepik--character-2--inject-44"><path d="M287.53,103.71c.45-.07.92.4,1.05,1.08s-.12,1.31-.56,1.39-.92-.4-1-1.08S287.08,103.79,287.53,103.71Z" style="fill:#263238"/><path d="M288.74,112.73a4,4,0,0,0,3.15-1.24,24.83,24.83,0,0,1-4.38-5.21Z" style="fill:#b74d3c"/><path d="M284,101.72a3.23,3.23,0,0,1,2.74-1.13h0a.31.31,0,0,0,.13,0,.41.41,0,0,0,.42-.41.41.41,0,0,0-.4-.42,4,4,0,0,0-3.47,1.31.4.4,0,0,0-.11.27.41.41,0,0,0,.4.43A.43.43,0,0,0,284,101.72Z" style="fill:#263238"/><path d="M278.67,143.06c-11.7-.12-13.36-6.52-13.36-6.52,3.54-3.33,3.85-9.57,3.22-15.15a12.93,12.93,0,0,0,3.41,3.39,10.69,10.69,0,0,0,8.54,1.72.3.3,0,0,0,.14,0c0,.11-.05.23-.07.34-.79,4.44-.27,9.23,4.38,10.72C284.93,137.51,291.56,143.19,278.67,143.06Z" style="fill:#cb7a63"/><path d="M281,124.81a16.38,16.38,0,0,0-.36,1.64.3.3,0,0,1-.14,0,10.69,10.69,0,0,1-8.54-1.72,12.93,12.93,0,0,1-3.41-3.39c-.15-1.42-.38-2.8-.61-4.07l12.59,7.23Z" style="fill:#cb7a63"/><path d="M289.56,115.44a11.85,11.85,0,0,1-6,9.83h0a.06.06,0,0,1-.05,0,10.07,10.07,0,0,1-2.91,1.16.3.3,0,0,1-.14,0,10.69,10.69,0,0,1-8.54-1.72,12.93,12.93,0,0,1-3.41-3.39c-2.23-3.2-3.09-7.41-4.61-13.35a11.65,11.65,0,0,1,13.59-14.47C286.36,95.33,289.9,107.54,289.56,115.44Z" style="fill:#cb7a63"/><path d="M283.53,125.29a10.07,10.07,0,0,1-2.91,1.16c-.05,0,.43-5.2.43-5.2S282.91,125.28,283.53,125.29Z" style="opacity:.2"/><path d="M286.41,108.75a12.4,12.4,0,0,1-2,1.44c-3.06,1.41-1.78,8.18-4.55,10.19a2.48,2.48,0,0,1-.4.26l-.44.23h0l-5.78,3-4.71-2.46s-5.75-5-8.5-9.73a67.51,67.51,0,0,0,24.78-10.57c.11.53.19,1,.24,1.41.1,1-1.3,2.27-.79,2.77A8.53,8.53,0,0,1,286.41,108.75Z" style="fill:#cb7a63"/><path d="M286.41,108.75a12.4,12.4,0,0,1-2,1.44c-3.06,1.41-1.78,8.18-4.55,10.19a2.48,2.48,0,0,1-.4.26l-.44.23h0l-5.78,3-4.71-2.46s-5.75-5-8.5-9.73a67.51,67.51,0,0,0,24.78-10.57c.11.53.19,1,.24,1.41.1,1-1.3,2.27-.79,2.77A8.53,8.53,0,0,1,286.41,108.75Z" style="opacity:.30000000000000004"/><path d="M284.81,101.09A67.51,67.51,0,0,1,260,111.66c-.15-.24-.28-.48-.4-.71a8.5,8.5,0,0,1-1-3.18c-.38-5.31,1.78-11.88,7.61-14.09a86.45,86.45,0,0,1,13.16-3.51s3.77,1,4.15,3a4.12,4.12,0,0,1-.52,3.06,13.15,13.15,0,0,1,1.73,4.44Z" style="fill:#263238"/><path d="M281.14,104.57c2.45.77,3.66,4.42,3.71,6.72.07,2.55-1.66,4.12-3.84,2.37a9.65,9.65,0,0,1-3.29-5.26C277.17,105.9,278.7,103.79,281.14,104.57Z" style="fill:#cb7a63"/><g id="freepik--group--inject-44"><path d="M262,137.92s1.83-5.27,4.46-6.89,14,.35,15.76,1.09,3.48,4.88,3.48,4.88Z" style="fill:#0093ed"/><path d="M262,137.92s1.83-5.27,4.46-6.89,14,.35,15.76,1.09,3.48,4.88,3.48,4.88Z" style="fill:#fff;opacity:.6000000000000001"/><polygon points="284.86 184.11 307.21 180.48 304.65 171.77 282.07 173.9 284.86 184.11" style="fill:#0093ed"/><polygon points="284.86 184.11 307.21 180.48 304.65 171.77 282.07 173.9 284.86 184.11" style="opacity:.2;isolation:isolate"/><path d="M289.26,136.23c-1.76-.33-3.72-.64-5.74-.84a153.51,153.51,0,0,0-18.2-.18l-4,.29c-6.36.34-12.85,5.7-11.7,12,6.31,34.45,3.91,53.56,3.15,59.14l42.84.42c5.16-35.16,4.31-53,2.75-61.63A11.34,11.34,0,0,0,289.26,136.23Z" style="fill:#0093ed"/><path d="M297.26,194.62,295.64,207c3.32-25.41,4.64-36,3.63-53.72l-11.07-3.53C295.06,173,292.59,178.69,297.26,194.62Z" style="opacity:.1;isolation:isolate"/><path d="M271,410.14a.19.19,0,0,1-.16-.17.2.2,0,0,1,.09-.2c.16-.07,3.13-1.76,4.55-1.37a1,1,0,0,1,.65.46.75.75,0,0,1,0,.88c-.35.5-1.36.65-2.5.64A14.57,14.57,0,0,1,271,410.14Zm4-1.42a9.11,9.11,0,0,0-3.34,1.08c1.58.22,3.74.21,4.13-.33.09-.08.14-.2,0-.45a.56.56,0,0,0-.4-.28,1.28,1.28,0,0,0-.39,0Z" style="fill:#0093ed"/><path d="M270.92,410.1a.28.28,0,0,1-.09-.19c0-.1.18-2.38,1.31-3.28a1.5,1.5,0,0,1,1.14-.33c.55.05.75.34.75.56.17,1-1.86,2.79-2.89,3.26h-.08A.22.22,0,0,1,270.92,410.1Zm2.22-3.42a1,1,0,0,0-.71.29,4.68,4.68,0,0,0-1.12,2.63c1.05-.64,2.42-2.08,2.32-2.66,0,0,0-.22-.4-.23h-.11Z" style="fill:#0093ed"/><polygon points="262.45 390.32 270.92 390.33 270.2 409.91 261.68 409.9 262.45 390.32" style="fill:#cb7a63"/><path d="M272.21,409.6c5.79,3.56,7.58,3.72,14.28,5.19,1.46.32.53,3.87-3,3.86-5.8,0-6.41-.28-11.35-.29-4.24,0-9.11.18-12.48.23l-.3,0a1.24,1.24,0,0,1-.92-1.49l1.65-7.57a.74.74,0,0,1,.72-.58l9.32,0A3.9,3.9,0,0,1,272.21,409.6Z" style="fill:#263238"/><polygon points="262.44 390.33 262.05 400.39 270.56 400.4 270.92 390.34 262.44 390.33" style="opacity:.2;isolation:isolate"/><polygon points="204.69 390.2 212.96 390.8 208.08 410.54 199.76 409.93 204.69 390.2" style="fill:#cb7a63"/><path d="M198.25,408.64c-2.58,2.36-3.94,3.58-10.69,4.83-1.49.27-.67,3.84,2.84,3.95,5.81.18,2.64-.19,7.59,0,4.23.12,7.77.48,11.13.64a1.27,1.27,0,0,0,.34,0,1.24,1.24,0,0,0,1-1.45l-1.38-7.62a.74.74,0,0,0-.7-.6l-8-.29A2.94,2.94,0,0,0,198.25,408.64Z" style="fill:#263238"/><polygon points="204.68 390.21 202.15 400.35 210.44 400.95 212.96 390.8 204.68 390.21" style="opacity:.2;isolation:isolate"/><path d="M252.76,206.6a88.32,88.32,0,0,0-7.85,15.77c-4.53,12.29-2.93,18.71-4.44,27-2.68,14.64-6.67,25.86-9.48,37-8.75,34.75-30.47,108.11-30.47,108.11l14.94,3.29s30.94-85.23,38.8-110.09c7.09-22.37,25.27-81.14,25.27-81.14Z" style="fill:#0093ed"/><path d="M252.76,206.6a88.32,88.32,0,0,0-7.85,15.77c-4.53,12.29-2.93,18.71-4.44,27-2.68,14.64-6.67,25.86-9.48,37-8.75,34.75-30.47,108.11-30.47,108.11l14.94,3.29s30.94-85.23,38.8-110.09c7.09-22.37,23.45-81.16,23.45-81.16Z" style="opacity:.6000000000000001"/><path d="M198.77,391.72l-.16,5.31,18,2s1.59-5.8,1.53-5.8Z" style="fill:#0093ed"/><path d="M198.77,391.72l-.16,5.31,18,2s1.59-5.8,1.53-5.8Z" style="fill:#fff;opacity:.6000000000000001"/><path d="M271.13,233.62c-5.73,18.45-13,41.8-16.86,54.05-.18.59-.39,1.2-.59,1.86,1.53-20.46,5.54-54.76,15.83-56A3.85,3.85,0,0,1,271.13,233.62Z" style="opacity:.30000000000000004;isolation:isolate"/><path d="M266.54,206.52s-4.37,56.38-4.87,83c-.45,24.84-1.85,108.88-1.85,108.88l14.4,0s10.1-85.56,12.65-110.78C289.3,263.79,295.6,207,295.6,207Z" style="fill:#0093ed"/><path d="M266.54,206.52s-4.37,56.38-4.87,83c-.45,24.84-1.85,108.88-1.85,108.88l14.4,0s10.1-85.56,12.65-110.78C289.3,263.79,295.6,207,295.6,207Z" style="opacity:.6000000000000001"/><path d="M257.68,393.38l.49,5.29,17.51,0s.83-5.92.76-5.92Z" style="fill:#0093ed"/><path d="M257.68,393.38l.49,5.29,17.51,0s.83-5.92.76-5.92Z" style="fill:#fff;opacity:.6000000000000001"/><path d="M199.08,408.31a.2.2,0,0,1-.09.21.18.18,0,0,1-.22,0c-.13-.11-2.81-2.22-3-3.67a1.06,1.06,0,0,1,.19-.77.77.77,0,0,1,.82-.35c.58.14,1.09,1,1.53,2.07A15.85,15.85,0,0,1,199.08,408.31Zm-2.79-3.13a9.12,9.12,0,0,0,2.22,2.68c-.38-1.55-1.19-3.54-1.85-3.69-.09-.06-.23-.05-.41.17a.64.64,0,0,0-.11.48,1.14,1.14,0,0,0,.15.36Z" style="fill:#0093ed"/><path d="M199.1,408.39a.17.17,0,0,1-.14.14c-.09,0-2.28.75-3.52.05a1.45,1.45,0,0,1-.74-.92c-.16-.53,0-.82.24-.91.84-.51,3.29.66,4.1,1.43l0,.07A.17.17,0,0,1,199.1,408.39Zm-4-.72a1.07,1.07,0,0,0,.53.54,4.74,4.74,0,0,0,2.84,0c-1-.74-2.82-1.45-3.32-1.14-.05,0-.21.11-.07.44l0,.12Z" style="fill:#0093ed"/></g><g style="opacity:.6000000000000001"><path d="M277.7,209.2c5,0,11.35.08,15.71-.13L293,212.5a113.61,113.61,0,0,1-15.33.82Z" style="fill:#fff"/><path d="M263.8,208.79c3.36.11,9.31.36,12.1.33l-.1,4.1c-2.47,0-2.17,0-5.1-.05l-7.37-.26Z" style="fill:#fff"/><path d="M253.16,208.14c2.07.24,6.83.43,8.83.59l-.53,4.12c-2.26-.18-7.66-.31-9.78-1.64Z" style="fill:#fff"/></g><path d="M311.36,169.16l1.24-.18c2.44-.34,4.31,4.24,4.31,4.24a3.81,3.81,0,0,1-2.56,3.23L303.94,180l-.33-6.46,3.66-2.69A9.13,9.13,0,0,1,311.36,169.16Z" style="fill:#cb7a63"/><path d="M313,182.87c5.65-3.42-6.63-30.56-13-40.47-5.32-8.24-16.26-6-16.26-6C298.91,181.54,305.23,187.57,313,182.87Z" style="fill:#0093ed"/></g><g id="freepik--character-1--inject-44"><path d="M245.39,212.25a18.82,18.82,0,0,1,1.43,7l-2.25-3.2S244.86,214.52,245.39,212.25Z" style="opacity:.2;isolation:isolate"/><path d="M239.75,108.9c-4.29,1.59-6.24,5.09-8.5,9.5-2.08,4.07-2,11.15,0,14.28.64,1,2.45.8,3.38,1.49-2.13-3.36-1.84-7.45-1.15-11.37.15,3.88.43,8.8,2.62,12,1.2.17,3.12.69,4.31.86a31.62,31.62,0,0,1-2.38-11,32.87,32.87,0,0,0,3.95,11c1.44.1,2.64.27,4.08.36-.44-4.7-1.7-9.6-2.14-14.31C243.53,117.56,239.75,108.9,239.75,108.9Z" style="fill:#263238"/><polygon points="185.83 408.13 193.43 409.68 199.17 394.08 190.88 390.4 185.83 408.13" style="fill:#ffb573"/><polygon points="189.02 396.92 190.72 390.99 194.55 392.03 199.17 394.08 197.16 399.55 189.02 396.92" style="opacity:.1"/><path d="M184.7,406.67s-.3-.29-.69-.63-.62-.51-1-.78a4.85,4.85,0,0,0-2.44-1.11,1.05,1.05,0,0,0-.74.3.78.78,0,0,0-.25.87c.23.53,1.26,1,2.3,1.28l.71.16a15.88,15.88,0,0,0,1.94.27h0a.2.2,0,0,0,.18-.13A.2.2,0,0,0,184.7,406.67Zm-1.59-.22c-1.43-.26-2.93-.74-3.14-1.28,0-.08-.05-.22.16-.43a.59.59,0,0,1,.46-.17,1.07,1.07,0,0,1,.4.05,8.79,8.79,0,0,1,2.54,1.6c.14.11.29.24.43.37C183.69,406.56,183.4,406.5,183.11,406.45Z" style="fill:#0093ed"/><path d="M184.31,403.29a1.53,1.53,0,0,0-1-.62c-.56-.1-.8.14-.89.36-.22.48.12,1.38.62,2.23a10,10,0,0,0,.63.92,6.9,6.9,0,0,0,.77.81.12.12,0,0,0,.09,0h0a.16.16,0,0,0,.1,0,.22.22,0,0,0,.13-.15,8.89,8.89,0,0,0,.08-.95A4.47,4.47,0,0,0,184.31,403.29Zm.09,3.08c-.1-.11-.2-.22-.3-.35-.79-.93-1.52-2.37-1.34-2.86,0,0,.09-.19.46-.12l.11,0a1.07,1.07,0,0,1,.62.42,4.69,4.69,0,0,1,.49,2.46C184.43,406.09,184.42,406.23,184.4,406.37Z" style="fill:#0093ed"/><path d="M185.7,406.07l9.18,2.37a.78.78,0,0,1,.57.77l-.27,7.89a1.27,1.27,0,0,1-1.31,1.24,1.17,1.17,0,0,1-.26,0c-3.3-.91-6.19-1.85-10.31-2.91-4.87-1.26-3.78-.36-9.52-1.75-3.46-.85-3.08-4.93-1.57-4.74,6.91.89,8.12-.95,11.32-2.68A3.07,3.07,0,0,1,185.7,406.07Z" style="fill:#0093ed"/><polygon points="240.49 409.67 247.76 409.67 249.91 396.26 241.02 394.42 240.49 409.67" style="fill:#ffb573"/><polygon points="241.02 394.42 249.91 396.26 248.91 402.49 240.75 402.12 241.02 394.42" style="opacity:.1"/><path d="M238.08,409.63s-.36-.21-.83-.44c-.31-.15-.7-.32-1.13-.49a4.72,4.72,0,0,0-2.67-.45,1,1,0,0,0-.64.48.77.77,0,0,0,0,.9,3.74,3.74,0,0,0,2.55.64l.72,0A17.48,17.48,0,0,0,238,410h0a.25.25,0,0,0,.16-.18A.21.21,0,0,0,238.08,409.63Zm-1.6.19c-1.44.11-3,0-3.35-.44-.06-.07-.12-.19,0-.45a.57.57,0,0,1,.4-.29,1.76,1.76,0,0,1,.39-.06,9.34,9.34,0,0,1,2.87.91,2.67,2.67,0,0,1,.51.25Z" style="fill:#0093ed"/><path d="M238.21,409.81a7.48,7.48,0,0,0-.15-.93,4.62,4.62,0,0,0-1.22-2.43,1.46,1.46,0,0,0-1.14-.33c-.58.05-.75.33-.77.57-.1.54.48,1.33,1.19,2a7.44,7.44,0,0,0,.82.7,4.72,4.72,0,0,0,1,.6.11.11,0,0,0,.08,0h.14A.21.21,0,0,0,238.21,409.81Zm-2.9-3.08c0-.06,0-.2.41-.24h.11a1.07,1.07,0,0,1,.72.26,4.9,4.9,0,0,1,1.1,2.25,3,3,0,0,1,.06.4l-.38-.25C236.33,408.45,235.26,407.25,235.31,406.73Z" style="fill:#0093ed"/><path d="M238.89,408.79l9.48-.06a.77.77,0,0,1,.75.6l1.76,7.7a1.27,1.27,0,0,1-.94,1.53l-.27,0c-3.42,0-6.46-.21-10.72-.18-5,0-3.74.62-9.64.74-3.56.07-4.24-4-2.73-4.18,6.9-.91,7.61-3,10.25-5.48A3,3,0,0,1,238.89,408.79Z" style="fill:#0093ed"/><path d="M231.25,147.86a38.35,38.35,0,0,0-5.72,11.83,46.58,46.58,0,0,0-1.39,5.77l-1,2.49-8.51-3.19-1.34-.49c2.07-8.8,10.09-16.76,16-16.64A6.66,6.66,0,0,1,231.25,147.86Z" style="fill:#0093ed"/><path d="M231.25,147.86a38.35,38.35,0,0,0-5.72,11.83,46.58,46.58,0,0,0-1.39,5.77l-1,2.49-8.51-3.19-1.34-.49c2.07-8.8,10.09-16.76,16-16.64A6.66,6.66,0,0,1,231.25,147.86Z" style="opacity:.6000000000000001"/><path d="M224.14,165.46c-.16.88-.29,1.78-.4,2.7l-.56-.21Z" style="fill:#263238"/><path d="M269.32,155.52l-9.45,54.39-1,8.79h-36.7v-7.43l2-27.14-.22-1.53a56.22,56.22,0,0,1-.16-14.44c1.52-12.49,7-19.64,7.51-20.3l.06-.05c5.49,0,10.33.35,14.24.67,5.16.4,20.52,2.87,20.52,2.87A3.58,3.58,0,0,1,269.32,155.52Z" style="fill:#0093ed"/><path d="M269.32,155.52l-9.45,54.39-1,8.79h-36.7v-7.43l2-27.14-.22-1.53a56.22,56.22,0,0,1-.16-14.44c1.52-12.49,7-19.64,7.51-20.3l.06-.05c5.49,0,10.33.35,14.24.67,5.16.4,20.52,2.87,20.52,2.87A3.58,3.58,0,0,1,269.32,155.52Z" style="opacity:.6000000000000001"/><path d="M238,148.72c5.55-.94,6.59-5.54,6.16-9.74l11.77-7.43c-1.65,4.71-3.81,13-2,17.75,0,0,.06,4.57-10.09,4.57S238,148.72,238,148.72Z" style="fill:#ffb573"/><path d="M244.12,139l7.81-4.93a4.08,4.08,0,0,1-.31,3.52c-1.39,2.62-4.86,4.28-7.49,4.39A14.14,14.14,0,0,0,244.12,139Z" style="opacity:.2;isolation:isolate"/><path d="M260.52,121.81c-2.26,8.07-3.18,12.9-8.22,16.2-7.56,5-16.84-1-17-9.53-.16-7.76,3.57-19.61,12.27-21.14a11.43,11.43,0,0,1,13.27,9.21A11.56,11.56,0,0,1,260.52,121.81Z" style="fill:#ffb573"/><path d="M261.62,128.25a7.61,7.61,0,0,1-5.3,2.26c-2.65,0-3.28-2.53-1.95-4.66,1.19-1.91,4-4.23,6.37-3.22S263.32,126.47,261.62,128.25Z" style="fill:#ffb573"/><path d="M247.22,121.41c-.14.67-.61,1.13-1.05,1s-.66-.71-.52-1.38.61-1.13,1-1S247.37,120.75,247.22,121.41Z" style="fill:#263238"/><path d="M239.7,119.79c-.14.66-.61,1.12-1,1s-.67-.71-.53-1.37.61-1.14,1.05-1S239.85,119.12,239.7,119.79Z" style="fill:#263238"/><path d="M242.44,120.64a24.42,24.42,0,0,1-4.41,5,4,4,0,0,0,3.05,1.29Z" style="fill:#ed893e"/><path d="M250.48,118.85a.67.67,0,0,0,.2,0,.42.42,0,0,0,.2-.54,4,4,0,0,0-2.83-2.29.4.4,0,0,0-.46.33.41.41,0,0,0,.34.46h0a3.18,3.18,0,0,1,2.22,1.84A.42.42,0,0,0,250.48,118.85Z" style="fill:#263238"/><path d="M237.43,116.12a.36.36,0,0,0,.35-.15,3.16,3.16,0,0,1,2.56-1.29.4.4,0,1,0,.07-.8,4,4,0,0,0-3.29,1.6.4.4,0,0,0,.06.55h0A.38.38,0,0,0,237.43,116.12Z" style="fill:#263238"/><path d="M239.27,118.48l-1.59-.81S238.29,119.15,239.27,118.48Z" style="fill:#263238"/><path d="M246.93,120.19l-1.59-.82S246,120.86,246.93,120.19Z" style="fill:#263238"/><path d="M242.43,130.14a7.1,7.1,0,0,1-1.22-.11.21.21,0,0,1-.18-.24h0a.22.22,0,0,1,.24-.18,5.8,5.8,0,0,0,5-1.4.21.21,0,0,1,.3,0,.22.22,0,0,1,0,.31A6.07,6.07,0,0,1,242.43,130.14Z" style="fill:#263238"/><path d="M222.16,209.91,189.82,390.26,201.38,394c8.65-23,15.9-46.56,21.3-65,2.56-8.74,3.59-17,5.55-24.66,2.33-9.16,5.48-17.58,7.08-25.27,8.38-40.27,7.7-60.44,7.7-60.44v-8.74Z" style="fill:#0093ed"/><path d="M239.68,239.84l.75,10.17c-1.14,8.12-2.77,17.81-5.12,29.08-.76,3.66-1.88,7.49-3.08,11.48-1.42-25.79,4.48-57.14,4.48-57.14Z" style="opacity:.30000000000000004"/><path d="M234.63,212.6l4.85,184,11.92.91c3.31-21,5.75-40.12,7.49-57.31C260,329,259.68,318.6,260.3,309c1.15-17.81,2.71-32.89,2.62-45.33-.2-30.67-2-34-3-45.33-.2-2.09,0-8.41,0-8.41H234.63Z" style="fill:#0093ed"/><polygon points="253.06 394.37 238.37 393.46 238.37 398.16 252.2 399.07 253.06 394.37" style="fill:#263238"/><path d="M250.16,396.29l-.5-.05,5-48.7a175.06,175.06,0,0,0,.91-19.16l0-7.2,2.69-55.95a107.63,107.63,0,0,0-.08-12.05l-2.49-40.11.5,0,2.49,40.11a108.53,108.53,0,0,1,.08,12.1L256,321.19l.05,7.19a176.27,176.27,0,0,1-.91,19.22Z" style="opacity:.4"/><path d="M247.54,212.06c5-.1,6.87-.06,11.21-.38l-.21,3.63a57.54,57.54,0,0,1-10.9.87Z" style="fill:#263238"/><path d="M233.21,212c3.37,0,9.75.11,12.53,0v4.11c-2.46.1-2.16.08-5.09.08l-7.38-.07Z" style="fill:#263238"/><path d="M224.1,211.68c2.08.19,5.3.22,7.3.33v4.12c-2.26-.12-5.75-.17-8.1-.39Z" style="fill:#263238"/><polygon points="203.3 391.81 189.19 387.63 188.14 392.21 201.42 396.19 203.3 391.81" style="fill:#263238"/><path d="M239,179.16c.71,1,6.45,0,6.45,0l4.92.34a1.08,1.08,0,0,0,1.08-.94l1.38-6.22a.57.57,0,0,0-.47-.63l-3.89-.7a6.12,6.12,0,0,0-4.5,1l-4.12,2.8Z" style="fill:#ffb573"/><path d="M240.05,174.45l-.25,4.8s-22.15,8.32-28.5,4.68c-4.17-2.38,0-12.47,3.37-19.17l8.51,3.19-2.81,7.32Z" style="fill:#ffb573"/><g style="opacity:.1;isolation:isolate"><path d="M239,179.16c.71,1,6.45,0,6.45,0l4.92.34a1.08,1.08,0,0,0,1.08-.94l1.38-6.22a.57.57,0,0,0-.47-.63l-3.89-.7a6.12,6.12,0,0,0-4.5,1l-4.12,2.8Z"/><path d="M240.05,174.45l-.25,4.8s-22.15,8.32-28.5,4.68c-4.17-2.38,0-12.47,3.37-19.17l8.51,3.19-2.81,7.32Z"/></g><path d="M266.27,154.22,249.94,176.7,226,172.29,224.94,177s23.17,12.61,29.5,8.91,17-26,17-26Z" style="fill:#ffb573"/><path d="M224.94,177c-.72,1-6.45-.08-6.45-.08l-4.93.27a1.09,1.09,0,0,1-1.06-.95L211.2,170a.57.57,0,0,1,.47-.63l3.9-.65a6.1,6.1,0,0,1,4.49,1l6,2.7Z" style="fill:#ffb573"/><path d="M269.37,153.66c3.85,4.55,2.72,15.78-2.82,22.93L253,168.66s7.93-13.38,12.3-16C267.21,151.52,268,152,269.37,153.66Z" style="fill:#0093ed"/><path d="M269.37,153.66c3.85,4.55,2.72,15.78-2.82,22.93L253,168.66s7.93-13.38,12.3-16C267.21,151.52,268,152,269.37,153.66Z" style="opacity:.6000000000000001"/><path d="M243.44,105.37a8.74,8.74,0,0,0-7.85,9c0,1,1.68,1,2.57.54a5.38,5.38,0,0,1,1.9-5,7.3,7.3,0,0,0,0,5.83c.69.3,1.38.48,2.08.78-.93-3,.47-6.54,3.42-7.53,1.3-.43,2-2.28,2.95-3.27A10.53,10.53,0,0,0,243.44,105.37Z" style="fill:#263238"/><path d="M244.13,107.81a7,7,0,0,0,.62,9l1.55-.93a7.51,7.51,0,0,1,.11-5.08,10.72,10.72,0,0,0,3,7.38c1.38.06,2.81.27,4.19.34-.68-2-1.38-3.83-2.05-5.84a26.08,26.08,0,0,1,3.65,20.52c-.39,1.56-1.86,3.28-2.68,4.66a33.93,33.93,0,0,0,3.9,0c.55,0,4.58-5.06,3.55-16.39a27.14,27.14,0,0,1-1.73,16.09,19.51,19.51,0,0,0,2.76-.47c.45-1.31,1.18-3.13,1.63-4.44a29.83,29.83,0,0,1-.71,4.15l.19-.05c2-.48,4.51-3.7,5.33-5.64,1.39-3.29,2.24-5.35,2.57-8.63.43-4.37-2.61-8.44-5.95-13.27-2.5-3.61-5.05-5.1-8.16-5.1C251.5,104.09,246.84,104.35,244.13,107.81Z" style="fill:#263238"/></g></svg>