<svg xmlns="http://www.w3.org/2000/svg" xmlns:xlink="http://www.w3.org/1999/xlink" version="1.1" width="1000" height="1000" viewBox="0 0 1000 1000" xml:space="preserve">
<desc>Created with Fabric.js 3.5.0</desc>
<defs>
</defs>
<rect x="0" y="0" width="100%" height="100%" fill="rgba(255,255,255,0)"/>
<g transform="matrix(1.8182 0 0 1.8182 500.0045 500.0045)" id="651917">
<g style="" vector-effect="non-scaling-stroke">
		<g transform="matrix(1 0 0 1 0 165.69)" id="freepik--path--inject-44">
<ellipse style="stroke: none; stroke-width: 1; stroke-dasharray: none; stroke-linecap: butt; stroke-dashoffset: 0; stroke-linejoin: miter; stroke-miterlimit: 4; is-custom-font: none; font-file-url: none; fill: rgb(245,245,245); fill-rule: nonzero; opacity: 1;" cx="0" cy="0" rx="193.89" ry="11.32"/>
</g>
		<g transform="matrix(1 0 0 1 113.073 87.98)" id="freepik--Plant--inject-44">
<path style="stroke: none; stroke-width: 1; stroke-dasharray: none; stroke-linecap: butt; stroke-dashoffset: 0; stroke-linejoin: miter; stroke-miterlimit: 4; is-custom-font: none; font-file-url: none; fill: rgb(38,50,56); fill-rule: nonzero; opacity: 1;" transform=" translate(-363.0729, -337.98)" d="M 357.59 378.73 c -1 -37.71 2.07 -64.37 9.3 -81.5 l 1.85 0.78 c -7.12 16.86 -10.11 43.24 -9.15 80.67 Z" stroke-linecap="round"/>
</g>
		<g transform="matrix(1 0 0 1 119.685 37.7)" id="freepik--Plant--inject-44">
<path style="stroke: none; stroke-width: 1; stroke-dasharray: none; stroke-linecap: butt; stroke-dashoffset: 0; stroke-linejoin: miter; stroke-miterlimit: 4; is-custom-font: none; font-file-url: none; fill: rgb(0,155,137); fill-rule: nonzero; opacity: 1;" transform=" translate(-369.685, -287.7)" d="M 364.11 302.9 c -5.92 6.1 -8.68 9.2 -13.81 15.45 a 157.76 157.76 0 0 1 9.92 -16.66 c -8.41 1.84 -12.58 2.77 -20.82 4.65 c 7.56 -3.86 11.45 -5.77 19.42 -9.54 l -23.36 -7.22 L 361.54 291 c -5.72 -9.95 -8.28 -14.85 -12.81 -24.39 c 6.52 7.43 9.93 11.2 17 18.85 a 216 216 0 0 1 8.13 -32.59 a 140.89 140.89 0 0 0 -2.23 28.7 l 0.49 0.09 a 232.21 232.21 0 0 1 25.12 -24.57 A 188.17 188.17 0 0 0 374.54 287 q 14.58 -5.49 29.37 -10.47 c -9.89 5.41 -19.53 11 -29.16 16.82 L 398.9 301 l -25 -1.51 c 5.25 6.16 8 9.26 13.65 15.51 c -7 -4.63 -10.49 -6.94 -17.34 -11.54 a 160.83 160.83 0 0 0 3.43 19.07 c -3.41 -7.79 -4.92 -11.66 -7.55 -19.31 Z" stroke-linecap="round"/>
</g>
		<g transform="matrix(1 0 0 1 119.685 37.7)" id="freepik--Plant--inject-44">
<path style="stroke: none; stroke-width: 1; stroke-dasharray: none; stroke-linecap: butt; stroke-dashoffset: 0; stroke-linejoin: miter; stroke-miterlimit: 4; is-custom-font: none; font-file-url: none; fill: rgb(0,0,0); fill-rule: nonzero; opacity: 0.3;" transform=" translate(-369.685, -287.7)" d="M 364.11 302.9 c -5.92 6.1 -8.68 9.2 -13.81 15.45 a 157.76 157.76 0 0 1 9.92 -16.66 c -8.41 1.84 -12.58 2.77 -20.82 4.65 c 7.56 -3.86 11.45 -5.77 19.42 -9.54 l -23.36 -7.22 L 361.54 291 c -5.72 -9.95 -8.28 -14.85 -12.81 -24.39 c 6.52 7.43 9.93 11.2 17 18.85 a 216 216 0 0 1 8.13 -32.59 a 140.89 140.89 0 0 0 -2.23 28.7 l 0.49 0.09 a 232.21 232.21 0 0 1 25.12 -24.57 A 188.17 188.17 0 0 0 374.54 287 q 14.58 -5.49 29.37 -10.47 c -9.89 5.41 -19.53 11 -29.16 16.82 L 398.9 301 l -25 -1.51 c 5.25 6.16 8 9.26 13.65 15.51 c -7 -4.63 -10.49 -6.94 -17.34 -11.54 a 160.83 160.83 0 0 0 3.43 19.07 c -3.41 -7.79 -4.92 -11.66 -7.55 -19.31 Z" stroke-linecap="round"/>
</g>
		<g transform="matrix(1 0 0 1 85.135 48.755)" id="freepik--Plant--inject-44">
<path style="stroke: none; stroke-width: 1; stroke-dasharray: none; stroke-linecap: butt; stroke-dashoffset: 0; stroke-linejoin: miter; stroke-miterlimit: 4; is-custom-font: none; font-file-url: none; fill: rgb(0,155,137); fill-rule: nonzero; opacity: 1;" transform=" translate(-335.135, -298.755)" d="M 344.3 311.88 c 6.95 4.9 10.24 7.43 16.45 12.6 A 158.88 158.88 0 0 0 347.89 310 c 8.61 0.24 12.87 0.38 21.32 0.68 c -8.15 -2.38 -12.32 -3.53 -20.85 -5.74 L 370 293.45 l -25.36 6.23 c 3.76 -10.85 5.36 -16.14 8 -26.36 c -5 8.51 -7.66 12.86 -13.23 21.7 a 216.4 216.4 0 0 0 -14.07 -30.5 a 139.92 139.92 0 0 1 7.55 27.78 l -0.46 0.18 A 233.35 233.35 0 0 0 303.14 273 a 187.56 187.56 0 0 1 27.94 25.18 c -10.23 -1.79 -20.52 -3.39 -30.81 -4.8 c 10.73 3.46 21.24 7.12 31.79 11.07 l -22.29 12.07 L 334 310.41 c -4 7 -6.12 10.59 -10.52 17.78 c 6 -5.86 9 -8.78 14.88 -14.58 a 158.06 158.06 0 0 1 0.19 19.38 c 1.9 -8.28 2.66 -12.37 3.82 -20.37 Z" stroke-linecap="round"/>
</g>
		<g transform="matrix(1 0 0 1 98.7466 94.29)" id="freepik--Plant--inject-44">
<path style="stroke: none; stroke-width: 1; stroke-dasharray: none; stroke-linecap: butt; stroke-dashoffset: 0; stroke-linejoin: miter; stroke-miterlimit: 4; is-custom-font: none; font-file-url: none; fill: rgb(38,50,56); fill-rule: nonzero; opacity: 1;" transform=" translate(-348.7466, -344.29)" d="M 355.64 378.72 l -2 0 c 0.33 -26.25 -3.42 -47.89 -11.81 -68.09 l 1.85 -0.77 C 352.18 330.29 356 352.18 355.64 378.72 Z" stroke-linecap="round"/>
</g>
		<g transform="matrix(1 0 0 1 116.675 100.63)" id="freepik--Plant--inject-44">
<path style="stroke: none; stroke-width: 1; stroke-dasharray: none; stroke-linecap: butt; stroke-dashoffset: 0; stroke-linejoin: miter; stroke-miterlimit: 4; is-custom-font: none; font-file-url: none; fill: rgb(38,50,56); fill-rule: nonzero; opacity: 1;" transform=" translate(-366.675, -350.63)" d="M 361.32 378.78 l -2 -0.09 c 0.81 -18 5.87 -40.05 12.88 -56.21 l 1.83 0.8 C 367.11 339.23 362.12 361 361.32 378.78 Z" stroke-linecap="round"/>
</g>
		<g transform="matrix(1 0 0 1 128.51 63.345)" id="freepik--Plant--inject-44">
<path style="stroke: none; stroke-width: 1; stroke-dasharray: none; stroke-linecap: butt; stroke-dashoffset: 0; stroke-linejoin: miter; stroke-miterlimit: 4; is-custom-font: none; font-file-url: none; fill: rgb(0,155,137); fill-rule: nonzero; opacity: 1;" transform=" translate(-378.51, -313.345)" d="M 371.82 322.88 c -5.07 3.56 -7.47 5.41 -12 9.18 a 115 115 0 0 1 9.38 -10.58 c -6.28 0.17 -9.39 0.28 -15.54 0.5 c 5.93 -1.73 9 -2.57 15.2 -4.19 l -15.75 -8.35 L 371.6 314 c -2.74 -7.9 -3.9 -11.76 -5.85 -19.21 c 3.66 6.2 5.58 9.37 9.65 15.82 a 156.46 156.46 0 0 1 10.25 -22.24 a 102.12 102.12 0 0 0 -5.5 20.25 l 0.33 0.13 a 169.48 169.48 0 0 1 21.34 -14.17 a 136.43 136.43 0 0 0 -20.37 18.35 q 11.19 -1.95 22.46 -3.5 c -7.82 2.53 -15.48 5.19 -23.17 8.07 l 16.25 8.8 l -17.68 -4.48 c 2.92 5.13 4.46 7.72 7.67 13 c -4.4 -4.28 -6.57 -6.4 -10.85 -10.63 a 116.42 116.42 0 0 0 -0.14 14.13 c -1.38 -6 -1.94 -9 -2.78 -14.86 Z" stroke-linecap="round"/>
</g>
		<g transform="matrix(1 0 0 1 128.51 63.345)" id="freepik--Plant--inject-44">
<path style="stroke: none; stroke-width: 1; stroke-dasharray: none; stroke-linecap: butt; stroke-dashoffset: 0; stroke-linejoin: miter; stroke-miterlimit: 4; is-custom-font: none; font-file-url: none; fill: rgb(255,255,255); fill-rule: nonzero; opacity: 0.2;" transform=" translate(-378.51, -313.345)" d="M 371.82 322.88 c -5.07 3.56 -7.47 5.41 -12 9.18 a 115 115 0 0 1 9.38 -10.58 c -6.28 0.17 -9.39 0.28 -15.54 0.5 c 5.93 -1.73 9 -2.57 15.2 -4.19 l -15.75 -8.35 L 371.6 314 c -2.74 -7.9 -3.9 -11.76 -5.85 -19.21 c 3.66 6.2 5.58 9.37 9.65 15.82 a 156.46 156.46 0 0 1 10.25 -22.24 a 102.12 102.12 0 0 0 -5.5 20.25 l 0.33 0.13 a 169.48 169.48 0 0 1 21.34 -14.17 a 136.43 136.43 0 0 0 -20.37 18.35 q 11.19 -1.95 22.46 -3.5 c -7.82 2.53 -15.48 5.19 -23.17 8.07 l 16.25 8.8 l -17.68 -4.48 c 2.92 5.13 4.46 7.72 7.67 13 c -4.4 -4.28 -6.57 -6.4 -10.85 -10.63 a 116.42 116.42 0 0 0 -0.14 14.13 c -1.38 -6 -1.94 -9 -2.78 -14.86 Z" stroke-linecap="round"/>
</g>
		<g transform="matrix(1 0 0 1 108.8 143.695)" id="freepik--Plant--inject-44">
<path style="stroke: none; stroke-width: 1; stroke-dasharray: none; stroke-linecap: butt; stroke-dashoffset: 0; stroke-linejoin: miter; stroke-miterlimit: 4; is-custom-font: none; font-file-url: none; fill: rgb(38,50,56); fill-rule: nonzero; opacity: 1;" transform=" translate(-358.8, -393.695)" d="M 362.86 418.29 H 354.7 a 16.07 16.07 0 0 1 -16 -14.85 l -2.59 -34.34 h 45.38 l -2.59 34.34 A 16.06 16.06 0 0 1 362.86 418.29 Z" stroke-linecap="round"/>
</g>
		<g transform="matrix(1 0 0 1 108.8 143.695)" id="freepik--Plant--inject-44">
<path style="stroke: none; stroke-width: 1; stroke-dasharray: none; stroke-linecap: butt; stroke-dashoffset: 0; stroke-linejoin: miter; stroke-miterlimit: 4; is-custom-font: none; font-file-url: none; fill: rgb(255,255,255); fill-rule: nonzero; opacity: 0.6;" transform=" translate(-358.8, -393.695)" d="M 362.86 418.29 H 354.7 a 16.07 16.07 0 0 1 -16 -14.85 l -2.59 -34.34 h 45.38 l -2.59 34.34 A 16.06 16.06 0 0 1 362.86 418.29 Z" stroke-linecap="round"/>
</g>
		<g transform="matrix(1 0 0 1 108.595 118.2)" id="freepik--Plant--inject-44">
<polygon style="stroke: none; stroke-width: 1; stroke-dasharray: none; stroke-linecap: butt; stroke-dashoffset: 0; stroke-linejoin: miter; stroke-miterlimit: 4; is-custom-font: none; font-file-url: none; fill: rgb(0,155,137); fill-rule: nonzero; opacity: 1;" points="25.815,4.02 -25.825,4.02 -26.745,-4.02 26.745,-4.02 25.815,4.02 "/>
</g>
		<g transform="matrix(1 0 0 1 108.595 118.2)" id="freepik--Plant--inject-44">
<polygon style="stroke: none; stroke-width: 1; stroke-dasharray: none; stroke-linecap: butt; stroke-dashoffset: 0; stroke-linejoin: miter; stroke-miterlimit: 4; is-custom-font: none; font-file-url: none; fill: rgb(255,255,255); fill-rule: nonzero; opacity: 0.6;" points="25.815,4.02 -25.825,4.02 -26.745,-4.02 26.745,-4.02 25.815,4.02 "/>
</g>
		<g transform="matrix(1 0 0 1 37.8065 -145.0541)" id="freepik--character-2--inject-44">
<path style="stroke: none; stroke-width: 1; stroke-dasharray: none; stroke-linecap: butt; stroke-dashoffset: 0; stroke-linejoin: miter; stroke-miterlimit: 4; is-custom-font: none; font-file-url: none; fill: rgb(38,50,56); fill-rule: nonzero; opacity: 1;" transform=" translate(-287.8065, -104.9459)" d="M 287.53 103.71 c 0.45 -0.07 0.92 0.4 1.05 1.08 s -0.12 1.31 -0.56 1.39 s -0.92 -0.4 -1 -1.08 S 287.08 103.79 287.53 103.71 Z" stroke-linecap="round"/>
</g>
		<g transform="matrix(1 0 0 1 39.7 -140.4912)" id="freepik--character-2--inject-44">
<path style="stroke: none; stroke-width: 1; stroke-dasharray: none; stroke-linecap: butt; stroke-dashoffset: 0; stroke-linejoin: miter; stroke-miterlimit: 4; is-custom-font: none; font-file-url: none; fill: rgb(183,77,60); fill-rule: nonzero; opacity: 1;" transform=" translate(-289.7, -109.5088)" d="M 288.74 112.73 a 4 4 0 0 0 3.15 -1.24 a 24.83 24.83 0 0 1 -4.38 -5.21 Z" stroke-linecap="round"/>
</g>
		<g transform="matrix(1 0 0 1 35.2998 -149.2462)" id="freepik--character-2--inject-44">
<path style="stroke: none; stroke-width: 1; stroke-dasharray: none; stroke-linecap: butt; stroke-dashoffset: 0; stroke-linejoin: miter; stroke-miterlimit: 4; is-custom-font: none; font-file-url: none; fill: rgb(38,50,56); fill-rule: nonzero; opacity: 1;" transform=" translate(-285.2998, -100.7537)" d="M 284 101.72 a 3.23 3.23 0 0 1 2.74 -1.13 h 0 a 0.31 0.31 0 0 0 0.13 0 a 0.41 0.41 0 0 0 0.42 -0.41 a 0.41 0.41 0 0 0 -0.4 -0.42 a 4 4 0 0 0 -3.47 1.31 a 0.4 0.4 0 0 0 -0.11 0.27 a 0.41 0.41 0 0 0 0.4 0.43 A 0.43 0.43 0 0 0 284 101.72 Z" stroke-linecap="round"/>
</g>
		<g transform="matrix(1 0 0 1 25.9724 -117.7739)" id="freepik--character-2--inject-44">
<path style="stroke: none; stroke-width: 1; stroke-dasharray: none; stroke-linecap: butt; stroke-dashoffset: 0; stroke-linejoin: miter; stroke-miterlimit: 4; is-custom-font: none; font-file-url: none; fill: rgb(203,122,99); fill-rule: nonzero; opacity: 1;" transform=" translate(-275.9724, -132.2261)" d="M 278.67 143.06 c -11.7 -0.12 -13.36 -6.52 -13.36 -6.52 c 3.54 -3.33 3.85 -9.57 3.22 -15.15 a 12.93 12.93 0 0 0 3.41 3.39 a 10.69 10.69 0 0 0 8.54 1.72 a 0.3 0.3 0 0 0 0.14 0 c 0 0.11 -0.05 0.23 -0.07 0.34 c -0.79 4.44 -0.27 9.23 4.38 10.72 C 284.93 137.51 291.56 143.19 278.67 143.06 Z" stroke-linecap="round"/>
</g>
		<g transform="matrix(1 0 0 1 24.47 -128.0101)" id="freepik--character-2--inject-44">
<path style="stroke: none; stroke-width: 1; stroke-dasharray: none; stroke-linecap: butt; stroke-dashoffset: 0; stroke-linejoin: miter; stroke-miterlimit: 4; is-custom-font: none; font-file-url: none; fill: rgb(203,122,99); fill-rule: nonzero; opacity: 1;" transform=" translate(-274.47, -121.9899)" d="M 281 124.81 a 16.38 16.38 0 0 0 -0.36 1.64 a 0.3 0.3 0 0 1 -0.14 0 a 10.69 10.69 0 0 1 -8.54 -1.72 a 12.93 12.93 0 0 1 -3.41 -3.39 c -0.15 -1.42 -0.38 -2.8 -0.61 -4.07 l 12.59 7.23 Z" stroke-linecap="round"/>
</g>
		<g transform="matrix(1 0 0 1 26.5365 -140.0248)" id="freepik--character-2--inject-44">
<path style="stroke: none; stroke-width: 1; stroke-dasharray: none; stroke-linecap: butt; stroke-dashoffset: 0; stroke-linejoin: miter; stroke-miterlimit: 4; is-custom-font: none; font-file-url: none; fill: rgb(203,122,99); fill-rule: nonzero; opacity: 1;" transform=" translate(-276.5366, -109.9752)" d="M 289.56 115.44 a 11.85 11.85 0 0 1 -6 9.83 h 0 a 0.06 0.06 0 0 1 -0.05 0 a 10.07 10.07 0 0 1 -2.91 1.16 a 0.3 0.3 0 0 1 -0.14 0 a 10.69 10.69 0 0 1 -8.54 -1.72 a 12.93 12.93 0 0 1 -3.41 -3.39 c -2.23 -3.2 -3.09 -7.41 -4.61 -13.35 a 11.65 11.65 0 0 1 13.59 -14.47 C 286.36 95.33 289.9 107.54 289.56 115.44 Z" stroke-linecap="round"/>
</g>
		<g transform="matrix(1 0 0 1 32.0731 -126.15)" id="freepik--character-2--inject-44">
<path style="stroke: none; stroke-width: 1; stroke-dasharray: none; stroke-linecap: butt; stroke-dashoffset: 0; stroke-linejoin: miter; stroke-miterlimit: 4; is-custom-font: none; font-file-url: none; fill: rgb(0,0,0); fill-rule: nonzero; opacity: 0.2;" transform=" translate(-282.0732, -123.85)" d="M 283.53 125.29 a 10.07 10.07 0 0 1 -2.91 1.16 c -0.05 0 0.43 -5.2 0.43 -5.2 S 282.91 125.28 283.53 125.29 Z" stroke-linecap="round"/>
</g>
		<g transform="matrix(1 0 0 1 23.22 -137.51)" id="freepik--character-2--inject-44">
<path style="stroke: none; stroke-width: 1; stroke-dasharray: none; stroke-linecap: butt; stroke-dashoffset: 0; stroke-linejoin: miter; stroke-miterlimit: 4; is-custom-font: none; font-file-url: none; fill: rgb(203,122,99); fill-rule: nonzero; opacity: 1;" transform=" translate(-273.22, -112.49)" d="M 286.41 108.75 a 12.4 12.4 0 0 1 -2 1.44 c -3.06 1.41 -1.78 8.18 -4.55 10.19 a 2.48 2.48 0 0 1 -0.4 0.26 l -0.44 0.23 h 0 l -5.78 3 l -4.71 -2.46 s -5.75 -5 -8.5 -9.73 a 67.51 67.51 0 0 0 24.78 -10.57 c 0.11 0.53 0.19 1 0.24 1.41 c 0.1 1 -1.3 2.27 -0.79 2.77 A 8.53 8.53 0 0 1 286.41 108.75 Z" stroke-linecap="round"/>
</g>
		<g transform="matrix(1 0 0 1 23.22 -137.51)" id="freepik--character-2--inject-44">
<path style="stroke: none; stroke-width: 1; stroke-dasharray: none; stroke-linecap: butt; stroke-dashoffset: 0; stroke-linejoin: miter; stroke-miterlimit: 4; is-custom-font: none; font-file-url: none; fill: rgb(0,0,0); fill-rule: nonzero; opacity: 0.3;" transform=" translate(-273.22, -112.49)" d="M 286.41 108.75 a 12.4 12.4 0 0 1 -2 1.44 c -3.06 1.41 -1.78 8.18 -4.55 10.19 a 2.48 2.48 0 0 1 -0.4 0.26 l -0.44 0.23 h 0 l -5.78 3 l -4.71 -2.46 s -5.75 -5 -8.5 -9.73 a 67.51 67.51 0 0 0 24.78 -10.57 c 0.11 0.53 0.19 1 0.24 1.41 c 0.1 1 -1.3 2.27 -0.79 2.77 A 8.53 8.53 0 0 1 286.41 108.75 Z" stroke-linecap="round"/>
</g>
		<g transform="matrix(1 0 0 1 21.6839 -149.085)" id="freepik--character-2--inject-44">
<path style="stroke: none; stroke-width: 1; stroke-dasharray: none; stroke-linecap: butt; stroke-dashoffset: 0; stroke-linejoin: miter; stroke-miterlimit: 4; is-custom-font: none; font-file-url: none; fill: rgb(38,50,56); fill-rule: nonzero; opacity: 1;" transform=" translate(-271.6839, -100.915)" d="M 284.81 101.09 A 67.51 67.51 0 0 1 260 111.66 c -0.15 -0.24 -0.28 -0.48 -0.4 -0.71 a 8.5 8.5 0 0 1 -1 -3.18 c -0.38 -5.31 1.78 -11.88 7.61 -14.09 a 86.45 86.45 0 0 1 13.16 -3.51 s 3.77 1 4.15 3 a 4.12 4.12 0 0 1 -0.52 3.06 a 13.15 13.15 0 0 1 1.73 4.44 Z" stroke-linecap="round"/>
</g>
		<g transform="matrix(1 0 0 1 31.2301 -140.5962)" id="freepik--character-2--inject-44">
<path style="stroke: none; stroke-width: 1; stroke-dasharray: none; stroke-linecap: butt; stroke-dashoffset: 0; stroke-linejoin: miter; stroke-miterlimit: 4; is-custom-font: none; font-file-url: none; fill: rgb(203,122,99); fill-rule: nonzero; opacity: 1;" transform=" translate(-281.2301, -109.4037)" d="M 281.14 104.57 c 2.45 0.77 3.66 4.42 3.71 6.72 c 0.07 2.55 -1.66 4.12 -3.84 2.37 a 9.65 9.65 0 0 1 -3.29 -5.26 C 277.17 105.9 278.7 103.79 281.14 104.57 Z" stroke-linecap="round"/>
</g>
		<g transform="matrix(1 0 0 1 23.85 -115.8362)" id="freepik--group--inject-44">
<path style="stroke: none; stroke-width: 1; stroke-dasharray: none; stroke-linecap: butt; stroke-dashoffset: 0; stroke-linejoin: miter; stroke-miterlimit: 4; is-custom-font: none; font-file-url: none; fill: rgb(0,155,137); fill-rule: nonzero; opacity: 1;" transform=" translate(-273.85, -134.1639)" d="M 262 137.92 s 1.83 -5.27 4.46 -6.89 s 14 0.35 15.76 1.09 s 3.48 4.88 3.48 4.88 Z" stroke-linecap="round"/>
</g>
		<g transform="matrix(1 0 0 1 23.85 -115.8362)" id="freepik--group--inject-44">
<path style="stroke: none; stroke-width: 1; stroke-dasharray: none; stroke-linecap: butt; stroke-dashoffset: 0; stroke-linejoin: miter; stroke-miterlimit: 4; is-custom-font: none; font-file-url: none; fill: rgb(255,255,255); fill-rule: nonzero; opacity: 0.6;" transform=" translate(-273.85, -134.1639)" d="M 262 137.92 s 1.83 -5.27 4.46 -6.89 s 14 0.35 15.76 1.09 s 3.48 4.88 3.48 4.88 Z" stroke-linecap="round"/>
</g>
		<g transform="matrix(1 0 0 1 44.64 -72.06)" id="freepik--group--inject-44">
<polygon style="stroke: none; stroke-width: 1; stroke-dasharray: none; stroke-linecap: butt; stroke-dashoffset: 0; stroke-linejoin: miter; stroke-miterlimit: 4; is-custom-font: none; font-file-url: none; fill: rgb(0,155,137); fill-rule: nonzero; opacity: 1;" points="-9.78,6.17 12.57,2.54 10.01,-6.17 -12.57,-4.04 -9.78,6.17 "/>
</g>
		<g transform="matrix(1 0 0 1 44.64 -72.06)" id="freepik--group--inject-44">
<polygon style="stroke: none; stroke-width: 1; stroke-dasharray: none; stroke-linecap: butt; stroke-dashoffset: 0; stroke-linejoin: miter; stroke-miterlimit: 4; is-custom-font: none; font-file-url: none; fill: rgb(0,0,0); fill-rule: nonzero; opacity: 0.2;" points="-9.78,6.17 12.57,2.54 10.01,-6.17 -12.57,-4.04 -9.78,6.17 "/>
</g>
		<g transform="matrix(1 0 0 1 24.5221 -78.9588)" id="freepik--group--inject-44">
<path style="stroke: none; stroke-width: 1; stroke-dasharray: none; stroke-linecap: butt; stroke-dashoffset: 0; stroke-linejoin: miter; stroke-miterlimit: 4; is-custom-font: none; font-file-url: none; fill: rgb(0,155,137); fill-rule: nonzero; opacity: 1;" transform=" translate(-274.522, -171.0413)" d="M 289.26 136.23 c -1.76 -0.33 -3.72 -0.64 -5.74 -0.84 a 153.51 153.51 0 0 0 -18.2 -0.18 l -4 0.29 c -6.36 0.34 -12.85 5.7 -11.7 12 c 6.31 34.45 3.91 53.56 3.15 59.14 l 42.84 0.42 c 5.16 -35.16 4.31 -53 2.75 -61.63 A 11.34 11.34 0 0 0 289.26 136.23 Z" stroke-linecap="round"/>
</g>
		<g transform="matrix(1 0 0 1 43.9009 -71.625)" id="freepik--group--inject-44">
<path style="stroke: none; stroke-width: 1; stroke-dasharray: none; stroke-linecap: butt; stroke-dashoffset: 0; stroke-linejoin: miter; stroke-miterlimit: 4; is-custom-font: none; font-file-url: none; fill: rgb(0,0,0); fill-rule: nonzero; opacity: 0.1;" transform=" translate(-293.9009, -178.375)" d="M 297.26 194.62 L 295.64 207 c 3.32 -25.41 4.64 -36 3.63 -53.72 l -11.07 -3.53 C 295.06 173 292.59 178.69 297.26 194.62 Z" stroke-linecap="round"/>
</g>
		<g transform="matrix(1 0 0 1 23.5551 159.361)" id="freepik--group--inject-44">
<path style="stroke: none; stroke-width: 1; stroke-dasharray: none; stroke-linecap: butt; stroke-dashoffset: 0; stroke-linejoin: miter; stroke-miterlimit: 4; is-custom-font: none; font-file-url: none; fill: rgb(0,155,137); fill-rule: nonzero; opacity: 1;" transform=" translate(-273.5551, -409.3611)" d="M 271 410.14 a 0.19 0.19 0 0 1 -0.16 -0.17 a 0.2 0.2 0 0 1 0.09 -0.2 c 0.16 -0.07 3.13 -1.76 4.55 -1.37 a 1 1 0 0 1 0.65 0.46 a 0.75 0.75 0 0 1 0 0.88 c -0.35 0.5 -1.36 0.65 -2.5 0.64 A 14.57 14.57 0 0 1 271 410.14 Z m 4 -1.42 a 9.11 9.11 0 0 0 -3.34 1.08 c 1.58 0.22 3.74 0.21 4.13 -0.33 c 0.09 -0.08 0.14 -0.2 0 -0.45 a 0.56 0.56 0 0 0 -0.4 -0.28 a 1.28 1.28 0 0 0 -0.39 0 Z" stroke-linecap="round"/>
</g>
		<g transform="matrix(1 0 0 1 22.435 158.206)" id="freepik--group--inject-44">
<path style="stroke: none; stroke-width: 1; stroke-dasharray: none; stroke-linecap: butt; stroke-dashoffset: 0; stroke-linejoin: miter; stroke-miterlimit: 4; is-custom-font: none; font-file-url: none; fill: rgb(0,155,137); fill-rule: nonzero; opacity: 1;" transform=" translate(-272.435, -408.206)" d="M 270.92 410.1 a 0.28 0.28 0 0 1 -0.09 -0.19 c 0 -0.1 0.18 -2.38 1.31 -3.28 a 1.5 1.5 0 0 1 1.14 -0.33 c 0.55 0.05 0.75 0.34 0.75 0.56 c 0.17 1 -1.86 2.79 -2.89 3.26 h -0.08 A 0.22 0.22 0 0 1 270.92 410.1 Z m 2.22 -3.42 a 1 1 0 0 0 -0.71 0.29 a 4.68 4.68 0 0 0 -1.12 2.63 c 1.05 -0.64 2.42 -2.08 2.32 -2.66 c 0 0 0 -0.22 -0.4 -0.23 h -0.11 Z" stroke-linecap="round"/>
</g>
		<g transform="matrix(1 0 0 1 16.3 150.115)" id="freepik--group--inject-44">
<polygon style="stroke: none; stroke-width: 1; stroke-dasharray: none; stroke-linecap: butt; stroke-dashoffset: 0; stroke-linejoin: miter; stroke-miterlimit: 4; is-custom-font: none; font-file-url: none; fill: rgb(203,122,99); fill-rule: nonzero; opacity: 1;" points="-3.85,-9.795 4.62,-9.785 3.9,9.795 -4.62,9.785 -3.85,-9.795 "/>
</g>
		<g transform="matrix(1 0 0 1 22.7799 163.8)" id="freepik--group--inject-44">
<path style="stroke: none; stroke-width: 1; stroke-dasharray: none; stroke-linecap: butt; stroke-dashoffset: 0; stroke-linejoin: miter; stroke-miterlimit: 4; is-custom-font: none; font-file-url: none; fill: rgb(38,50,56); fill-rule: nonzero; opacity: 1;" transform=" translate(-272.7799, -413.8)" d="M 272.21 409.6 c 5.79 3.56 7.58 3.72 14.28 5.19 c 1.46 0.32 0.53 3.87 -3 3.86 c -5.8 0 -6.41 -0.28 -11.35 -0.29 c -4.24 0 -9.11 0.18 -12.48 0.23 l -0.3 0 a 1.24 1.24 0 0 1 -0.92 -1.49 l 1.65 -7.57 a 0.74 0.74 0 0 1 0.72 -0.58 l 9.32 0 A 3.9 3.9 0 0 1 272.21 409.6 Z" stroke-linecap="round"/>
</g>
		<g transform="matrix(1 0 0 1 16.485 145.365)" id="freepik--group--inject-44">
<polygon style="stroke: none; stroke-width: 1; stroke-dasharray: none; stroke-linecap: butt; stroke-dashoffset: 0; stroke-linejoin: miter; stroke-miterlimit: 4; is-custom-font: none; font-file-url: none; fill: rgb(0,0,0); fill-rule: nonzero; opacity: 0.2;" points="-4.045,-5.035 -4.435,5.025 4.075,5.035 4.435,-5.025 -4.045,-5.035 "/>
</g>
		<g transform="matrix(1 0 0 1 -43.64 150.37)" id="freepik--group--inject-44">
<polygon style="stroke: none; stroke-width: 1; stroke-dasharray: none; stroke-linecap: butt; stroke-dashoffset: 0; stroke-linejoin: miter; stroke-miterlimit: 4; is-custom-font: none; font-file-url: none; fill: rgb(203,122,99); fill-rule: nonzero; opacity: 1;" points="-1.67,-10.17 6.6,-9.57 1.72,10.17 -6.6,9.56 -1.67,-10.17 "/>
</g>
		<g transform="matrix(1 0 0 1 -51.3335 163.0724)" id="freepik--group--inject-44">
<path style="stroke: none; stroke-width: 1; stroke-dasharray: none; stroke-linecap: butt; stroke-dashoffset: 0; stroke-linejoin: miter; stroke-miterlimit: 4; is-custom-font: none; font-file-url: none; fill: rgb(38,50,56); fill-rule: nonzero; opacity: 1;" transform=" translate(-198.6664, -413.0724)" d="M 198.25 408.64 c -2.58 2.36 -3.94 3.58 -10.69 4.83 c -1.49 0.27 -0.67 3.84 2.84 3.95 c 5.81 0.18 2.64 -0.19 7.59 0 c 4.23 0.12 7.77 0.48 11.13 0.64 a 1.27 1.27 0 0 0 0.34 0 a 1.24 1.24 0 0 0 1 -1.45 l -1.38 -7.62 a 0.74 0.74 0 0 0 -0.7 -0.6 l -8 -0.29 A 2.94 2.94 0 0 0 198.25 408.64 Z" stroke-linecap="round"/>
</g>
		<g transform="matrix(1 0 0 1 -42.445 145.58)" id="freepik--group--inject-44">
<polygon style="stroke: none; stroke-width: 1; stroke-dasharray: none; stroke-linecap: butt; stroke-dashoffset: 0; stroke-linejoin: miter; stroke-miterlimit: 4; is-custom-font: none; font-file-url: none; fill: rgb(0,0,0); fill-rule: nonzero; opacity: 0.2;" points="-2.875,-5.37 -5.405,4.77 2.885,5.37 5.405,-4.78 -2.875,-5.37 "/>
</g>
		<g transform="matrix(1 0 0 1 -9.975 52.155)" id="freepik--group--inject-44">
<path style="stroke: none; stroke-width: 1; stroke-dasharray: none; stroke-linecap: butt; stroke-dashoffset: 0; stroke-linejoin: miter; stroke-miterlimit: 4; is-custom-font: none; font-file-url: none; fill: rgb(0,155,137); fill-rule: nonzero; opacity: 1;" transform=" translate(-240.025, -302.155)" d="M 252.76 206.6 a 88.32 88.32 0 0 0 -7.85 15.77 c -4.53 12.29 -2.93 18.71 -4.44 27 c -2.68 14.64 -6.67 25.86 -9.48 37 c -8.75 34.75 -30.47 108.11 -30.47 108.11 l 14.94 3.29 s 30.94 -85.23 38.8 -110.09 c 7.09 -22.37 25.27 -81.14 25.27 -81.14 Z" stroke-linecap="round"/>
</g>
		<g transform="matrix(1 0 0 1 -10.885 52.145)" id="freepik--group--inject-44">
<path style="stroke: none; stroke-width: 1; stroke-dasharray: none; stroke-linecap: butt; stroke-dashoffset: 0; stroke-linejoin: miter; stroke-miterlimit: 4; is-custom-font: none; font-file-url: none; fill: rgb(0,0,0); fill-rule: nonzero; opacity: 0.6;" transform=" translate(-239.115, -302.145)" d="M 252.76 206.6 a 88.32 88.32 0 0 0 -7.85 15.77 c -4.53 12.29 -2.93 18.71 -4.44 27 c -2.68 14.64 -6.67 25.86 -9.48 37 c -8.75 34.75 -30.47 108.11 -30.47 108.11 l 14.94 3.29 s 30.94 -85.23 38.8 -110.09 c 7.09 -22.37 23.45 -81.16 23.45 -81.16 Z" stroke-linecap="round"/>
</g>
		<g transform="matrix(1 0 0 1 -41.6242 145.375)" id="freepik--group--inject-44">
<path style="stroke: none; stroke-width: 1; stroke-dasharray: none; stroke-linecap: butt; stroke-dashoffset: 0; stroke-linejoin: miter; stroke-miterlimit: 4; is-custom-font: none; font-file-url: none; fill: rgb(0,155,137); fill-rule: nonzero; opacity: 1;" transform=" translate(-208.3758, -395.375)" d="M 198.77 391.72 l -0.16 5.31 l 18 2 s 1.59 -5.8 1.53 -5.8 Z" stroke-linecap="round"/>
</g>
		<g transform="matrix(1 0 0 1 -41.6242 145.375)" id="freepik--group--inject-44">
<path style="stroke: none; stroke-width: 1; stroke-dasharray: none; stroke-linecap: butt; stroke-dashoffset: 0; stroke-linejoin: miter; stroke-miterlimit: 4; is-custom-font: none; font-file-url: none; fill: rgb(255,255,255); fill-rule: nonzero; opacity: 0.6;" transform=" translate(-208.3758, -395.375)" d="M 198.77 391.72 l -0.16 5.31 l 18 2 s 1.59 -5.8 1.53 -5.8 Z" stroke-linecap="round"/>
</g>
		<g transform="matrix(1 0 0 1 12.405 11.5064)" id="freepik--group--inject-44">
<path style="stroke: none; stroke-width: 1; stroke-dasharray: none; stroke-linecap: butt; stroke-dashoffset: 0; stroke-linejoin: miter; stroke-miterlimit: 4; is-custom-font: none; font-file-url: none; fill: rgb(0,0,0); fill-rule: nonzero; opacity: 0.3;" transform=" translate(-262.405, -261.5064)" d="M 271.13 233.62 c -5.73 18.45 -13 41.8 -16.86 54.05 c -0.18 0.59 -0.39 1.2 -0.59 1.86 c 1.53 -20.46 5.54 -54.76 15.83 -56 A 3.85 3.85 0 0 1 271.13 233.62 Z" stroke-linecap="round"/>
</g>
		<g transform="matrix(1 0 0 1 27.71 52.46)" id="freepik--group--inject-44">
<path style="stroke: none; stroke-width: 1; stroke-dasharray: none; stroke-linecap: butt; stroke-dashoffset: 0; stroke-linejoin: miter; stroke-miterlimit: 4; is-custom-font: none; font-file-url: none; fill: rgb(0,155,137); fill-rule: nonzero; opacity: 1;" transform=" translate(-277.71, -302.46)" d="M 266.54 206.52 s -4.37 56.38 -4.87 83 c -0.45 24.84 -1.85 108.88 -1.85 108.88 l 14.4 0 s 10.1 -85.56 12.65 -110.78 C 289.3 263.79 295.6 207 295.6 207 Z" stroke-linecap="round"/>
</g>
		<g transform="matrix(1 0 0 1 27.71 52.46)" id="freepik--group--inject-44">
<path style="stroke: none; stroke-width: 1; stroke-dasharray: none; stroke-linecap: butt; stroke-dashoffset: 0; stroke-linejoin: miter; stroke-miterlimit: 4; is-custom-font: none; font-file-url: none; fill: rgb(0,0,0); fill-rule: nonzero; opacity: 0.6;" transform=" translate(-277.71, -302.46)" d="M 266.54 206.52 s -4.37 56.38 -4.87 83 c -0.45 24.84 -1.85 108.88 -1.85 108.88 l 14.4 0 s 10.1 -85.56 12.65 -110.78 C 289.3 263.79 295.6 207 295.6 207 Z" stroke-linecap="round"/>
</g>
		<g transform="matrix(1 0 0 1 17.0621 145.71)" id="freepik--group--inject-44">
<path style="stroke: none; stroke-width: 1; stroke-dasharray: none; stroke-linecap: butt; stroke-dashoffset: 0; stroke-linejoin: miter; stroke-miterlimit: 4; is-custom-font: none; font-file-url: none; fill: rgb(0,155,137); fill-rule: nonzero; opacity: 1;" transform=" translate(-267.0621, -395.71)" d="M 257.68 393.38 l 0.49 5.29 l 17.51 0 s 0.83 -5.92 0.76 -5.92 Z" stroke-linecap="round"/>
</g>
		<g transform="matrix(1 0 0 1 17.0621 145.71)" id="freepik--group--inject-44">
<path style="stroke: none; stroke-width: 1; stroke-dasharray: none; stroke-linecap: butt; stroke-dashoffset: 0; stroke-linejoin: miter; stroke-miterlimit: 4; is-custom-font: none; font-file-url: none; fill: rgb(255,255,255); fill-rule: nonzero; opacity: 0.6;" transform=" translate(-267.0621, -395.71)" d="M 257.68 393.38 l 0.49 5.29 l 17.51 0 s 0.83 -5.92 0.76 -5.92 Z" stroke-linecap="round"/>
</g>
		<g transform="matrix(1 0 0 1 -52.5782 156.135)" id="freepik--group--inject-44">
<path style="stroke: none; stroke-width: 1; stroke-dasharray: none; stroke-linecap: butt; stroke-dashoffset: 0; stroke-linejoin: miter; stroke-miterlimit: 4; is-custom-font: none; font-file-url: none; fill: rgb(0,155,137); fill-rule: nonzero; opacity: 1;" transform=" translate(-197.4218, -406.135)" d="M 199.08 408.31 a 0.2 0.2 0 0 1 -0.09 0.21 a 0.18 0.18 0 0 1 -0.22 0 c -0.13 -0.11 -2.81 -2.22 -3 -3.67 a 1.06 1.06 0 0 1 0.19 -0.77 a 0.77 0.77 0 0 1 0.82 -0.35 c 0.58 0.14 1.09 1 1.53 2.07 A 15.85 15.85 0 0 1 199.08 408.31 Z m -2.79 -3.13 a 9.12 9.12 0 0 0 2.22 2.68 c -0.38 -1.55 -1.19 -3.54 -1.85 -3.69 c -0.09 -0.06 -0.23 -0.05 -0.41 0.17 a 0.64 0.64 0 0 0 -0.11 0.48 a 1.14 1.14 0 0 0 0.15 0.36 Z" stroke-linecap="round"/>
</g>
		<g transform="matrix(1 0 0 1 -53.132 157.752)" id="freepik--group--inject-44">
<path style="stroke: none; stroke-width: 1; stroke-dasharray: none; stroke-linecap: butt; stroke-dashoffset: 0; stroke-linejoin: miter; stroke-miterlimit: 4; is-custom-font: none; font-file-url: none; fill: rgb(0,155,137); fill-rule: nonzero; opacity: 1;" transform=" translate(-196.8679, -407.752)" d="M 199.1 408.39 a 0.17 0.17 0 0 1 -0.14 0.14 c -0.09 0 -2.28 0.75 -3.52 0.05 a 1.45 1.45 0 0 1 -0.74 -0.92 c -0.16 -0.53 0 -0.82 0.24 -0.91 c 0.84 -0.51 3.29 0.66 4.1 1.43 l 0 0.07 A 0.17 0.17 0 0 1 199.1 408.39 Z m -4 -0.72 a 1.07 1.07 0 0 0 0.53 0.54 a 4.74 4.74 0 0 0 2.84 0 c -1 -0.74 -2.82 -1.45 -3.32 -1.14 c -0.05 0 -0.21 0.11 -0.07 0.44 l 0 0.12 Z" stroke-linecap="round"/>
</g>
		<g transform="matrix(1 0 0 1 35.54 -38.7993)" id="freepik--character-2--inject-44">
<path style="stroke: none; stroke-width: 1; stroke-dasharray: none; stroke-linecap: butt; stroke-dashoffset: 0; stroke-linejoin: miter; stroke-miterlimit: 4; is-custom-font: none; font-file-url: none; fill: rgb(255,255,255); fill-rule: nonzero; opacity: 0.6;" transform=" translate(-285.54, -211.2007)" d="M 277.7 209.2 c 5 0 11.35 0.08 15.71 -0.13 L 293 212.5 a 113.61 113.61 0 0 1 -15.33 0.82 Z" stroke-linecap="round"/>
</g>
		<g transform="matrix(1 0 0 1 19.615 -38.995)" id="freepik--character-2--inject-44">
<path style="stroke: none; stroke-width: 1; stroke-dasharray: none; stroke-linecap: butt; stroke-dashoffset: 0; stroke-linejoin: miter; stroke-miterlimit: 4; is-custom-font: none; font-file-url: none; fill: rgb(255,255,255); fill-rule: nonzero; opacity: 0.6;" transform=" translate(-269.615, -211.005)" d="M 263.8 208.79 c 3.36 0.11 9.31 0.36 12.1 0.33 l -0.1 4.1 c -2.47 0 -2.17 0 -5.1 -0.05 l -7.37 -0.26 Z" stroke-linecap="round"/>
</g>
		<g transform="matrix(1 0 0 1 6.835 -39.505)" id="freepik--character-2--inject-44">
<path style="stroke: none; stroke-width: 1; stroke-dasharray: none; stroke-linecap: butt; stroke-dashoffset: 0; stroke-linejoin: miter; stroke-miterlimit: 4; is-custom-font: none; font-file-url: none; fill: rgb(255,255,255); fill-rule: nonzero; opacity: 0.6;" transform=" translate(-256.835, -210.495)" d="M 253.16 208.14 c 2.07 0.24 6.83 0.43 8.83 0.59 l -0.53 4.12 c -2.26 -0.18 -7.66 -0.31 -9.78 -1.64 Z" stroke-linecap="round"/>
</g>
		<g transform="matrix(1 0 0 1 60.26 -75.519)" id="freepik--character-2--inject-44">
<path style="stroke: none; stroke-width: 1; stroke-dasharray: none; stroke-linecap: butt; stroke-dashoffset: 0; stroke-linejoin: miter; stroke-miterlimit: 4; is-custom-font: none; font-file-url: none; fill: rgb(203,122,99); fill-rule: nonzero; opacity: 1;" transform=" translate(-310.26, -174.481)" d="M 311.36 169.16 l 1.24 -0.18 c 2.44 -0.34 4.31 4.24 4.31 4.24 a 3.81 3.81 0 0 1 -2.56 3.23 L 303.94 180 l -0.33 -6.46 l 3.66 -2.69 A 9.13 9.13 0 0 1 311.36 169.16 Z" stroke-linecap="round"/>
</g>
		<g transform="matrix(1 0 0 1 49.0936 -89.839)" id="freepik--character-2--inject-44">
<path style="stroke: none; stroke-width: 1; stroke-dasharray: none; stroke-linecap: butt; stroke-dashoffset: 0; stroke-linejoin: miter; stroke-miterlimit: 4; is-custom-font: none; font-file-url: none; fill: rgb(0,155,137); fill-rule: nonzero; opacity: 1;" transform=" translate(-299.0936, -160.161)" d="M 313 182.87 c 5.65 -3.42 -6.63 -30.56 -13 -40.47 c -5.32 -8.24 -16.26 -6 -16.26 -6 C 298.91 181.54 305.23 187.57 313 182.87 Z" stroke-linecap="round"/>
</g>
		<g transform="matrix(1 0 0 1 -4.305 -34.25)" id="freepik--character-1--inject-44">
<path style="stroke: none; stroke-width: 1; stroke-dasharray: none; stroke-linecap: butt; stroke-dashoffset: 0; stroke-linejoin: miter; stroke-miterlimit: 4; is-custom-font: none; font-file-url: none; fill: rgb(0,0,0); fill-rule: nonzero; opacity: 0.2;" transform=" translate(-245.695, -215.75)" d="M 245.39 212.25 a 18.82 18.82 0 0 1 1.43 7 l -2.25 -3.2 S 244.86 214.52 245.39 212.25 Z" stroke-linecap="round"/>
</g>
		<g transform="matrix(1 0 0 1 -12.11 -127.54)" id="freepik--character-1--inject-44">
<path style="stroke: none; stroke-width: 1; stroke-dasharray: none; stroke-linecap: butt; stroke-dashoffset: 0; stroke-linejoin: miter; stroke-miterlimit: 4; is-custom-font: none; font-file-url: none; fill: rgb(38,50,56); fill-rule: nonzero; opacity: 1;" transform=" translate(-237.8899, -122.46)" d="M 239.75 108.9 c -4.29 1.59 -6.24 5.09 -8.5 9.5 c -2.08 4.07 -2 11.15 0 14.28 c 0.64 1 2.45 0.8 3.38 1.49 c -2.13 -3.36 -1.84 -7.45 -1.15 -11.37 c 0.15 3.88 0.43 8.8 2.62 12 c 1.2 0.17 3.12 0.69 4.31 0.86 a 31.62 31.62 0 0 1 -2.38 -11 a 32.87 32.87 0 0 0 3.95 11 c 1.44 0.1 2.64 0.27 4.08 0.36 c -0.44 -4.7 -1.7 -9.6 -2.14 -14.31 C 243.53 117.56 239.75 108.9 239.75 108.9 Z" stroke-linecap="round"/>
</g>
		<g transform="matrix(1 0 0 1 -57.5 150.04)" id="freepik--character-1--inject-44">
<polygon style="stroke: none; stroke-width: 1; stroke-dasharray: none; stroke-linecap: butt; stroke-dashoffset: 0; stroke-linejoin: miter; stroke-miterlimit: 4; is-custom-font: none; font-file-url: none; fill: rgb(255,181,115); fill-rule: nonzero; opacity: 1;" points="-6.67,8.09 0.93,9.64 6.67,-5.96 -1.62,-9.64 -6.67,8.09 "/>
</g>
		<g transform="matrix(1 0 0 1 -55.905 145.27)" id="freepik--character-1--inject-44">
<polygon style="stroke: none; stroke-width: 1; stroke-dasharray: none; stroke-linecap: butt; stroke-dashoffset: 0; stroke-linejoin: miter; stroke-miterlimit: 4; is-custom-font: none; font-file-url: none; fill: rgb(0,0,0); fill-rule: nonzero; opacity: 0.1;" points="-5.075,1.65 -3.375,-4.28 0.455,-3.24 5.075,-1.19 3.065,4.28 -5.075,1.65 "/>
</g>
		<g transform="matrix(1 0 0 1 -67.8615 155.59)" id="freepik--character-1--inject-44">
<path style="stroke: none; stroke-width: 1; stroke-dasharray: none; stroke-linecap: butt; stroke-dashoffset: 0; stroke-linejoin: miter; stroke-miterlimit: 4; is-custom-font: none; font-file-url: none; fill: rgb(0,155,137); fill-rule: nonzero; opacity: 1;" transform=" translate(-182.1386, -405.59)" d="M 184.7 406.67 s -0.3 -0.29 -0.69 -0.63 s -0.62 -0.51 -1 -0.78 a 4.85 4.85 0 0 0 -2.44 -1.11 a 1.05 1.05 0 0 0 -0.74 0.3 a 0.78 0.78 0 0 0 -0.25 0.87 c 0.23 0.53 1.26 1 2.3 1.28 l 0.71 0.16 a 15.88 15.88 0 0 0 1.94 0.27 h 0 a 0.2 0.2 0 0 0 0.18 -0.13 A 0.2 0.2 0 0 0 184.7 406.67 Z m -1.59 -0.22 c -1.43 -0.26 -2.93 -0.74 -3.14 -1.28 c 0 -0.08 -0.05 -0.22 0.16 -0.43 a 0.59 0.59 0 0 1 0.46 -0.17 a 1.07 1.07 0 0 1 0.4 0.05 a 8.79 8.79 0 0 1 2.54 1.6 c 0.14 0.11 0.29 0.24 0.43 0.37 C 183.69 406.56 183.4 406.5 183.11 406.45 Z" stroke-linecap="round"/>
</g>
		<g transform="matrix(1 0 0 1 -66.3929 154.8227)" id="freepik--character-1--inject-44">
<path style="stroke: none; stroke-width: 1; stroke-dasharray: none; stroke-linecap: butt; stroke-dashoffset: 0; stroke-linejoin: miter; stroke-miterlimit: 4; is-custom-font: none; font-file-url: none; fill: rgb(0,155,137); fill-rule: nonzero; opacity: 1;" transform=" translate(-183.6071, -404.8227)" d="M 184.31 403.29 a 1.53 1.53 0 0 0 -1 -0.62 c -0.56 -0.1 -0.8 0.14 -0.89 0.36 c -0.22 0.48 0.12 1.38 0.62 2.23 a 10 10 0 0 0 0.63 0.92 a 6.9 6.9 0 0 0 0.77 0.81 a 0.12 0.12 0 0 0 0.09 0 h 0 a 0.16 0.16 0 0 0 0.1 0 a 0.22 0.22 0 0 0 0.13 -0.15 a 8.89 8.89 0 0 0 0.08 -0.95 A 4.47 4.47 0 0 0 184.31 403.29 Z m 0.09 3.08 c -0.1 -0.11 -0.2 -0.22 -0.3 -0.35 c -0.79 -0.93 -1.52 -2.37 -1.34 -2.86 c 0 0 0.09 -0.19 0.46 -0.12 l 0.11 0 a 1.07 1.07 0 0 1 0.62 0.42 a 4.69 4.69 0 0 1 0.49 2.46 C 184.43 406.09 184.42 406.23 184.4 406.37 Z" stroke-linecap="round"/>
</g>
		<g transform="matrix(1 0 0 1 -66.7229 162.1508)" id="freepik--character-1--inject-44">
<path style="stroke: none; stroke-width: 1; stroke-dasharray: none; stroke-linecap: butt; stroke-dashoffset: 0; stroke-linejoin: miter; stroke-miterlimit: 4; is-custom-font: none; font-file-url: none; fill: rgb(0,155,137); fill-rule: nonzero; opacity: 1;" transform=" translate(-183.2771, -412.1508)" d="M 185.7 406.07 l 9.18 2.37 a 0.78 0.78 0 0 1 0.57 0.77 l -0.27 7.89 a 1.27 1.27 0 0 1 -1.31 1.24 a 1.17 1.17 0 0 1 -0.26 0 c -3.3 -0.91 -6.19 -1.85 -10.31 -2.91 c -4.87 -1.26 -3.78 -0.36 -9.52 -1.75 c -3.46 -0.85 -3.08 -4.93 -1.57 -4.74 c 6.91 0.89 8.12 -0.95 11.32 -2.68 A 3.07 3.07 0 0 1 185.7 406.07 Z" stroke-linecap="round"/>
</g>
		<g transform="matrix(1 0 0 1 -4.8 152.045)" id="freepik--character-1--inject-44">
<polygon style="stroke: none; stroke-width: 1; stroke-dasharray: none; stroke-linecap: butt; stroke-dashoffset: 0; stroke-linejoin: miter; stroke-miterlimit: 4; is-custom-font: none; font-file-url: none; fill: rgb(255,181,115); fill-rule: nonzero; opacity: 1;" points="-4.71,7.625 2.56,7.625 4.71,-5.785 -4.18,-7.625 -4.71,7.625 "/>
</g>
		<g transform="matrix(1 0 0 1 -4.67 148.455)" id="freepik--character-1--inject-44">
<polygon style="stroke: none; stroke-width: 1; stroke-dasharray: none; stroke-linecap: butt; stroke-dashoffset: 0; stroke-linejoin: miter; stroke-miterlimit: 4; is-custom-font: none; font-file-url: none; fill: rgb(0,0,0); fill-rule: nonzero; opacity: 0.1;" points="-4.31,-4.035 4.58,-2.195 3.58,4.035 -4.58,3.665 -4.31,-4.035 "/>
</g>
		<g transform="matrix(1 0 0 1 -14.5869 159.2539)" id="freepik--character-1--inject-44">
<path style="stroke: none; stroke-width: 1; stroke-dasharray: none; stroke-linecap: butt; stroke-dashoffset: 0; stroke-linejoin: miter; stroke-miterlimit: 4; is-custom-font: none; font-file-url: none; fill: rgb(0,155,137); fill-rule: nonzero; opacity: 1;" transform=" translate(-235.4131, -409.2539)" d="M 238.08 409.63 s -0.36 -0.21 -0.83 -0.44 c -0.31 -0.15 -0.7 -0.32 -1.13 -0.49 a 4.72 4.72 0 0 0 -2.67 -0.45 a 1 1 0 0 0 -0.64 0.48 a 0.77 0.77 0 0 0 0 0.9 a 3.74 3.74 0 0 0 2.55 0.64 l 0.72 0 A 17.48 17.48 0 0 0 238 410 h 0 a 0.25 0.25 0 0 0 0.16 -0.18 A 0.21 0.21 0 0 0 238.08 409.63 Z m -1.6 0.19 c -1.44 0.11 -3 0 -3.35 -0.44 c -0.06 -0.07 -0.12 -0.19 0 -0.45 a 0.57 0.57 0 0 1 0.4 -0.29 a 1.76 1.76 0 0 1 0.39 -0.06 a 9.34 9.34 0 0 1 2.87 0.91 a 2.67 2.67 0 0 1 0.51 0.25 Z" stroke-linecap="round"/>
</g>
		<g transform="matrix(1 0 0 1 -13.4338 158.052)" id="freepik--character-1--inject-44">
<path style="stroke: none; stroke-width: 1; stroke-dasharray: none; stroke-linecap: butt; stroke-dashoffset: 0; stroke-linejoin: miter; stroke-miterlimit: 4; is-custom-font: none; font-file-url: none; fill: rgb(0,155,137); fill-rule: nonzero; opacity: 1;" transform=" translate(-236.5663, -408.0519)" d="M 238.21 409.81 a 7.48 7.48 0 0 0 -0.15 -0.93 a 4.62 4.62 0 0 0 -1.22 -2.43 a 1.46 1.46 0 0 0 -1.14 -0.33 c -0.58 0.05 -0.75 0.33 -0.77 0.57 c -0.1 0.54 0.48 1.33 1.19 2 a 7.44 7.44 0 0 0 0.82 0.7 a 4.72 4.72 0 0 0 1 0.6 a 0.11 0.11 0 0 0 0.08 0 h 0.14 A 0.21 0.21 0 0 0 238.21 409.81 Z m -2.9 -3.08 c 0 -0.06 0 -0.2 0.41 -0.24 h 0.11 a 1.07 1.07 0 0 1 0.72 0.26 a 4.9 4.9 0 0 1 1.1 2.25 a 3 3 0 0 1 0.06 0.4 l -0.38 -0.25 C 236.33 408.45 235.26 407.25 235.31 406.73 Z" stroke-linecap="round"/>
</g>
		<g transform="matrix(1 0 0 1 -11.6299 163.9254)" id="freepik--character-1--inject-44">
<path style="stroke: none; stroke-width: 1; stroke-dasharray: none; stroke-linecap: butt; stroke-dashoffset: 0; stroke-linejoin: miter; stroke-miterlimit: 4; is-custom-font: none; font-file-url: none; fill: rgb(0,155,137); fill-rule: nonzero; opacity: 1;" transform=" translate(-238.3702, -413.9254)" d="M 238.89 408.79 l 9.48 -0.06 a 0.77 0.77 0 0 1 0.75 0.6 l 1.76 7.7 a 1.27 1.27 0 0 1 -0.94 1.53 l -0.27 0 c -3.42 0 -6.46 -0.21 -10.72 -0.18 c -5 0 -3.74 0.62 -9.64 0.74 c -3.56 0.07 -4.24 -4 -2.73 -4.18 c 6.9 -0.91 7.61 -3 10.25 -5.48 A 3 3 0 0 1 238.89 408.79 Z" stroke-linecap="round"/>
</g>
		<g transform="matrix(1 0 0 1 -27.73 -92.2117)" id="freepik--character-1--inject-44">
<path style="stroke: none; stroke-width: 1; stroke-dasharray: none; stroke-linecap: butt; stroke-dashoffset: 0; stroke-linejoin: miter; stroke-miterlimit: 4; is-custom-font: none; font-file-url: none; fill: rgb(0,155,137); fill-rule: nonzero; opacity: 1;" transform=" translate(-222.27, -157.7883)" d="M 231.25 147.86 a 38.35 38.35 0 0 0 -5.72 11.83 a 46.58 46.58 0 0 0 -1.39 5.77 l -1 2.49 l -8.51 -3.19 l -1.34 -0.49 c 2.07 -8.8 10.09 -16.76 16 -16.64 A 6.66 6.66 0 0 1 231.25 147.86 Z" stroke-linecap="round"/>
</g>
		<g transform="matrix(1 0 0 1 -27.73 -92.2117)" id="freepik--character-1--inject-44">
<path style="stroke: none; stroke-width: 1; stroke-dasharray: none; stroke-linecap: butt; stroke-dashoffset: 0; stroke-linejoin: miter; stroke-miterlimit: 4; is-custom-font: none; font-file-url: none; fill: rgb(0,0,0); fill-rule: nonzero; opacity: 0.6;" transform=" translate(-222.27, -157.7883)" d="M 231.25 147.86 a 38.35 38.35 0 0 0 -5.72 11.83 a 46.58 46.58 0 0 0 -1.39 5.77 l -1 2.49 l -8.51 -3.19 l -1.34 -0.49 c 2.07 -8.8 10.09 -16.76 16 -16.64 A 6.66 6.66 0 0 1 231.25 147.86 Z" stroke-linecap="round"/>
</g>
		<g transform="matrix(1 0 0 1 -26.34 -83.19)" id="freepik--character-1--inject-44">
<path style="stroke: none; stroke-width: 1; stroke-dasharray: none; stroke-linecap: butt; stroke-dashoffset: 0; stroke-linejoin: miter; stroke-miterlimit: 4; is-custom-font: none; font-file-url: none; fill: rgb(38,50,56); fill-rule: nonzero; opacity: 1;" transform=" translate(-223.66, -166.81)" d="M 224.14 165.46 c -0.16 0.88 -0.29 1.78 -0.4 2.7 l -0.56 -0.21 Z" stroke-linecap="round"/>
</g>
		<g transform="matrix(1 0 0 1 -4.2292 -66.745)" id="freepik--character-1--inject-44">
<path style="stroke: none; stroke-width: 1; stroke-dasharray: none; stroke-linecap: butt; stroke-dashoffset: 0; stroke-linejoin: miter; stroke-miterlimit: 4; is-custom-font: none; font-file-url: none; fill: rgb(0,155,137); fill-rule: nonzero; opacity: 1;" transform=" translate(-245.7708, -183.255)" d="M 269.32 155.52 l -9.45 54.39 l -1 8.79 h -36.7 v -7.43 l 2 -27.14 l -0.22 -1.53 a 56.22 56.22 0 0 1 -0.16 -14.44 c 1.52 -12.49 7 -19.64 7.51 -20.3 l 0.06 -0.05 c 5.49 0 10.33 0.35 14.24 0.67 c 5.16 0.4 20.52 2.87 20.52 2.87 A 3.58 3.58 0 0 1 269.32 155.52 Z" stroke-linecap="round"/>
</g>
		<g transform="matrix(1 0 0 1 -4.2292 -66.745)" id="freepik--character-1--inject-44">
<path style="stroke: none; stroke-width: 1; stroke-dasharray: none; stroke-linecap: butt; stroke-dashoffset: 0; stroke-linejoin: miter; stroke-miterlimit: 4; is-custom-font: none; font-file-url: none; fill: rgb(0,0,0); fill-rule: nonzero; opacity: 0.6;" transform=" translate(-245.7708, -183.255)" d="M 269.32 155.52 l -9.45 54.39 l -1 8.79 h -36.7 v -7.43 l 2 -27.14 l -0.22 -1.53 a 56.22 56.22 0 0 1 -0.16 -14.44 c 1.52 -12.49 7 -19.64 7.51 -20.3 l 0.06 -0.05 c 5.49 0 10.33 0.35 14.24 0.67 c 5.16 0.4 20.52 2.87 20.52 2.87 A 3.58 3.58 0 0 1 269.32 155.52 Z" stroke-linecap="round"/>
</g>
		<g transform="matrix(1 0 0 1 -3.4895 -107.29)" id="freepik--character-1--inject-44">
<path style="stroke: none; stroke-width: 1; stroke-dasharray: none; stroke-linecap: butt; stroke-dashoffset: 0; stroke-linejoin: miter; stroke-miterlimit: 4; is-custom-font: none; font-file-url: none; fill: rgb(255,181,115); fill-rule: nonzero; opacity: 1;" transform=" translate(-246.5105, -142.71)" d="M 238 148.72 c 5.55 -0.94 6.59 -5.54 6.16 -9.74 l 11.77 -7.43 c -1.65 4.71 -3.81 13 -2 17.75 c 0 0 0.06 4.57 -10.09 4.57 S 238 148.72 238 148.72 Z" stroke-linecap="round"/>
</g>
		<g transform="matrix(1 0 0 1 -1.8442 -111.975)" id="freepik--character-1--inject-44">
<path style="stroke: none; stroke-width: 1; stroke-dasharray: none; stroke-linecap: butt; stroke-dashoffset: 0; stroke-linejoin: miter; stroke-miterlimit: 4; is-custom-font: none; font-file-url: none; fill: rgb(0,0,0); fill-rule: nonzero; opacity: 0.2;" transform=" translate(-248.1558, -138.025)" d="M 244.12 139 l 7.81 -4.93 a 4.08 4.08 0 0 1 -0.31 3.52 c -1.39 2.62 -4.86 4.28 -7.49 4.39 A 14.14 14.14 0 0 0 244.12 139 Z" stroke-linecap="round"/>
</g>
		<g transform="matrix(1 0 0 1 -1.8499 -126.5063)" id="freepik--character-1--inject-44">
<path style="stroke: none; stroke-width: 1; stroke-dasharray: none; stroke-linecap: butt; stroke-dashoffset: 0; stroke-linejoin: miter; stroke-miterlimit: 4; is-custom-font: none; font-file-url: none; fill: rgb(255,181,115); fill-rule: nonzero; opacity: 1;" transform=" translate(-248.1501, -123.4937)" d="M 260.52 121.81 c -2.26 8.07 -3.18 12.9 -8.22 16.2 c -7.56 5 -16.84 -1 -17 -9.53 c -0.16 -7.76 3.57 -19.61 12.27 -21.14 a 11.43 11.43 0 0 1 13.27 9.21 A 11.56 11.56 0 0 1 260.52 121.81 Z" stroke-linecap="round"/>
</g>
		<g transform="matrix(1 0 0 1 8.2146 -123.5524)" id="freepik--character-1--inject-44">
<path style="stroke: none; stroke-width: 1; stroke-dasharray: none; stroke-linecap: butt; stroke-dashoffset: 0; stroke-linejoin: miter; stroke-miterlimit: 4; is-custom-font: none; font-file-url: none; fill: rgb(255,181,115); fill-rule: nonzero; opacity: 1;" transform=" translate(-258.2146, -126.4476)" d="M 261.62 128.25 a 7.61 7.61 0 0 1 -5.3 2.26 c -2.65 0 -3.28 -2.53 -1.95 -4.66 c 1.19 -1.91 4 -4.23 6.37 -3.22 S 263.32 126.47 261.62 128.25 Z" stroke-linecap="round"/>
</g>
		<g transform="matrix(1 0 0 1 -3.5675 -128.78)" id="freepik--character-1--inject-44">
<path style="stroke: none; stroke-width: 1; stroke-dasharray: none; stroke-linecap: butt; stroke-dashoffset: 0; stroke-linejoin: miter; stroke-miterlimit: 4; is-custom-font: none; font-file-url: none; fill: rgb(38,50,56); fill-rule: nonzero; opacity: 1;" transform=" translate(-246.4325, -121.22)" d="M 247.22 121.41 c -0.14 0.67 -0.61 1.13 -1.05 1 s -0.66 -0.71 -0.52 -1.38 s 0.61 -1.13 1 -1 S 247.37 120.75 247.22 121.41 Z" stroke-linecap="round"/>
</g>
		<g transform="matrix(1 0 0 1 -11.058 -130.3977)" id="freepik--character-1--inject-44">
<path style="stroke: none; stroke-width: 1; stroke-dasharray: none; stroke-linecap: butt; stroke-dashoffset: 0; stroke-linejoin: miter; stroke-miterlimit: 4; is-custom-font: none; font-file-url: none; fill: rgb(38,50,56); fill-rule: nonzero; opacity: 1;" transform=" translate(-238.942, -119.6023)" d="M 239.7 119.79 c -0.14 0.66 -0.61 1.12 -1 1 s -0.67 -0.71 -0.53 -1.37 s 0.61 -1.14 1.05 -1 S 239.85 119.12 239.7 119.79 Z" stroke-linecap="round"/>
</g>
		<g transform="matrix(1 0 0 1 -9.765 -126.2143)" id="freepik--character-1--inject-44">
<path style="stroke: none; stroke-width: 1; stroke-dasharray: none; stroke-linecap: butt; stroke-dashoffset: 0; stroke-linejoin: miter; stroke-miterlimit: 4; is-custom-font: none; font-file-url: none; fill: rgb(237,137,62); fill-rule: nonzero; opacity: 1;" transform=" translate(-240.235, -123.7857)" d="M 242.44 120.64 a 24.42 24.42 0 0 1 -4.41 5 a 4 4 0 0 0 3.05 1.29 Z" stroke-linecap="round"/>
</g>
		<g transform="matrix(1 0 0 1 -0.7502 -132.564)" id="freepik--character-1--inject-44">
<path style="stroke: none; stroke-width: 1; stroke-dasharray: none; stroke-linecap: butt; stroke-dashoffset: 0; stroke-linejoin: miter; stroke-miterlimit: 4; is-custom-font: none; font-file-url: none; fill: rgb(38,50,56); fill-rule: nonzero; opacity: 1;" transform=" translate(-249.2498, -117.4361)" d="M 250.48 118.85 a 0.67 0.67 0 0 0 0.2 0 a 0.42 0.42 0 0 0 0.2 -0.54 a 4 4 0 0 0 -2.83 -2.29 a 0.4 0.4 0 0 0 -0.46 0.33 a 0.41 0.41 0 0 0 0.34 0.46 h 0 a 3.18 3.18 0 0 1 2.22 1.84 A 0.42 0.42 0 0 0 250.48 118.85 Z" stroke-linecap="round"/>
</g>
		<g transform="matrix(1 0 0 1 -11.0931 -134.9984)" id="freepik--character-1--inject-44">
<path style="stroke: none; stroke-width: 1; stroke-dasharray: none; stroke-linecap: butt; stroke-dashoffset: 0; stroke-linejoin: miter; stroke-miterlimit: 4; is-custom-font: none; font-file-url: none; fill: rgb(38,50,56); fill-rule: nonzero; opacity: 1;" transform=" translate(-238.9069, -115.0016)" d="M 237.43 116.12 a 0.36 0.36 0 0 0 0.35 -0.15 a 3.16 3.16 0 0 1 2.56 -1.29 a 0.4 0.4 0 1 0 0.07 -0.8 a 4 4 0 0 0 -3.29 1.6 a 0.4 0.4 0 0 0 0.06 0.55 h 0 A 0.38 0.38 0 0 0 237.43 116.12 Z" stroke-linecap="round"/>
</g>
		<g transform="matrix(1 0 0 1 -11.525 -131.838)" id="freepik--character-1--inject-44">
<path style="stroke: none; stroke-width: 1; stroke-dasharray: none; stroke-linecap: butt; stroke-dashoffset: 0; stroke-linejoin: miter; stroke-miterlimit: 4; is-custom-font: none; font-file-url: none; fill: rgb(38,50,56); fill-rule: nonzero; opacity: 1;" transform=" translate(-238.475, -118.162)" d="M 239.27 118.48 l -1.59 -0.81 S 238.29 119.15 239.27 118.48 Z" stroke-linecap="round"/>
</g>
		<g transform="matrix(1 0 0 1 -3.865 -130.1334)" id="freepik--character-1--inject-44">
<path style="stroke: none; stroke-width: 1; stroke-dasharray: none; stroke-linecap: butt; stroke-dashoffset: 0; stroke-linejoin: miter; stroke-miterlimit: 4; is-custom-font: none; font-file-url: none; fill: rgb(38,50,56); fill-rule: nonzero; opacity: 1;" transform=" translate(-246.135, -119.8666)" d="M 246.93 120.19 l -1.59 -0.82 S 246 120.86 246.93 120.19 Z" stroke-linecap="round"/>
</g>
		<g transform="matrix(1 0 0 1 -6.1692 -120.8565)" id="freepik--character-1--inject-44">
<path style="stroke: none; stroke-width: 1; stroke-dasharray: none; stroke-linecap: butt; stroke-dashoffset: 0; stroke-linejoin: miter; stroke-miterlimit: 4; is-custom-font: none; font-file-url: none; fill: rgb(38,50,56); fill-rule: nonzero; opacity: 1;" transform=" translate(-243.8307, -129.1435)" d="M 242.43 130.14 a 7.1 7.1 0 0 1 -1.22 -0.11 a 0.21 0.21 0 0 1 -0.18 -0.24 h 0 a 0.22 0.22 0 0 1 0.24 -0.18 a 5.8 5.8 0 0 0 5 -1.4 a 0.21 0.21 0 0 1 0.3 0 a 0.22 0.22 0 0 1 0 0.31 A 6.07 6.07 0 0 1 242.43 130.14 Z" stroke-linecap="round"/>
</g>
		<g transform="matrix(1 0 0 1 -33.5784 51.945)" id="freepik--character-1--inject-44">
<path style="stroke: none; stroke-width: 1; stroke-dasharray: none; stroke-linecap: butt; stroke-dashoffset: 0; stroke-linejoin: miter; stroke-miterlimit: 4; is-custom-font: none; font-file-url: none; fill: rgb(0,155,137); fill-rule: nonzero; opacity: 1;" transform=" translate(-216.4216, -301.945)" d="M 222.16 209.91 L 189.82 390.26 L 201.38 394 c 8.65 -23 15.9 -46.56 21.3 -65 c 2.56 -8.74 3.59 -17 5.55 -24.66 c 2.33 -9.16 5.48 -17.58 7.08 -25.27 c 8.38 -40.27 7.7 -60.44 7.7 -60.44 v -8.74 Z" stroke-linecap="round"/>
</g>
		<g transform="matrix(1 0 0 1 -13.7803 12)" id="freepik--character-1--inject-44">
<path style="stroke: none; stroke-width: 1; stroke-dasharray: none; stroke-linecap: butt; stroke-dashoffset: 0; stroke-linejoin: miter; stroke-miterlimit: 4; is-custom-font: none; font-file-url: none; fill: rgb(0,0,0); fill-rule: nonzero; opacity: 0.3;" transform=" translate(-236.2197, -262)" d="M 239.68 239.84 l 0.75 10.17 c -1.14 8.12 -2.77 17.81 -5.12 29.08 c -0.76 3.66 -1.88 7.49 -3.08 11.48 c -1.42 -25.79 4.48 -57.14 4.48 -57.14 Z" stroke-linecap="round"/>
</g>
		<g transform="matrix(1 0 0 1 -1.2231 53.72)" id="freepik--character-1--inject-44">
<path style="stroke: none; stroke-width: 1; stroke-dasharray: none; stroke-linecap: butt; stroke-dashoffset: 0; stroke-linejoin: miter; stroke-miterlimit: 4; is-custom-font: none; font-file-url: none; fill: rgb(0,155,137); fill-rule: nonzero; opacity: 1;" transform=" translate(-248.7769, -303.72)" d="M 234.63 212.6 l 4.85 184 l 11.92 0.91 c 3.31 -21 5.75 -40.12 7.49 -57.31 C 260 329 259.68 318.6 260.3 309 c 1.15 -17.81 2.71 -32.89 2.62 -45.33 c -0.2 -30.67 -2 -34 -3 -45.33 c -0.2 -2.09 0 -8.41 0 -8.41 H 234.63 Z" stroke-linecap="round"/>
</g>
		<g transform="matrix(1 0 0 1 -4.285 146.265)" id="freepik--character-1--inject-44">
<polygon style="stroke: none; stroke-width: 1; stroke-dasharray: none; stroke-linecap: butt; stroke-dashoffset: 0; stroke-linejoin: miter; stroke-miterlimit: 4; is-custom-font: none; font-file-url: none; fill: rgb(38,50,56); fill-rule: nonzero; opacity: 1;" points="7.345,-1.895 -7.345,-2.805 -7.345,1.895 6.485,2.805 7.345,-1.895 "/>
</g>
		<g transform="matrix(1 0 0 1 4.2756 54.68)" id="freepik--character-1--inject-44">
<path style="stroke: none; stroke-width: 1; stroke-dasharray: none; stroke-linecap: butt; stroke-dashoffset: 0; stroke-linejoin: miter; stroke-miterlimit: 4; is-custom-font: none; font-file-url: none; fill: rgb(0,0,0); fill-rule: nonzero; opacity: 0.4;" transform=" translate(-254.2756, -304.68)" d="M 250.16 396.29 l -0.5 -0.05 l 5 -48.7 a 175.06 175.06 0 0 0 0.91 -19.16 l 0 -7.2 l 2.69 -55.95 a 107.63 107.63 0 0 0 -0.08 -12.05 l -2.49 -40.11 l 0.5 0 l 2.49 40.11 a 108.53 108.53 0 0 1 0.08 12.1 L 256 321.19 l 0.05 7.19 a 176.27 176.27 0 0 1 -0.91 19.22 Z" stroke-linecap="round"/>
</g>
		<g transform="matrix(1 0 0 1 3.145 -36.0665)" id="freepik--character-1--inject-44">
<path style="stroke: none; stroke-width: 1; stroke-dasharray: none; stroke-linecap: butt; stroke-dashoffset: 0; stroke-linejoin: miter; stroke-miterlimit: 4; is-custom-font: none; font-file-url: none; fill: rgb(38,50,56); fill-rule: nonzero; opacity: 1;" transform=" translate(-253.145, -213.9335)" d="M 247.54 212.06 c 5 -0.1 6.87 -0.06 11.21 -0.38 l -0.21 3.63 a 57.54 57.54 0 0 1 -10.9 0.87 Z" stroke-linecap="round"/>
</g>
		<g transform="matrix(1 0 0 1 -10.525 -35.9042)" id="freepik--character-1--inject-44">
<path style="stroke: none; stroke-width: 1; stroke-dasharray: none; stroke-linecap: butt; stroke-dashoffset: 0; stroke-linejoin: miter; stroke-miterlimit: 4; is-custom-font: none; font-file-url: none; fill: rgb(38,50,56); fill-rule: nonzero; opacity: 1;" transform=" translate(-239.475, -214.0958)" d="M 233.21 212 c 3.37 0 9.75 0.11 12.53 0 v 4.11 c -2.46 0.1 -2.16 0.08 -5.09 0.08 l -7.38 -0.07 Z" stroke-linecap="round"/>
</g>
		<g transform="matrix(1 0 0 1 -22.65 -36.095)" id="freepik--character-1--inject-44">
<path style="stroke: none; stroke-width: 1; stroke-dasharray: none; stroke-linecap: butt; stroke-dashoffset: 0; stroke-linejoin: miter; stroke-miterlimit: 4; is-custom-font: none; font-file-url: none; fill: rgb(38,50,56); fill-rule: nonzero; opacity: 1;" transform=" translate(-227.35, -213.905)" d="M 224.1 211.68 c 2.08 0.19 5.3 0.22 7.3 0.33 v 4.12 c -2.26 -0.12 -5.75 -0.17 -8.1 -0.39 Z" stroke-linecap="round"/>
</g>
		<g transform="matrix(1 0 0 1 -54.28 141.91)" id="freepik--character-1--inject-44">
<polygon style="stroke: none; stroke-width: 1; stroke-dasharray: none; stroke-linecap: butt; stroke-dashoffset: 0; stroke-linejoin: miter; stroke-miterlimit: 4; is-custom-font: none; font-file-url: none; fill: rgb(38,50,56); fill-rule: nonzero; opacity: 1;" points="7.58,-0.1 -6.53,-4.28 -7.58,0.3 5.7,4.28 7.58,-0.1 "/>
</g>
		<g transform="matrix(1 0 0 1 -4.0829 -74.7356)" id="freepik--character-1--inject-44">
<path style="stroke: none; stroke-width: 1; stroke-dasharray: none; stroke-linecap: butt; stroke-dashoffset: 0; stroke-linejoin: miter; stroke-miterlimit: 4; is-custom-font: none; font-file-url: none; fill: rgb(255,181,115); fill-rule: nonzero; opacity: 1;" transform=" translate(-245.9171, -175.2644)" d="M 239 179.16 c 0.71 1 6.45 0 6.45 0 l 4.92 0.34 a 1.08 1.08 0 0 0 1.08 -0.94 l 1.38 -6.22 a 0.57 0.57 0 0 0 -0.47 -0.63 l -3.89 -0.7 a 6.12 6.12 0 0 0 -4.5 1 l -4.12 2.8 Z" stroke-linecap="round"/>
</g>
		<g transform="matrix(1 0 0 1 -25.199 -75.1943)" id="freepik--character-1--inject-44">
<path style="stroke: none; stroke-width: 1; stroke-dasharray: none; stroke-linecap: butt; stroke-dashoffset: 0; stroke-linejoin: miter; stroke-miterlimit: 4; is-custom-font: none; font-file-url: none; fill: rgb(255,181,115); fill-rule: nonzero; opacity: 1;" transform=" translate(-224.801, -174.8057)" d="M 240.05 174.45 l -0.25 4.8 s -22.15 8.32 -28.5 4.68 c -4.17 -2.38 0 -12.47 3.37 -19.17 l 8.51 3.19 l -2.81 7.32 Z" stroke-linecap="round"/>
</g>
		<g transform="matrix(1 0 0 1 -4.0829 -74.7356)" id="freepik--character-1--inject-44">
<path style="stroke: none; stroke-width: 1; stroke-dasharray: none; stroke-linecap: butt; stroke-dashoffset: 0; stroke-linejoin: miter; stroke-miterlimit: 4; is-custom-font: none; font-file-url: none; fill: rgb(0,0,0); fill-rule: nonzero; opacity: 0.1;" transform=" translate(-245.9171, -175.2644)" d="M 239 179.16 c 0.71 1 6.45 0 6.45 0 l 4.92 0.34 a 1.08 1.08 0 0 0 1.08 -0.94 l 1.38 -6.22 a 0.57 0.57 0 0 0 -0.47 -0.63 l -3.89 -0.7 a 6.12 6.12 0 0 0 -4.5 1 l -4.12 2.8 Z" stroke-linecap="round"/>
</g>
		<g transform="matrix(1 0 0 1 -25.199 -75.1943)" id="freepik--character-1--inject-44">
<path style="stroke: none; stroke-width: 1; stroke-dasharray: none; stroke-linecap: butt; stroke-dashoffset: 0; stroke-linejoin: miter; stroke-miterlimit: 4; is-custom-font: none; font-file-url: none; fill: rgb(0,0,0); fill-rule: nonzero; opacity: 0.1;" transform=" translate(-224.801, -174.8057)" d="M 240.05 174.45 l -0.25 4.8 s -22.15 8.32 -28.5 4.68 c -4.17 -2.38 0 -12.47 3.37 -19.17 l 8.51 3.19 l -2.81 7.32 Z" stroke-linecap="round"/>
</g>
		<g transform="matrix(1 0 0 1 -1.81 -79.5951)" id="freepik--character-1--inject-44">
<path style="stroke: none; stroke-width: 1; stroke-dasharray: none; stroke-linecap: butt; stroke-dashoffset: 0; stroke-linejoin: miter; stroke-miterlimit: 4; is-custom-font: none; font-file-url: none; fill: rgb(255,181,115); fill-rule: nonzero; opacity: 1;" transform=" translate(-248.19, -170.4049)" d="M 266.27 154.22 L 249.94 176.7 L 226 172.29 L 224.94 177 s 23.17 12.61 29.5 8.91 s 17 -26 17 -26 Z" stroke-linecap="round"/>
</g>
		<g transform="matrix(1 0 0 1 -31.372 -76.9704)" id="freepik--character-1--inject-44">
<path style="stroke: none; stroke-width: 1; stroke-dasharray: none; stroke-linecap: butt; stroke-dashoffset: 0; stroke-linejoin: miter; stroke-miterlimit: 4; is-custom-font: none; font-file-url: none; fill: rgb(255,181,115); fill-rule: nonzero; opacity: 1;" transform=" translate(-218.6279, -173.0296)" d="M 224.94 177 c -0.72 1 -6.45 -0.08 -6.45 -0.08 l -4.93 0.27 a 1.09 1.09 0 0 1 -1.06 -0.95 L 211.2 170 a 0.57 0.57 0 0 1 0.47 -0.63 l 3.9 -0.65 a 6.1 6.1 0 0 1 4.49 1 l 6 2.7 Z" stroke-linecap="round"/>
</g>
		<g transform="matrix(1 0 0 1 12.3182 -85.6862)" id="freepik--character-1--inject-44">
<path style="stroke: none; stroke-width: 1; stroke-dasharray: none; stroke-linecap: butt; stroke-dashoffset: 0; stroke-linejoin: miter; stroke-miterlimit: 4; is-custom-font: none; font-file-url: none; fill: rgb(0,155,137); fill-rule: nonzero; opacity: 1;" transform=" translate(-262.3182, -164.3138)" d="M 269.37 153.66 c 3.85 4.55 2.72 15.78 -2.82 22.93 L 253 168.66 s 7.93 -13.38 12.3 -16 C 267.21 151.52 268 152 269.37 153.66 Z" stroke-linecap="round"/>
</g>
		<g transform="matrix(1 0 0 1 12.3182 -85.6862)" id="freepik--character-1--inject-44">
<path style="stroke: none; stroke-width: 1; stroke-dasharray: none; stroke-linecap: butt; stroke-dashoffset: 0; stroke-linejoin: miter; stroke-miterlimit: 4; is-custom-font: none; font-file-url: none; fill: rgb(0,0,0); fill-rule: nonzero; opacity: 0.6;" transform=" translate(-262.3182, -164.3138)" d="M 269.37 153.66 c 3.85 4.55 2.72 15.78 -2.82 22.93 L 253 168.66 s 7.93 -13.38 12.3 -16 C 267.21 151.52 268 152 269.37 153.66 Z" stroke-linecap="round"/>
</g>
		<g transform="matrix(1 0 0 1 -7.9527 -139.1353)" id="freepik--character-1--inject-44">
<path style="stroke: none; stroke-width: 1; stroke-dasharray: none; stroke-linecap: butt; stroke-dashoffset: 0; stroke-linejoin: miter; stroke-miterlimit: 4; is-custom-font: none; font-file-url: none; fill: rgb(38,50,56); fill-rule: nonzero; opacity: 1;" transform=" translate(-242.0473, -110.8648)" d="M 243.44 105.37 a 8.74 8.74 0 0 0 -7.85 9 c 0 1 1.68 1 2.57 0.54 a 5.38 5.38 0 0 1 1.9 -5 a 7.3 7.3 0 0 0 0 5.83 c 0.69 0.3 1.38 0.48 2.08 0.78 c -0.93 -3 0.47 -6.54 3.42 -7.53 c 1.3 -0.43 2 -2.28 2.95 -3.27 A 10.53 10.53 0 0 0 243.44 105.37 Z" stroke-linecap="round"/>
</g>
		<g transform="matrix(1 0 0 1 6.4155 -128.9875)" id="freepik--character-1--inject-44">
<path style="stroke: none; stroke-width: 1; stroke-dasharray: none; stroke-linecap: butt; stroke-dashoffset: 0; stroke-linejoin: miter; stroke-miterlimit: 4; is-custom-font: none; font-file-url: none; fill: rgb(38,50,56); fill-rule: nonzero; opacity: 1;" transform=" translate(-256.4155, -121.0126)" d="M 244.13 107.81 a 7 7 0 0 0 0.62 9 l 1.55 -0.93 a 7.51 7.51 0 0 1 0.11 -5.08 a 10.72 10.72 0 0 0 3 7.38 c 1.38 0.06 2.81 0.27 4.19 0.34 c -0.68 -2 -1.38 -3.83 -2.05 -5.84 a 26.08 26.08 0 0 1 3.65 20.52 c -0.39 1.56 -1.86 3.28 -2.68 4.66 a 33.93 33.93 0 0 0 3.9 0 c 0.55 0 4.58 -5.06 3.55 -16.39 a 27.14 27.14 0 0 1 -1.73 16.09 a 19.51 19.51 0 0 0 2.76 -0.47 c 0.45 -1.31 1.18 -3.13 1.63 -4.44 a 29.83 29.83 0 0 1 -0.71 4.15 l 0.19 -0.05 c 2 -0.48 4.51 -3.7 5.33 -5.64 c 1.39 -3.29 2.24 -5.35 2.57 -8.63 c 0.43 -4.37 -2.61 -8.44 -5.95 -13.27 c -2.5 -3.61 -5.05 -5.1 -8.16 -5.1 C 251.5 104.09 246.84 104.35 244.13 107.81 Z" stroke-linecap="round"/>
</g>
</g>
</g>
</svg>