<svg xmlns="http://www.w3.org/2000/svg" xmlns:xlink="http://www.w3.org/1999/xlink" version="1.1" width="1000" height="1000" viewBox="0 0 1000 1000" xml:space="preserve">
<desc>Created with Fabric.js 3.5.0</desc>
<defs>
</defs>
<rect x="0" y="0" width="100%" height="100%" fill="rgba(255,255,255,0)"/>
<g transform="matrix(1.8182 0 0 1.8182 500.0045 500.0045)" id="270872">
<g style="" vector-effect="non-scaling-stroke">
		<g transform="matrix(1 0 0 1 -0.47 95.84)" id="freepik--floor--inject-34">
<ellipse style="stroke: none; stroke-width: 1; stroke-dasharray: none; stroke-linecap: butt; stroke-dashoffset: 0; stroke-linejoin: miter; stroke-miterlimit: 4; is-custom-font: none; font-file-url: none; fill: rgb(245,245,245); fill-rule: nonzero; opacity: 1;" cx="0" cy="0" rx="231.15" ry="133.46"/>
</g>
		<g transform="matrix(1 0 0 1 169.915 89.8712)" id="freepik--Shadow--inject-34">
<path style="stroke: none; stroke-width: 1; stroke-dasharray: none; stroke-linecap: butt; stroke-dashoffset: 0; stroke-linejoin: miter; stroke-miterlimit: 4; is-custom-font: none; font-file-url: none; fill: rgb(224,224,224); fill-rule: nonzero; opacity: 1;" transform=" translate(-419.915, -339.8712)" d="M 428.59 369.86 l -60.67 -35 a 1.32 1.32 0 0 1 0 -2.5 l 39 -22.48 a 4.79 4.79 0 0 1 4.33 0 l 60.66 35 a 1.32 1.32 0 0 1 0 2.5 l -39 22.49 A 4.79 4.79 0 0 1 428.59 369.86 Z" stroke-linecap="round"/>
</g>
		<g transform="matrix(1 0 0 1 -84.14 127.6)" id="freepik--shadow--inject-34">
<ellipse style="stroke: none; stroke-width: 1; stroke-dasharray: none; stroke-linecap: butt; stroke-dashoffset: 0; stroke-linejoin: miter; stroke-miterlimit: 4; is-custom-font: none; font-file-url: none; fill: rgb(224,224,224); fill-rule: nonzero; opacity: 1;" cx="0" cy="0" rx="101.93" ry="58.85"/>
</g>
		<g transform="matrix(1 0 0 1 12.08 115.69)" id="freepik--shadow--inject-34">
<ellipse style="stroke: none; stroke-width: 1; stroke-dasharray: none; stroke-linecap: butt; stroke-dashoffset: 0; stroke-linejoin: miter; stroke-miterlimit: 4; is-custom-font: none; font-file-url: none; fill: rgb(224,224,224); fill-rule: nonzero; opacity: 1;" cx="0" cy="0" rx="66.39" ry="38.33"/>
</g>
		<g transform="matrix(1 0 0 1 -203.1137 61.3887)" id="freepik--plants--inject-34">
<path style="stroke: none; stroke-width: 1; stroke-dasharray: none; stroke-linecap: butt; stroke-dashoffset: 0; stroke-linejoin: miter; stroke-miterlimit: 4; is-custom-font: none; font-file-url: none; fill: rgb(55,71,79); fill-rule: nonzero; opacity: 1;" transform=" translate(-46.8864, -311.3887)" d="M 64.51 327.72 l 0.82 -13 s -0.77 -16.61 -17.23 -31.93 c -10 -9.31 -18.27 -4.3 -20.34 0.77 s -0.35 12.76 9.37 19.95 c 15.22 11.25 28 29.06 29.66 41.69 Z" stroke-linecap="round"/>
</g>
		<g transform="matrix(1 0 0 1 -200.7917 53.3985)" id="freepik--plants--inject-34">
<path style="stroke: none; stroke-width: 1; stroke-dasharray: none; stroke-linecap: butt; stroke-dashoffset: 0; stroke-linejoin: miter; stroke-miterlimit: 4; is-custom-font: none; font-file-url: none; fill: rgb(255,255,255); fill-rule: nonzero; opacity: 1;" transform=" translate(-49.2084, -303.3985)" d="M 64 324.05 a 0.59 0.59 0 0 1 -0.62 -0.41 c -7.49 -24.8 -29 -39.68 -29.27 -39.83 A 0.56 0.56 0 0 1 34 283 a 0.58 0.58 0 0 1 0.8 -0.16 c 0.22 0.15 22.11 15.25 29.72 40.45 a 0.59 0.59 0 0 1 -0.38 0.72 Z" stroke-linecap="round"/>
</g>
		<g transform="matrix(1 0 0 1 -204.638 85.6609)" id="freepik--plants--inject-34">
<path style="stroke: none; stroke-width: 1; stroke-dasharray: none; stroke-linecap: butt; stroke-dashoffset: 0; stroke-linejoin: miter; stroke-miterlimit: 4; is-custom-font: none; font-file-url: none; fill: rgb(69,90,100); fill-rule: nonzero; opacity: 1;" transform=" translate(-45.3619, -335.6609)" d="M 65.17 328.15 a 7 7 0 0 0 -1.51 -3.89 c -1.6 -1.85 -4.4 -2.45 -5.75 -4.5 a 16.83 16.83 0 0 1 -1.28 -3.2 a 10.24 10.24 0 0 0 -5.23 -5.37 a 13.79 13.79 0 0 0 -7.51 -1 c -1.93 0.24 -3.8 0.83 -5.73 1.1 c -6.33 0.91 -12.19 -4.9 -18.49 -1 c -3.78 2.36 -3.52 6.48 -1.42 9.93 a 19 19 0 0 0 4.08 4.63 c 1.7 1.44 3.49 2.31 3.67 4.81 c 0.12 1.82 -0.45 3.63 -0.43 5.46 a 10.47 10.47 0 0 0 4 7.74 a 18 18 0 0 0 8.18 3.51 c 2.19 0.42 4.71 0.75 5.92 2.62 a 10.64 10.64 0 0 1 1 3.25 a 13.28 13.28 0 0 0 7.09 8.31 a 20.21 20.21 0 0 0 11 1.68 a 16.75 16.75 0 0 0 8.92 -3.32 c 4.28 -3.5 1.82 -10.11 -1 -13.79 c -1.23 -1.62 -2.75 -3 -3.88 -4.69 c -2.26 -3.35 -1.89 -6.25 -1.68 -10.08 A 13.36 13.36 0 0 0 65.17 328.15 Z" stroke-linecap="round"/>
</g>
		<g transform="matrix(1 0 0 1 -201.7741 84.545)" id="freepik--plants--inject-34">
<path style="stroke: none; stroke-width: 1; stroke-dasharray: none; stroke-linecap: butt; stroke-dashoffset: 0; stroke-linejoin: miter; stroke-miterlimit: 4; is-custom-font: none; font-file-url: none; fill: rgb(255,255,255); fill-rule: nonzero; opacity: 1;" transform=" translate(-48.2259, -334.5451)" d="M 68.51 352.79 a 0.47 0.47 0 0 1 -0.5 -0.23 C 52.7 325 28.14 317.3 27.89 317.22 a 0.48 0.48 0 0 1 -0.32 -0.59 a 0.49 0.49 0 0 1 0.6 -0.32 c 0.25 0.08 25.17 7.9 40.67 35.79 a 0.47 0.47 0 0 1 -0.18 0.64 A 0.3 0.3 0 0 1 68.51 352.79 Z" stroke-linecap="round"/>
</g>
		<g transform="matrix(1 0 0 1 -204.7205 84.5885)" id="freepik--plants--inject-34">
<path style="stroke: none; stroke-width: 1; stroke-dasharray: none; stroke-linecap: butt; stroke-dashoffset: 0; stroke-linejoin: miter; stroke-miterlimit: 4; is-custom-font: none; font-file-url: none; fill: rgb(255,255,255); fill-rule: nonzero; opacity: 1;" transform=" translate(-45.2795, -334.5885)" d="M 53.91 333.84 H 53.8 c -6.73 -0.28 -16.91 2.42 -17 2.45 a 0.46 0.46 0 0 1 -0.58 -0.34 a 0.47 0.47 0 0 1 0.33 -0.58 c 0.42 -0.11 10.43 -2.77 17.3 -2.48 a 0.47 0.47 0 0 1 0.07 0.94 Z" stroke-linecap="round"/>
</g>
		<g transform="matrix(1 0 0 1 -201.0449 73.7668)" id="freepik--plants--inject-34">
<path style="stroke: none; stroke-width: 1; stroke-dasharray: none; stroke-linecap: butt; stroke-dashoffset: 0; stroke-linejoin: miter; stroke-miterlimit: 4; is-custom-font: none; font-file-url: none; fill: rgb(255,255,255); fill-rule: nonzero; opacity: 1;" transform=" translate(-48.9551, -323.7668)" d="M 49 329.27 h 0 a 0.49 0.49 0 0 1 -0.53 -0.41 a 36.43 36.43 0 0 1 0.27 -10.22 a 0.47 0.47 0 0 1 0.55 -0.37 a 0.47 0.47 0 0 1 0.38 0.55 a 35.94 35.94 0 0 0 -0.25 9.92 A 0.48 0.48 0 0 1 49 329.27 Z" stroke-linecap="round"/>
</g>
		<g transform="matrix(1 0 0 1 117.785 -88.785)" id="freepik--screen--inject-34">
<path style="stroke: none; stroke-width: 1; stroke-dasharray: none; stroke-linecap: butt; stroke-dashoffset: 0; stroke-linejoin: miter; stroke-miterlimit: 4; is-custom-font: none; font-file-url: none; fill: rgb(2,137,122); fill-rule: nonzero; opacity: 0.3;" transform=" translate(-367.785, -161.215)" d="M 460.24 135.55 L 275.33 28.8 c -2.78 -1.6 -5 -0.3 -5 2.91 V 178.15 a 11.15 11.15 0 0 0 5 8.73 L 460.24 293.63 c 2.78 1.6 5 0.3 5 -2.91 V 144.28 A 11.15 11.15 0 0 0 460.24 135.55 Z" stroke-linecap="round"/>
</g>
		<g transform="matrix(1 0 0 1 117.785 -88.785)" id="freepik--screen--inject-34">
<path style="stroke: none; stroke-width: 1; stroke-dasharray: none; stroke-linecap: butt; stroke-dashoffset: 0; stroke-linejoin: miter; stroke-miterlimit: 4; is-custom-font: none; font-file-url: none; fill: rgb(255,255,255); fill-rule: nonzero; opacity: 0.5;" transform=" translate(-367.785, -161.215)" d="M 460.24 135.55 L 275.33 28.8 c -2.78 -1.6 -5 -0.3 -5 2.91 V 178.15 a 11.15 11.15 0 0 0 5 8.73 L 460.24 293.63 c 2.78 1.6 5 0.3 5 -2.91 V 144.28 A 11.15 11.15 0 0 0 460.24 135.55 Z" stroke-linecap="round"/>
</g>
		<g transform="matrix(1 0 0 1 117.765 -27.2378)" id="freepik--screen--inject-34">
<path style="stroke: none; stroke-width: 1; stroke-dasharray: none; stroke-linecap: butt; stroke-dashoffset: 0; stroke-linejoin: miter; stroke-miterlimit: 4; is-custom-font: none; font-file-url: none; fill: rgb(2,137,122); fill-rule: nonzero; opacity: 0.3;" transform=" translate(-367.765, -222.7622)" d="M 461.22 266.06 V 247.3 l -12.19 -7 v 14.08 L 445 252 V 228.54 l -8.13 -4.69 v 9.38 l -4.06 -2.35 v 18.76 L 424.66 245 V 230.88 l -4.06 -2.34 v -4.69 l -4.07 -2.35 v -4.69 l -4.06 -2.34 v 4.69 l -4.06 -2.35 v 4.69 l -4.06 -2.34 v 4.69 l -8.13 -4.69 V 205.09 l -12.18 -7 V 221.5 L 380 219.16 V 205.09 l -8.13 -4.7 v 14.08 l -4.06 -2.35 v -4.69 l -8.12 -4.69 v -9.38 l -8.13 -4.69 v 4.69 L 347.48 191 v 14.1 l -4.06 -2.35 V 184 l -4.06 -2.35 v -4.69 l -4.07 -2.34 v -4.69 l -4.06 -2.35 v 4.69 l -4.06 -2.34 v 4.69 l -4.06 -2.35 V 195.7 l -4.06 -2.34 V 184 l -12.05 -7 v 4.77 l -8.27 -4.77 v -9.38 l -4.07 -2.34 v -4.69 l -4.06 -2.35 v -4.69 l -4.06 -2.34 v 4.68 l -4.06 -2.34 v 4.69 l -4.06 -2.35 v 9.39 l -8.13 -4.7 v 17.63 a 11.15 11.15 0 0 0 5 8.73 L 460.24 293.63 c 2.78 1.6 5 0.3 5 -2.91 V 268.41 Z" stroke-linecap="round"/>
</g>
		<g transform="matrix(1 0 0 1 117.785 -88.785)" id="freepik--screen--inject-34">
<path style="stroke: none; stroke-width: 1; stroke-dasharray: none; stroke-linecap: butt; stroke-dashoffset: 0; stroke-linejoin: miter; stroke-miterlimit: 4; is-custom-font: none; font-file-url: none; fill: rgb(2,137,122); fill-rule: nonzero; opacity: 0.3;" transform=" translate(-367.785, -161.215)" d="M 273.08 29.12 a 3.64 3.64 0 0 1 1.75 0.55 L 459.74 136.41 a 10.24 10.24 0 0 1 4.54 7.87 V 290.72 c 0 0.78 -0.18 2.59 -1.79 2.59 a 3.64 3.64 0 0 1 -1.75 -0.55 L 275.83 186 a 10.2 10.2 0 0 1 -4.54 -7.87 V 31.71 c 0 -0.78 0.18 -2.59 1.79 -2.59 m 0 -1 c -1.65 0 -2.79 1.31 -2.79 3.59 V 178.15 a 11.15 11.15 0 0 0 5 8.73 L 460.24 293.63 a 4.62 4.62 0 0 0 2.25 0.68 c 1.65 0 2.79 -1.31 2.79 -3.59 V 144.28 a 11.15 11.15 0 0 0 -5 -8.73 L 275.33 28.8 a 4.62 4.62 0 0 0 -2.25 -0.68 Z" stroke-linecap="round"/>
</g>
		<g transform="matrix(1 0 0 1 113.725 -101.2027)" id="freepik--screen--inject-34">
<path style="stroke: none; stroke-width: 1; stroke-dasharray: none; stroke-linecap: butt; stroke-dashoffset: 0; stroke-linejoin: miter; stroke-miterlimit: 4; is-custom-font: none; font-file-url: none; fill: rgb(255,255,255); fill-rule: nonzero; opacity: 0.5;" transform=" translate(-363.725, -148.7973)" d="M 323.64 104.55 l 80.17 46.29 c 4.79 2.76 8.66 9.47 8.66 15 v 22.21 c 0 5.52 -3.87 7.76 -8.66 5 l -80.17 -46.29 c -4.78 -2.76 -8.66 -9.47 -8.66 -15 V 109.55 C 315 104 318.86 101.79 323.64 104.55 Z" stroke-linecap="round"/>
</g>
		<g transform="matrix(1 0 0 1 113.725 -101.1701)" id="freepik--screen--inject-34">
<path style="stroke: none; stroke-width: 1; stroke-dasharray: none; stroke-linecap: butt; stroke-dashoffset: 0; stroke-linejoin: miter; stroke-miterlimit: 4; is-custom-font: none; font-file-url: none; fill: rgb(2,137,122); fill-rule: nonzero; opacity: 0.5;" transform=" translate(-363.725, -148.8299)" d="M 407.68 194.74 a 8.34 8.34 0 0 1 -4.12 -1.26 L 323.39 147.2 c -4.91 -2.84 -8.91 -9.76 -8.91 -15.44 V 109.55 c 0 -2.86 1 -5 2.79 -6 s 4.15 -0.82 6.62 0.61 l 80.17 46.28 c 4.92 2.84 8.91 9.76 8.91 15.44 v 22.21 c 0 2.86 -1 5 -2.78 6 A 5 5 0 0 1 407.68 194.74 Z m -87.9 -90.88 a 3.89 3.89 0 0 0 -2 0.52 c -1.47 0.85 -2.29 2.68 -2.29 5.17 v 22.21 c 0 5.36 3.77 11.89 8.41 14.57 l 80.17 46.29 c 2.15 1.24 4.15 1.45 5.63 0.6 s 2.28 -2.69 2.28 -5.17 V 165.84 c 0 -5.36 -3.77 -11.89 -8.41 -14.57 L 323.39 105 A 7.37 7.37 0 0 0 319.78 103.86 Z" stroke-linecap="round"/>
</g>
		<g transform="matrix(1 0 0 1 86.5261 -116.7185)" id="freepik--screen--inject-34">
<path style="stroke: none; stroke-width: 1; stroke-dasharray: none; stroke-linecap: butt; stroke-dashoffset: 0; stroke-linejoin: miter; stroke-miterlimit: 4; is-custom-font: none; font-file-url: none; fill: rgb(2,137,122); fill-rule: nonzero; opacity: 0.5;" transform=" translate(-336.5261, -133.2816)" d="M 336.41 122.74 a 9.39 9.39 0 0 1 2.21 1.81 a 14.66 14.66 0 0 1 1.73 2.37 a 12.94 12.94 0 0 1 1.14 2.51 a 7.77 7.77 0 0 1 0.44 2.19 a 0.46 0.46 0 0 1 -0.13 0.37 a 0.2 0.2 0 0 1 -0.27 0 l -2.46 -1.41 a 1.89 1.89 0 0 1 -0.42 -0.36 a 5.37 5.37 0 0 1 -0.33 -0.54 c 0 -0.08 -0.09 -0.21 -0.17 -0.39 a 4.62 4.62 0 0 0 -0.35 -0.62 a 5.53 5.53 0 0 0 -0.56 -0.7 a 3.65 3.65 0 0 0 -0.83 -0.64 a 5.13 5.13 0 0 0 -0.68 -0.32 a 1.45 1.45 0 0 0 -0.58 -0.1 a 0.57 0.57 0 0 0 -0.42 0.21 a 1 1 0 0 0 -0.16 0.63 a 2 2 0 0 0 0.18 0.82 a 3.82 3.82 0 0 0 0.6 0.88 a 13 13 0 0 0 1.12 1.12 l 1.72 1.55 A 16.29 16.29 0 0 1 340 134 a 10.59 10.59 0 0 1 1.29 2 a 9.74 9.74 0 0 1 0.77 2.18 a 11.45 11.45 0 0 1 0.25 2.5 a 5.57 5.57 0 0 1 -0.43 2.38 a 2.61 2.61 0 0 1 -1.21 1.28 a 3 3 0 0 1 -1.84 0.19 a 7.12 7.12 0 0 1 -2.31 -0.9 a 10 10 0 0 1 -2.33 -1.86 a 14.4 14.4 0 0 1 -1.81 -2.42 a 13.19 13.19 0 0 1 -1.19 -2.61 a 8.17 8.17 0 0 1 -0.45 -2.42 a 0.51 0.51 0 0 1 0.12 -0.38 a 0.2 0.2 0 0 1 0.27 0 l 2.46 1.42 a 1.28 1.28 0 0 1 0.41 0.34 a 2.74 2.74 0 0 1 0.3 0.47 l 0.23 0.51 a 6.34 6.34 0 0 0 0.4 0.76 a 4.85 4.85 0 0 0 0.64 0.85 a 4 4 0 0 0 0.95 0.75 a 4.09 4.09 0 0 0 1.66 0.62 q 0.66 0.06 0.66 -0.81 a 1.72 1.72 0 0 0 -0.24 -0.86 a 5.3 5.3 0 0 0 -0.73 -1 c -0.33 -0.35 -0.74 -0.75 -1.25 -1.2 s -1.1 -1 -1.79 -1.61 A 11.1 11.1 0 0 1 332 130.4 a 10.8 10.8 0 0 1 -0.89 -4.48 a 5.89 5.89 0 0 1 0.36 -2.16 a 2.89 2.89 0 0 1 1.06 -1.38 a 2.64 2.64 0 0 1 1.68 -0.4 A 5.26 5.26 0 0 1 336.41 122.74 Z" stroke-linecap="round"/>
</g>
		<g transform="matrix(1 0 0 1 100.055 -110.0717)" id="freepik--screen--inject-34">
<path style="stroke: none; stroke-width: 1; stroke-dasharray: none; stroke-linecap: butt; stroke-dashoffset: 0; stroke-linejoin: miter; stroke-miterlimit: 4; is-custom-font: none; font-file-url: none; fill: rgb(2,137,122); fill-rule: nonzero; opacity: 0.5;" transform=" translate(-350.055, -139.9284)" d="M 355.09 133.82 a 0.93 0.93 0 0 1 0.36 0.43 a 1.53 1.53 0 0 1 0.15 0.64 V 138 a 0.61 0.61 0 0 1 -0.15 0.46 a 0.27 0.27 0 0 1 -0.36 0 l -3.3 -1.91 v 14.81 a 0.63 0.63 0 0 1 -0.15 0.47 a 0.28 0.28 0 0 1 -0.36 0 l -2.45 -1.42 a 0.93 0.93 0 0 1 -0.36 -0.43 a 1.53 1.53 0 0 1 -0.15 -0.64 V 134.53 l -3.3 -1.91 a 0.93 0.93 0 0 1 -0.36 -0.43 a 1.53 1.53 0 0 1 -0.15 -0.64 v -3.06 a 0.61 0.61 0 0 1 0.15 -0.46 a 0.27 0.27 0 0 1 0.36 0 Z" stroke-linecap="round"/>
</g>
		<g transform="matrix(1 0 0 1 112.796 -100.3134)" id="freepik--screen--inject-34">
<path style="stroke: none; stroke-width: 1; stroke-dasharray: none; stroke-linecap: butt; stroke-dashoffset: 0; stroke-linejoin: miter; stroke-miterlimit: 4; is-custom-font: none; font-file-url: none; fill: rgb(2,137,122); fill-rule: nonzero; opacity: 0.5;" transform=" translate(-362.796, -149.6866)" d="M 364.32 139.14 a 1.45 1.45 0 0 1 0.57 0.65 a 3.9 3.9 0 0 1 0.27 0.79 l 4.09 20.56 a 2.38 2.38 0 0 1 0.07 0.47 a 0.52 0.52 0 0 1 -0.12 0.38 a 0.22 0.22 0 0 1 -0.29 0 l -2.36 -1.37 a 1.17 1.17 0 0 1 -0.53 -0.55 a 1.87 1.87 0 0 1 -0.2 -0.59 l -0.53 -2.7 l -5 -2.88 l -0.52 2.09 a 0.71 0.71 0 0 1 -0.2 0.37 c -0.1 0.1 -0.28 0.08 -0.53 -0.07 L 356.69 155 a 0.79 0.79 0 0 1 -0.3 -0.36 a 1.19 1.19 0 0 1 -0.12 -0.51 a 1.41 1.41 0 0 1 0.08 -0.39 l 4.09 -15.83 a 1 1 0 0 1 0.27 -0.48 c 0.13 -0.14 0.32 -0.13 0.57 0 Z m -3 10.87 l 3 1.75 L 362.8 144 Z" stroke-linecap="round"/>
</g>
		<g transform="matrix(1 0 0 1 127.7651 -92.9399)" id="freepik--screen--inject-34">
<path style="stroke: none; stroke-width: 1; stroke-dasharray: none; stroke-linecap: butt; stroke-dashoffset: 0; stroke-linejoin: miter; stroke-miterlimit: 4; is-custom-font: none; font-file-url: none; fill: rgb(2,137,122); fill-rule: nonzero; opacity: 0.5;" transform=" translate(-377.7652, -157.0601)" d="M 377.84 147 a 11.2 11.2 0 0 1 2.21 1.68 a 10 10 0 0 1 1.66 2.17 a 10.47 10.47 0 0 1 1.05 2.67 a 12.71 12.71 0 0 1 0.37 3.15 a 7.28 7.28 0 0 1 -0.58 3.26 a 2.14 2.14 0 0 1 -1.65 1.22 l 2.32 8.22 a 1.22 1.22 0 0 1 0.06 0.35 a 0.48 0.48 0 0 1 -0.12 0.37 a 0.23 0.23 0 0 1 -0.3 0 l -2.55 -1.47 a 1.22 1.22 0 0 1 -0.53 -0.57 a 4.19 4.19 0 0 1 -0.25 -0.66 L 377.45 160 l -1.73 -1 v 6.18 a 0.61 0.61 0 0 1 -0.15 0.46 a 0.27 0.27 0 0 1 -0.36 0 l -2.45 -1.42 a 1 1 0 0 1 -0.36 -0.44 a 1.45 1.45 0 0 1 -0.15 -0.63 V 144.5 a 0.62 0.62 0 0 1 0.15 -0.46 a 0.28 0.28 0 0 1 0.36 0 Z m -2.12 7.53 l 2.12 1.22 a 1.67 1.67 0 0 0 1.3 0.29 c 0.35 -0.11 0.52 -0.57 0.52 -1.38 a 3.42 3.42 0 0 0 -0.52 -2 a 3.86 3.86 0 0 0 -1.3 -1.21 l -2.12 -1.23 Z" stroke-linecap="round"/>
</g>
		<g transform="matrix(1 0 0 1 141.2094 -86.3484)" id="freepik--screen--inject-34">
<path style="stroke: none; stroke-width: 1; stroke-dasharray: none; stroke-linecap: butt; stroke-dashoffset: 0; stroke-linejoin: miter; stroke-miterlimit: 4; is-custom-font: none; font-file-url: none; fill: rgb(2,137,122); fill-rule: nonzero; opacity: 0.5;" transform=" translate(-391.2094, -163.6516)" d="M 396.22 157.56 a 1 1 0 0 1 0.35 0.44 a 1.47 1.47 0 0 1 0.16 0.63 v 3.07 a 0.62 0.62 0 0 1 -0.16 0.46 a 0.27 0.27 0 0 1 -0.35 0 l -3.3 -1.9 v 14.81 a 0.62 0.62 0 0 1 -0.15 0.46 a 0.27 0.27 0 0 1 -0.36 0 L 390 174.16 a 1 1 0 0 1 -0.35 -0.44 a 1.45 1.45 0 0 1 -0.15 -0.63 V 158.27 l -3.3 -1.9 a 1 1 0 0 1 -0.36 -0.44 a 1.45 1.45 0 0 1 -0.15 -0.63 v -3.06 a 0.63 0.63 0 0 1 0.15 -0.47 a 0.28 0.28 0 0 1 0.36 0 Z" stroke-linecap="round"/>
</g>
		<g transform="matrix(1 0 0 1 38.58 -197.6291)" id="freepik--screen--inject-34">
<path style="stroke: none; stroke-width: 1; stroke-dasharray: none; stroke-linecap: butt; stroke-dashoffset: 0; stroke-linejoin: miter; stroke-miterlimit: 4; is-custom-font: none; font-file-url: none; fill: rgb(2,137,122); fill-rule: nonzero; opacity: 0.3;" transform=" translate(-288.58, -52.3709)" d="M 288.58 45.33 a 13.49 13.49 0 0 1 6.09 10.56 c 0 3.88 -2.73 5.46 -6.09 3.51 a 13.43 13.43 0 0 1 -6.09 -10.55 C 282.49 45 285.21 43.39 288.58 45.33 Z" stroke-linecap="round"/>
</g>
		<g transform="matrix(1 0 0 1 38.6678 -197.6237)" id="freepik--screen--inject-34">
<path style="stroke: none; stroke-width: 1; stroke-dasharray: none; stroke-linecap: butt; stroke-dashoffset: 0; stroke-linejoin: miter; stroke-miterlimit: 4; is-custom-font: none; font-file-url: none; fill: rgb(250,250,250); fill-rule: nonzero; opacity: 1;" transform=" translate(-288.6677, -52.3763)" d="M 292.1 53.26 a 5 5 0 0 0 -0.42 -2 h 0 v 0 a 3.48 3.48 0 0 0 -1.28 -1.64 c -0.88 -0.52 -1.61 0.53 -1.73 1.77 c -0.1 -1.37 -0.82 -3.27 -1.7 -3.79 a 1 1 0 0 0 -1.29 0.13 h 0 a 2.29 2.29 0 0 0 -0.44 1.5 c 0 2.1 1.25 4 2.3 6 l 1.12 2.1 l 1.12 -0.79 C 290.83 55.77 292.1 55.36 292.1 53.26 Z" stroke-linecap="round"/>
</g>
		<g transform="matrix(1 0 0 1 56.9096 -187.0773)" id="freepik--screen--inject-34">
<path style="stroke: none; stroke-width: 1; stroke-dasharray: none; stroke-linecap: butt; stroke-dashoffset: 0; stroke-linejoin: miter; stroke-miterlimit: 4; is-custom-font: none; font-file-url: none; fill: rgb(2,137,122); fill-rule: nonzero; opacity: 0.3;" transform=" translate(-306.9097, -62.9227)" d="M 306.86 55.89 A 13.46 13.46 0 0 1 313 66.44 c 0 3.89 -2.73 5.46 -6.09 3.52 a 13.47 13.47 0 0 1 -6.09 -10.56 C 300.77 55.52 303.49 53.94 306.86 55.89 Z" stroke-linecap="round"/>
</g>
		<g transform="matrix(1 0 0 1 56.8575 -187.0458)" id="freepik--screen--inject-34">
<path style="stroke: none; stroke-width: 1; stroke-dasharray: none; stroke-linecap: butt; stroke-dashoffset: 0; stroke-linejoin: miter; stroke-miterlimit: 4; is-custom-font: none; font-file-url: none; fill: rgb(250,250,250); fill-rule: nonzero; opacity: 1;" transform=" translate(-306.8575, -62.9542)" d="M 310.3 63.84 a 5.23 5.23 0 0 0 -0.43 -2 h 0 a 3.51 3.51 0 0 0 -1.29 -1.65 c -0.87 -0.51 -1.61 0.54 -1.72 1.78 c -0.11 -1.37 -0.83 -3.28 -1.7 -3.79 a 1 1 0 0 0 -1.3 0.13 h 0 a 2.27 2.27 0 0 0 -0.44 1.5 c 0 2.1 1.25 4 2.3 6 l 1.11 2.1 L 308 67.1 C 309 66.35 310.29 65.93 310.3 63.84 Z" stroke-linecap="round"/>
</g>
		<g transform="matrix(1 0 0 1 75.115 -176.5195)" id="freepik--screen--inject-34">
<path style="stroke: none; stroke-width: 1; stroke-dasharray: none; stroke-linecap: butt; stroke-dashoffset: 0; stroke-linejoin: miter; stroke-miterlimit: 4; is-custom-font: none; font-file-url: none; fill: rgb(2,137,122); fill-rule: nonzero; opacity: 0.3;" transform=" translate(-325.115, -73.4805)" d="M 325.14 66.44 A 13.48 13.48 0 0 1 331.23 77 c 0 3.89 -2.73 5.46 -6.09 3.52 A 13.46 13.46 0 0 1 319 70 C 319 66.07 321.77 64.5 325.14 66.44 Z" stroke-linecap="round"/>
</g>
		<g transform="matrix(1 0 0 1 75.1331 -176.4937)" id="freepik--screen--inject-34">
<path style="stroke: none; stroke-width: 1; stroke-dasharray: none; stroke-linecap: butt; stroke-dashoffset: 0; stroke-linejoin: miter; stroke-miterlimit: 4; is-custom-font: none; font-file-url: none; fill: rgb(250,250,250); fill-rule: nonzero; opacity: 1;" transform=" translate(-325.1331, -73.5063)" d="M 328.58 74.39 a 5.14 5.14 0 0 0 -0.43 -2 h 0 a 3.55 3.55 0 0 0 -1.29 -1.64 c -0.88 -0.52 -1.61 0.53 -1.72 1.77 c -0.11 -1.37 -0.83 -3.27 -1.71 -3.79 a 1 1 0 0 0 -1.29 0.13 h 0 a 2.29 2.29 0 0 0 -0.45 1.5 c 0 2.1 1.25 4 2.31 6 l 1.11 2.1 l 1.12 -0.79 C 327.3 76.9 328.57 76.49 328.58 74.39 Z" stroke-linecap="round"/>
</g>
		<g transform="matrix(1 0 0 1 135.61 -142.56)" id="freepik--screen--inject-34">
<path style="stroke: none; stroke-width: 1; stroke-dasharray: none; stroke-linecap: butt; stroke-dashoffset: 0; stroke-linejoin: miter; stroke-miterlimit: 4; is-custom-font: none; font-file-url: none; fill: rgb(250,250,250); fill-rule: nonzero; opacity: 1;" transform=" translate(-385.61, -107.44)" d="M 343 78.15 l 85.22 49.2 a 9.29 9.29 0 0 1 4.33 7.19 c 0 2.59 -1.94 3.57 -4.33 2.19 L 343 87.53 a 9.29 9.29 0 0 1 -4.33 -7.19 C 338.7 77.75 340.64 76.77 343 78.15 Z" stroke-linecap="round"/>
</g>
		<g transform="matrix(1 0 0 1 136.065 -142.2901)" id="freepik--screen--inject-34">
<path style="stroke: none; stroke-width: 1; stroke-dasharray: none; stroke-linecap: butt; stroke-dashoffset: 0; stroke-linejoin: miter; stroke-miterlimit: 4; is-custom-font: none; font-file-url: none; fill: rgb(2,137,122); fill-rule: nonzero; opacity: 0.5;" transform=" translate(-386.065, -107.7099)" d="M 341.1 81.71 a 4.65 4.65 0 0 0 2.16 3.6 l 85.61 49.49 c 1.19 0.69 2.16 0.2 2.16 -1.1 a 4.65 4.65 0 0 0 -2.16 -3.59 L 343.26 80.62 C 342.07 79.93 341.1 80.42 341.1 81.71 Z" stroke-linecap="round"/>
</g>
		<g transform="matrix(1 0 0 1 188.8868 -111.3053)" id="freepik--screen--inject-34">
<path style="stroke: none; stroke-width: 1; stroke-dasharray: none; stroke-linecap: butt; stroke-dashoffset: 0; stroke-linejoin: miter; stroke-miterlimit: 4; is-custom-font: none; font-file-url: none; fill: rgb(2,137,122); fill-rule: nonzero; opacity: 0.3;" transform=" translate(-438.8868, -138.6947)" d="M 437 135.29 a 0.66 0.66 0 0 1 0 -0.3 a 0.21 0.21 0 0 1 0.1 -0.19 l 1.93 -1.17 l 0.18 -0.1 a 0.27 0.27 0 0 1 0.24 0 l 1.09 0.63 a 0.41 0.41 0 0 1 0.17 0.21 a 0.75 0.75 0 0 1 0.08 0.31 v 8.95 a 0.28 0.28 0 0 1 -0.08 0.22 c 0 0.05 -0.1 0.05 -0.17 0 l -1.18 -0.68 a 0.47 0.47 0 0 1 -0.17 -0.21 a 0.82 0.82 0 0 1 -0.07 -0.3 v -6.06 l -1.07 0.63 q -0.07 0.06 -0.18 0 a 0.5 0.5 0 0 1 -0.16 -0.23 Z" stroke-linecap="round"/>
</g>
		<g transform="matrix(1 0 0 1 195.14 -108.28)" id="freepik--screen--inject-34">
<path style="stroke: none; stroke-width: 1; stroke-dasharray: none; stroke-linecap: butt; stroke-dashoffset: 0; stroke-linejoin: miter; stroke-miterlimit: 4; is-custom-font: none; font-file-url: none; fill: rgb(2,137,122); fill-rule: nonzero; opacity: 0.3;" transform=" translate(-445.14, -141.72)" d="M 445.14 136.72 a 4.2 4.2 0 0 1 1.16 1 a 5.53 5.53 0 0 1 0.81 1.28 a 7.32 7.32 0 0 1 0.48 1.48 a 10.25 10.25 0 0 1 0.18 1.54 c 0 0.4 0 0.82 0 1.26 s 0 0.83 0 1.21 a 6.48 6.48 0 0 1 -0.18 1.32 a 2.15 2.15 0 0 1 -0.48 0.93 a 1.17 1.17 0 0 1 -0.81 0.35 a 2.28 2.28 0 0 1 -1.16 -0.37 a 4.35 4.35 0 0 1 -1.16 -1 a 5.85 5.85 0 0 1 -0.8 -1.28 a 6.25 6.25 0 0 1 -0.48 -1.48 a 9.13 9.13 0 0 1 -0.19 -1.54 c 0 -0.38 0 -0.79 0 -1.23 s 0 -0.85 0 -1.24 a 5.83 5.83 0 0 1 0.19 -1.32 a 2 2 0 0 1 0.48 -0.93 a 1.16 1.16 0 0 1 0.8 -0.35 A 2.16 2.16 0 0 1 445.14 136.72 Z m 1 6.71 c 0 -0.78 0 -1.55 0 -2.33 c 0 -0.24 0 -0.47 -0.06 -0.68 a 3.77 3.77 0 0 0 -0.16 -0.6 a 1.92 1.92 0 0 0 -0.29 -0.5 a 1.71 1.71 0 0 0 -0.45 -0.39 a 0.75 0.75 0 0 0 -0.45 -0.13 a 0.4 0.4 0 0 0 -0.29 0.17 a 1.21 1.21 0 0 0 -0.16 0.41 a 5.07 5.07 0 0 0 -0.06 0.6 c 0 0.75 0 1.53 0 2.33 a 4.63 4.63 0 0 0 0.06 0.67 a 2.2 2.2 0 0 0 0.16 0.6 a 1.83 1.83 0 0 0 0.29 0.51 a 1.71 1.71 0 0 0 0.45 0.39 a 0.75 0.75 0 0 0 0.45 0.13 a 0.39 0.39 0 0 0 0.29 -0.17 a 1 1 0 0 0 0.17 -0.41 A 3.64 3.64 0 0 0 446.1 143.43 Z" stroke-linecap="round"/>
</g>
		<g transform="matrix(1 0 0 1 201.891 -103.9324)" id="freepik--screen--inject-34">
<path style="stroke: none; stroke-width: 1; stroke-dasharray: none; stroke-linecap: butt; stroke-dashoffset: 0; stroke-linejoin: miter; stroke-miterlimit: 4; is-custom-font: none; font-file-url: none; fill: rgb(2,137,122); fill-rule: nonzero; opacity: 0.3;" transform=" translate(-451.891, -146.0676)" d="M 454.37 145.3 a 4.27 4.27 0 0 1 -0.06 0.74 a 2.25 2.25 0 0 1 -0.18 0.62 a 2 2 0 0 1 -0.34 0.51 a 2.08 2.08 0 0 1 -0.52 0.39 l -1.26 0.74 l 2.26 1.31 a 0.47 0.47 0 0 1 0.17 0.21 a 0.66 0.66 0 0 1 0.07 0.3 v 1.47 a 0.28 0.28 0 0 1 -0.07 0.22 a 0.12 0.12 0 0 1 -0.17 0 l -4.75 -2.74 a 0.41 0.41 0 0 1 -0.17 -0.21 a 0.67 0.67 0 0 1 -0.08 -0.3 v -1.2 a 1.4 1.4 0 0 1 0.06 -0.41 a 0.4 0.4 0 0 1 0.2 -0.25 l 2.69 -1.41 a 0.78 0.78 0 0 0 0.4 -0.43 a 1.89 1.89 0 0 0 0.08 -0.53 c 0 -0.07 0 -0.16 0 -0.29 a 2.34 2.34 0 0 0 -0.1 -0.4 a 2.55 2.55 0 0 0 -0.23 -0.43 a 1.31 1.31 0 0 0 -0.41 -0.36 a 0.52 0.52 0 0 0 -0.4 -0.1 a 0.43 0.43 0 0 0 -0.25 0.15 a 0.83 0.83 0 0 0 -0.12 0.27 c 0 0.1 -0.05 0.17 -0.06 0.22 s -0.08 0.17 -0.14 0.18 a 0.43 0.43 0 0 1 -0.22 -0.07 l -1.11 -0.63 a 0.45 0.45 0 0 1 -0.14 -0.18 a 0.53 0.53 0 0 1 -0.06 -0.24 a 4 4 0 0 1 0.16 -1.07 a 1.9 1.9 0 0 1 0.47 -0.78 a 1.16 1.16 0 0 1 0.77 -0.31 a 2.06 2.06 0 0 1 1.1 0.34 a 4.17 4.17 0 0 1 1.05 0.88 a 5.88 5.88 0 0 1 0.76 1.15 a 6.79 6.79 0 0 1 0.46 1.31 A 6.18 6.18 0 0 1 454.37 145.3 Z" stroke-linecap="round"/>
</g>
		<g transform="matrix(1 0 0 1 208.5656 -100.8051)" id="freepik--screen--inject-34">
<path style="stroke: none; stroke-width: 1; stroke-dasharray: none; stroke-linecap: butt; stroke-dashoffset: 0; stroke-linejoin: miter; stroke-miterlimit: 4; is-custom-font: none; font-file-url: none; fill: rgb(2,137,122); fill-rule: nonzero; opacity: 0.3;" transform=" translate(-458.5656, -149.1949)" d="M 457.56 150.84 l 0.14 0.35 a 2.09 2.09 0 0 0 0.19 0.36 a 1.67 1.67 0 0 0 0.26 0.35 a 1.28 1.28 0 0 0 0.36 0.29 a 0.75 0.75 0 0 0 0.36 0.13 a 0.44 0.44 0 0 0 0.3 0 a 0.48 0.48 0 0 0 0.21 -0.25 a 1.09 1.09 0 0 0 0.08 -0.48 a 1.85 1.85 0 0 0 -0.24 -0.91 a 1.68 1.68 0 0 0 -0.65 -0.67 a 0.59 0.59 0 0 0 -0.24 -0.09 h -0.21 l -0.17 0 a 0.21 0.21 0 0 1 -0.14 0 l -1.4 -0.81 a 0.58 0.58 0 0 1 -0.18 -0.22 a 0.54 0.54 0 0 1 -0.06 -0.3 l 0.27 -4.79 a 0.34 0.34 0 0 1 0.07 -0.22 a 0.12 0.12 0 0 1 0.17 0 l 3.85 2.22 a 0.46 0.46 0 0 1 0.17 0.21 a 0.66 0.66 0 0 1 0.07 0.3 v 1.47 a 0.28 0.28 0 0 1 -0.07 0.22 a 0.12 0.12 0 0 1 -0.17 0 l -2.62 -1.52 l -0.06 1.2 a 0.91 0.91 0 0 1 0.37 0 a 1.32 1.32 0 0 1 0.47 0.18 a 4.11 4.11 0 0 1 1 0.78 a 5.32 5.32 0 0 1 0.78 1.08 a 5.65 5.65 0 0 1 0.51 1.32 a 6.18 6.18 0 0 1 0.19 1.51 a 3.68 3.68 0 0 1 -0.21 1.35 a 1.44 1.44 0 0 1 -0.56 0.75 a 1.16 1.16 0 0 1 -0.83 0.18 a 2.7 2.7 0 0 1 -1 -0.37 a 4.91 4.91 0 0 1 -1.1 -0.87 a 5.57 5.57 0 0 1 -0.81 -1.13 a 5.93 5.93 0 0 1 -0.51 -1.23 a 4.53 4.53 0 0 1 -0.19 -1.21 a 0.31 0.31 0 0 1 0.05 -0.19 a 0.13 0.13 0 0 1 0.15 0 l 1.14 0.66 a 0.66 0.66 0 0 1 0.22 0.22 A 1.88 1.88 0 0 1 457.56 150.84 Z" stroke-linecap="round"/>
</g>
		<g transform="matrix(1 0 0 1 6.5574 97.6999)" id="freepik--character--inject-34">
<path style="stroke: none; stroke-width: 1; stroke-dasharray: none; stroke-linecap: butt; stroke-dashoffset: 0; stroke-linejoin: miter; stroke-miterlimit: 4; is-custom-font: none; font-file-url: none; fill: rgb(177,102,104); fill-rule: nonzero; opacity: 1;" transform=" translate(-256.5574, -347.6999)" d="M 243.75 354.61 c -0.08 -0.17 -5.57 -9.7 -5.57 -9.7 s 1.18 0.7 6.7 -2.41 a 34.39 34.39 0 0 0 5.74 -4.39 l 3.66 7.05 c 2.33 2.48 7.22 -0.22 12.79 -2.37 c 0.93 -0.36 1.88 -0.78 2.83 -1.21 l 0.06 0 c 3.05 -1 6.65 0.06 4.12 3.55 s -7.58 5.87 -12.25 8 C 256.21 355.75 246.33 360.18 243.75 354.61 Z" stroke-linecap="round"/>
</g>
		<g transform="matrix(1 0 0 1 16.1085 106.6126)" id="freepik--character--inject-34">
<path style="stroke: none; stroke-width: 1; stroke-dasharray: none; stroke-linecap: butt; stroke-dashoffset: 0; stroke-linejoin: miter; stroke-miterlimit: 4; is-custom-font: none; font-file-url: none; fill: rgb(38,50,56); fill-rule: nonzero; opacity: 1;" transform=" translate(-266.1085, -356.6126)" d="M 284.71 342.94 a 6.19 6.19 0 0 1 1.25 3 c 0.18 1.17 -1.63 5.79 -6 9.46 s -10.51 5.45 -13.18 7 s -4.89 3.94 -8.08 5.66 s -6.44 3 -10.44 1.68 c -0.88 -0.81 -2.17 -2.86 -2 -3.13 C 246.63 366 284.71 342.94 284.71 342.94 Z" stroke-linecap="round"/>
</g>
		<g transform="matrix(1 0 0 1 13.8161 103.0112)" id="freepik--character--inject-34">
<path style="stroke: none; stroke-width: 1; stroke-dasharray: none; stroke-linecap: butt; stroke-dashoffset: 0; stroke-linejoin: miter; stroke-miterlimit: 4; is-custom-font: none; font-file-url: none; fill: rgb(2,137,122); fill-rule: nonzero; opacity: 1;" transform=" translate(-263.8161, -353.0112)" d="M 255.44 345.93 c 2.59 0.94 6.86 -1.3 11.63 -3.14 c 4.49 -1.74 9.28 -4.73 12.72 -4.46 s 7 3.29 4 9.15 c -0.88 1.7 -2.85 4.8 -4.74 6.09 c -4.79 3.27 -9.5 4.66 -12.68 6.39 c -4.14 2.25 -6.05 4.84 -10 6.39 c -5.14 2 -8.85 1.51 -10.13 0.34 s -5.12 -12.37 -2.79 -12.72 c 0 0 1.92 3.44 9.64 -2.41 C 256.46 349 255.8 346.72 255.44 345.93 Z" stroke-linecap="round"/>
</g>
		<g transform="matrix(1 0 0 1 13.8161 103.0112)" id="freepik--character--inject-34">
<path style="stroke: none; stroke-width: 1; stroke-dasharray: none; stroke-linecap: butt; stroke-dashoffset: 0; stroke-linejoin: miter; stroke-miterlimit: 4; is-custom-font: none; font-file-url: none; fill: rgb(0,0,0); fill-rule: nonzero; opacity: 0.4;" transform=" translate(-263.8161, -353.0112)" d="M 255.44 345.93 c 2.59 0.94 6.86 -1.3 11.63 -3.14 c 4.49 -1.74 9.28 -4.73 12.72 -4.46 s 7 3.29 4 9.15 c -0.88 1.7 -2.85 4.8 -4.74 6.09 c -4.79 3.27 -9.5 4.66 -12.68 6.39 c -4.14 2.25 -6.05 4.84 -10 6.39 c -5.14 2 -8.85 1.51 -10.13 0.34 s -5.12 -12.37 -2.79 -12.72 c 0 0 1.92 3.44 9.64 -2.41 C 256.46 349 255.8 346.72 255.44 345.93 Z" stroke-linecap="round"/>
</g>
		<g transform="matrix(1 0 0 1 17.9656 96.1514)" id="freepik--character--inject-34">
<path style="stroke: none; stroke-width: 1; stroke-dasharray: none; stroke-linecap: butt; stroke-dashoffset: 0; stroke-linejoin: miter; stroke-miterlimit: 4; is-custom-font: none; font-file-url: none; fill: rgb(250,250,250); fill-rule: nonzero; opacity: 1;" transform=" translate(-267.9656, -346.1514)" d="M 271.73 348.21 s -1.76 -4.68 -5.65 -5 a 1.93 1.93 0 0 0 -1.9 0.77 s 3.43 -0.38 6 5 c 0 0 0.27 0.32 0.95 0 C 271.36 348.84 271.86 348.6 271.73 348.21 Z" stroke-linecap="round"/>
</g>
		<g transform="matrix(1 0 0 1 14.5139 97.6686)" id="freepik--character--inject-34">
<path style="stroke: none; stroke-width: 1; stroke-dasharray: none; stroke-linecap: butt; stroke-dashoffset: 0; stroke-linejoin: miter; stroke-miterlimit: 4; is-custom-font: none; font-file-url: none; fill: rgb(250,250,250); fill-rule: nonzero; opacity: 1;" transform=" translate(-264.5139, -347.6686)" d="M 261.25 345.12 s -0.05 -0.16 0.75 -0.54 a 1.5 1.5 0 0 1 1 -0.14 s 3 0.45 4.77 5.36 a 0.93 0.93 0 0 1 -0.61 1 a 0.76 0.76 0 0 1 -1.08 -0.25 S 264.15 345.39 261.25 345.12 Z" stroke-linecap="round"/>
</g>
		<g transform="matrix(1 0 0 1 11.0708 98.8134)" id="freepik--character--inject-34">
<path style="stroke: none; stroke-width: 1; stroke-dasharray: none; stroke-linecap: butt; stroke-dashoffset: 0; stroke-linejoin: miter; stroke-miterlimit: 4; is-custom-font: none; font-file-url: none; fill: rgb(250,250,250); fill-rule: nonzero; opacity: 1;" transform=" translate(-261.0708, -348.8133)" d="M 258.42 346 s 0.07 -0.35 0.7 -0.5 c 0.79 -0.21 1.05 0 1.05 0 s 2.4 1.44 3.52 5.65 c 0 0 0.26 0.69 -0.71 1 s -1 -0.51 -1 -0.51 S 260.19 346.41 258.42 346 Z" stroke-linecap="round"/>
</g>
		<g transform="matrix(1 0 0 1 -21.47 66.6006)" id="freepik--character--inject-34">
<path style="stroke: none; stroke-width: 1; stroke-dasharray: none; stroke-linecap: butt; stroke-dashoffset: 0; stroke-linejoin: miter; stroke-miterlimit: 4; is-custom-font: none; font-file-url: none; fill: rgb(55,71,79); fill-rule: nonzero; opacity: 1;" transform=" translate(-228.53, -316.6006)" d="M 221.86 285.8 c 7.75 11.91 31 53.79 31 53.79 s -5.73 8.68 -14.66 7.74 l -34 -50.84 Z" stroke-linecap="round"/>
</g>
		<g transform="matrix(1 0 0 1 39.6977 115.3491)" id="freepik--character--inject-34">
<path style="stroke: none; stroke-width: 1; stroke-dasharray: none; stroke-linecap: butt; stroke-dashoffset: 0; stroke-linejoin: miter; stroke-miterlimit: 4; is-custom-font: none; font-file-url: none; fill: rgb(177,102,104); fill-rule: nonzero; opacity: 1;" transform=" translate(-289.6977, -365.3491)" d="M 276.29 372.08 c -1.16 -1.15 -6.39 -9.72 -6.39 -9.72 s 3.92 1.3 9.68 -1.35 c 2.93 -1.35 5.13 -5.27 5.13 -5.27 l 4.37 8.37 c 2.13 2.66 6.87 0.68 12.59 -1 c 1 -0.28 1.94 -0.62 2.92 -1 l 0.06 0 c 3.13 -0.73 6.62 0.61 3.82 3.87 s -8 5.24 -12.87 7 C 289.8 375.13 280.66 376.4 276.29 372.08 Z" stroke-linecap="round"/>
</g>
		<g transform="matrix(1 0 0 1 50.3525 125.9645)" id="freepik--character--inject-34">
<path style="stroke: none; stroke-width: 1; stroke-dasharray: none; stroke-linecap: butt; stroke-dashoffset: 0; stroke-linejoin: miter; stroke-miterlimit: 4; is-custom-font: none; font-file-url: none; fill: rgb(38,50,56); fill-rule: nonzero; opacity: 1;" transform=" translate(-300.3524, -375.9645)" d="M 321.45 362.71 a 6.64 6.64 0 0 1 1.07 3.37 c 0.1 1.27 -2.24 6.05 -7.25 9.6 s -11.72 4.91 -14.72 6.38 s -5.57 3.79 -9.14 5.35 s -7.16 2.69 -11.33 0.88 c -0.87 -0.94 -2.06 -3.25 -1.88 -3.53 C 278.68 384 321.45 362.71 321.45 362.71 Z" stroke-linecap="round"/>
</g>
		<g transform="matrix(1 0 0 1 48.3338 121.7687)" id="freepik--character--inject-34">
<path style="stroke: none; stroke-width: 1; stroke-dasharray: none; stroke-linecap: butt; stroke-dashoffset: 0; stroke-linejoin: miter; stroke-miterlimit: 4; is-custom-font: none; font-file-url: none; fill: rgb(2,137,122); fill-rule: nonzero; opacity: 1;" transform=" translate(-298.3338, -371.7686)" d="M 289.9 363.26 a 11.59 11.59 0 0 0 1.24 0.46 a 3.61 3.61 0 0 0 1.27 0 a 17.65 17.65 0 0 0 3 -0.52 c 2.43 -0.62 4.8 -1.48 7.21 -2.19 c 5 -1.47 10.35 -4.25 14 -3.66 s 7.58 4 3.84 10.06 a 23.79 23.79 0 0 1 -5.4 6.12 c -5.17 3.49 -11.11 4.23 -14.67 5.8 c -4.62 2.05 -6.89 4.65 -11.28 6 c -5.67 1.69 -9.6 0.84 -10.87 -0.53 c -0.71 -0.76 -1 -5.41 -2.46 -8.79 c -1.24 -2.9 -1.49 -5 -0.37 -5.08 a 5.38 5.38 0 0 0 1.06 0.9 a 4.21 4.21 0 0 0 1.49 0.76 a 10.51 10.51 0 0 0 2.31 0.29 a 12.77 12.77 0 0 0 4.14 -0.26 a 1.94 1.94 0 0 0 1 -0.56 a 2.29 2.29 0 0 0 0.36 -1.5 c 0 -0.46 0 -0.93 0 -1.39 a 2.06 2.06 0 0 1 0.1 -0.75 a 1.9 1.9 0 0 1 0.58 -0.68 a 5.93 5.93 0 0 0 1.86 -2.13 a 5.1 5.1 0 0 0 0.23 -2.2 a 0.58 0.58 0 0 1 0.08 -0.37 c 0.14 -0.16 0.4 -0.1 0.6 0 S 289.67 363.16 289.9 363.26 Z" stroke-linecap="round"/>
</g>
		<g transform="matrix(1 0 0 1 48.3338 121.7687)" id="freepik--character--inject-34">
<path style="stroke: none; stroke-width: 1; stroke-dasharray: none; stroke-linecap: butt; stroke-dashoffset: 0; stroke-linejoin: miter; stroke-miterlimit: 4; is-custom-font: none; font-file-url: none; fill: rgb(0,0,0); fill-rule: nonzero; opacity: 0.4;" transform=" translate(-298.3338, -371.7686)" d="M 289.9 363.26 a 11.59 11.59 0 0 0 1.24 0.46 a 3.61 3.61 0 0 0 1.27 0 a 17.65 17.65 0 0 0 3 -0.52 c 2.43 -0.62 4.8 -1.48 7.21 -2.19 c 5 -1.47 10.35 -4.25 14 -3.66 s 7.58 4 3.84 10.06 a 23.79 23.79 0 0 1 -5.4 6.12 c -5.17 3.49 -11.11 4.23 -14.67 5.8 c -4.62 2.05 -6.89 4.65 -11.28 6 c -5.67 1.69 -9.6 0.84 -10.87 -0.53 c -0.71 -0.76 -1 -5.41 -2.46 -8.79 c -1.24 -2.9 -1.49 -5 -0.37 -5.08 a 5.38 5.38 0 0 0 1.06 0.9 a 4.21 4.21 0 0 0 1.49 0.76 a 10.51 10.51 0 0 0 2.31 0.29 a 12.77 12.77 0 0 0 4.14 -0.26 a 1.94 1.94 0 0 0 1 -0.56 a 2.29 2.29 0 0 0 0.36 -1.5 c 0 -0.46 0 -0.93 0 -1.39 a 2.06 2.06 0 0 1 0.1 -0.75 a 1.9 1.9 0 0 1 0.58 -0.68 a 5.93 5.93 0 0 0 1.86 -2.13 a 5.1 5.1 0 0 0 0.23 -2.2 a 0.58 0.58 0 0 1 0.08 -0.37 c 0.14 -0.16 0.4 -0.1 0.6 0 S 289.67 363.16 289.9 363.26 Z" stroke-linecap="round"/>
</g>
		<g transform="matrix(1 0 0 1 53.2482 114.6648)" id="freepik--character--inject-34">
<path style="stroke: none; stroke-width: 1; stroke-dasharray: none; stroke-linecap: butt; stroke-dashoffset: 0; stroke-linejoin: miter; stroke-miterlimit: 4; is-custom-font: none; font-file-url: none; fill: rgb(250,250,250); fill-rule: nonzero; opacity: 1;" transform=" translate(-303.2482, -364.6648)" d="M 307.09 367.22 s -1.46 -5.17 -5.6 -5.88 a 2.09 2.09 0 0 0 -2.1 0.66 s 3.71 -0.11 6 5.86 c 0 0 0.25 0.37 1 0.09 C 306.64 367.86 307.21 367.65 307.09 367.22 Z" stroke-linecap="round"/>
</g>
		<g transform="matrix(1 0 0 1 49.4353 116.0248)" id="freepik--character--inject-34">
<path style="stroke: none; stroke-width: 1; stroke-dasharray: none; stroke-linecap: butt; stroke-dashoffset: 0; stroke-linejoin: miter; stroke-miterlimit: 4; is-custom-font: none; font-file-url: none; fill: rgb(250,250,250); fill-rule: nonzero; opacity: 1;" transform=" translate(-299.4353, -366.0248)" d="M 296.15 363 s 0 -0.17 0.85 -0.5 a 1.65 1.65 0 0 1 1.09 -0.07 s 3.12 0.74 4.63 6.15 a 1 1 0 0 1 -0.74 1 a 0.83 0.83 0 0 1 -1.14 -0.36 S 299.23 363.53 296.15 363 Z" stroke-linecap="round"/>
</g>
		<g transform="matrix(1 0 0 1 45.6493 116.9299)" id="freepik--character--inject-34">
<path style="stroke: none; stroke-width: 1; stroke-dasharray: none; stroke-linecap: butt; stroke-dashoffset: 0; stroke-linejoin: miter; stroke-miterlimit: 4; is-custom-font: none; font-file-url: none; fill: rgb(250,250,250); fill-rule: nonzero; opacity: 1;" transform=" translate(-295.6493, -366.9299)" d="M 293.05 363.65 s 0.11 -0.36 0.79 -0.47 c 0.86 -0.15 1.12 0.15 1.12 0.15 s 2.44 1.75 3.27 6.35 c 0 0 0.22 0.76 -0.85 1 s -1.07 -0.63 -1.07 -0.63 S 294.91 364.28 293.05 363.65 Z" stroke-linecap="round"/>
</g>
		<g transform="matrix(1 0 0 1 9.99 84.175)" id="freepik--character--inject-34">
<path style="stroke: none; stroke-width: 1; stroke-dasharray: none; stroke-linecap: butt; stroke-dashoffset: 0; stroke-linejoin: miter; stroke-miterlimit: 4; is-custom-font: none; font-file-url: none; fill: rgb(69,90,100); fill-rule: nonzero; opacity: 1;" transform=" translate(-259.99, -334.175)" d="M 259.31 302.91 c 5.6 9.94 19.5 39.7 26.67 54.47 a 22.61 22.61 0 0 1 -14.36 8.06 L 234 313.71 l 11.2 -9.43 Z" stroke-linecap="round"/>
</g>
		<g transform="matrix(1 0 0 1 -71.57 36.567)" id="freepik--character--inject-34">
<path style="stroke: none; stroke-width: 1; stroke-dasharray: none; stroke-linecap: butt; stroke-dashoffset: 0; stroke-linejoin: miter; stroke-miterlimit: 4; is-custom-font: none; font-file-url: none; fill: rgb(55,71,79); fill-rule: nonzero; opacity: 1;" transform=" translate(-178.43, -286.5671)" d="M 131.12 292.68 s 45.42 -13.71 53.32 -15.87 s 22.38 -5.06 26.81 -3.07 s 6.93 5.48 9.63 9.74 c 2.8 4.42 4.86 8.45 4.86 8.45 S 196 300.06 178 300.06 S 131.12 292.68 131.12 292.68 Z" stroke-linecap="round"/>
</g>
		<g transform="matrix(1 0 0 1 -54.5393 52.8299)" id="freepik--character--inject-34">
<path style="stroke: none; stroke-width: 1; stroke-dasharray: none; stroke-linecap: butt; stroke-dashoffset: 0; stroke-linejoin: miter; stroke-miterlimit: 4; is-custom-font: none; font-file-url: none; fill: rgb(69,90,100); fill-rule: nonzero; opacity: 1;" transform=" translate(-195.4607, -302.8299)" d="M 134.3 274.82 c -2.85 9.73 -6.56 27.07 6.55 39.73 c 5.11 4.94 34.42 20.65 52.42 15.13 c 20.11 -6.17 44.12 -18.06 44.12 -18.06 s 12.14 0.71 16.09 -1.57 s 6.35 -6.05 5.83 -7.14 c -6.27 -13 -11.49 -19.76 -25.06 -18.4 c -16.6 1.66 -44.26 6.7 -44.26 6.7 Z" stroke-linecap="round"/>
</g>
		<g transform="matrix(1 0 0 1 -69.1145 -31.6158)" id="freepik--character--inject-34">
<path style="stroke: none; stroke-width: 1; stroke-dasharray: none; stroke-linecap: butt; stroke-dashoffset: 0; stroke-linejoin: miter; stroke-miterlimit: 4; is-custom-font: none; font-file-url: none; fill: rgb(69,90,100); fill-rule: nonzero; opacity: 1;" transform=" translate(-180.8854, -218.3842)" d="M 201.87 204.36 c -8.6 -7.53 -20.67 -4.1 -27.38 2.43 c -10.28 10 -16.38 22.7 -14.12 29 C 163 243 201.87 204.36 201.87 204.36 Z" stroke-linecap="round"/>
</g>
		<g transform="matrix(1 0 0 1 21.77 -1.3447)" id="freepik--character--inject-34">
<path style="stroke: none; stroke-width: 1; stroke-dasharray: none; stroke-linecap: butt; stroke-dashoffset: 0; stroke-linejoin: miter; stroke-miterlimit: 4; is-custom-font: none; font-file-url: none; fill: rgb(69,90,100); fill-rule: nonzero; opacity: 1;" transform=" translate(-271.7699, -248.6553)" d="M 303.47 248.41 c 0.18 -1.25 -0.83 -2.67 -2.87 -3.71 l -23.8 -12.17 a 17 17 0 0 0 -11.57 -0.8 l -21.76 7.5 c -1.9 0.66 -2.94 1.58 -3 2.48 c -0.05 0.66 -0.4 3.22 -0.42 3.95 s 0.45 1.27 1.46 1.78 c 2.44 1.25 7.91 1.66 12.21 0.92 l 5.52 -0.94 c 4.3 -0.74 9.76 -0.33 12.19 0.9 a 7.08 7.08 0 0 1 3.34 3.41 l -1.28 4.43 a 3.53 3.53 0 0 0 0 2.5 l -0.4 1.4 c -0.49 1.67 -0.65 3.42 3.51 5.26 a 8.66 8.66 0 0 0 8.36 -0.33 l 16.87 -11 a 2.49 2.49 0 0 0 1.24 -1.74 C 303.15 251.6 303.38 249.05 303.47 248.41 Z" stroke-linecap="round"/>
</g>
		<g transform="matrix(1 0 0 1 22.035 -2)" id="freepik--character--inject-34">
<path style="stroke: none; stroke-width: 1; stroke-dasharray: none; stroke-linecap: butt; stroke-dashoffset: 0; stroke-linejoin: miter; stroke-miterlimit: 4; is-custom-font: none; font-file-url: none; fill: rgb(38,50,56); fill-rule: nonzero; opacity: 1;" transform=" translate(-272.035, -248)" d="M 275.87 254.71 l 0.08 -11.54 l -7.18 -1.88 l -0.65 6.08 a 12.07 12.07 0 0 1 3.31 0.95 a 7.08 7.08 0 0 1 3.34 3.41 l -0.52 1.79 Z" stroke-linecap="round"/>
</g>
		<g transform="matrix(1 0 0 1 48.8909 4.6515)" id="freepik--character--inject-34">
<path style="stroke: none; stroke-width: 1; stroke-dasharray: none; stroke-linecap: butt; stroke-dashoffset: 0; stroke-linejoin: miter; stroke-miterlimit: 4; is-custom-font: none; font-file-url: none; fill: rgb(69,90,100); fill-rule: nonzero; opacity: 1;" transform=" translate(-298.8909, -254.6515)" d="M 302.15 245.73 c 2.17 2 2.33 2.59 1.73 10.47 s -2.39 8.09 -4.41 6.74 s -3.39 -5.1 -5.87 -3.57 Z" stroke-linecap="round"/>
</g>
		<g transform="matrix(1 0 0 1 21.9781 -3.2954)" id="freepik--character--inject-34">
<path style="stroke: none; stroke-width: 1; stroke-dasharray: none; stroke-linecap: butt; stroke-dashoffset: 0; stroke-linejoin: miter; stroke-miterlimit: 4; is-custom-font: none; font-file-url: none; fill: rgb(2,137,122); fill-rule: nonzero; opacity: 1;" transform=" translate(-271.9781, -246.7046)" d="M 241.93 243.54 c 2.44 1.25 7.91 1.66 12.21 0.92 l 5.52 -0.94 c 4.3 -0.74 9.76 -0.33 12.19 0.9 s 4 3.6 3.51 5.27 l -1.87 6.47 c -0.49 1.67 -0.65 3.42 3.51 5.26 a 8.67 8.67 0 0 0 8.36 -0.33 l 16.87 -10.95 c 2.19 -1.42 1.46 -3.86 -1.63 -5.44 l -23.8 -12.17 a 17 17 0 0 0 -11.57 -0.8 l -21.76 7.5 C 240.17 240.37 239.48 242.3 241.93 243.54 Z" stroke-linecap="round"/>
</g>
		<g transform="matrix(1 0 0 1 21.9781 -3.2954)" id="freepik--character--inject-34">
<path style="stroke: none; stroke-width: 1; stroke-dasharray: none; stroke-linecap: butt; stroke-dashoffset: 0; stroke-linejoin: miter; stroke-miterlimit: 4; is-custom-font: none; font-file-url: none; fill: rgb(0,0,0); fill-rule: nonzero; opacity: 0.2;" transform=" translate(-271.9781, -246.7046)" d="M 241.93 243.54 c 2.44 1.25 7.91 1.66 12.21 0.92 l 5.52 -0.94 c 4.3 -0.74 9.76 -0.33 12.19 0.9 s 4 3.6 3.51 5.27 l -1.87 6.47 c -0.49 1.67 -0.65 3.42 3.51 5.26 a 8.67 8.67 0 0 0 8.36 -0.33 l 16.87 -10.95 c 2.19 -1.42 1.46 -3.86 -1.63 -5.44 l -23.8 -12.17 a 17 17 0 0 0 -11.57 -0.8 l -21.76 7.5 C 240.17 240.37 239.48 242.3 241.93 243.54 Z" stroke-linecap="round"/>
</g>
		<g transform="matrix(1 0 0 1 42.8503 -4.8943)" id="freepik--character--inject-34">
<path style="stroke: none; stroke-width: 1; stroke-dasharray: none; stroke-linecap: butt; stroke-dashoffset: 0; stroke-linejoin: miter; stroke-miterlimit: 4; is-custom-font: none; font-file-url: none; fill: rgb(38,50,56); fill-rule: nonzero; opacity: 1;" transform=" translate(-292.8502, -245.1058)" d="M 294.81 244.64 a 0.76 0.76 0 0 0 -0.47 -0.59 a 3.5 3.5 0 0 0 -2.7 -0.11 c -0.42 0.17 -0.63 0.4 -0.65 0.65 s -0.09 0.77 -0.1 0.94 s 0.15 0.45 0.47 0.63 a 3.55 3.55 0 0 0 2.7 0.12 c 0.4 -0.16 0.62 -0.39 0.65 -0.63 S 294.82 244.83 294.81 244.64 Z" stroke-linecap="round"/>
</g>
		<g transform="matrix(1 0 0 1 37.1 -2.5543)" id="freepik--character--inject-34">
<path style="stroke: none; stroke-width: 1; stroke-dasharray: none; stroke-linecap: butt; stroke-dashoffset: 0; stroke-linejoin: miter; stroke-miterlimit: 4; is-custom-font: none; font-file-url: none; fill: rgb(55,71,79); fill-rule: nonzero; opacity: 1;" transform=" translate(-287.1, -247.4458)" d="M 289.06 247 a 0.76 0.76 0 0 0 -0.47 -0.62 a 3.5 3.5 0 0 0 -2.7 -0.11 c -0.4 0.16 -0.62 0.39 -0.64 0.62 s -0.1 0.81 -0.11 1 a 0.76 0.76 0 0 0 0.47 0.62 a 3.55 3.55 0 0 0 2.7 0.12 c 0.4 -0.16 0.62 -0.39 0.65 -0.62 S 289.06 247.19 289.06 247 Z" stroke-linecap="round"/>
</g>
		<g transform="matrix(1 0 0 1 37.4491 -5.1258)" id="freepik--character--inject-34">
<path style="stroke: none; stroke-width: 1; stroke-dasharray: none; stroke-linecap: butt; stroke-dashoffset: 0; stroke-linejoin: miter; stroke-miterlimit: 4; is-custom-font: none; font-file-url: none; fill: rgb(38,50,56); fill-rule: nonzero; opacity: 1;" transform=" translate(-287.4492, -244.8742)" d="M 289.41 244.45 c 0 -0.22 -0.15 -0.45 -0.47 -0.63 a 3.55 3.55 0 0 0 -2.7 -0.12 c -0.4 0.16 -0.62 0.39 -0.65 0.63 s -0.08 0.79 -0.1 0.95 s 0.14 0.46 0.47 0.65 a 3.5 3.5 0 0 0 2.7 0.11 c 0.41 -0.16 0.63 -0.4 0.65 -0.64 S 289.4 244.62 289.41 244.45 Z" stroke-linecap="round"/>
</g>
		<g transform="matrix(1 0 0 1 42.4941 -2.2846)" id="freepik--character--inject-34">
<path style="stroke: none; stroke-width: 1; stroke-dasharray: none; stroke-linecap: butt; stroke-dashoffset: 0; stroke-linejoin: miter; stroke-miterlimit: 4; is-custom-font: none; font-file-url: none; fill: rgb(55,71,79); fill-rule: nonzero; opacity: 1;" transform=" translate(-292.4941, -247.7153)" d="M 294.45 247.27 c 0 -0.22 -0.14 -0.45 -0.47 -0.63 a 3.47 3.47 0 0 0 -2.69 -0.12 c -0.4 0.16 -0.62 0.39 -0.65 0.62 s -0.08 0.79 -0.1 1 s 0.13 0.46 0.47 0.66 a 3.54 3.54 0 0 0 2.7 0.11 c 0.4 -0.16 0.61 -0.39 0.64 -0.62 S 294.45 247.44 294.45 247.27 Z" stroke-linecap="round"/>
</g>
		<g transform="matrix(1 0 0 1 42.9 -5.3593)" id="freepik--character--inject-34">
<path style="stroke: none; stroke-width: 1; stroke-dasharray: none; stroke-linecap: butt; stroke-dashoffset: 0; stroke-linejoin: miter; stroke-miterlimit: 4; is-custom-font: none; font-file-url: none; fill: rgb(69,90,100); fill-rule: nonzero; opacity: 1;" transform=" translate(-292.9, -244.6408)" d="M 291.64 243.94 c -0.8 0.32 -0.87 0.9 -0.18 1.29 a 3.55 3.55 0 0 0 2.7 0.12 c 0.8 -0.33 0.87 -0.91 0.18 -1.3 A 3.5 3.5 0 0 0 291.64 243.94 Z" stroke-linecap="round"/>
</g>
		<g transform="matrix(1 0 0 1 37.1537 -3.0093)" id="freepik--character--inject-34">
<path style="stroke: none; stroke-width: 1; stroke-dasharray: none; stroke-linecap: butt; stroke-dashoffset: 0; stroke-linejoin: miter; stroke-miterlimit: 4; is-custom-font: none; font-file-url: none; fill: rgb(69,90,100); fill-rule: nonzero; opacity: 1;" transform=" translate(-287.1537, -246.9908)" d="M 285.89 246.29 c -0.79 0.32 -0.87 0.9 -0.18 1.29 a 3.55 3.55 0 0 0 2.7 0.12 c 0.8 -0.33 0.88 -0.91 0.18 -1.3 A 3.5 3.5 0 0 0 285.89 246.29 Z" stroke-linecap="round"/>
</g>
		<g transform="matrix(1 0 0 1 37.4963 -5.593)" id="freepik--character--inject-34">
<path style="stroke: none; stroke-width: 1; stroke-dasharray: none; stroke-linecap: butt; stroke-dashoffset: 0; stroke-linejoin: miter; stroke-miterlimit: 4; is-custom-font: none; font-file-url: none; fill: rgb(69,90,100); fill-rule: nonzero; opacity: 1;" transform=" translate(-287.4963, -244.407)" d="M 286.24 243.7 c -0.8 0.33 -0.88 0.9 -0.18 1.29 a 3.5 3.5 0 0 0 2.7 0.12 c 0.79 -0.32 0.87 -0.9 0.18 -1.29 A 3.55 3.55 0 0 0 286.24 243.7 Z" stroke-linecap="round"/>
</g>
		<g transform="matrix(1 0 0 1 42.5455 -2.7772)" id="freepik--character--inject-34">
<path style="stroke: none; stroke-width: 1; stroke-dasharray: none; stroke-linecap: butt; stroke-dashoffset: 0; stroke-linejoin: miter; stroke-miterlimit: 4; is-custom-font: none; font-file-url: none; fill: rgb(69,90,100); fill-rule: nonzero; opacity: 1;" transform=" translate(-292.5455, -247.2227)" d="M 291.29 246.52 c -0.8 0.32 -0.88 0.9 -0.18 1.29 a 3.55 3.55 0 0 0 2.7 0.12 c 0.79 -0.33 0.87 -0.9 0.17 -1.29 A 3.47 3.47 0 0 0 291.29 246.52 Z" stroke-linecap="round"/>
</g>
		<g transform="matrix(1 0 0 1 17.515 -14.295)" id="freepik--character--inject-34">
<polygon style="stroke: none; stroke-width: 1; stroke-dasharray: none; stroke-linecap: butt; stroke-dashoffset: 0; stroke-linejoin: miter; stroke-miterlimit: 4; is-custom-font: none; font-file-url: none; fill: rgb(55,71,79); fill-rule: nonzero; opacity: 1;" points="5.635,-1.585 3.105,-2.995 0.235,-1.825 -2.295,-3.235 -5.175,-2.055 -5.285,-0.985 -3.815,-0.165 -5.515,0.525 -5.635,1.595 -3.105,3.005 -0.235,1.825 2.295,3.235 5.165,2.065 5.285,0.995 3.815,0.175 5.515,-0.525 5.635,-1.585 "/>
</g>
		<g transform="matrix(1 0 0 1 17.575 -14.825)" id="freepik--character--inject-34">
<polygon style="stroke: none; stroke-width: 1; stroke-dasharray: none; stroke-linecap: butt; stroke-dashoffset: 0; stroke-linejoin: miter; stroke-miterlimit: 4; is-custom-font: none; font-file-url: none; fill: rgb(69,90,100); fill-rule: nonzero; opacity: 1;" points="3.045,-2.465 0.175,-1.295 -2.355,-2.705 -5.235,-1.525 -2.705,-0.115 -5.575,1.055 -3.055,2.465 -0.175,1.295 2.345,2.705 5.225,1.525 2.695,0.115 5.575,-1.055 3.045,-2.465 "/>
</g>
		<g transform="matrix(1 0 0 1 15.905 -12.41)" id="freepik--character--inject-34">
<polygon style="stroke: none; stroke-width: 1; stroke-dasharray: none; stroke-linecap: butt; stroke-dashoffset: 0; stroke-linejoin: miter; stroke-miterlimit: 4; is-custom-font: none; font-file-url: none; fill: rgb(38,50,56); fill-rule: nonzero; opacity: 1;" points="1.495,-1.12 1.375,-0.06 -1.495,1.12 -1.385,0.05 1.495,-1.12 "/>
</g>
		<g transform="matrix(1 0 0 1 21.71 -15)" id="freepik--character--inject-34">
<polygon style="stroke: none; stroke-width: 1; stroke-dasharray: none; stroke-linecap: butt; stroke-dashoffset: 0; stroke-linejoin: miter; stroke-miterlimit: 4; is-custom-font: none; font-file-url: none; fill: rgb(38,50,56); fill-rule: nonzero; opacity: 1;" points="-1.44,0.29 -0.38,0.88 1.32,0.18 1.44,-0.88 -1.44,0.29 "/>
</g>
		<g transform="matrix(1 0 0 1 21.305 -12.18)" id="freepik--character--inject-34">
<polygon style="stroke: none; stroke-width: 1; stroke-dasharray: none; stroke-linecap: butt; stroke-dashoffset: 0; stroke-linejoin: miter; stroke-miterlimit: 4; is-custom-font: none; font-file-url: none; fill: rgb(38,50,56); fill-rule: nonzero; opacity: 1;" points="1.495,-1.12 1.375,-0.05 -1.495,1.12 -1.385,0.06 1.495,-1.12 "/>
</g>
		<g transform="matrix(1 0 0 1 13.545 -15.405)" id="freepik--character--inject-34">
<polygon style="stroke: none; stroke-width: 1; stroke-dasharray: none; stroke-linecap: butt; stroke-dashoffset: 0; stroke-linejoin: miter; stroke-miterlimit: 4; is-custom-font: none; font-file-url: none; fill: rgb(38,50,56); fill-rule: nonzero; opacity: 1;" points="1.325,0.465 -1.205,-0.945 -1.325,0.175 0.155,0.945 1.325,0.465 "/>
</g>
		<g transform="matrix(1 0 0 1 1.8474 -14.6835)" id="freepik--character--inject-34">
<path style="stroke: none; stroke-width: 1; stroke-dasharray: none; stroke-linecap: butt; stroke-dashoffset: 0; stroke-linejoin: miter; stroke-miterlimit: 4; is-custom-font: none; font-file-url: none; fill: rgb(177,102,104); fill-rule: nonzero; opacity: 1;" transform=" translate(-251.8474, -235.3165)" d="M 243.25 231.83 c 6 -1.36 9.57 -0.31 14.68 -0.52 c 1.65 -0.06 3.05 -0.95 3.86 -0.8 c 1.55 0.3 1.43 1.91 0.43 3 s -2.15 2.12 -6.58 2.81 c -3.78 0.6 -3.93 0.17 -8.36 1.54 l -4.85 2.28 l -1.7 -4.17 Z" stroke-linecap="round"/>
</g>
		<g transform="matrix(1 0 0 1 -2.7822 -16.904)" id="freepik--character--inject-34">
<path style="stroke: none; stroke-width: 1; stroke-dasharray: none; stroke-linecap: butt; stroke-dashoffset: 0; stroke-linejoin: miter; stroke-miterlimit: 4; is-custom-font: none; font-file-url: none; fill: rgb(177,102,104); fill-rule: nonzero; opacity: 1;" transform=" translate(-247.2177, -233.0959)" d="M 254 231.31 a 17.72 17.72 0 0 0 -10.12 -1.16 c -4.89 1.16 -3.14 6.17 -3.14 6.17 Z" stroke-linecap="round"/>
</g>
		<g transform="matrix(1 0 0 1 -36.935 -43.985)" id="freepik--character--inject-34">
<polygon style="stroke: none; stroke-width: 1; stroke-dasharray: none; stroke-linecap: butt; stroke-dashoffset: 0; stroke-linejoin: miter; stroke-miterlimit: 4; is-custom-font: none; font-file-url: none; fill: rgb(177,102,104); fill-rule: nonzero; opacity: 1;" points="16.825,-0.105 2.325,12.865 -16.825,6.145 -3.145,-12.865 16.825,-0.105 "/>
</g>
		<g transform="matrix(1 0 0 1 -3.5233 -64.255)" id="freepik--character--inject-34">
<path style="stroke: none; stroke-width: 1; stroke-dasharray: none; stroke-linecap: butt; stroke-dashoffset: 0; stroke-linejoin: miter; stroke-miterlimit: 4; is-custom-font: none; font-file-url: none; fill: rgb(154,74,77); fill-rule: nonzero; opacity: 1;" transform=" translate(-246.4767, -185.745)" d="M 244.3 181 s 4.86 7.38 4.31 8.11 s -4.14 1.38 -4.14 1.38 Z" stroke-linecap="round"/>
</g>
		<g transform="matrix(1 0 0 1 -27.4432 -66.3648)" id="freepik--character--inject-34">
<path style="stroke: none; stroke-width: 1; stroke-dasharray: none; stroke-linecap: butt; stroke-dashoffset: 0; stroke-linejoin: miter; stroke-miterlimit: 4; is-custom-font: none; font-file-url: none; fill: rgb(177,102,104); fill-rule: nonzero; opacity: 1;" transform=" translate(-222.5569, -183.6352)" d="M 230.79 160.62 c 9.84 2.07 12.68 6.4 13.61 22 c 1 16.34 -0.7 21.48 -2.84 23.68 c -1.45 1.48 -9.5 1.75 -13.56 0.63 c -5.09 -1.4 -16.58 -5.47 -22 -13.69 c -6.32 -9.67 -8 -22.77 -1.21 -28.15 C 214.36 157.56 226.79 159.77 230.79 160.62 Z" stroke-linecap="round"/>
</g>
		<g transform="matrix(1 0 0 1 -15.71 -44.5541)" id="freepik--character--inject-34">
<path style="stroke: none; stroke-width: 1; stroke-dasharray: none; stroke-linecap: butt; stroke-dashoffset: 0; stroke-linejoin: miter; stroke-miterlimit: 4; is-custom-font: none; font-file-url: none; fill: rgb(154,74,77); fill-rule: nonzero; opacity: 1;" transform=" translate(-234.29, -205.4459)" d="M 228.45 207.07 c 4.23 1.06 10.71 0.63 12.66 -0.43 a 14.61 14.61 0 0 1 -7.15 -0.43 a 23.43 23.43 0 0 1 -6.49 -3 Z" stroke-linecap="round"/>
</g>
		<g transform="matrix(1 0 0 1 -28.3351 -72.5588)" id="freepik--character--inject-34">
<path style="stroke: none; stroke-width: 1; stroke-dasharray: none; stroke-linecap: butt; stroke-dashoffset: 0; stroke-linejoin: miter; stroke-miterlimit: 4; is-custom-font: none; font-file-url: none; fill: rgb(38,50,56); fill-rule: nonzero; opacity: 1;" transform=" translate(-221.665, -177.4412)" d="M 246.58 167.37 l 0 0 c -2.81 1.84 -6.19 2.55 -9.51 3 c 0.2 2.65 -0.7 5.25 -1.58 7.76 c -0.61 1.74 -2.79 7.19 -5 4.12 c -1.57 -2.22 -3 -4.24 -6.1 -3.77 c -5.12 0.76 -5.81 7.29 -2.59 11.26 s 6.24 2.45 6.24 2.45 s 0.31 7 -3.51 11.93 a 16.75 16.75 0 0 1 -13.33 0.53 c -4.86 -1.72 -11.8 -8.07 -14.3 -12.95 c -6.87 -13.45 -6.62 -26.17 2.18 -29.89 c 1 -6.35 6 -9.19 11.64 -10.5 c 7.9 -1.82 15.95 3.3 23.61 0.22 c 1.62 -0.65 3.11 -1.59 4.76 -2.14 a 3.23 3.23 0 0 1 2.82 0.07 a 3.4 3.4 0 0 1 1.16 2.19 a 6.1 6.1 0 0 1 -0.4 4.53 a 13.36 13.36 0 0 1 3.6 -1.24 a 4.5 4.5 0 0 1 3.59 0.9 a 4.62 4.62 0 0 1 1.37 3.18 C 251.49 162.36 249.37 165.53 246.58 167.37 Z" stroke-linecap="round"/>
</g>
		<g transform="matrix(1 0 0 1 -53.7363 -88.5883)" id="freepik--character--inject-34">
<path style="stroke: none; stroke-width: 1; stroke-dasharray: none; stroke-linecap: butt; stroke-dashoffset: 0; stroke-linejoin: miter; stroke-miterlimit: 4; is-custom-font: none; font-file-url: none; fill: rgb(38,50,56); fill-rule: nonzero; opacity: 1;" transform=" translate(-196.2637, -161.4117)" d="M 199 163.94 l -5.89 -3.47 a 3.42 3.42 0 0 1 5.89 3.47 Z" stroke-linecap="round"/>
</g>
		<g transform="matrix(1 0 0 1 -62.8546 5.987)" id="freepik--character--inject-34">
<path style="stroke: none; stroke-width: 1; stroke-dasharray: none; stroke-linecap: butt; stroke-dashoffset: 0; stroke-linejoin: miter; stroke-miterlimit: 4; is-custom-font: none; font-file-url: none; fill: rgb(2,137,122); fill-rule: nonzero; opacity: 1;" transform=" translate(-187.1454, -255.987)" d="M 201.87 204.36 c -10.84 -3.24 -19.77 -1.6 -33.93 11.89 C 152.42 231 141 256.06 137 283.09 c 0 0 0.53 12.49 15 20.8 c 15.35 8.81 39.07 6.66 48.6 -9.2 c 0 0 2 -14.13 8.33 -21.69 c 4.1 -4.9 13.58 -15.72 20.58 -23.45 c 6.09 -6.73 12.45 -23.14 2.88 -30.87 c -2.81 -2.26 -5.57 -4 -9.46 -6.56 C 213 213.88 200.09 208 201.87 204.36 Z" stroke-linecap="round"/>
</g>
		<g transform="matrix(1 0 0 1 -62.8546 5.987)" id="freepik--character--inject-34">
<path style="stroke: none; stroke-width: 1; stroke-dasharray: none; stroke-linecap: butt; stroke-dashoffset: 0; stroke-linejoin: miter; stroke-miterlimit: 4; is-custom-font: none; font-file-url: none; fill: rgb(255,255,255); fill-rule: nonzero; opacity: 0.75;" transform=" translate(-187.1454, -255.987)" d="M 201.87 204.36 c -10.84 -3.24 -19.77 -1.6 -33.93 11.89 C 152.42 231 141 256.06 137 283.09 c 0 0 0.53 12.49 15 20.8 c 15.35 8.81 39.07 6.66 48.6 -9.2 c 0 0 2 -14.13 8.33 -21.69 c 4.1 -4.9 13.58 -15.72 20.58 -23.45 c 6.09 -6.73 12.45 -23.14 2.88 -30.87 c -2.81 -2.26 -5.57 -4 -9.46 -6.56 C 213 213.88 200.09 208 201.87 204.36 Z" stroke-linecap="round"/>
</g>
		<g transform="matrix(1 0 0 1 -62.86 19.25)" id="freepik--character--inject-34">
<path style="stroke: none; stroke-width: 1; stroke-dasharray: none; stroke-linecap: butt; stroke-dashoffset: 0; stroke-linejoin: miter; stroke-miterlimit: 4; is-custom-font: none; font-file-url: none; fill: rgb(2,137,122); fill-rule: nonzero; opacity: 0.1;" transform=" translate(-187.14, -269.25)" d="M 230.39 248.53 l 0.48 -0.62 l 0.21 -0.28 l 0.52 -0.74 c 0 -0.06 0.09 -0.12 0.13 -0.19 q 0.33 -0.49 0.66 -1 a 0.31 0.31 0 0 0 0.05 -0.1 c 0.2 -0.31 0.39 -0.64 0.58 -1 l 0.13 -0.24 c 0.17 -0.31 0.35 -0.63 0.51 -1 a 1.62 1.62 0 0 0 0.1 -0.18 a 37.29 37.29 0 0 0 1.67 -3.8 l 0 -0.07 a 27.38 27.38 0 0 0 1.85 -9.77 a 53.23 53.23 0 0 1 -12.45 14.09 c -6.33 5 -13.77 8.51 -19.76 13.9 c -6.34 5.72 -11.36 13 -16.91 19.47 c -2.23 2.58 -5.5 7.72 -8.9 7.45 c -4.15 -0.33 -7.35 -5.91 -9.09 -9.69 c -2.78 -6 -4.85 -13.35 -8.59 -18.83 c -3.27 -4.79 -8.49 -11.08 -14.14 -9.39 A 141.26 141.26 0 0 0 137 283.09 s 0.53 12.49 15 20.8 a 35.48 35.48 0 0 0 4 2 c 0.42 0.07 0.84 0.16 1.25 0.26 c 2.07 0.54 4 1.55 6.13 2 l 0.76 0.15 l 0.86 0.15 l 0.92 0.14 l 0.78 0.11 l 1 0.12 l 0.69 0.06 l 1.08 0.08 l 0.65 0 l 1.1 0 H 173 l 0.7 0 l 1 -0.05 l 0.79 -0.06 l 0.91 -0.08 l 0.87 -0.1 l 0.83 -0.11 l 1 -0.16 l 0.65 -0.12 c 0.43 -0.08 0.85 -0.16 1.27 -0.26 l 0.27 -0.06 c 7.87 -1.85 15.13 -6.25 19.37 -13.31 c 0 0 0.1 -0.68 0.31 -1.81 c 0.07 -0.33 0.14 -0.69 0.22 -1.09 c 0.16 -0.78 0.37 -1.7 0.62 -2.71 a 55.55 55.55 0 0 1 3.62 -10.39 a 32 32 0 0 1 1.89 -3.41 c 0.35 -0.54 0.71 -1.06 1.09 -1.56 L 209 273 l 0.83 -1 c 3.85 -4.55 10.93 -12.64 17 -19.43 l 2.73 -3 l 0.66 -0.78 Z" stroke-linecap="round"/>
</g>
		<g transform="matrix(1 0 0 1 7.6448 6.7625)" id="freepik--character--inject-34">
<path style="stroke: none; stroke-width: 1; stroke-dasharray: none; stroke-linecap: butt; stroke-dashoffset: 0; stroke-linejoin: miter; stroke-miterlimit: 4; is-custom-font: none; font-file-url: none; fill: rgb(177,102,104); fill-rule: nonzero; opacity: 1;" transform=" translate(-257.6448, -256.7625)" d="M 294.16 264.43 c -3.35 5.34 -4 8.69 -18.49 9.82 c 0 0 -27.19 17.06 -35.92 20.19 s -11.88 -1.78 -13.7 -9.69 S 219.46 247 219.46 247 s -3.79 -18.41 11.67 -28.87 c 6.55 5 10 10.11 11.1 18.91 c 1.29 10.53 3.17 35.26 3.17 35.26 s 22.93 -10 26.39 -13.44 a 25.19 25.19 0 0 0 2.75 -3.49 c 1.46 -2 3.52 -4.18 4.1 -6.81 c 0.91 -4.17 2.83 -3.59 3.52 -1.3 a 16.6 16.6 0 0 1 -0.07 9 s 7.09 5.57 10.57 3.7 l 0.94 -0.6 h 0 a 2 2 0 0 1 2.58 0.23 C 296.37 260.55 296.21 261.17 294.16 264.43 Z" stroke-linecap="round"/>
</g>
		<g transform="matrix(1 0 0 1 -18.3137 -4.535)" id="freepik--character--inject-34">
<path style="stroke: none; stroke-width: 1; stroke-dasharray: none; stroke-linecap: butt; stroke-dashoffset: 0; stroke-linejoin: miter; stroke-miterlimit: 4; is-custom-font: none; font-file-url: none; fill: rgb(69,90,100); fill-rule: nonzero; opacity: 1;" transform=" translate(-231.6864, -245.465)" d="M 229.39 216.44 c 8.72 4.11 13 10.68 13.9 20.62 s 2.11 27.21 2.11 27.21 s -0.54 6.3 -8.88 9.23 a 16 16 0 0 1 -14.36 -1.66 l -3.46 -22.5 S 213.81 225 229.39 216.44 Z" stroke-linecap="round"/>
</g>
		<g transform="matrix(1 0 0 1 -86.6901 78.3233)" id="freepik--puff--inject-34">
<path style="stroke: none; stroke-width: 1; stroke-dasharray: none; stroke-linecap: butt; stroke-dashoffset: 0; stroke-linejoin: miter; stroke-miterlimit: 4; is-custom-font: none; font-file-url: none; fill: rgb(2,137,122); fill-rule: nonzero; opacity: 1;" transform=" translate(-163.3099, -328.3233)" d="M 166.06 289.21 c -14.27 -17.46 -27.54 -38.41 -38.52 -44.74 c -19.76 -11.38 -59.9 13.63 -64.29 70.7 S 101 404.22 141.73 413 c 20.85 4.48 48.25 -0.06 59 -3.78 c 32.77 -11.35 51.12 -27.23 59 -49.18 c 8.6 -24.06 2.09 -38.53 -9.11 -44.69 a 25.89 25.89 0 0 0 -16.49 -2.72 C 194.29 318.87 177.11 302.73 166.06 289.21 Z" stroke-linecap="round"/>
</g>
		<g transform="matrix(1 0 0 1 -93.8941 75.4316)" id="freepik--puff--inject-34">
<path style="stroke: none; stroke-width: 1; stroke-dasharray: none; stroke-linecap: butt; stroke-dashoffset: 0; stroke-linejoin: miter; stroke-miterlimit: 4; is-custom-font: none; font-file-url: none; fill: rgb(0,0,0); fill-rule: nonzero; opacity: 0.2;" transform=" translate(-156.1059, -325.4317)" d="M 215.85 403.15 l 1.8 -0.84 c 2.86 -14 1.25 -27.12 -4.85 -39.26 c -6 -11.85 -16.19 -22.95 -31.28 -34 c -22.25 -16.23 -31 -31.63 -39.42 -46.52 c -3.09 -5.46 -6 -10.62 -9.54 -15.71 c -7.87 -11.36 -15.72 -17.33 -24.69 -18.77 a 30 30 0 0 0 -11 0.38 q -1.85 1.2 -3.68 2.63 a 30.76 30.76 0 0 1 14.37 -1.42 c 8.51 1.37 16 7.12 23.63 18.1 c 3.48 5 6.39 10.16 9.46 15.58 c 8.52 15.05 17.34 30.6 39.87 47 C 200 344.58 223.91 367.16 215.85 403.15 Z" stroke-linecap="round"/>
</g>
		<g transform="matrix(1 0 0 1 -88.3693 90.7263)" id="freepik--puff--inject-34">
<path style="stroke: none; stroke-width: 1; stroke-dasharray: none; stroke-linecap: butt; stroke-dashoffset: 0; stroke-linejoin: miter; stroke-miterlimit: 4; is-custom-font: none; font-file-url: none; fill: rgb(0,0,0); fill-rule: nonzero; opacity: 0.1;" transform=" translate(-161.6307, -340.7263)" d="M 141.73 413 c 20.85 4.48 48.25 -0.06 59 -3.78 c 32.77 -11.35 51.12 -27.23 59 -49.18 c 0.21 -0.59 0.39 -1.16 0.58 -1.74 l -0.48 -0.19 c -8.39 -2.73 -17.41 0.54 -25.72 3.49 c -20.9 7.42 -44.52 12.91 -64.75 3.84 c -13.32 -6 -27.05 -15.33 -34.13 -28.1 s -10.35 -27.36 -15.49 -41 c -2.32 -6.15 -4.48 -14.1 -9.7 -20.09 c -4.89 -5.6 -11.34 -9.67 -18.77 -9.66 c -6.1 0 -11.74 1.84 -17 8.06 c -5.68 10.91 -9.77 24.47 -11 40.58 C 58.86 372.25 101 404.22 141.73 413 Z" stroke-linecap="round"/>
</g>
		<g transform="matrix(1 0 0 1 166.545 86.5825)" id="freepik--console--inject-34">
<path style="stroke: none; stroke-width: 1; stroke-dasharray: none; stroke-linecap: butt; stroke-dashoffset: 0; stroke-linejoin: miter; stroke-miterlimit: 4; is-custom-font: none; font-file-url: none; fill: rgb(55,71,79); fill-rule: nonzero; opacity: 1;" transform=" translate(-416.545, -336.5825)" d="M 433.45 365.54 l 28.4 -16.4 a 5.65 5.65 0 0 0 2.55 -4.42 v 0.33 a 5.64 5.64 0 0 0 -2.55 -4.42 l -57.11 -33 a 5.66 5.66 0 0 0 -5.1 0 l -28.4 16.4 a 5.62 5.62 0 0 0 -2.55 4.41 v -0.32 a 5.62 5.62 0 0 0 2.55 4.41 l 57.11 33 A 5.66 5.66 0 0 0 433.45 365.54 Z" stroke-linecap="round"/>
</g>
		<g transform="matrix(1 0 0 1 197.66 94.4603)" id="freepik--console--inject-34">
<path style="stroke: none; stroke-width: 1; stroke-dasharray: none; stroke-linecap: butt; stroke-dashoffset: 0; stroke-linejoin: miter; stroke-miterlimit: 4; is-custom-font: none; font-file-url: none; fill: rgb(38,50,56); fill-rule: nonzero; opacity: 1;" transform=" translate(-447.66, -344.4603)" d="M 430.91 322.77 l 30.95 17.86 a 5.64 5.64 0 0 1 2.55 4.42 v -0.33 a 5.65 5.65 0 0 1 -2.55 4.42 l -28.4 16.4 a 5.31 5.31 0 0 1 -2.55 0.61 Z" stroke-linecap="round"/>
</g>
		<g transform="matrix(1 0 0 1 166.555 83.8342)" id="freepik--console--inject-34">
<path style="stroke: none; stroke-width: 1; stroke-dasharray: none; stroke-linecap: butt; stroke-dashoffset: 0; stroke-linejoin: miter; stroke-miterlimit: 4; is-custom-font: none; font-file-url: none; fill: rgb(69,90,100); fill-rule: nonzero; opacity: 1;" transform=" translate(-416.555, -333.8343)" d="M 461.86 343.58 L 433.46 360 a 5.59 5.59 0 0 1 -5.1 0 l -57.11 -33 c -1.41 -0.81 -1.41 -2.13 0 -2.94 l 28.4 -16.4 a 5.66 5.66 0 0 1 5.1 0 l 57.11 33 C 463.27 341.45 463.27 342.77 461.86 343.58 Z" stroke-linecap="round"/>
</g>
		<g transform="matrix(1 0 0 1 166.555 89.8997)" id="freepik--console--inject-34">
<path style="stroke: none; stroke-width: 1; stroke-dasharray: none; stroke-linecap: butt; stroke-dashoffset: 0; stroke-linejoin: miter; stroke-miterlimit: 4; is-custom-font: none; font-file-url: none; fill: rgb(2,137,122); fill-rule: nonzero; opacity: 1;" transform=" translate(-416.555, -339.8997)" d="M 461.86 338.19 v 2.71 l -29.48 17 a 2.74 2.74 0 0 1 -1.06 0.37 a 2.9 2.9 0 0 1 -1.88 -0.37 l -58.19 -33.59 v -2.81 l 57.11 33.06 a 5.63 5.63 0 0 0 5.1 0 Z" stroke-linecap="round"/>
</g>
		<g transform="matrix(1 0 0 1 196.38 98.23)" id="freepik--console--inject-34">
<path style="stroke: none; stroke-width: 1; stroke-dasharray: none; stroke-linecap: butt; stroke-dashoffset: 0; stroke-linejoin: miter; stroke-miterlimit: 4; is-custom-font: none; font-file-url: none; fill: rgb(0,0,0); fill-rule: nonzero; opacity: 0.2;" transform=" translate(-446.38, -348.23)" d="M 461.86 338.19 v 2.71 l -29.48 17 a 2.74 2.74 0 0 1 -1.06 0.37 l -0.42 0 v -3.12 a 5.21 5.21 0 0 0 2.56 -0.61 Z" stroke-linecap="round"/>
</g>
		<g transform="matrix(1 0 0 1 166.555 72.8368)" id="freepik--console--inject-34">
<path style="stroke: none; stroke-width: 1; stroke-dasharray: none; stroke-linecap: butt; stroke-dashoffset: 0; stroke-linejoin: miter; stroke-miterlimit: 4; is-custom-font: none; font-file-url: none; fill: rgb(55,71,79); fill-rule: nonzero; opacity: 1;" transform=" translate(-416.555, -322.8368)" d="M 433.46 354.58 l 28.4 -16.39 a 5.63 5.63 0 0 0 2.55 -4.42 v -5.25 a 5.63 5.63 0 0 0 -2.55 -4.42 l -57.11 -33 a 5.66 5.66 0 0 0 -5.1 0 l -28.4 16.39 a 5.66 5.66 0 0 0 -2.55 4.42 v 5.25 a 5.47 5.47 0 0 0 2.55 4.33 l 57.11 33.06 A 5.59 5.59 0 0 0 433.46 354.58 Z" stroke-linecap="round"/>
</g>
		<g transform="matrix(1 0 0 1 197.66 80.7106)" id="freepik--console--inject-34">
<path style="stroke: none; stroke-width: 1; stroke-dasharray: none; stroke-linecap: butt; stroke-dashoffset: 0; stroke-linejoin: miter; stroke-miterlimit: 4; is-custom-font: none; font-file-url: none; fill: rgb(38,50,56); fill-rule: nonzero; opacity: 1;" transform=" translate(-447.66, -330.7106)" d="M 430.91 306.23 l 30.95 17.87 a 5.63 5.63 0 0 1 2.55 4.42 v 5.25 a 5.63 5.63 0 0 1 -2.55 4.42 l -28.4 16.39 a 5.17 5.17 0 0 1 -2.55 0.61 Z" stroke-linecap="round"/>
</g>
		<g transform="matrix(1 0 0 1 166.555 67.245)" id="freepik--console--inject-34">
<path style="stroke: none; stroke-width: 1; stroke-dasharray: none; stroke-linecap: butt; stroke-dashoffset: 0; stroke-linejoin: miter; stroke-miterlimit: 4; is-custom-font: none; font-file-url: none; fill: rgb(69,90,100); fill-rule: nonzero; opacity: 1;" transform=" translate(-416.555, -317.245)" d="M 461.86 327.05 l -28.4 16.39 a 5.66 5.66 0 0 1 -5.1 0 l -57.11 -33 c -1.41 -0.81 -1.41 -2.13 0 -3 l 28.4 -16.39 a 5.66 5.66 0 0 1 5.1 0 l 57.11 33 C 463.27 324.91 463.27 326.23 461.86 327.05 Z" stroke-linecap="round"/>
</g>
		<g transform="matrix(1 0 0 1 166.5587 67.2672)" id="freepik--console--inject-34">
<path style="stroke: none; stroke-width: 1; stroke-dasharray: none; stroke-linecap: butt; stroke-dashoffset: 0; stroke-linejoin: miter; stroke-miterlimit: 4; is-custom-font: none; font-file-url: none; fill: rgb(2,137,122); fill-rule: nonzero; opacity: 1;" transform=" translate(-416.5588, -317.2672)" d="M 422.25 314 c 3.15 1.81 3.15 4.74 0 6.55 a 12.69 12.69 0 0 1 -11.39 0 c -3.14 -1.81 -3.14 -4.74 0 -6.55 A 12.56 12.56 0 0 1 422.25 314 Z" stroke-linecap="round"/>
</g>
		<g transform="matrix(1 0 0 1 125.88 67.1001)" id="freepik--console--inject-34">
<path style="stroke: none; stroke-width: 1; stroke-dasharray: none; stroke-linecap: butt; stroke-dashoffset: 0; stroke-linejoin: miter; stroke-miterlimit: 4; is-custom-font: none; font-file-url: none; fill: rgb(2,137,122); fill-rule: nonzero; opacity: 1;" transform=" translate(-375.88, -317.1001)" d="M 375.88 315.93 a 2.2 2.2 0 0 1 1 1.74 c 0 0.64 -0.45 0.91 -1 0.6 a 2.2 2.2 0 0 1 -1 -1.73 C 374.88 315.89 375.33 315.62 375.88 315.93 Z" stroke-linecap="round"/>
</g>
		<g transform="matrix(1 0 0 1 125.88 70.9501)" id="freepik--console--inject-34">
<path style="stroke: none; stroke-width: 1; stroke-dasharray: none; stroke-linecap: butt; stroke-dashoffset: 0; stroke-linejoin: miter; stroke-miterlimit: 4; is-custom-font: none; font-file-url: none; fill: rgb(2,137,122); fill-rule: nonzero; opacity: 1;" transform=" translate(-375.88, -320.9501)" d="M 375.88 319.78 a 2.21 2.21 0 0 1 1 1.74 c 0 0.64 -0.45 0.91 -1 0.6 a 2.2 2.2 0 0 1 -1 -1.73 C 374.88 319.74 375.33 319.47 375.88 319.78 Z" stroke-linecap="round"/>
</g>
		<g transform="matrix(1 0 0 1 -119.6874 -104.4067)" id="freepik--speach-bubble--inject-34">
<path style="stroke: none; stroke-width: 1; stroke-dasharray: none; stroke-linecap: butt; stroke-dashoffset: 0; stroke-linejoin: miter; stroke-miterlimit: 4; is-custom-font: none; font-file-url: none; fill: rgb(2,137,122); fill-rule: nonzero; opacity: 1;" transform=" translate(-130.3126, -145.5932)" d="M 118.06 150.54 v -15 l 12.67 -1.11 a 0.91 0.91 0 0 1 0.52 0.11 c 0.49 0.27 10.7 6.14 10.86 6.23 a 0.92 0.92 0 0 1 0.2 1.43 l -13.43 14.56 Z" stroke-linecap="round"/>
</g>
		<g transform="matrix(1 0 0 1 -114.2779 -101.3075)" id="freepik--speach-bubble--inject-34">
<path style="stroke: none; stroke-width: 1; stroke-dasharray: none; stroke-linecap: butt; stroke-dashoffset: 0; stroke-linejoin: miter; stroke-miterlimit: 4; is-custom-font: none; font-file-url: none; fill: rgb(2,137,122); fill-rule: nonzero; opacity: 1;" transform=" translate(-135.7221, -148.6926)" d="M 128.88 156.75 l 13.43 -14.56 a 0.92 0.92 0 0 0 -0.76 -1.55 l -12.67 1.1 Z" stroke-linecap="round"/>
</g>
		<g transform="matrix(1 0 0 1 -119.975 -111.9182)" id="freepik--speach-bubble--inject-34">
<path style="stroke: none; stroke-width: 1; stroke-dasharray: none; stroke-linecap: butt; stroke-dashoffset: 0; stroke-linejoin: miter; stroke-miterlimit: 4; is-custom-font: none; font-file-url: none; fill: rgb(2,137,122); fill-rule: nonzero; opacity: 1;" transform=" translate(-130.025, -138.0818)" d="M 118.06 135.52 l 10.82 6.23 l 12.67 -1.11 a 1 1 0 0 1 0.44 0.06 c -1 -0.6 -10.27 -5.92 -10.73 -6.17 a 0.87 0.87 0 0 0 -0.54 -0.11 Z" stroke-linecap="round"/>
</g>
		<g transform="matrix(1 0 0 1 -119.975 -111.9182)" id="freepik--speach-bubble--inject-34">
<path style="stroke: none; stroke-width: 1; stroke-dasharray: none; stroke-linecap: butt; stroke-dashoffset: 0; stroke-linejoin: miter; stroke-miterlimit: 4; is-custom-font: none; font-file-url: none; fill: rgb(255,255,255); fill-rule: nonzero; opacity: 0.5;" transform=" translate(-130.025, -138.0818)" d="M 118.06 135.52 l 10.82 6.23 l 12.67 -1.11 a 1 1 0 0 1 0.44 0.06 c -1 -0.6 -10.27 -5.92 -10.73 -6.17 a 0.87 0.87 0 0 0 -0.54 -0.11 Z" stroke-linecap="round"/>
</g>
		<g transform="matrix(1 0 0 1 -148.31 -94.2155)" id="freepik--speach-bubble--inject-34">
<path style="stroke: none; stroke-width: 1; stroke-dasharray: none; stroke-linecap: butt; stroke-dashoffset: 0; stroke-linejoin: miter; stroke-miterlimit: 4; is-custom-font: none; font-file-url: none; fill: rgb(2,137,122); fill-rule: nonzero; opacity: 1;" transform=" translate(-101.69, -155.7845)" d="M 128.89 123.57 a 7 7 0 0 0 -3.15 -5.45 l -2.56 -1.47 a 6.91 6.91 0 0 0 -6.29 0 L 77.63 139.36 a 6.93 6.93 0 0 0 -3.14 5.44 V 188 a 6.93 6.93 0 0 0 3.14 5.45 l 2.56 1.48 a 7 7 0 0 0 6.29 0 l 39.26 -22.71 a 6.94 6.94 0 0 0 3.15 -5.45 Z" stroke-linecap="round"/>
</g>
		<g transform="matrix(1 0 0 1 -169.785 -81.3129)" id="freepik--speach-bubble--inject-34">
<path style="stroke: none; stroke-width: 1; stroke-dasharray: none; stroke-linecap: butt; stroke-dashoffset: 0; stroke-linejoin: miter; stroke-miterlimit: 4; is-custom-font: none; font-file-url: none; fill: rgb(0,0,0); fill-rule: nonzero; opacity: 0.2;" transform=" translate(-80.215, -168.6871)" d="M 74.49 188 a 6.93 6.93 0 0 0 3.14 5.45 l 2.56 1.48 a 7.06 7.06 0 0 0 5.75 0.25 c -1.48 0.56 -2.6 -0.28 -2.6 -2.07 v -43.2 a 6.44 6.44 0 0 1 0.92 -3.1 l -8.85 -5.11 a 6.44 6.44 0 0 0 -0.92 3.1 Z" stroke-linecap="round"/>
</g>
		<g transform="matrix(1 0 0 1 -147.9 -118.6432)" id="freepik--speach-bubble--inject-34">
<path style="stroke: none; stroke-width: 1; stroke-dasharray: none; stroke-linecap: butt; stroke-dashoffset: 0; stroke-linejoin: miter; stroke-miterlimit: 4; is-custom-font: none; font-file-url: none; fill: rgb(255,255,255); fill-rule: nonzero; opacity: 0.5;" transform=" translate(-102.1, -131.3569)" d="M 128.78 122.68 c -0.36 -1.34 -1.58 -1.76 -3 -0.93 L 86.48 144.47 a 6.27 6.27 0 0 0 -2.22 2.34 l -8.84 -5.1 a 6.36 6.36 0 0 1 2.21 -2.35 l 39.26 -22.71 a 7 7 0 0 1 6.29 0 l 2.57 1.48 A 6.91 6.91 0 0 1 128.78 122.68 Z" stroke-linecap="round"/>
</g>
		<g transform="matrix(1 0 0 1 -143.455 -93.045)" id="freepik--Heart--inject-34">
<polygon style="stroke: none; stroke-width: 1; stroke-dasharray: none; stroke-linecap: butt; stroke-dashoffset: 0; stroke-linejoin: miter; stroke-miterlimit: 4; is-custom-font: none; font-file-url: none; fill: rgb(255,255,255); fill-rule: nonzero; opacity: 1;" points="-8.885,-9.235 -5.335,-11.285 -5.335,-8.665 -1.775,-10.715 -1.775,-5.125 1.775,-7.185 1.775,-12.775 5.335,-14.825 5.335,-17.445 8.895,-19.505 8.895,-16.875 12.445,-18.935 12.445,-13.345 16.005,-15.395 16.005,-7.185 12.445,-5.125 12.445,-1.025 8.895,1.035 8.895,5.135 5.335,7.195 5.335,11.295 1.775,13.355 1.785,17.455 -1.775,19.505 -1.775,15.405 -5.335,17.455 -5.335,13.355 -8.885,15.405 -8.885,11.295 -12.445,13.355 -12.445,9.245 -16.005,11.295 -16.005,3.085 -12.445,1.035 -12.445,-4.555 -8.885,-6.615 -8.885,-9.235 "/>
</g>
</g>
</g>
</svg>