<svg xmlns="http://www.w3.org/2000/svg" width="1920" height="1080" fill="none" viewBox="0 0 1920 1080"><rect width="1920" height="1080" fill="#E5E5E5"/><rect width="1920" height="1080" fill="#D6F5FF"/><path fill="#000" d="M1498 509.699L1495.96 508.398L1497.26 506.354L1496.7 506L1495.4 508.044L1493.36 506.743L1493 507.301L1495.04 508.601L1493.74 510.645L1494.3 511L1495.6 508.956L1497.64 510.256L1498 509.699Z"/><path fill="#000" d="M664 640.699L661.956 639.398L663.257 637.354L662.699 637L661.398 639.044L659.355 637.743L659 638.301L661.044 639.601L659.743 641.645L660.301 642L661.602 639.956L663.645 641.256L664 640.699Z"/><path fill="#000" d="M137 254.699L134.956 253.398L136.257 251.354L135.699 251L134.398 253.044L132.355 251.743L132 252.301L134.044 253.601L132.743 255.645L133.301 256L134.602 253.956L136.645 255.256L137 254.699Z"/><path fill="#000" d="M766 356.699L763.956 355.398L765.257 353.354L764.699 353L763.398 355.044L761.355 353.743L761 354.301L763.044 355.601L761.743 357.645L762.301 358L763.602 355.956L765.645 357.256L766 356.699Z"/><path fill="#000" d="M443 504.699L440.956 503.398L442.257 501.354L441.699 501L440.398 503.044L438.355 501.743L438 502.301L440.044 503.601L438.743 505.645L439.301 506L440.602 503.956L442.645 505.256L443 504.699Z"/><path fill="#000" d="M1780 886.699L1777.96 885.398L1779.26 883.354L1778.7 883L1777.4 885.044L1775.36 883.743L1775 884.301L1777.04 885.601L1775.74 887.645L1776.3 888L1777.6 885.956L1779.64 887.256L1780 886.699Z"/><path fill="#000" d="M1209 163.699L1206.96 162.398L1208.26 160.354L1207.7 160L1206.4 162.044L1204.36 160.743L1204 161.301L1206.04 162.601L1204.74 164.645L1205.3 165L1206.6 162.956L1208.64 164.256L1209 163.699Z"/><path fill="#000" d="M950 481.699L947.956 480.398L949.257 478.354L948.699 478L947.398 480.044L945.355 478.743L945 479.301L947.044 480.601L945.743 482.645L946.301 483L947.602 480.956L949.645 482.256L950 481.699Z"/><path fill="#000" d="M1493 995.699L1490.96 994.398L1492.26 992.354L1491.7 992L1490.4 994.044L1488.36 992.743L1488 993.301L1490.04 994.601L1488.74 996.645L1489.3 997L1490.6 994.956L1492.64 996.256L1493 995.699Z"/><path fill="#000" d="M207 681.699L204.956 680.398L206.257 678.354L205.699 678L204.398 680.044L202.355 678.743L202 679.301L204.044 680.601L202.743 682.645L203.301 683L204.602 680.956L206.645 682.256L207 681.699Z"/><path fill="#000" d="M75 392.699L72.9556 391.398L74.2566 389.354L73.699 389L72.398 391.044L70.3555 389.743L70 390.301L72.0444 391.601L70.7434 393.645L71.301 394L72.602 391.956L74.6445 393.256L75 392.699Z"/><path fill="#000" d="M80 108.699L77.9556 107.398L79.2566 105.354L78.699 105L77.398 107.044L75.3555 105.743L75 106.301L77.0444 107.601L75.7434 109.645L76.301 110L77.602 107.956L79.6445 109.256L80 108.699Z"/><path fill="#000" d="M1666 663.699L1663.96 662.398L1665.26 660.354L1664.7 660L1663.4 662.044L1661.36 660.743L1661 661.301L1663.04 662.601L1661.74 664.645L1662.3 665L1663.6 662.956L1665.64 664.256L1666 663.699Z"/><path fill="#000" d="M1689 220.699L1686.96 219.398L1688.26 217.354L1687.7 217L1686.4 219.044L1684.36 217.743L1684 218.301L1686.04 219.601L1684.74 221.645L1685.3 222L1686.6 219.956L1688.64 221.256L1689 220.699Z"/><path fill="#000" d="M1064 731.699L1061.96 730.398L1063.26 728.354L1062.7 728L1061.4 730.044L1059.36 728.743L1059 729.301L1061.04 730.601L1059.74 732.645L1060.3 733L1061.6 730.956L1063.64 732.256L1064 731.699Z"/><path fill="#000" d="M132 977.699L129.956 976.398L131.257 974.354L130.699 974L129.398 976.044L127.355 974.743L127 975.301L129.044 976.601L127.743 978.645L128.301 979L129.602 976.956L131.645 978.256L132 977.699Z"/><path fill="#0093ED" d="M896.749 289.5C897.716 289.5 898.5 288.717 898.5 287.75C898.5 286.783 897.716 286 896.749 286C895.783 286 895 286.783 895 287.75C895 288.717 895.783 289.5 896.749 289.5Z"/><path fill="#0093ED" d="M1546.75 626.5C1547.72 626.5 1548.5 625.717 1548.5 624.75C1548.5 623.783 1547.72 623 1546.75 623C1545.78 623 1545 623.783 1545 624.75C1545 625.717 1545.78 626.5 1546.75 626.5Z"/><path fill="#0093ED" d="M1841.75 363.5C1842.72 363.5 1843.5 362.717 1843.5 361.75C1843.5 360.783 1842.72 360 1841.75 360C1840.78 360 1840 360.783 1840 361.75C1840 362.717 1840.78 363.5 1841.75 363.5Z"/><path fill="#0093ED" d="M1408.75 275.5C1409.72 275.5 1410.5 274.717 1410.5 273.75C1410.5 272.783 1409.72 272 1408.75 272C1407.78 272 1407 272.783 1407 273.75C1407 274.717 1407.78 275.5 1408.75 275.5Z"/><path fill="#0093ED" d="M1730.75 108.5C1731.72 108.5 1732.5 107.717 1732.5 106.75C1732.5 105.783 1731.72 105 1730.75 105C1729.78 105 1729 105.783 1729 106.75C1729 107.717 1729.78 108.5 1730.75 108.5Z"/><path fill="#0093ED" d="M1269.75 538.5C1270.72 538.5 1271.5 537.717 1271.5 536.75C1271.5 535.783 1270.72 535 1269.75 535C1268.78 535 1268 535.783 1268 536.75C1268 537.717 1268.78 538.5 1269.75 538.5Z"/><path fill="#0093ED" d="M362.749 536.5C363.716 536.5 364.5 535.717 364.5 534.75C364.5 533.783 363.716 533 362.749 533C361.783 533 361 533.783 361 534.75C361 535.717 361.783 536.5 362.749 536.5Z"/><path fill="#0093ED" d="M1735.75 901.5C1736.72 901.5 1737.5 900.717 1737.5 899.75C1737.5 898.783 1736.72 898 1735.75 898C1734.78 898 1734 898.783 1734 899.75C1734 900.717 1734.78 901.5 1735.75 901.5Z"/><path fill="#0093ED" d="M618.749 135.5C619.716 135.5 620.5 134.717 620.5 133.75C620.5 132.783 619.716 132 618.749 132C617.783 132 617 132.783 617 133.75C617 134.717 617.783 135.5 618.749 135.5Z"/><path fill="#0093ED" d="M1487.75 978.5C1488.72 978.5 1489.5 977.717 1489.5 976.75C1489.5 975.783 1488.72 975 1487.75 975C1486.78 975 1486 975.783 1486 976.75C1486 977.717 1486.78 978.5 1487.75 978.5Z"/><path fill="#0093ED" d="M786.749 921.5C787.716 921.5 788.5 920.717 788.5 919.75C788.5 918.783 787.716 918 786.749 918C785.783 918 785 918.783 785 919.75C785 920.717 785.783 921.5 786.749 921.5Z"/><path fill="#0093ED" d="M1049.75 113.5C1050.72 113.5 1051.5 112.717 1051.5 111.75C1051.5 110.783 1050.72 110 1049.75 110C1048.78 110 1048 110.783 1048 111.75C1048 112.717 1048.78 113.5 1049.75 113.5Z"/><path fill="#0093ED" d="M127.749 728.5C128.716 728.5 129.5 727.717 129.5 726.75C129.5 725.783 128.716 725 127.749 725C126.783 725 126 725.783 126 726.75C126 727.717 126.783 728.5 127.749 728.5Z"/><path fill="#0093ED" d="M524.749 358.5C525.716 358.5 526.5 357.717 526.5 356.75C526.5 355.783 525.716 355 524.749 355C523.783 355 523 355.783 523 356.75C523 357.717 523.783 358.5 524.749 358.5Z"/><path fill="#0093ED" d="M1170.75 825.5C1171.72 825.5 1172.5 824.717 1172.5 823.75C1172.5 822.783 1171.72 822 1170.75 822C1169.78 822 1169 822.783 1169 823.75C1169 824.717 1169.78 825.5 1170.75 825.5Z"/><path fill="#0093ED" d="M205.749 353.5C206.716 353.5 207.5 352.717 207.5 351.75C207.5 350.783 206.716 350 205.749 350C204.783 350 204 350.783 204 351.75C204 352.717 204.783 353.5 205.749 353.5Z"/><path fill="#0093ED" d="M677.749 608.5C678.716 608.5 679.5 607.717 679.5 606.75C679.5 605.783 678.716 605 677.749 605C676.783 605 676 605.783 676 606.75C676 607.717 676.783 608.5 677.749 608.5Z"/><path fill="#0093ED" d="M290.749 961.5C291.716 961.5 292.5 960.717 292.5 959.75C292.5 958.783 291.716 958 290.749 958C289.783 958 289 958.783 289 959.75C289 960.717 289.783 961.5 290.749 961.5Z"/><path fill="#0093ED" d="M59.7493 103.5C60.716 103.5 61.5 102.717 61.5 101.75C61.5 100.783 60.716 100 59.7493 100C58.7825 100 58 100.783 58 101.75C58 102.717 58.7825 103.5 59.7493 103.5Z"/></svg>