<svg xmlns="http://www.w3.org/2000/svg" style="enable-background:new 0 0 2000 1800" xml:space="preserve" width="2000" height="1800">
  <style>
    .st0{fill:#bbe2f2}.st1{fill:#1c31b5}.st2{fill:#009cf8}.st3{fill:#006bde}.st4{fill:#18315b}.st5{fill:#000b29}.st6{fill:#f97853}.st7{fill:#ea5143}.st8{fill:#ffa681}.st9{fill:#fff}.st10{fill:#264cbe}
  </style>
  <g id="OBJECTS">
    <path class="st0" d="M872.6 517.3c-65.2-236.6-359.1-312.8-527.6-136-2.4 2.5-4.8 5.1-7.3 7.7-241.4 262.6-127.4 909.4 376.6 1073.4 504 164 1028.2-135.4 1057.6-403.1 29.4-267.6-203.1-351.7-563.9-276.9-203.8 42.3-294.8-117.8-335.4-265.1z"/>
    <path class="st0" d="M1291.8 557.8c-67.4 11-86.1 70.7-34.1 113.1 17.2 14 41.8 25.6 76.8 31.5 133.4 22.1 204.1-36.9 150.7-113.4-33-47.3-126.6-42.1-193.4-31.2zm-1075.1 478c-41.9-53.9-103.3-41.7-115.6 24.2-4.1 21.8-2.5 49 9.2 82.5 44.4 127.7 130.1 161.6 171.7 78 25.6-51.5-23.8-131.2-65.3-184.7zm1602.7 54.6c-6.2 32.5 20.6 55.6 51.1 43 10.1-4.1 20.2-12.1 29.2-26.2 34.4-53.5 17-99.3-30.9-94.6-29.5 2.9-43.2 45.6-49.4 77.8zM1649 747.3c32.4 6.8 55.9-19.7 43.9-50.3-4-10.1-11.8-20.4-25.7-29.7-52.9-35.3-99-18.7-95.2 29.3 2.4 29.5 44.9 44 77 50.7zm-787.7-348c25.7 20.9 58.7 8.2 62.1-24.5 1.1-10.8-1.1-23.5-9.1-38.1-30.7-55.7-79.3-62.1-98-17.8-11.4 27.3 19.6 59.7 45 80.4z"/>
    <path class="st1" d="M1899.8 1253.1c51.5-51.7 90.6-110.2 51.7-119.3-39-9.1-104.6 92.8-116 185.5l-11.4 30.6c9.5-67.4-13.6-149.6-47.4-152.9-33.6-3.4-13.3 49.9 13.4 95.5 20.3 34.7 25.7 62 27 76.2l-54 144.6c14.7-106.8-21.9-236.4-75.4-241.8-53.3-5.3-21.1 79.2 21.3 151.5 32 54.6 40.6 97.8 42.8 120.4l-10.8 28.8c4.7 2.6 9.4 5.3 14.2 7.9l64.2-172c12.4-9.2 31.2-20.4 58-29.5 50-16.9 100.3-43.8 72.7-63.3-23.9-16.9-80.3 15.6-119 61.6l22.2-59.5c10-17.4 24.3-42 46.5-64.3zm-1622-674.9c6.7-62.5 1.5-122.9-29.6-108-31.1 14.9-20.2 118.6 22.1 187.1l8.8 26.7c-30-50.4-89.8-93.1-114.3-77.1-24.4 15.9 18 40.7 60.5 56.9 32.3 12.3 50.7 27.8 59.2 36.6l41.7 126.2c-47.7-79.7-142.1-147-181-121.7-38.7 25.2 28.6 64.5 96 90.3 50.9 19.4 80 43.8 93.7 57.8l8.3 25.2c4.6-.8 9.2-1.5 13.8-2.4l-49.6-150.1c3.3-12.9 9.9-30.5 23-51.1 24.5-38.3 43.7-83.5 14.7-81.7-25.2 1.6-45.5 53.8-46.7 105.5l-17.2-51.9c-2.6-17.1-6.3-41.3-3.4-68.3z"/>
    <path class="st2" d="M1552.4 1424.9c.7 3.5 1.4 7.4 2.3 11.5 9.3 43.1 32 113.6 83.2 127.5 0 0-27.9-145.3 71.4-183.1 99.3-37.8 88.3-73.9 82.6-138s-27.6-76.3 41.3-136.4c68.9-60.1 55.7-149.5 55.7-149.5s-65.2 102.1-134.8 104.5c-69.6 2.4-81.8 61.8-78.9 106 3 44.2-56.2 49.2-88.2 74.9-32 25.6-38 160.3-38 160.3s1 8.8 3.4 22.3z"/>
    <path class="st3" d="M1552.4 1424.9c.7 3.5 1.4 7.4 2.3 11.5 7.1-21.6 17.2-39.8 26.6-53.7 22.3-33 53.6-60.1 81.8-70.7 44.9-16.9 66.9-61 71.1-142.9 2.5-47.5 52.2-75.6 52.7-75.9 1.5-.8 2-2.6 1.2-4.1-.8-1.5-2.6-2-4.1-1.2-2.2 1.2-53.2 29.9-55.8 80.8-4.1 79.1-24.8 121.6-67.2 137.5-29.8 11.2-61.4 38.5-84.7 73-8.2 12.3-16.9 27.7-23.9 45.7zm-1099 138.2h69.8c-37.7-6.2-131.2-46.4-139.5-126.8-10.6-101.9-46.8-100.6-108-111.3-61.2-10.7-78 6.7-116.8-72.4-38.8-79.1-125.5-89.1-125.5-89.1s79 86.1 63.8 151.6c-15.1 65.5 37.2 91.6 79.2 99.8 41.9 8.2 31.9 64.6 47.8 100.8 7.3 16.5 37 33.6 67.2 47.4h162z"/>
    <path class="st1" d="M302.3 1462.8c3 30.5 20.6 66.8 46.9 97.1.9 1.1 1.9 2.1 2.9 3.2h7.9c-2.3-2.4-4.4-4.8-6.4-7.1-25.2-29-42.7-64.9-45.6-93.8-4.6-46.1-40.2-77.4-115.4-101.8-43.7-14.1-57.5-67.4-57.6-68-.4-1.6-2-2.5-3.5-2.1-1.6.4-2.5 2-2.1 3.5.6 2.3 14.7 57 61.4 72.1 72.8 23.6 107.1 53.4 111.5 96.9z"/>
    <path class="st2" d="M491 1374c-1.5 5-3.2 10.3-5 16.1-19.8 60-60.5 161.1-135.7 173.1 0 0 59.5-207-76.4-276.2s-114.6-118.9-96.7-209.5c18-90.6 51.1-104.7-37.9-200.9-89-96.3-56.5-221.9-56.5-221.9s77.3 155.7 176.3 169.8 107.2 100.8 96.2 163.4c-11 62.6 72.6 78.8 114.3 120.3s29.6 234.5 29.6 234.5-2.6 12.4-8.2 31.3z"/>
    <path class="st3" d="M491 1374c-1.5 5-3.2 10.3-5 16.1-6.9-31.9-18.4-59.4-29.7-80.7-26.7-50.5-67.3-94-105.9-113.5-61.5-31-86-97.3-79.5-214.7 3.8-68.2-62.8-115.9-63.5-116.3-1.9-1.4-2.4-4.1-1.1-6 1.4-2 4.1-2.4 6-1.1 2.9 2 71.2 50.9 67.2 123.9-6.3 113.5 16.7 177.2 74.7 206.5 40.7 20.6 81.7 64.4 109.6 117.2 10 18.6 20.1 41.8 27.2 68.6z"/>
    <path class="st4" d="M544.9 1514.5c.2 15.7.5 32.1.9 48.7h151.8c.3-18.1.5-35.5.7-51.8.5-44.2.5-80.5.5-103.1 0-16-.1-25.1-.1-25.1l-154.7-1.6s0 13.4.1 35.2c0 24.2.2 59 .8 97.7z"/>
    <path class="st5" d="M544 1416.7c.1 24.3.4 59.1.9 97.8 47.7 3.6 99.9 3.7 153.3-3.1.5-44.2.5-80.5.5-103.1l-154.7 8.4z"/>
    <path class="st4" d="M353.7 1479.6c.2 24.7.5 53.1 1 83.6h151.8c.4-17.9.7-35.5.9-52.3.5-36.2.8-68.7.9-92.1.1-23 .1-37.2.1-37.2l-154.8 1.6s-.1 16.4-.1 44c0 14.5 0 32.3.2 52.4z"/>
    <path class="st5" d="M353.5 1427.1c0 14.6.1 32.3.2 52.4 30.8 9.1 86 23.2 153.6 31.2.5-36.2.8-68.7.9-92.1l-154.7 8.5z"/>
    <path class="st4" d="M607.9 567.3s24.4-23.5 24.3-46.7c-.1-23.2-15.8-16.3-24.3-38-8.5-21.6-33.6-34.8-47.4-32.2-13.8 2.6-42.9-51.1-82.4-41.6-39.5 9.5-36 60.1-53 67.5-17 7.4-12.3 37.4-3.3 44.3 9 6.9 12.8 34.4 17.8 33.8 5-.6 168.3 12.9 168.3 12.9z"/>
    <path class="st6" d="M443.7 566.7s-15.3-20.4-26.7-3.5c-11.4 16.9 4.7 66.8 32.6 54.6l-5.9-51.1z"/>
    <path class="st7" d="M443.5 602.4c-1 0-2-.7-2.3-1.7-4.3-15.4-20.3-21.7-20.5-21.7-1.2-.5-1.8-1.8-1.4-3 .5-1.2 1.8-1.8 3-1.4.7.3 18.3 7.1 23.3 24.9.4 1.3-.4 2.6-1.6 2.9h-.5z"/>
    <path class="st7" d="M427.4 594.6c-.4 0-.9-.1-1.3-.4-1.1-.7-1.4-2.2-.7-3.3.1-.2 2.9-4.5 8.9-7.1 1.2-.5 2.6 0 3.1 1.2s0 2.6-1.2 3.1c-4.6 2-6.8 5.4-6.8 5.4-.4.8-1.2 1.1-2 1.1z"/>
    <path class="st6" d="M601.7 566.7s15.3-20.4 26.7-3.5c11.4 16.9-4.7 66.8-32.6 54.6l5.9-51.1z"/>
    <path class="st7" d="M601.9 602.4c1 0 2-.7 2.3-1.7 4.3-15.4 20.3-21.7 20.5-21.7 1.2-.5 1.8-1.8 1.4-3-.5-1.2-1.8-1.8-3-1.4-.7.3-18.3 7.1-23.3 24.9-.4 1.3.4 2.6 1.6 2.9h.5z"/>
    <path class="st7" d="M618.1 594.6c.4 0 .9-.1 1.3-.4 1.1-.7 1.4-2.2.7-3.3-.1-.2-2.9-4.5-8.9-7.1-1.2-.5-2.6 0-3.1 1.2s0 2.6 1.2 3.1c4.6 2 6.8 5.4 6.8 5.4.4.8 1.2 1.1 2 1.1z"/>
    <path class="st8" d="M560.5 660.2v49.7s-14.8 25.3-34.8 27c-20 1.7-37.8-21.8-37.8-21.8v-51.4l72.6-3.5z"/>
    <path class="st6" d="M560.5 660.2v22c-13.4 14.9-37.3 18.6-72.6 13.4v-32l72.6-3.4z"/>
    <path class="st8" d="M612.8 532.7c-.9 19.3-2.8 43.4-6.4 62.7-.9 4.8-2 9.3-3.1 13.4-10.4 36.6-36.6 99.3-109.8 73.2-32.3-11.5-47.3-47.5-54-84.1-4.5-24.9-5.2-50-4.9-67.9.4-18.3 10.4-35.1 26.3-44.1 43.2-24.5 88.8-15.4 118.8-3.8 20.9 7.9 34.2 28.3 33.1 50.6z"/>
    <path class="st4" d="M439.6 597.8s7.1 42.3 13.8 57.7c6.7 15.4 25 18.3 31.9 31.4 9.8 18.6 24.8 33.3 49.4 24.3 20.5-7.5 19.5-17.9 31-26 19.6-13.9 29.4-29.1 30.2-41.8.8-12.7 10.5-48 10.5-48l-10.5-.7s-6 12.4-14.8 26.2c-8.9-19.5-51.6-5.3-51.6-5.3l-8.2 2.6-8.4-2.6s-43.3-13.6-51.8 6.9c-5.2-8-9.5-17-11.4-26.5l-10.1 1.8zm81.6 26.9c49-8.4 40.3 20.3 39.9 21.3-3.3 3.2-6.7 5.8-10.1 7.6-19 10.3-21 8.7-28.5 9-7.6.4-18.1-1.9-28.8-7.9-3.3-1.9-8.3-5.5-13.7-10.4 0 .2-7.7-26.2 41.2-19.6z"/>
    <ellipse class="st4" cx="485.7" cy="573.2" rx="6.1" ry="9.6"/>
    <ellipse class="st4" cx="558.2" cy="573.2" rx="6.1" ry="9.6"/>
    <path class="st4" d="M582.2 541.6s-25.2-10-44.6-1.6l1.9 10.8s28.5-2.4 42.8 3.4c1.4-4.1 1.5-8.3-.1-12.6zm-119.9.1s25.4-10 45-1.6l-2 10.9s-28.7-2.4-43.2 3.4c-1.2-4.2-1.4-8.4.2-12.7z"/>
    <path class="st6" d="M523.6 613.4c4 0 7.9-1.5 8.5-1.8 1.2-.5 1.8-1.9 1.3-3.1-.5-1.2-1.9-1.8-3.1-1.3-2.1.9-7.2 2.2-9.5.9-.4-.3-1-.8-1.2-2.2-.9-8.2 1.4-35.8 1.4-36.1.1-1.3-.9-2.4-2.2-2.5-1.3-.1-2.4.9-2.5 2.2-.1 1.2-2.3 28.3-1.4 37 .3 3.3 2.1 4.9 3.4 5.8 1.6.8 3.5 1.1 5.3 1.1z"/>
    <path class="st9" d="M493.5 629.4c1.8 9 7.7 25.6 27.8 25.6s25.7-15.1 27.7-25.6h-55.5z"/>
    <path class="st4" d="M612.8 532.7c-.9 19.3-2.8 43.4-6.4 62.7l-10.5-.7s2.6-16.3 3.7-26.9c1.2-10.6 3.2-30.5-5.9-32.9-9-2.5-3.7-25.1-16.3-34.9-12.6-9.8-40.5-18.5-59-7.1s-39.6 5.1-48.2 7.1c-8.6 2-20.2 13.8-17 24.8 3.2 11-6.3 17.7-8.6 29.1-2.3 11.4 5 42.1 5 42.1l-10.1 2c-4.5-24.9-5.2-50-4.9-67.9.4-18.3 10.4-35.1 26.3-44.1 43.2-24.5 88.8-15.4 118.8-3.8 20.9 7.8 34.2 28.2 33.1 50.5z"/>
    <path class="st3" d="M730.7 1457.7c-47.7 12.1-95.5 19.9-143.2 23.5-2.2.2-4.3.3-6.5.5-6.6.4-13.1.8-19.7 1.1-32.5 1.4-65 .9-97.5-1.7-6.6-.5-13.1-1.1-19.6-1.8-2.1-.2-4.2-.4-6.3-.7-38.8-4.2-77.6-11.2-116.4-21-.4-35.8.1-148.8 2.3-271.5.3-14.7.5-29.6.9-44.5 3.4-161.6 10.1-325.7 22-342.1 11.4-15.7 45.9-35.7 78.9-53.7 2-1.1 3.9-2.1 5.9-3.2 7.4-4 14.7-7.9 21.5-11.6 14.6-8 27.2-15 35-20.5v4.5s17.8 23.5 37.8 21.8c18.2-1.6 32.1-22.6 34.5-26.4 8.6 6.1 24.1 14.4 42 23.9 5 2.6 10.1 5.3 15.4 8.1 1.9 1 3.9 2.1 5.8 3.1 36.5 19.3 75.8 41.2 87.6 57.4.9 1.2 1.7 3.2 2.5 6 7 23.6 11.3 102.1 14 197.2v1c.1 3.8.2 7.7.3 11.6v1.5c.9 33.3 1.5 68.4 2 103.7 0 2.8.1 5.6.1 8.4v4.2l.3 20.8c.1 5.1.1 10.2.2 15.3 1.2 127.4.7 247.6.2 285.1z"/>
    <path class="st10" d="M727.7 1018.6c-11.5-18.8-23.8-37.9-35.4-54.8l-.1-.1c-4.9-7.1-9.6-13.8-14.1-20-.1-.1-.1-.2-.2-.3-1.4-1.9-2.8-3.8-4.2-5.6-.2-.3-.4-.6-.5-1-.4-1.2 0-2.6 1.1-3.4 1.4-1.1 3.4-.8 4.4.6 13.9 18.5 31.8 45.1 48.7 72v1c.2 3.9.2 7.8.3 11.6z"/>
    <path class="st3" d="M711.4 800.3s72 131.9 115.8 198.7c0 0 25-22.9 57.4-53.6 35.2-33.2 83.3-88.8 83.3-88.8l26.6 31.6s-108.1 194.6-156.6 219C789.4 1131.7 700 958.6 700 958.6l11.4-158.3z"/>
    <path class="st10" d="M406.7 1320h-.1c-1.8-.1-3.2-1.6-3.1-3.4 3.8-106.5-51.4-141-52-141.3-1.5-.9-2-2.9-1.1-4.5.9-1.5 2.9-2 4.5-1.1.6.4 15.2 9.2 29.3 32 12.9 20.7 27.9 57.6 25.8 115.2-.1 1.7-1.6 3.1-3.3 3.1zm235.5-100.3c-1.7 0-3.1-1.3-3.2-3-1.7-22.4 5.6-38.8 15-59.5 2.7-6.1 5.6-12.3 8.5-19.3 18.1-44 9-94.4 8.9-94.9-.3-1.8.8-3.5 2.6-3.8 1.8-.3 3.5.8 3.8 2.6.4 2.1 9.6 52.7-9.3 98.5-2.9 7.1-5.8 13.4-8.5 19.5-9.3 20.6-16.1 35.5-14.4 56.3.1 1.8-1.2 3.4-3 3.5-.2.1-.3.1-.4.1z"/>
    <path class="st9" d="M452.9 731.1c1.4 10.5 3.4 24.1 5.7 39.5.7 4.6 1.4 9.3 2.1 14.2 2.3 16 4.6 33.3 6.6 50.9.5 4.7 1 9.4 1.5 14.2 1.8 17.4 3.1 34.6 3.6 50.7.2 4.9.2 9.6.2 14.2 0 12.3-.7 23.5-2.2 33.1-.9 6.1-1.8 12-2.5 17.9-.6 4.8-1.2 9.6-1.7 14.2-1.9 18.1-2.8 35-3.1 50.9-.1 4.8-.1 9.6 0 14.2.1 18 1.2 34.9 2.7 50.9.4 4.8.9 9.5 1.4 14.2 1.9 17.5 4.3 34.1 6.5 50.6.6 4.7 1.3 9.4 1.9 14.1 1 7.5 1.9 15.1 2.7 22.6.8 8 1.4 17.4 1.6 27.8.1 4.6.2 9.3.2 14.2.1 15.6-.3 32.8-1.1 50.9-.2 4.7-.4 9.5-.6 14.3-.8 16.8-1.9 34-3.1 51-.3 4.8-.7 9.6-1.1 14.3-1.3 17.7-2.8 35-4.2 51-.4 4.9-.9 9.6-1.3 14.2-1.7 17.7-3.3 33.4-4.8 45.9 32.5 2.5 65 3.1 97.5 1.6.8-13.3 2.8-34.8 4.9-60.2.4-4.6.7-9.4 1.1-14.3 1.2-16.1 2.3-33.3 3.1-50.7.2-4.8.4-9.5.5-14.3.5-17.3.5-34.6-.2-50.7-.2-4.9-.5-9.7-.9-14.4-.4-4.8-.8-9.4-1.4-13.9-1.6-12.7-2.2-24.9-2.1-36.9 0-4.8.1-9.5.4-14.3.7-16.5 2.5-33.1 4.6-50.6.6-4.7 1.1-9.4 1.7-14.2 1.9-15.6 3.8-32.2 5.4-50.3.4-4.6.8-9.4 1.1-14.3 1.1-15.6 1.8-32.3 1.9-50.5v-14.4c-.2-15.8-.8-32.6-2.1-50.8-.1-1.6-.2-3.2-.3-4.9l-.6-9.6c-.8-16.6-.6-33.6.3-50.6.3-4.8.6-9.6.9-14.3 1.3-17 3.2-33.9 5.4-50 .6-4.8 1.3-9.6 2-14.2 2.7-17.7 5.5-34.4 8.1-49.3.9-4.9 1.7-9.6 2.5-14.1 1.8-10.1 3.3-19 4.5-26.6-17.9-9.5-33.4-17.8-42-23.9-2.4 3.8-16.2 24.8-34.5 26.4-20 1.7-37.8-21.8-37.8-21.8v-4.5c-7.8 5.5-20.4 12.6-35 20.6z"/>
    <path d="M458.5 770.6c.7 4.6 1.4 9.3 2.1 14.2 17.9.4 39-2.3 64.4-8.1 27.2-6.3 51.2-5.2 70.1-1.7.9-4.9 1.7-9.6 2.5-14.1-20.5-3.8-46.4-4.9-75.8 1.9-25 5.8-45.9 8.5-63.3 7.8zm8.7 65.1c.5 4.7 1 9.4 1.5 14.2 16.1-.4 34.6-3.1 56.3-8.1 22.5-5.2 42.8-5.3 59.9-3.2.6-4.8 1.3-9.6 2-14.2-18.5-2.3-40.6-2.1-65.2 3.6-20.9 4.7-39 7.4-54.5 7.7zm5.1 64.9c.2 4.9.2 9.6.2 14.2 15.2-.7 32.6-3.4 52.6-8 19.8-4.6 37.9-5.2 53.6-3.9.3-4.8.6-9.6.9-14.3-16.9-1.4-36.4-.6-57.7 4.3-18.8 4.3-35.3 6.9-49.6 7.7zm-6.2 79.4c16.7-.2 36.1-2.9 59-8.2 20-4.6 38.3-5.2 54.2-3.8-.1-1.6-.2-3.2-.3-4.9l-.6-9.6c-16.6-1.2-35.6-.4-56.4 4.4-20.8 4.8-38.7 7.4-54.1 7.8-.8 4.9-1.3 9.6-1.8 14.3zm-3.2 65c17.4.1 37.8-2.6 62.1-8.2 21-4.8 40-5.3 56.3-3.6v-14.4c-17.3-1.6-37.4-.9-59.5 4.2-23 5.3-42.4 8-58.9 7.9v14.1zm2.7 50.9c.4 4.8.9 9.5 1.4 14.2 16.5-.3 35.6-3 58-8.1 19.7-4.5 37.7-5.2 53.3-3.9.4-4.6.8-9.4 1.1-14.3-16.9-1.4-36.3-.6-57.6 4.3-21.7 4.9-40.4 7.6-56.2 7.8zm7.9 64.7c.6 4.7 1.3 9.4 1.9 14.1 14.5-.9 30.9-3.5 49.6-7.8 16.8-3.9 32.3-4.9 46.2-4.4.6-4.7 1.1-9.4 1.7-14.2-15.3-.7-32.5.4-51.1 4.7-18.2 4.3-34.2 6.8-48.3 7.6zm6.2 64.6c.1 4.6.2 9.3.2 14.2 13.4-1.1 28.3-3.6 45.1-7.5 14.8-3.4 28.6-4.6 41.2-4.5 0-4.8.1-9.5.4-14.3-13.6-.1-28.7 1.2-44.8 4.9-15.6 3.7-29.5 6.1-42.1 7.2zm-1.4 79.4c13.8-1.1 29.2-3.6 46.8-7.6 16.5-3.8 31.8-4.9 45.6-4.3-.2-4.9-.5-9.7-.9-14.4-14.5-.4-30.6.9-47.9 4.8-16 3.7-30.2 6.1-42.9 7.2-.3 4.7-.5 9.5-.7 14.3zm-4.2 65.4c14.8-.8 31.6-3.5 50.9-7.9 16.4-3.8 31.6-4.9 45.3-4.4.2-4.8.4-9.5.5-14.3-14.8-.5-31.2.7-49 4.8-17.5 4-33 6.6-46.6 7.5-.3 4.8-.7 9.5-1.1 14.3zm-5.5 65.2c16.1-.4 34.7-3.1 56.4-8.1 14.8-3.4 28.6-4.6 41.1-4.5.4-4.6.7-9.4 1.1-14.3-13.8-.2-29.1 1.1-45.4 4.9-19.8 4.6-37 7.2-51.9 7.7-.4 4.9-.9 9.7-1.3 14.3z" style="fill:#e3e3e3"/>
    <path class="st10" d="M581 1481.7c2.2-.1 4.3-.3 6.5-.5 12.8-75.3 5.4-185.8 2.7-219.7-2.8-35.2 2.6-80.4 15-124 9.6-33.9 3.7-112.5-1-175.7-1.3-17.7-2.6-34.5-3.3-48.2-2.4-44.5 13.7-126.8 22.6-168-2-1-3.9-2.1-5.8-3.1-8.9 40.8-25.6 125-23 171.5.8 13.8 2 30.6 3.4 48.4 4.7 62.7 10.5 140.6 1.2 173.5-12.6 44.4-18.1 90.4-15.2 126.3 2.5 33.7 9.9 145-3.1 219.5zm-131.2-306.4c7.5 46.3 5.2 76.4 2.4 111.2-.9 11.3-1.8 22.9-2.5 35.7-2 40.3-8.8 121.4-11.8 156.5 2.1.2 4.2.5 6.3.7 3-35.1 9.9-116.4 11.9-156.9.6-12.7 1.5-24.3 2.4-35.5 2.8-35.2 5.2-65.6-2.5-112.7-1.6-10.1-3.4-20.4-5.1-30.6-8.5-50.5-17.3-102.6-13.2-127.6 1-6.1 2.3-13 3.7-20.4 5.7-30.2 12.7-67.7 10.5-100.3-2.2-32.3-15.5-119.7-20.5-152.7-2 1.1-3.9 2.1-5.9 3.2 5.3 34.5 18 118.5 20.1 149.9 2.2 31.8-4.8 68.9-10.4 98.7-1.4 7.4-2.7 14.3-3.7 20.5-4.3 26 4.2 76.4 13.2 129.8 1.7 10.1 3.4 20.4 5.1 30.5z"/>
    <path class="st8" d="M325.3 853.4s-64.4 214.9-80.4 291.4-17.2 235.7-17.2 235.7-28.2 58.5-28.8 84.5c-.7 27.7 13.9 49.8 12.2 68-1.7 18.2 20.4 8.3 14.2-28.5-6.2-36.8 11.5-70.1 19.1-69 7.6 1.1-6.3 40.1.5 54.2 6.8 14.1 15.6-13.3 24.3-29.9 9.1-17.2 8.5-54.8 4.4-81.7-4.1-26.8 44.5-189.9 44.8-237.1L380 932.8s-20.4-86.9-54.7-79.4z"/>
    <path class="st3" d="M387.8 927.6c-2.2 13.8-9.8 37.5-19.7 67.3-.8 2.5-1.7 5.1-2.5 7.7 0 .1-.1.2-.1.4-2.5 7.4-5 15.2-7.7 23.2v.1c-10.9 33.2-23 71.1-33.2 110.1-3.5 13.3-6.8 26.8-9.6 40.3-3.7 17.2-6.8 34.3-9.1 51-8.2 60.3-24 136.7-24 136.7-23.1 9.5-59.2-3-59.2-3s-.9-110 4.2-152.8c6.4-52.9 14.5-90.5 24.5-133.7 27.6-118.9 76.3-235.2 89.7-266 1.1-2.5 1.9-4.4 2.5-5.7h11.5c22.6 14.3 38.6 87.2 32.7 124.4z"/>
    <path class="st2" d="m220.7 1339.4 1.8 25.3s34.3 11.2 60.1 3.3l6.8-22.6c-24.8 1.4-47.7.8-68.7-6z"/>
    <path class="st10" d="M368.2 994.9c0 .4-.1.7-.2 1.1-.8 2.1-1.6 4.3-2.4 6.6 0 .1-.1.2-.1.4-2.5 7.2-5.1 15-7.7 23.2v.1c-13.5 42.8-27.1 96.6-33.4 130.9.1-6.9.1-13.9.3-20.8-3.5 13.3-6.8 26.8-9.6 40.3 1.3-12.6 4.9-31.5 9.8-52.9 9.9-43.3 25.2-96.9 37.3-130 .6-1.6 2.4-2.5 4.1-1.9 1.1.6 1.9 1.7 1.9 3z"/>
    <path class="st4" d="M1520.7 1563.1h152.2c-.5-10.6-1-20.7-1.5-30.2-2.7-52.1-4.9-87.6-4.9-87.6l-123.8 5.5-10.3.5-18.2.8s1.8 31.7 4.5 78.2c.6 10.3 1.3 21.3 2 32.8z"/>
    <path class="st5" d="m1532.4 1451.3-18.2.8s1.8 31.7 4.5 78.2c47.6 4 99.5 5.6 152.7 2.6-2.7-52.1-4.9-87.6-4.9-87.6l-123.8 5.5-10.3.5z"/>
    <path class="st5" d="M1549 1563.1c-2.8-48.2-5.1-89.4-6.3-112.3l-10.3.5c1.2 22.8 3.5 63.8 6.3 111.9h10.3z"/>
    <path class="st4" d="M1476 1563.1c.8-13.1 1.5-25.5 2.2-36.9 2.6-44.3 4.3-74.2 4.3-74.2l-19.8-.9-10.2-.5-122.3-5.4s-1.3 21.1-3.2 54.8c-1 17.9-2.1 39.4-3.2 63.1H1476z"/>
    <path class="st5" d="M1327 1500.1c33.2 7.8 86.7 18.8 151.2 26.2 2.6-44.3 4.3-74.2 4.3-74.2l-19.8-.9-10.2-.5-122.3-5.4s-1.3 21.1-3.2 54.8z"/>
    <path class="st5" d="M1456.4 1563.1c2.8-48.1 5-89.2 6.3-111.9l-10.2-.5c-1.3 22.9-3.5 64.1-6.3 112.4h10.2z"/>
    <path class="st3" d="M1688.6 1469c-31 8.5-62 15-93 19.3-10.8 1.5-21.6 2.8-32.3 3.8-14.5 1.3-29.1 2.3-43.6 2.7-24 .7-48 .2-72.1-1.6-46.4-3.4-92.9-11.5-139.3-24.2-.4-43.3.2-198.6 3.5-348.4.2-6.7.3-13.4.5-20.1 0-1.4.1-2.8.1-4.3s.1-3.1.1-4.6c.1-4.8.2-9.5.3-14.2.2-9.6.5-19.2.8-28.6.2-5.6.3-11.3.5-16.8 0-1.2.1-2.3.1-3.5l.3-11c0-1.1.1-2.3.1-3.4l.3-10 .3-8.4c3.6-101 8.9-180.8 16.4-192 12.8-19.1 56.3-44.3 91.3-64.9 12.5-7.3 27.4-14.9 35.9-20.6 12.4 10 21.4 19 39.9 18.4 20.6-.7 25.7-13.1 33.5-23.7 4.8 3.1 17 13.1 23.3 16.8 5.4 3.2 11.3 6.6 17.4 10.1 9.5 5.4 19.5 11.2 29.5 17 14.8 8.7 29.3 17.7 41.4 26.2 12.1 8.6 21.6 16.8 26.4 23.9 6.8 10.3 11.3 76.7 14.1 164.2l.3 9.3v1.1c.1 3.2.2 6.4.3 9.7.3 9.8.5 19.9.8 30.1.1 2.2.1 4.3.1 6.5 0 1.6.1 3.3.1 4.9.1 4.2.2 8.4.3 12.7 0 .9 0 1.7.1 2.6.2 11.2.5 22.6.7 34.1.1 3.4.1 6.7.2 10.1 2.6 157.7 2 330.3 1.4 376.8z"/>
    <path class="st10" d="m1687.2 1092.4-49.1 49.8-45.7-46.4-45.7 46.4-45.9-46.6-45.9 46.6-46.2-46.9-46.2 46.9-49.9-50.6c.1-4.8.2-9.5.3-14.2.2-9.6.5-19.2.8-28.6l48.8-49.5 46.2 46.9 46.2-46.9 45.9 46.6 45.9-46.6 45.7 46.4 45.7-46.4 48.3 48.9c.2 11.2.5 22.6.7 34.1-.1 3.4 0 6.7.1 10.1zm-84.8 256.7c-65.7-.3-121.9-30.2-157.3-55.2-38.4-27.1-61.6-54.5-61.9-54.8-1.1-1.3-1-3.3.4-4.5 1.3-1.1 3.3-1 4.5.4.2.3 23.1 27.2 60.8 53.8 34.7 24.5 89.5 53.7 153.6 54 1.7 0 3.2 1.4 3.1 3.2 0 1.7-1.4 3.1-3.2 3.1zm-41-38.9c-56-11-105.5-53.9-107.8-55.8-1.3-1.2-1.4-3.1-.3-4.5 1.2-1.3 3.1-1.4 4.5-.3.6.5 58.9 50.9 118.3 56.3 1.8.1 3 1.7 2.9 3.4-.2 1.7-1.7 3-3.4 2.9-4.8-.4-9.5-1.1-14.2-2zm-112.1-486.5c-1.5 0-2.8-1.1-3.1-2.6-.3-1.7.8-3.4 2.5-3.7 80.1-15.2 104.3-66.8 104.5-67.3.7-1.6 2.6-2.3 4.2-1.6 1.6.7 2.3 2.6 1.6 4.2-1 2.2-25.8 55.1-109.1 70.9-.2.1-.4.1-.6.1zm-97.8 138.8c-.1.4-.2.7-.4 1-1.2 1.9-2.5 3.9-3.7 5.9-.1.1-.1.2-.2.3-4 6.5-8.2 13.6-12.5 21 0 .1 0 .1-.1.1-6.7 11.8-13.7 24.5-20.5 37.5l.3-11c0-1.1.1-2.3.1-3.4 11-20.4 22-39.5 31.1-54 .9-1.5 2.9-1.9 4.4-1 1.3 1 1.8 2.4 1.5 3.6z"/>
    <path class="st8" d="M1755.4 845.3s102.5-32.9 132.8-100.2c8.8-19.5-63.5-217.2-63.5-217.2l-34.9 1.7s9.9 68.6 16 107.5c5 31.9 13 70.1 15.7 82.7.6 2.7.9 4.2.9 4.2-1.7.3-3.4.6-5.2 1-47.9 9.7-109 40.9-109 40.9l47.2 79.4z"/>
    <path class="st6" d="M1848.1 742.9c1.5 1.1 3.5.7 4.6-.7 1.1-1.5.8-3.5-.7-4.6-7.5-5.4-18.7-11.8-30.5-17.9.6 2.7.9 4.2.9 4.2-1.7.3-3.4.6-5.2 1 12 6.2 23.5 12.6 30.9 18z"/>
    <path class="st3" d="M1598.6 754.8s-31 72.7 47.9 113.2c54.6 28 179-45.2 179-45.2l-44.4-94.2c.1.2-113.8 47.1-182.5 26.2z"/>
    <path class="st8" d="M1806.8 416.7c-3.1 2.2-2.5 15.5-1.1 28.1-.4.1-.9.1-1.3.2-3.7-16.8-11-45.4-17.2-39.9-4.1 3.6 1.4 28.2 5.1 42.9-.8.2-1.5.5-2.3.7-4.7-17.5-14.8-51.2-21.6-44.6-4.5 4.4 4.1 34 8.9 49.2-.7.3-1.3.5-2 .8-4.6-14.7-14.4-42.4-21.1-35.9-6.1 5.9 11.3 47.9 11.3 47.9l4.6 16.5s-5.4 2.3-13.9-7.2c-8.5-9.6-18.6-11.3-11.6 2.6 8 15.7 19.7 26.9 24.9 38 5.2 11.1 21.5 14.8 21.5 14.8l32.8-1.6s6.4-55.4-5.9-81.7c-2-15.8-5.7-34.6-11.1-30.8z"/>
    <path class="st4" d="M1401.6 544.4c0 55.8 34.3 94.2 90.1 94.2s94.7-41.3 94.7-97.1c0-15.4-2.5-29.8-7.3-42.5-.3-.8-.6-1.5-.9-2.2-.6-1.4-1.2-2.9-1.9-4.3-1-2.2-2.1-4.3-3.2-6.3-14.5-26.1-40.6-42.7-75.5-42.7-66.9 0-96 45.1-96 100.9z"/>
    <path class="st6" d="M1414.1 568.4s-15.5-20.7-27-3.6c-11.5 17.1 4.8 67.6 33 55.2l-6-51.6z"/>
    <path class="st7" d="M1413.9 604.5c-1 0-2-.7-2.3-1.7-4.4-15.6-20.5-21.9-20.7-22-1.2-.5-1.8-1.8-1.4-3.1.5-1.2 1.8-1.9 3.1-1.4.8.3 18.5 7.2 23.6 25.1.4 1.3-.4 2.6-1.7 2.9-.1.1-.3.2-.6.2z"/>
    <path class="st7" d="M1397.7 596.6c-.4 0-.9-.1-1.3-.4-1.1-.7-1.4-2.2-.7-3.3.1-.2 3-4.5 8.9-7.2 1.2-.5 2.6 0 3.1 1.2s0 2.6-1.2 3.1c-4.6 2.1-6.9 5.4-6.9 5.4-.4.8-1.2 1.2-1.9 1.2z"/>
    <path class="st6" d="M1573.9 568.4s15.5-20.7 27-3.6c11.5 17.1-4.8 67.6-33 55.2l6-51.6z"/>
    <path class="st7" d="M1574.1 604.5c1 0 2-.7 2.3-1.7 4.4-15.6 20.5-21.9 20.7-22 1.2-.5 1.8-1.8 1.4-3.1-.5-1.2-1.8-1.9-3.1-1.4-.8.3-18.5 7.2-23.6 25.1-.4 1.3.4 2.6 1.7 2.9.1.1.3.2.6.2z"/>
    <path class="st7" d="M1590.4 596.6c.4 0 .9-.1 1.3-.4 1.1-.7 1.4-2.2.7-3.3-.1-.2-3-4.5-8.9-7.2-1.2-.5-2.6 0-3.1 1.2s0 2.6 1.2 3.1c4.6 2.1 6.9 5.4 6.9 5.4.3.8 1.1 1.2 1.9 1.2z"/>
    <path class="st8" d="M1532.2 662.9V713s-15 25.6-35.2 27.3c-20.2 1.8-38.2-22-38.2-22v-52l73.4-3.4z"/>
    <path class="st6" d="M1532.2 662.9v22.3c-13.6 15.1-37.7 18.8-73.4 13.6v-32.3l73.4-3.6z"/>
    <path class="st8" d="M1585.1 534c-.9 19.5-2.8 43.9-6.5 63.4-.9 4.9-2 9.4-3.1 13.5-10.6 37-37 100.4-110.9 74-32.7-11.7-47.8-48-54.6-85-4.6-25.1-5.3-50.5-4.9-68.7.4-18.5 10.5-35.5 26.6-44.6 43.7-24.7 89.7-15.5 120-3.9 21 8.1 34.4 28.8 33.4 51.3z"/>
    <ellipse class="st4" cx="1456.1" cy="574.9" rx="6.2" ry="9.7"/>
    <ellipse class="st4" cx="1528.8" cy="574.7" rx="6.2" ry="9.7"/>
    <path class="st4" d="M1548.9 541.4s-19.5-7.7-34.4-1.2l1.5 8.3s22-1.9 33.1 2.6c.9-3.2 1.1-6.4-.2-9.7zm-113.4 0s19.5-7.7 34.4-1.2l-1.5 8.3s-22-1.9-33.1 2.6c-.9-3.2-1-6.4.2-9.7z"/>
    <path class="st6" d="M1494.8 615.6c4 0 8-1.6 8.6-1.8 1.2-.5 1.8-1.9 1.3-3.1-.5-1.2-1.9-1.8-3.1-1.3-2.2.9-7.3 2.2-9.6.9-.4-.3-1-.8-1.2-2.2-.9-8.3 1.4-36.2 1.4-36.5.1-1.3-.9-2.5-2.2-2.6-1.3-.1-2.5.9-2.6 2.2-.1 1.2-2.3 28.6-1.4 37.4.3 3.3 2.1 5 3.5 5.8 1.7.9 3.5 1.2 5.3 1.2z"/>
    <path class="st9" d="M1462.8 627.7c4 13.8 15.2 27.5 30.8 27.7 15.5-.2 26.8-13.9 30.7-27.7h-61.5z"/>
    <path class="st6" d="M1492.2 670.3c6.2 0 11.4-3.1 11.6-3.3 1.1-.7 1.5-2.1.8-3.3-.7-1.1-2.1-1.5-3.3-.8 0 0-4.3 2.6-9.2 2.6-4.4 0-8.6-2.5-8.7-2.6-1.1-.7-2.6-.3-3.3.8-.7 1.1-.3 2.6.8 3.3.4.2 5.5 3.3 11.3 3.3z"/>
    <path class="st4" d="M1582.5 568.8h-10.8c1.2-10.8 2.9-30-6-32.7-28.2-8.6 8.3-28.5-4.4-38.5-12.7-9.9-44.3-5.7-66.3-6.4-22.1-.7-57.7-.4-66.3 1.6-8.7 2-3.9 16.3-.7 27.5 3.2 11.1-10.6 23.4-12.9 34.9-.7 3.3-.5 8.2 0 13.5h-9c-1.1-14-1.2-27.1-1-37.6.4-18.5 10.5-35.5 26.6-44.6 43.7-24.7 89.7-15.5 120-3.9 21.1 8.1 34.5 28.8 33.5 51.2-.6 10.8-1.4 23-2.7 35z"/>
    <path class="st9" d="M1455 603c-14.9 0-27-12.1-27-27s12.1-27 27-27 27 12.1 27 27-12.1 27-27 27zm0-49.7c-12.6 0-22.8 10.2-22.8 22.8 0 12.6 10.2 22.8 22.8 22.8 12.6 0 22.8-10.2 22.8-22.8 0-12.6-10.2-22.8-22.8-22.8zm73.8 49.7c-14.9 0-27-12.1-27-27s12.1-27 27-27 27 12.1 27 27-12.1 27-27 27zm0-49.7c-12.6 0-22.8 10.2-22.8 22.8 0 12.6 10.2 22.8 22.8 22.8 12.6 0 22.8-10.2 22.8-22.8 0-12.6-10.2-22.8-22.8-22.8z"/>
    <path class="st9" d="M1432.6 567.3c-.5 0-1.1-.2-1.5-.6-.1-.1-12.4-12-28.5-8.3-1.1.3-2.3-.4-2.5-1.6-.3-1.1.4-2.3 1.6-2.5 18.4-4.3 31.8 8.8 32.4 9.4.8.8.8 2.2 0 3-.4.4-1 .6-1.5.6zm119.1 0c-.7 0-1.4-.3-1.8-1-.6-1-.4-2.3.6-2.9.8-.5 19.9-12.8 36.2-10.2 1.1.2 1.9 1.3 1.7 2.4-.2 1.1-1.3 1.9-2.4 1.7-14.6-2.4-33 9.4-33.2 9.5-.3.4-.7.5-1.1.5zm-48.4 2.7c0-.1-5-6.8-11.6-6.8-6.5 0-11 6.7-11.1 6.8l-3.5-2.3c.2-.4 5.8-8.7 14.6-8.7 8.7 0 14.8 8.2 15 8.6l-3.4 2.4z"/>
    <path class="st8" d="M1342.6 958.6s-28.4 55.1-61.9 98.7c-9.9 12.9-20.2 24.7-30.3 33.9-16.5 14.9-32.5 22.6-45.6 16-48.5-24.4-156.6-219-156.6-219l26.6-31.6s48.1 55.6 83.3 88.8c32.5 30.7 57.4 53.6 57.4 53.6 4.5-6.8 9.3-14.3 14.3-22.3 5.3-8.4 10.8-17.3 16.4-26.5 40.5-66.5 85.5-146.4 85.5-146.4l10.9 154.8z"/>
    <path class="st6" d="M1280.7 1057.2c-9.9 12.9-20.2 24.7-30.3 33.9l-20.6-114.4c5.3-8.4 10.8-17.3 16.4-26.5l34.5 107z"/>
    <path class="st3" d="m1331.6 803.9-97.2 152.8 32.6 134.4 80.4-130.9c.1 0 9.8-89.6-15.8-156.3zm-122.2 759.2c-6.9-38.5-13.8-81.8-20-124-1.4-9.3-2.7-18.6-4-27.7-5-34.9-9.4-67.9-13-95.2-1.4-10.4-2.6-20-3.7-28.6-3.5-27.3-5.5-44.3-5.5-44.3l-153.5 5.8-153.9-5.8s-4 33.6-10.3 82.3c-1.2 8.9-2.4 18.2-3.7 28-3.4 25.5-7.3 53.8-11.5 82.7-.1.4-.1.8-.2 1.3-1.3 9-2.6 18.1-4 27.1 0 .1 0 .2-.1.4-3.3 21.9-6.7 43.8-10.3 64.8-1.4 8.7-2.9 17.2-4.4 25.5-.5 2.6-.9 5.2-1.4 7.7h399.5z"/>
    <circle class="st10" cx="876.7" cy="1289.5" r="14.5"/>
    <circle class="st10" cx="912.6" cy="1345.5" r="14.5"/>
    <circle class="st10" cx="983.2" cy="1316.6" r="14.5"/>
    <circle class="st10" cx="871.8" cy="1405" r="14.5"/>
    <circle class="st10" cx="960" cy="1398.9" r="14.5"/>
    <path class="st10" d="M854.9 1339.2c0 7.5-5.7 13.7-13.1 14.4 1.3-9.8 2.5-19.1 3.7-28 5.5 2.1 9.4 7.4 9.4 13.6z"/>
    <circle class="st10" cx="1103.8" cy="1483.8" r="14.5"/>
    <circle class="st10" cx="1097" cy="1405" r="14.5"/>
    <path class="st10" d="M1189.4 1439.1c-1.7.7-3.7 1.1-5.7 1.1-8 0-14.5-6.5-14.5-14.5s6.5-14.5 14.5-14.5c.6 0 1.1 0 1.7.1 1.3 9.3 2.7 18.5 4 27.8z"/>
    <circle class="st10" cx="1111.4" cy="1541.6" r="14.5"/>
    <circle class="st10" cx="1173.3" cy="1518.5" r="14.5"/>
    <path class="st10" d="M1059 1563.1c-2.6-3.8-7-6.3-11.9-6.3s-9.3 2.5-11.9 6.3h23.8z"/>
    <circle class="st10" cx="862.3" cy="1496.4" r="14.5"/>
    <path class="st10" d="M838.6 1450.7c0 7.3-5.5 13.4-12.6 14.3 0-.1 0-.2.1-.4 1.4-9.1 2.7-18.1 4-27.1 5 2.3 8.5 7.4 8.5 13.2zm-17 90.9c0 6.5-4.3 12.1-10.3 13.9 1.5-8.3 2.9-16.8 4.4-25.5 3.6 2.5 5.9 6.8 5.9 11.6z"/>
    <circle class="st10" cx="898.1" cy="1547.7" r="14.5"/>
    <circle class="st10" cx="974.5" cy="1536.4" r="14.5"/>
    <circle class="st10" cx="920" cy="1465.2" r="14.5"/>
    <circle class="st10" cx="997.7" cy="1450.8" r="14.5"/>
    <circle class="st10" cx="1032.6" cy="1374.5" r="14.5"/>
    <path class="st10" d="M1172.4 1316.3c-1 .2-2 .3-3.1.3-8 0-14.5-6.5-14.5-14.5 0-7.8 6.1-14.1 13.9-14.4 1.1 8.6 2.3 18.2 3.7 28.6z"/>
    <circle class="st10" cx="1082.5" cy="1316.6" r="14.5"/>
    <circle class="st10" cx="1135.5" cy="1368.1" r="14.5"/>
    <circle class="st10" cx="1047.1" cy="1496.4" r="14.5"/>
    <path class="st2" d="M1172.5 1247.2c-81 52.9-229.6 48.7-323 0 8.9-55.6 20.7-111.2 18.1-185.2-.3-8.1-.6-16.2-1-24.2l-1.2-20.7c-8.1-123.1-29.1-223.7-18.7-236.7 4.5-5.7 12-11.8 21.3-18.1 3.6-2.5 7.5-5 11.6-7.5 9.7-5.9 20.5-11.9 31.3-17.7 25.7-13.7 51.7-26.4 64.8-35.1 13 5.6 23.3 8.7 34.4 8.7h1.9c11.1.1 21.4-3 34.4-8.7 12.1 8.1 34.9 19.3 58.2 31.6 17.1 9 34.5 18.6 48 27.9 8.8 6.1 16.1 12 20.5 17.6 5.1 6.4 3 34.7-1.4 76.6-4.3 41.2-10.8 95.6-14.7 155.4-1.1 16.6-2 33.6-2.6 50.9-2.5 74 9.2 129.6 18.1 185.2z"/>
    <path class="st3" d="M1123 1185.7c-65.2-.3-120.8-30-156-54.8-38.1-26.9-61.1-54.1-61.4-54.3-1.1-1.3-.9-3.3.4-4.4 1.3-1.1 3.3-.9 4.4.4.2.3 22.9 27 60.3 53.4 34.4 24.3 88.8 53.3 152.3 53.5 1.7 0 3.1 1.4 3.1 3.2 0 1.6-1.4 3-3.1 3zm-43.1-37.9c-55.5-10.9-104.6-53.4-106.9-55.4-1.3-1.1-1.4-3.1-.3-4.4 1.1-1.3 3.1-1.4 4.4-.3.6.5 58.4 50.5 117.3 55.9 1.8.1 3 1.7 2.8 3.4-.2 1.7-1.7 3-3.4 2.8-4.6-.4-9.3-1.1-13.9-2zm-82.2-287.2c-1.5 0-2.8-1-3.1-2.6-.3-1.7.8-3.3 2.5-3.7 79.5-15.1 103.4-66.2 103.7-66.7.7-1.6 2.6-2.3 4.2-1.6 1.6.7 2.3 2.6 1.6 4.1-1 2.2-25.6 54.6-108.2 70.3-.3.2-.5.2-.7.2z"/>
    <path class="st8" d="M1104.6 733.6c-15.8 36-54.6 73.2-105 64.5-48.8-8.4-72-34.3-88.7-61 25.7-13.7 51.7-26.4 64.8-35.1 13 5.6 23.3 8.7 34.4 8.7h1.9c11.1.1 21.4-3 34.4-8.7 12.1 8.1 34.9 19.4 58.2 31.6z"/>
    <path class="st9" d="M1062.4 704.7c-1.4 0-2.5 1.1-2.5 2.5 0 2-.8 49.6-43.5 53.3-39.6 3.4-56-34.5-61.1-50.2-.3-.9-1.2-1.5-2.1-1.5h-.5c-1.5 0-2.6 1.5-2.1 2.9 5.4 16.2 22.7 55.4 63 54 1 0 2.1-.1 3.2-.2 47.3-4.1 48.1-57.7 48.1-58.2 0-1.5-1.1-2.6-2.5-2.6z"/>
    <path class="st4" d="M1092.6 451.9s38.2 59.1 34 120.7c-4.2 61.6 5.6 132.6-49.5 129.5-55.1-3.1-153.4 22.1-184.6-25.9-31.2-47.9 200.1-224.3 200.1-224.3z"/>
    <path class="st5" d="M1106.8 560.6s9.9 89.2-32.4 113.8c-42.3 24.6-73-2.9-73-2.9s89.2-124.4 105.4-110.9z"/>
    <path class="st6" d="M930.9 560.1s-15.2-20.3-26.5-3.5 4.7 66.3 32.4 54.2l-5.9-50.7z"/>
    <path class="st7" d="M930.7 595.5c-1 0-2-.7-2.3-1.7-4.3-15.3-20.1-21.5-20.3-21.5-1.2-.5-1.8-1.8-1.4-3 .5-1.2 1.8-1.8 3-1.4.7.3 18.2 7.1 23.1 24.7.3 1.2-.4 2.5-1.6 2.9h-.5z"/>
    <path class="st7" d="M914.7 587.8c-.4 0-.9-.1-1.3-.4-1.1-.7-1.4-2.1-.7-3.2.1-.2 2.9-4.5 8.8-7.1 1.2-.5 2.6 0 3.1 1.2s0 2.6-1.2 3.1c-4.5 2-6.7 5.3-6.8 5.3-.4.8-1.1 1.1-1.9 1.1z"/>
    <path class="st6" d="M1087.6 560.1s15.2-20.3 26.5-3.5-4.7 66.3-32.4 54.2l5.9-50.7z"/>
    <path class="st7" d="M1087.8 595.5c1 0 2-.7 2.3-1.7 4.3-15.3 20.1-21.5 20.3-21.5 1.2-.5 1.8-1.8 1.4-3-.5-1.2-1.8-1.8-3-1.4-.7.3-18.2 7.1-23.1 24.7-.3 1.2.4 2.5 1.6 2.9h.5z"/>
    <path class="st7" d="M1103.7 587.8c.4 0 .9-.1 1.3-.4 1.1-.7 1.4-2.1.7-3.2-.1-.2-2.9-4.5-8.8-7.1-1.2-.5-2.6 0-3.1 1.2s0 2.6 1.2 3.1c4.5 2 6.7 5.3 6.8 5.3.4.8 1.2 1.1 1.9 1.1z"/>
    <path class="st8" d="M1046.6 652.8V702s-14.7 25.1-34.5 26.8c-19.8 1.7-37.5-21.6-37.5-21.6v-51l72-3.4z"/>
    <path class="st6" d="M1046.6 652.8v21.8c-13.3 14.8-37 20-72 14.9v-33.2l72-3.5z"/>
    <path class="st8" d="M1098.6 526.4c-.9 19.1-2.7 43.1-6.4 62.2-.9 4.8-1.9 9.3-3.1 13.3-10.4 36.3-36.3 98.5-108.8 72.6-32-11.4-46.9-47.1-53.5-83.4-4.5-24.7-5.2-49.6-4.8-67.4.4-18.2 10.3-34.8 26.1-43.7 42.8-24.3 88-15.2 117.8-3.8 20.5 7.8 33.7 28.1 32.7 50.2z"/>
    <ellipse class="st4" cx="971.2" cy="563" rx="6.1" ry="9.5"/>
    <ellipse class="st4" cx="1045.9" cy="563" rx="6.1" ry="9.5"/>
    <path class="st4" d="M959.2 534.7c5-1.4 15.2-3.8 25.9-3.9 2.8 0 5 2.5 4.5 5.3v.1c-.4 2.2-2.4 3.8-4.6 3.7-7.3-.3-26.4.7-35.4 4.3-.2-1.6.7-3.3 2.1-4.8 1.9-2.3 4.6-3.9 7.5-4.7zm97.8.2c-5-1.4-15.2-3.8-25.9-3.9-2.8 0-5 2.5-4.5 5.3v.1c.4 2.2 2.4 3.8 4.6 3.7 7.3-.3 26.4.7 35.4 4.3.2-1.6-.7-3.3-2.1-4.8-1.8-2.3-4.6-3.9-7.5-4.7z"/>
    <path class="st6" d="M1010 606.5c-1.8 0-3.6-.3-5.1-1.2-1.4-.8-3.1-2.5-3.4-5.7-.9-8.6 1.3-35.5 1.4-36.7.1-1.3 1.2-2.2 2.5-2.1 1.3.1 2.2 1.2 2.1 2.5 0 .3-2.3 27.7-1.4 35.8.1 1.4.7 1.9 1.1 2.2 2.2 1.3 7.3 0 9.4-.9 1.2-.5 2.6.1 3 1.3.5 1.2-.1 2.6-1.3 3-.4.2-4.3 1.8-8.3 1.8z"/>
    <path class="st9" d="M980.3 621.2c1.8 8.9 7.6 25.3 27.4 25.3 19.8 0 25.4-15 27.3-25.3h-54.7z"/>
    <path class="st6" d="M1007.5 660.2c-5.7 0-10.8-3.1-11-3.2-1.1-.7-1.4-2.1-.8-3.2.7-1.1 2.1-1.4 3.2-.8 0 0 4.2 2.5 8.5 2.5 4.7 0 8.9-2.5 9-2.5 1.1-.7 2.5-.3 3.2.8.7 1.1.3 2.5-.8 3.2-.1.1-5.3 3.2-11.3 3.2z"/>
    <path class="st4" d="M1108 522.6c-.8 2.1-2.8 3.5-5.6 4.3.2 5.2-.3 11.4-.8 17.3-2.9 33.8-11.4 39.7-13.3 31.4-1.3-5.6-1.2-37.4-.6-47.8-6.7-.4-12.4-1.6-12.4-1.6l-7.8-32.8-2.7 32.4c-11.8 4.1-39.2-2.5-39.2-2.5l-9.2-32.4-5.7 31.1c-17.6 8.6-39.7 2.9-39.7 2.9l-5.1-33.6L954 525s-37.6 13.5-38 0c-.3-7.9 5.5-30 10.4-47.1 5.3-18.7 17.6-34.5 34.2-43.4 46.7-25.1 96.1-11.7 113-1.6 35.9 21.4 34.4 89.7 34.4 89.7z"/>
    <path class="st4" d="M936.7 454.4s-31 36.9-41.2 102.7c-10.2 65.8-24.3 114.5 15.4 136.2 42.9 23.5 39.2-24.7 38.6-37.8-.6-13.1-37.1-49-12.8-149.9 7.9-32.7 0-51.2 0-51.2z"/>
    <path class="st5" d="M929.5 590.4c0 .6 0 3.2.2 7.3.1 2.5.3 5.6.5 9.1 1.5 22.2 5.8 60.5 18.4 73.8 5 5.3 14.6 7.9 26 9v-17.4c-12-5.7-21.3-15-28.5-26.5-4.5-9.7-12.2-24.8-15.8-48.6l-.8-6.7z"/>
    <circle class="st9" cx="1093.6" cy="611.9" r="5.5"/>
    <path class="st2" d="M1210.8 1024.8c-15.5 44.4-85 41.2-164.2 16.9-.1 0-.2-.1-.3-.1-.2-.1-.5-.2-.7-.2l-10.9-3.5-4.5-1.5c-8.5-2.9-17.1-5.9-25.8-9.2-28.3-10.7-56.8-23.5-83.7-37.1l.2-.5 8.1-21 2.8-7.2s146.8 16 220.6.6c1.3-.3 2.5-.5 3.7-.8-.3-1.6-.4-3.3-.8-4.9-39.1-133.1 3.7-158.7 18-177.2-.2 0 66.8 161.8 37.5 245.7z"/>
    <path class="st3" d="M1186.9 983.6c-.4.2-.9.3-1.4.3-1.2 0-2.3-.6-2.8-1.8-5.6-11.5-24.6-18.3-30.4-20.1 1.3-.3 2.5-.5 3.7-.8-.3-1.6-.6-3.3-.8-4.9 7.4 2.5 26.8 9.9 33.2 23.1.7 1.6 0 3.4-1.5 4.2zM981.3 978c-30 0-54.3-1.7-56.4-1.9-1.7-.1-3-1.6-2.9-3.3.1-1.7 1.6-3 3.3-2.9 1.1.1 111.2 7.9 154.6-9.7 1.6-.6 3.4.1 4.1 1.7.6 1.6-.1 3.4-1.7 4.1-24 9.7-66.3 12-101 12zm53.3 59.9c25.1-6.9 48-13.7 61.2-17.9 18.3-5.9 33.5-24.4 40.3-40.1.7-1.6 2.5-2.3 4.1-1.6 1.6.7 2.3 2.5 1.6 4.1-7.4 17-24 37.1-44.2 43.6-9.6 3.1-24.2 7.4-41.1 12.3-7.1 2-14.8 1.9-21.9-.4z"/>
    <path class="st2" d="M1102.3 1016.4c-226.9 76.4-296.7 26.4-296.7 26.4-15.3-138.1 41-262.3 41-262.3 16.6 27.4 35.4 75.3 35.4 75.3l5 105.9-.4 2.9-.2 1.4-.9 7.2v.1l1.5.3c68.6 14.5 194.1-1.7 194.1-1.7l21.2 44.5z"/>
    <path class="st3" d="M887 973.6c-12.2 10.3-23.9 22.1-34.2 35.7-1 1.4-3 1.6-4.4.6-1.4-1-1.6-3-.6-4.4 11.7-15.3 24.9-28.4 38.7-39.6l-.9 7.2v.1c.4.2.9.3 1.4.4z"/>
    <path class="st8" d="M1081.1 971.9s25.1-57.1 63.3-52l11.5 41.3c-20.9 8.9-24 44.7-53.6 55.2l-21.2-44.5zm-149.4-10.4s-15.9-37.2-57.6-48c-41.7-10.8-68.3 8.9-71.1 16.3-2.8 7.4 15.7.3 15.7.3s-12.1 3.4-19 14.8 16.9-.9 16.9-.9-17.1 7.5-19.2 14.4c-2.2 6.9 20.3-4.8 24.6-4.6 0 0-20.1 8-20 15.1.1 7.2 23.1-4.5 40.2-3.6 17.1.9 43.4 8 43.4 8 14 2.7 27.4 4.6 39.6 5.2l6.5-17z"/>
    <path class="st3" d="M1334.8 382.6c-15.5 0-28-12.6-28-28s12.6-28 28-28 28 12.6 28 28-12.6 28-28 28zm0-47.2c-10.6 0-19.2 8.6-19.2 19.2s8.6 19.2 19.2 19.2 19.2-8.6 19.2-19.2-8.6-19.2-19.2-19.2z"/>
    <path class="st2" d="M1579.3 335c-15.5 0-28-12.6-28-28s12.6-28 28-28c15.5 0 28 12.6 28 28s-12.6 28-28 28zm0-47.3c-10.6 0-19.2 8.6-19.2 19.2s8.6 19.2 19.2 19.2 19.2-8.6 19.2-19.2c0-10.5-8.6-19.2-19.2-19.2z"/>
    <path class="st3" d="M1613.9 426.1c-2.4 0-4.4-2-4.4-4.4v-19.4c0-2.4 2-4.4 4.4-4.4 2.4 0 4.4 2 4.4 4.4v19.4c0 2.4-2 4.4-4.4 4.4zm0 33.9c-2.4 0-4.4-2-4.4-4.4v-19.4c0-2.4 2-4.4 4.4-4.4 2.4 0 4.4 2 4.4 4.4v19.4c0 2.4-2 4.4-4.4 4.4zm27.2-26.7h-17.4c-2.4 0-4.4-2-4.4-4.4 0-2.4 2-4.4 4.4-4.4h17.4c2.4 0 4.4 2 4.4 4.4 0 2.5-2 4.4-4.4 4.4zm-37 0h-17.4c-2.4 0-4.4-2-4.4-4.4 0-2.4 2-4.4 4.4-4.4h17.4c2.4 0 4.4 2 4.4 4.4 0 2.5-2 4.4-4.4 4.4z"/>
    <path class="st1" d="M1465.9 308.6c-2.4 0-4.4-2-4.4-4.4v-19.4c0-2.4 2-4.4 4.4-4.4s4.4 2 4.4 4.4v19.4c0 2.5-2 4.4-4.4 4.4zm0 33.9c-2.4 0-4.4-2-4.4-4.4v-19.4c0-2.4 2-4.4 4.4-4.4s4.4 2 4.4 4.4v19.4c0 2.5-2 4.4-4.4 4.4zm27.2-26.6h-17.4c-2.4 0-4.4-2-4.4-4.4 0-2.4 2-4.4 4.4-4.4h17.4c2.4 0 4.4 2 4.4 4.4 0 2.4-2 4.4-4.4 4.4zm-37 0h-17.4c-2.4 0-4.4-2-4.4-4.4 0-2.4 2-4.4 4.4-4.4h17.4c2.4 0 4.4 2 4.4 4.4 0 2.4-2 4.4-4.4 4.4z"/>
    <path class="st3" d="M333.2 283.5c0-15.5 12.6-28 28-28 15.5 0 28 12.6 28 28 0 15.5-12.6 28-28 28s-28-12.6-28-28zm8.8 0c0 10.6 8.6 19.2 19.2 19.2s19.2-8.6 19.2-19.2-8.6-19.2-19.2-19.2c-10.5 0-19.2 8.6-19.2 19.2z"/>
    <path class="st2" d="M220.7 390.3c0-15.5 12.6-28 28-28 15.5 0 28 12.6 28 28s-12.6 28-28 28-28-12.6-28-28zm8.8 0c0 10.6 8.6 19.2 19.2 19.2s19.2-8.6 19.2-19.2-8.6-19.2-19.2-19.2-19.2 8.6-19.2 19.2z"/>
    <path class="st3" d="M162.5 429.6c2.4 0 4.4-2 4.4-4.4v-19.4c0-2.4-2-4.4-4.4-4.4s-4.4 2-4.4 4.4v19.4c0 2.4 1.9 4.4 4.4 4.4zm0 33.9c2.4 0 4.4-2 4.4-4.4v-19.4c0-2.4-2-4.4-4.4-4.4s-4.4 2-4.4 4.4v19.4c0 2.5 1.9 4.4 4.4 4.4zm-27.2-26.6h17.4c2.4 0 4.4-2 4.4-4.4 0-2.4-2-4.4-4.4-4.4h-17.4c-2.4 0-4.4 2-4.4 4.4 0 2.4 1.9 4.4 4.4 4.4zm37 0h17.4c2.4 0 4.4-2 4.4-4.4 0-2.4-2-4.4-4.4-4.4h-17.4c-2.4 0-4.4 2-4.4 4.4 0 2.4 1.9 4.4 4.4 4.4z"/>
    <path class="st1" d="M263.7 280.6c2.4 0 4.4-2 4.4-4.4v-19.4c0-2.4-2-4.4-4.4-4.4s-4.4 2-4.4 4.4v19.4c0 2.4 2 4.4 4.4 4.4zm0 33.9c2.4 0 4.4-2 4.4-4.4v-19.4c0-2.4-2-4.4-4.4-4.4s-4.4 2-4.4 4.4v19.4c0 2.5 2 4.4 4.4 4.4zm-27.2-26.6h17.4c2.4 0 4.4-2 4.4-4.4 0-2.4-2-4.4-4.4-4.4h-17.4c-2.4 0-4.4 2-4.4 4.4 0 2.4 2 4.4 4.4 4.4zm37 0h17.4c2.4 0 4.4-2 4.4-4.4 0-2.4-2-4.4-4.4-4.4h-17.4c-2.4 0-4.4 2-4.4 4.4 0 2.4 2 4.4 4.4 4.4z"/>
    <path class="st0" d="M1101.7 285.5c-.5.1-1 0-1.5-.2-5.3-2.3-8.5-3.3-8.5-3.3-1.6-.5-2.5-2.3-2-3.9s2.3-2.5 3.9-2c.1 0 3.4 1.1 8.9 3.5 1.6.7 2.3 2.5 1.7 4.1-.4 1-1.4 1.7-2.5 1.8zm159.1 167.4c2.1 5.7 4.1 11.5 5.9 17.4.4 1.5 1.9 2.3 3.3 2.2.2 0 .4-.1.6-.1 1.6-.5 2.6-2.3 2.1-3.9-1.8-6-3.9-11.9-6-17.7-.6-1.6-2.4-2.4-4-1.8-1.7.5-2.5 2.3-1.9 3.9zm10.7 35c1.4 5.9 2.7 11.9 3.8 17.9.3 1.6 1.8 2.7 3.4 2.5h.2c1.7-.3 2.8-1.9 2.5-3.6-1.1-6.2-2.5-12.3-3.9-18.3-.4-1.7-2.1-2.7-3.8-2.3-1.5.5-2.6 2.2-2.2 3.8zm13.2 94.3c1.5-.2 2.8-1.5 2.8-3.1.1-6.3.1-12.5-.1-18.7-.1-1.7-1.5-3.1-3.2-3-1.7.1-3.1 1.5-3 3.2.2 6 .2 12.2.1 18.4 0 1.7 1.3 3.1 3.1 3.2h.3zm-3.8-61.7c-1.7.2-2.9 1.8-2.7 3.5.4 2.8.7 5.7 1 8.5.3 3.2.6 6.5.9 9.8.1 1.7 1.6 3 3.4 2.9h.1c1.7-.2 2.9-1.7 2.8-3.3-.3-3.3-.6-6.7-.9-10-.3-2.8-.6-5.8-1-8.6-.3-1.8-1.8-3-3.6-2.8.1 0 0 0 0 0zm-27.1-84.6c.6 1.3 1.9 2 3.2 1.8.3 0 .6-.1.9-.3 1.6-.7 2.3-2.6 1.6-4.1-2.5-5.7-5.3-11.4-8.2-16.8-.8-1.5-2.7-2.1-4.2-1.3s-2.1 2.7-1.3 4.2c2.8 5.4 5.5 11 8 16.5zM1116.7 293c5.4 2.7 10.8 5.7 16.1 8.9.6.4 1.3.5 1.9.4.9-.1 1.8-.6 2.4-1.5.9-1.5.4-3.4-1.1-4.3-5.4-3.2-10.9-6.3-16.4-9.1-1.5-.8-3.4-.2-4.2 1.4-.8 1.6-.2 3.4 1.3 4.2zm46.6 29.4c.7.5 1.5.7 2.2.6.8-.1 1.6-.5 2.2-1.2 1-1.4.8-3.3-.6-4.4-4.9-3.8-10.1-7.4-15.2-10.9-1.4-1-3.4-.6-4.3.8-1 1.4-.6 3.4.8 4.3 5 3.5 10 7.1 14.9 10.8zm52.4 51.1c.7.9 1.7 1.3 2.8 1.2.6-.1 1.1-.3 1.6-.7 1.3-1.1 1.6-3 .5-4.4-3.9-4.8-8-9.6-12.2-14.2-1.2-1.3-3.1-1.4-4.4-.2-1.3 1.2-1.4 3.1-.2 4.4 4.1 4.5 8.1 9.2 11.9 13.9zm-24.7-27.1c.7.7 1.6 1 2.5.9.7-.1 1.4-.4 1.9-.9 1.2-1.2 1.2-3.2-.1-4.4-4.4-4.3-9.1-8.6-13.8-12.6-1.3-1.1-3.3-1-4.4.3-1.1 1.3-1 3.3.3 4.4 4.7 3.9 9.3 8 13.6 12.3zm45.7 57.1c.6 1.1 1.8 1.6 3 1.5.4 0 .9-.2 1.3-.4 1.5-.9 1.9-2.8 1-4.3-3.2-5.3-6.7-10.6-10.3-15.7-1-1.4-2.9-1.8-4.3-.8s-1.8 2.9-.8 4.3c3.6 5.1 7 10.2 10.1 15.4z"/>
    <path class="st2" d="m1101.6 264.1 13.7-50.5-167.4 1.4z"/>
    <path class="st3" d="m947.9 215 145.6 61.4.4.1 6.3 10.4 1.4-22.8z"/>
    <path class="st3" d="m1100.2 286.9-13.6-2.1 7.3-8.3z"/>
    <path class="st2" d="m1075.6 268.8 18.3 7.7-37.7 42.5-108.3-104z"/>
    <path class="st1" d="M1871.2 1595v3.1c0 17.6-14.3 31.9-31.9 31.9H186.8c-17.6 0-31.9-14.3-31.9-31.9v-3.1c0-17.6 14.3-31.9 31.9-31.9h1652.5c17.6 0 31.9 14.3 31.9 31.9z"/>
    <path class="st3" d="M1871.2 1595v1.5H154.9v-1.5c0-17.6 14.3-31.9 31.9-31.9h1652.5c17.6 0 31.9 14.3 31.9 31.9z"/>
    <path class="st4" d="M1283 1462.9H729.7c-3 0-5.4-2.4-5.4-5.4v-305.8c0-3 2.4-5.4 5.4-5.4H1283c3 0 5.4 2.4 5.4 5.4v305.8c0 3-2.4 5.4-5.4 5.4z"/>
    <path class="st5" d="M962.7 1462.5h87.4v99.6h-87.4z"/>
    <circle cx="1005.4" cy="1308.5" r="43.4" style="fill:#1d567e"/>
    <path class="st4" d="M1117.7 1562.1H892.3v-28.7c0-3.7 3-6.6 6.6-6.6h212c3.7 0 6.6 3 6.6 6.6v28.7z"/>
  </g>
</svg>
