<svg xmlns="http://www.w3.org/2000/svg" viewBox="0 0 500 500"><g id="freepik--background-complete--inject-2"><rect width="33.12" height=".25" x="416.78" y="398.49" style="fill:#ebebeb"/><rect width="8.69" height=".25" x="322.53" y="401.21" style="fill:#ebebeb"/><rect width="19.19" height=".25" x="396.59" y="389.21" style="fill:#ebebeb"/><rect width="43.19" height=".25" x="52.46" y="390.89" style="fill:#ebebeb"/><rect width="6.33" height=".25" x="104.56" y="390.89" style="fill:#ebebeb"/><rect width="93.68" height=".25" x="131.47" y="395.11" style="fill:#ebebeb"/><path d="M237,337.8H43.92a5.71,5.71,0,0,1-5.71-5.71V60.66A5.71,5.71,0,0,1,43.92,55H237a5.71,5.71,0,0,1,5.71,5.71V332.09A5.71,5.71,0,0,1,237,337.8ZM43.92,55.2a5.47,5.47,0,0,0-5.46,5.46V332.09a5.47,5.47,0,0,0,5.46,5.46H237a5.47,5.47,0,0,0,5.46-5.46V60.66A5.47,5.47,0,0,0,237,55.2Z" style="fill:#ebebeb"/><path d="M453.31,337.8H260.21a5.72,5.72,0,0,1-5.71-5.71V60.66A5.72,5.72,0,0,1,260.21,55h193.1A5.71,5.71,0,0,1,459,60.66V332.09A5.71,5.71,0,0,1,453.31,337.8ZM260.21,55.2a5.47,5.47,0,0,0-5.46,5.46V332.09a5.47,5.47,0,0,0,5.46,5.46h193.1a5.47,5.47,0,0,0,5.46-5.46V60.66a5.47,5.47,0,0,0-5.46-5.46Z" style="fill:#ebebeb"/><rect width="500" height=".25" y="382.4" style="fill:#ebebeb"/><path d="M213.63,330.66h3.58a0,0,0,0,1,0,0v51.5a1.19,1.19,0,0,1-1.19,1.19h-1.21a1.19,1.19,0,0,1-1.19-1.19v-51.5A0,0,0,0,1,213.63,330.66Z" style="fill:#f0f0f0"/><rect width="31.05" height="4.68" x="293.47" y="325.98" style="fill:#e6e6e6"/><path d="M235.82,330.66h3.58a0,0,0,0,1,0,0v51.5a1.19,1.19,0,0,1-1.19,1.19H237a1.19,1.19,0,0,1-1.19-1.19v-51.5A0,0,0,0,1,235.82,330.66Z" style="fill:#e6e6e6"/><path d="M318.86,330.66h3.58a0,0,0,0,1,0,0v51.5a1.19,1.19,0,0,1-1.19,1.19H320a1.19,1.19,0,0,1-1.19-1.19v-51.5A0,0,0,0,1,318.86,330.66Z" style="fill:#e6e6e6"/><rect width="90.76" height="4.68" x="211.56" y="325.98" style="fill:#f5f5f5"/><path d="M296.67,330.66h3.58a0,0,0,0,1,0,0v51.5a1.19,1.19,0,0,1-1.19,1.19h-1.21a1.19,1.19,0,0,1-1.19-1.19v-51.5A0,0,0,0,1,296.67,330.66Z" style="fill:#f0f0f0"/><path d="M317.79,326h-8.24v-.73a2.5,2.5,0,0,1,2.64-2.5l3.23.17a2.5,2.5,0,0,1,2.37,2.5Z" style="fill:#f0f0f0"/><path d="M295.56,309a1.22,1.22,0,0,0-1.22-1.16H286a1.21,1.21,0,0,0-1.21,1.16l2,17.34H299.2Z" style="fill:#e0e0e0"/><path d="M318.16,282.29h-3.1l-3.49,32.76h3.1a1.06,1.06,0,0,0,1-.93l3.29-30.9A.82.82,0,0,0,318.16,282.29Z" style="fill:#e0e0e0"/><path d="M313.36,315.05H266.89a.82.82,0,0,1-.83-.93l3.29-30.9a1.06,1.06,0,0,1,1-.93h46.47a.83.83,0,0,1,.83.93l-3.29,30.9A1.06,1.06,0,0,1,313.36,315.05Z" style="fill:#ebebeb"/><path d="M312.5,312H268.67a.71.71,0,0,1-.72-.81l2.86-26.95a.92.92,0,0,1,.9-.81h43.83a.71.71,0,0,1,.72.81l-2.87,26.95A.91.91,0,0,1,312.5,312Z" style="fill:#fafafa"/><path d="M299.67,325H284.39a.68.68,0,0,0-.67.68h0a.67.67,0,0,0,.67.67h15.28a.67.67,0,0,0,.67-.67h0A.68.68,0,0,0,299.67,325Z" style="fill:#e0e0e0"/><rect width="25.91" height="1.93" x="269.14" y="324.05" style="fill:#ebebeb"/><rect width="10.1" height="10.1" x="279.53" y="293.43" transform="translate(294.42 -113.81) rotate(45)" style="fill:#f0f0f0"/><polygon points="291.2 305.22 295.11 301.31 299.02 305.22 291.2 305.22" style="fill:#ebebeb"/><circle cx="301.73" cy="294.67" r="4.83" style="fill:#e6e6e6"/><rect width="38.14" height="50.75" x="219.04" y="332.79" style="fill:#f5f5f5"/><rect width="7.28" height="50.75" x="257.18" y="332.79" style="fill:#e6e6e6"/><rect width="32.99" height="12.32" x="221.71" y="336.56" style="fill:#fafafa"/><rect width="32.99" height="12.32" x="221.71" y="350.23" style="fill:#fafafa"/><rect width="32.99" height="12.33" x="221.71" y="363.9" style="fill:#fafafa"/><path d="M239.58,342.72a1.38,1.38,0,0,1-2.75,0,1.38,1.38,0,1,1,2.75,0Z" style="fill:#ebebeb"/><path d="M239.58,356.39a1.38,1.38,0,1,1-1.37-1.37A1.37,1.37,0,0,1,239.58,356.39Z" style="fill:#ebebeb"/><path d="M239.58,370.06a1.38,1.38,0,1,1-1.37-1.37A1.37,1.37,0,0,1,239.58,370.06Z" style="fill:#ebebeb"/><rect width="62.68" height="59.6" x="109.28" y="320.96" style="fill:#f0f0f0"/><rect width="8.55" height="59.6" x="171.96" y="320.96" style="fill:#e6e6e6"/><rect width="56.63" height="14.47" x="112.42" y="325.39" style="fill:#fafafa"/><rect width="56.63" height="14.47" x="112.42" y="341.44" style="fill:#fafafa"/><rect width="56.63" height="14.47" x="112.42" y="357.5" style="fill:#fafafa"/><polygon points="169.05 383.54 112.89 383.54 112.42 380.56 169.05 380.56 169.05 383.54" style="fill:#e6e6e6"/><polygon points="177.06 383.54 169.05 383.54 169.05 380.56 177.53 380.56 177.06 383.54" style="fill:#e0e0e0"/><path d="M135.57,325.39l.17,1.93a1.23,1.23,0,0,0,1.23,1.12h7.31a1.24,1.24,0,0,0,1.23-1.12l.16-1.93Z" style="fill:#ebebeb"/><path d="M135.57,341.44l.17,1.93A1.23,1.23,0,0,0,137,344.5h7.31a1.24,1.24,0,0,0,1.23-1.13l.16-1.93Z" style="fill:#ebebeb"/><path d="M135.57,357.5l.17,1.93a1.23,1.23,0,0,0,1.23,1.12h7.31a1.24,1.24,0,0,0,1.23-1.12l.16-1.93Z" style="fill:#ebebeb"/><path d="M385.81,308l-8.87-2.74a.58.58,0,0,1,.21-1.13l10.21.54c-2.41-4.19-3.84-6.81-5.46-10.09a.57.57,0,0,1,.94-.64c2.18,2.45,4,4.44,6.93,7.58.7-4.06,1.51-7.8,2.52-11.56a.58.58,0,0,1,1.13.2,81.93,81.93,0,0,0-.3,9.1l.28.09q3.69-4.19,7.72-8.06a.57.57,0,0,1,.84.78,107.46,107.46,0,0,0-7.21,10.35q5.26-2,10.57-3.85a.58.58,0,0,1,.48,1.05c-3.68,2.08-7.3,4.21-10.93,6.41l9.34,3a.58.58,0,0,1-.21,1.13l-9.6-.58c1.9,2.22,3.22,3.74,4.75,5.47a.58.58,0,0,1-.75.86l-6.09-4.08c.25,2,.47,3.5.73,5a.58.58,0,0,1-1.11.31c-.64-1.64-1.22-3.27-2-5.44-2.79,13.35-2.06,26.28.63,39.55l-3.34-.61a103.8,103.8,0,0,1,1.57-39.15c-1.68,1.73-2.91,3-4.08,4.35a.57.57,0,0,1-.92-.68c.78-1.31,1.64-2.64,2.78-4.36l-7.28,1.62a.58.58,0,0,1-.38-1.08C381,310.28,383,309.35,385.81,308Z" style="fill:#ebebeb"/><path d="M381.09,312.62,387.9,309a.77.77,0,0,0-.55-1.43l-8.4,2.06c1.37-3.94,2.23-6.6,3.08-9.52a.78.78,0,0,0-1.41-.61c-1.38,2.29-2.69,4.41-4.63,7.48-1.18-3.14-2.38-6.05-3.71-8.92a.77.77,0,0,0-1.44.52c.58,2.27,1.06,4.56,1.43,6.81l-.25.14c-2.2-1.71-4.46-3.36-6.77-4.93a.77.77,0,0,0-.95,1.2q3.65,3.33,7,7c-3-.52-6-1-8.95-1.48a.77.77,0,0,0-.37,1.49q4.95,1.71,9.88,3.56l-7.24,3.91a.77.77,0,0,0,.55,1.43l7.8-2c-1.13,2-2,3.47-2.88,5a.77.77,0,0,0,1.21.94l4.15-4.09c.08,1.18.13,2.19.17,3.14a.77.77,0,0,0,1.53.1c.19-1.14.38-2.36.59-3.81,5.23,12.59,6.93,25.44,6.76,39l3.17-1.21a103.76,103.76,0,0,0-8.85-38.17c1.2.84,2.21,1.56,3.13,2.24a.77.77,0,0,0,1-1.15c-.62-.66-1.31-1.37-2.1-2.19l5.82.18a.77.77,0,0,0,.23-1.52C385.17,313.68,383.42,313.22,381.09,312.62Z" style="fill:#f0f0f0"/><path d="M393.11,319.93,388,317.24a.54.54,0,0,1,.38-1l6.25,1.53c-1-2.93-1.65-4.88-2.27-7.06a.54.54,0,0,1,1-.43c1,1.71,2,3.27,3.44,5.56.88-2.35,1.78-4.52,2.78-6.66a.55.55,0,0,1,1,.37c-.45,1.72-.82,3.46-1.09,5.16l.16.1q2.51-2,5.14-3.75a.55.55,0,0,1,.67.86q-2.75,2.49-5.23,5.24,3.35-.58,6.7-1.1a.54.54,0,0,1,.26,1.05c-2.46.85-4.91,1.73-7.37,2.65l5.39,2.92a.55.55,0,0,1-.39,1l-5.81-1.47c.85,1.49,1.49,2.6,2.16,3.73a.55.55,0,0,1-.85.67c-.95-.92-1.88-1.84-3.12-3.07-.06.92-.1,1.71-.13,2.45a.54.54,0,0,1-1.08.07c-.15-.88-.29-1.81-.45-2.93-3.82,9.17-5.06,18.54-4.93,28.41l-2.31-.89a75.65,75.65,0,0,1,6.45-27.83c-.94.66-1.72,1.22-2.43,1.75a.55.55,0,0,1-.72-.82c.49-.52,1-1.08,1.65-1.72l-4.38.13a.55.55,0,0,1-.16-1.07C390.05,320.73,391.36,320.38,393.11,319.93Z" style="fill:#f5f5f5"/><path d="M394.43,383.54H377.14a2.28,2.28,0,0,1-2.28-2.14L373,351.57a2.3,2.3,0,0,1,2.29-2.43h20.95a2.3,2.3,0,0,1,2.29,2.43l-1.83,29.83A2.3,2.3,0,0,1,394.43,383.54Z" style="fill:#ebebeb"/><rect width="29.85" height="4.58" x="370.75" y="346.34" rx="2.27" style="fill:#f5f5f5"/><rect width="1.35" height="28.02" x="252.97" y="54.95" style="fill:#e6e6e6"/><polygon points="210.88 105.21 253.65 79.36 296.41 105.21 210.88 105.21" style="fill:#f0f0f0"/><polygon points="256.6 105.21 253.65 79.36 272.87 105.21 256.6 105.21" style="fill:#fafafa"/><rect width="1.35" height="28.02" x="148.3" y="54.95" style="fill:#e6e6e6"/><polygon points="106.21 105.21 148.97 79.36 191.73 105.21 106.21 105.21" style="fill:#f0f0f0"/><polygon points="151.92 105.21 148.97 79.36 168.19 105.21 151.92 105.21" style="fill:#fafafa"/><rect width="1.35" height="28.02" x="357.65" y="54.95" style="fill:#e6e6e6"/><polygon points="315.56 105.21 358.32 79.36 401.08 105.21 315.56 105.21" style="fill:#f0f0f0"/><polygon points="361.27 105.21 358.32 79.36 377.54 105.21 361.27 105.21" style="fill:#fafafa"/></g><g id="freepik--Shadow--inject-2"><ellipse id="freepik--path--inject-2" cx="245.18" cy="412.39" rx="193.89" ry="11.32" style="fill:#f5f5f5"/></g><g id="freepik--Coding--inject-2"><path d="M394.34,158.17l-219.81.05-1.66,1.5L172,187.58h0l-.38,4.28L170.69,202h0l-.7,8.09h0l-.4,4.54H113.42l-1.67,1.5L104,322.51a4.53,4.53,0,0,0,4.58,5H160l.41-4.75h-.27l1-11.5h0l.7-8.1h0l.56-6.35h0l.71-8.1h0l.57-6.48.69-8h0l.28-3.19h56.44l-1,11.16v.13h0l-3.53,40.4h0l-.15,1.7,0,.57h0l-.22,2.48,54.77,1.52,1.66-1.29L274,311.28h0l.71-8.1h0l1.83-20.93.7-8h0l.28-3.19H334l1.54-17.61h0l.56-6.46.7-8h0l.71-8.1h0l1.42-16.27h51.69l3.09,1.5,1.66-1.5L399.69,164A5.62,5.62,0,0,0,394.34,158.17Z" style="fill:#407bff"/><path d="M329.61,329H381a5.59,5.59,0,0,0,5.46-5l4.36-52.55-56.83-.2-1.71,1.33Z" style="fill:#407bff"/><polygon points="391.85 216.16 396.11 167.44 172.19 167.44 167.93 216.16 114.42 216.16 104.76 326.55 158.28 326.55 163 272.59 219.43 272.59 214.71 326.55 271.15 326.55 275.87 272.59 332.31 272.59 327.59 326.55 382.19 326.55 386.91 272.59 332.31 272.59 337.25 216.16 391.85 216.16" style="fill:#407bff"/><polygon points="391.85 216.16 396.11 167.44 172.19 167.44 167.93 216.16 114.42 216.16 104.76 326.55 158.28 326.55 163 272.59 219.43 272.59 214.71 326.55 271.15 326.55 275.87 272.59 332.31 272.59 327.59 326.55 382.19 326.55 386.91 272.59 332.31 272.59 337.25 216.16 391.85 216.16" style="fill:#fff;opacity:.8"/><path d="M244.26,226.08H130.68a1.84,1.84,0,0,1-1.86-2l.36-4a2.27,2.27,0,0,1,2.21-2H245a1.83,1.83,0,0,1,1.85,2l-.35,4A2.27,2.27,0,0,1,244.26,226.08Z" style="fill:#407bff"/><path d="M244.26,226.08H130.68a1.84,1.84,0,0,1-1.86-2l.36-4a2.27,2.27,0,0,1,2.21-2H245a1.83,1.83,0,0,1,1.85,2l-.35,4A2.27,2.27,0,0,1,244.26,226.08Z" style="fill:#fff;opacity:.5"/><path d="M306.61,226.08H251.86a1.83,1.83,0,0,1-1.86-2l.35-4a2.27,2.27,0,0,1,2.22-2h54.75a1.83,1.83,0,0,1,1.86,2l-.35,4A2.27,2.27,0,0,1,306.61,226.08Z" style="fill:#407bff"/><path d="M306.61,226.08H251.86a1.83,1.83,0,0,1-1.86-2l.35-4a2.27,2.27,0,0,1,2.22-2h54.75a1.83,1.83,0,0,1,1.86,2l-.35,4A2.27,2.27,0,0,1,306.61,226.08Z" style="fill:#fff;opacity:.5"/><path d="M243,240.53H129.42a1.83,1.83,0,0,1-1.86-2l.35-4a2.27,2.27,0,0,1,2.21-2H243.7a1.83,1.83,0,0,1,1.86,2l-.35,4A2.27,2.27,0,0,1,243,240.53Z" style="fill:#407bff"/><path d="M243,240.53H129.42a1.83,1.83,0,0,1-1.86-2l.35-4a2.27,2.27,0,0,1,2.21-2H243.7a1.83,1.83,0,0,1,1.86,2l-.35,4A2.27,2.27,0,0,1,243,240.53Z" style="fill:#fff;opacity:.5"/><path d="M217.39,269.43h-90.5a1.83,1.83,0,0,1-1.86-2l.35-4a2.27,2.27,0,0,1,2.22-2h90.49a1.83,1.83,0,0,1,1.86,2l-.35,4A2.27,2.27,0,0,1,217.39,269.43Z" style="fill:#407bff"/><path d="M174.33,203.53H169l-.71,8.09h5.29a2.27,2.27,0,0,0,2.21-2l.35-4A1.83,1.83,0,0,0,174.33,203.53Z" style="fill:#407bff"/><path d="M234.84,189.08H170.3l-.71,8.09h64.54a2.27,2.27,0,0,0,2.21-2l.35-4A1.83,1.83,0,0,0,234.84,189.08Z" style="fill:#407bff"/><path d="M234.84,189.08H170.3l-.71,8.09h64.54a2.27,2.27,0,0,0,2.21-2l.35-4A1.83,1.83,0,0,0,234.84,189.08Z" style="fill:#fff;opacity:.5"/><path d="M334.56,246.88H128.86a2.27,2.27,0,0,0-2.21,2l-.35,4a1.83,1.83,0,0,0,1.85,2h205.7Z" style="fill:#407bff"/><path d="M334.56,246.88H128.86a2.27,2.27,0,0,0-2.21,2l-.35,4a1.83,1.83,0,0,0,1.85,2h205.7Z" style="fill:#fff;opacity:.5"/><path d="M335.82,232.43H251.3a2.27,2.27,0,0,0-2.21,2l-.35,4a1.83,1.83,0,0,0,1.85,2h84.52Z" style="fill:#407bff"/><path d="M244.79,275.78H219.15l-.7,8.1h25.63a2.27,2.27,0,0,0,2.21-2l.35-4A1.83,1.83,0,0,0,244.79,275.78Z" style="fill:#407bff"/><path d="M162.72,275.78H126.33a2.27,2.27,0,0,0-2.21,2l-.35,4a1.83,1.83,0,0,0,1.85,2H162Z" style="fill:#407bff"/><g style="opacity:.5"><path d="M244.79,275.78H219.15l-.7,8.1h25.63a2.27,2.27,0,0,0,2.21-2l.35-4A1.83,1.83,0,0,0,244.79,275.78Z" style="fill:#fff"/><path d="M162.72,275.78H126.33a2.27,2.27,0,0,0-2.21,2l-.35,4a1.83,1.83,0,0,0,1.85,2H162Z" style="fill:#fff"/></g><path d="M161.45,290.23H125.07a2.25,2.25,0,0,0-2.21,2l-.36,4a1.84,1.84,0,0,0,1.86,2h36.38Z" style="fill:#407bff"/><path d="M161.45,290.23H125.07a2.25,2.25,0,0,0-2.21,2l-.36,4a1.84,1.84,0,0,0,1.86,2h36.38Z" style="fill:#fff;opacity:.5"/><path d="M160.19,304.68H123.8a2.27,2.27,0,0,0-2.21,2l-.35,4a1.83,1.83,0,0,0,1.85,2h36.39Z" style="fill:#407bff"/><path d="M224.72,304.68h-8.09l-.71,8.1H224a2.25,2.25,0,0,0,2.21-2l.36-4A1.83,1.83,0,0,0,224.72,304.68Z" style="fill:#407bff"/><g style="opacity:.5"><path d="M160.19,304.68H123.8a2.27,2.27,0,0,0-2.21,2l-.35,4a1.83,1.83,0,0,0,1.85,2h36.39Z" style="fill:#fff"/><path d="M224.72,304.68h-8.09l-.71,8.1H224a2.25,2.25,0,0,0,2.21-2l.36-4A1.83,1.83,0,0,0,224.72,304.68Z" style="fill:#fff"/></g><path d="M398.18,164.74a4.52,4.52,0,0,0-4.58-5H172.87l-1.23,14.11H389.31a3,3,0,0,1,3,3.32l-3.42,39h4.75Z" style="fill:#407bff"/><path d="M398.18,164.74a4.52,4.52,0,0,0-4.58-5H172.87l-1.23,14.11H389.31a3,3,0,0,1,3,3.32l-3.42,39h4.75Z" style="fill:#fff;opacity:.30000000000000004"/><path d="M384,272.59,379.77,321a3.7,3.7,0,0,1-3.62,3.32H327.79l-.42,4.75h51.42a5.59,5.59,0,0,0,5.46-5l4.5-51.42Z" style="fill:#407bff"/><path d="M384,272.59,379.77,321a3.7,3.7,0,0,1-3.62,3.32H327.79l-.42,4.75h51.42a5.59,5.59,0,0,0,5.46-5l4.5-51.42Z" style="fill:#fff;opacity:.30000000000000004"/><path d="M116.52,216.16,107.35,321a3,3,0,0,0,3,3.32h48.36l-.42,4.75H106.92a4.53,4.53,0,0,1-4.59-5l9.42-107.85Z" style="fill:#407bff"/><path d="M116.52,216.16,107.35,321a3,3,0,0,0,3,3.32h48.36l-.42,4.75H106.92a4.53,4.53,0,0,1-4.59-5l9.42-107.85Z" style="fill:#fff;opacity:.30000000000000004"/><polygon points="271.35 324.28 214.91 324.28 214.5 329.03 270.93 329.03 271.35 324.28" style="fill:#407bff"/><polygon points="271.35 324.28 214.91 324.28 214.5 329.03 270.93 329.03 271.35 324.28" style="fill:#fff;opacity:.30000000000000004"/><path d="M273.06,304.68H232.32a2.27,2.27,0,0,0-2.21,2l-.35,4a1.83,1.83,0,0,0,1.85,2h40.75Z" style="fill:#407bff"/><path d="M333.24,304.68H329.5l-.71,8.1h3.74a2.27,2.27,0,0,0,2.21-2l.35-4A1.83,1.83,0,0,0,333.24,304.68Z" style="fill:#407bff"/><path d="M275.59,275.78H252.38a2.27,2.27,0,0,0-2.21,2l-.35,4a1.83,1.83,0,0,0,1.86,2h23.2Z" style="fill:#407bff"/><path d="M402.7,181.86h0a.49.49,0,0,1-.45-.54l1.83-21a5.1,5.1,0,0,0-5.16-5.66h-17a.5.5,0,0,1-.5-.5.51.51,0,0,1,.5-.5h17a6.09,6.09,0,0,1,6.16,6.74l-1.84,21A.5.5,0,0,1,402.7,181.86Z" style="fill:#407bff"/><path d="M378.09,154.68H373.8a.5.5,0,0,1-.5-.5.51.51,0,0,1,.5-.5h4.29a.5.5,0,0,1,.5.5A.5.5,0,0,1,378.09,154.68Z" style="fill:#407bff"/><path d="M271.87,338.3h-6.42a.51.51,0,0,1-.5-.5.5.5,0,0,1,.5-.5h6.42a.5.5,0,0,1,.5.5A.51.51,0,0,1,271.87,338.3Z" style="fill:#407bff"/><path d="M260.15,338.3H214a.51.51,0,0,1-.5-.5.5.5,0,0,1,.5-.5h46.13a.5.5,0,0,1,.5.5A.5.5,0,0,1,260.15,338.3Z" style="fill:#407bff"/><path d="M231.92,169.06a2.31,2.31,0,0,1-.91-.95,2.57,2.57,0,0,1-.24-1.36,2.75,2.75,0,0,1,.48-1.36,2.89,2.89,0,0,1,1.07-.95,3.07,3.07,0,0,1,1.45-.34,2.68,2.68,0,0,1,1.37.34,2.25,2.25,0,0,1,.91.95,2.46,2.46,0,0,1,.23,1.36,2.81,2.81,0,0,1-.47,1.36,2.89,2.89,0,0,1-1.07.95,3.06,3.06,0,0,1-1.44.34A2.72,2.72,0,0,1,231.92,169.06Zm2.49-.58a2.15,2.15,0,0,0,1.13-1.73,1.81,1.81,0,0,0-.17-1,1.68,1.68,0,0,0-.66-.71,1.84,1.84,0,0,0-1-.26,2.16,2.16,0,0,0-1.06.26,2.24,2.24,0,0,0-.79.71,2.11,2.11,0,0,0-.35,1,1.92,1.92,0,0,0,.18,1,1.62,1.62,0,0,0,.66.71,1.88,1.88,0,0,0,1,.26A2.1,2.1,0,0,0,234.41,168.48Z" style="fill:#fff"/><path d="M240.52,165.63a1.61,1.61,0,0,1,.64.7,2,2,0,0,1,.17,1,2.34,2.34,0,0,1-.35,1.05,2.1,2.1,0,0,1-.77.71,2.28,2.28,0,0,1-1,.25,1.67,1.67,0,0,1-.76-.17,1.28,1.28,0,0,1-.56-.47l-.18,2H237l.47-5.36h.68l-.05.62a1.62,1.62,0,0,1,.64-.49,1.85,1.85,0,0,1,.82-.17A1.93,1.93,0,0,1,240.52,165.63Zm-.67,3a1.36,1.36,0,0,0,.52-.49,1.71,1.71,0,0,0,.24-.72,1.52,1.52,0,0,0-.11-.72,1.14,1.14,0,0,0-.43-.49,1.44,1.44,0,0,0-1.87.49,1.71,1.71,0,0,0-.24.72,1.41,1.41,0,0,0,.11.72,1,1,0,0,0,.43.49,1.21,1.21,0,0,0,.66.18A1.37,1.37,0,0,0,239.85,168.59Z" style="fill:#fff"/><path d="M245.83,167.62h-3.19a1.1,1.1,0,0,0,.38.83,1.39,1.39,0,0,0,.94.32,1.6,1.6,0,0,0,1.18-.48l.35.46a1.8,1.8,0,0,1-.71.47,2.35,2.35,0,0,1-.89.17,2.22,2.22,0,0,1-1.09-.26,1.66,1.66,0,0,1-.68-.71,2,2,0,0,1-.17-1,2.29,2.29,0,0,1,.34-1,2.12,2.12,0,0,1,.77-.72,2.16,2.16,0,0,1,1-.25,1.86,1.86,0,0,1,1,.25,1.56,1.56,0,0,1,.62.72,2.12,2.12,0,0,1,.16,1.05C245.85,167.46,245.84,167.53,245.83,167.62Zm-2.67-1.33a1.4,1.4,0,0,0-.48.82h2.52a1.15,1.15,0,0,0-.33-.82A1.12,1.12,0,0,0,244,166,1.32,1.32,0,0,0,243.16,166.29Z" style="fill:#fff"/><path d="M250.27,165.81a1.58,1.58,0,0,1,.33,1.27l-.2,2.26h-.71l.19-2.18a1.06,1.06,0,0,0-.2-.85.92.92,0,0,0-.76-.29,1.35,1.35,0,0,0-.94.33,1.48,1.48,0,0,0-.42,1l-.17,2h-.71l.34-3.92h.68l0,.59a1.62,1.62,0,0,1,.62-.47,2.15,2.15,0,0,1,.85-.16A1.49,1.49,0,0,1,250.27,165.81Z" style="fill:#fff"/><path d="M254.21,169.22a2.09,2.09,0,0,1-.81-.47l.32-.58a2.1,2.1,0,0,0,.72.44,2.69,2.69,0,0,0,.94.16,1.76,1.76,0,0,0,1-.22.73.73,0,0,0,.37-.58.52.52,0,0,0-.13-.43,1.15,1.15,0,0,0-.41-.26c-.17-.06-.4-.12-.71-.2a5.73,5.73,0,0,1-.92-.28,1.35,1.35,0,0,1-.57-.43,1.06,1.06,0,0,1-.19-.79,1.43,1.43,0,0,1,.28-.75,1.77,1.77,0,0,1,.71-.53,2.75,2.75,0,0,1,1.13-.2,3.35,3.35,0,0,1,.89.12,2,2,0,0,1,.73.34l-.29.59a2.75,2.75,0,0,0-.67-.32,2.55,2.55,0,0,0-.72-.1,1.62,1.62,0,0,0-1,.23.76.76,0,0,0-.37.59.5.5,0,0,0,.14.43,1.11,1.11,0,0,0,.42.26,7.12,7.12,0,0,0,.69.2,6.53,6.53,0,0,1,.92.28,1.35,1.35,0,0,1,.57.43,1,1,0,0,1,.19.78,1.36,1.36,0,0,1-.29.74,1.56,1.56,0,0,1-.72.54,2.92,2.92,0,0,1-1.12.19A3.46,3.46,0,0,1,254.21,169.22Z" style="fill:#fff"/><path d="M259,169.13a1.64,1.64,0,0,1-.66-.72,1.85,1.85,0,0,1-.17-1,2.11,2.11,0,0,1,.35-1,2,2,0,0,1,.79-.72,2.29,2.29,0,0,1,1.08-.25,2,2,0,0,1,1,.25,1.61,1.61,0,0,1,.67.72,2,2,0,0,1,.17,1,2.16,2.16,0,0,1-.36,1,2.07,2.07,0,0,1-.78.72,2.33,2.33,0,0,1-1.08.26A2,2,0,0,1,259,169.13Zm1.78-.54a1.43,1.43,0,0,0,.52-.49,1.57,1.57,0,0,0,.23-.72,1.41,1.41,0,0,0-.11-.72,1.08,1.08,0,0,0-.43-.49,1.3,1.3,0,0,0-.66-.17,1.47,1.47,0,0,0-.69.17,1.52,1.52,0,0,0-.52.49,1.71,1.71,0,0,0-.24.72,1.52,1.52,0,0,0,.11.72,1.11,1.11,0,0,0,.44.49,1.21,1.21,0,0,0,.66.18A1.37,1.37,0,0,0,260.74,168.59Z" style="fill:#fff"/><path d="M267,165.42l-.35,3.92H266l.05-.59a1.59,1.59,0,0,1-.61.47,1.85,1.85,0,0,1-.78.17,1.59,1.59,0,0,1-1.2-.44,1.54,1.54,0,0,1-.34-1.27l.2-2.26H264l-.19,2.17a1.16,1.16,0,0,0,.2.87,1,1,0,0,0,.76.29,1.28,1.28,0,0,0,.92-.34,1.52,1.52,0,0,0,.41-1l.17-2Z" style="fill:#fff"/><path d="M269.6,165.56a2.06,2.06,0,0,1,.9-.18l-.06.69h-.17a1.29,1.29,0,0,0-.93.35,1.46,1.46,0,0,0-.42,1l-.17,2H268l.34-3.92h.68l-.05.66A1.36,1.36,0,0,1,269.6,165.56Z" style="fill:#fff"/><path d="M271.65,169.13a1.63,1.63,0,0,1-.68-.72,1.85,1.85,0,0,1-.17-1,2.14,2.14,0,0,1,1.15-1.75,2.37,2.37,0,0,1,1.1-.25,2,2,0,0,1,.93.21,1.34,1.34,0,0,1,.59.63l-.57.34a1.21,1.21,0,0,0-.42-.42,1.3,1.3,0,0,0-.6-.14,1.51,1.51,0,0,0-.7.17,1.47,1.47,0,0,0-.53.49,1.71,1.71,0,0,0-.24.72,1.43,1.43,0,0,0,.12.73,1,1,0,0,0,.43.48,1.3,1.3,0,0,0,.68.18,1.41,1.41,0,0,0,1.12-.57l.51.34a1.85,1.85,0,0,1-.7.63,2.26,2.26,0,0,1-1,.22A2.1,2.1,0,0,1,271.65,169.13Z" style="fill:#fff"/><path d="M278.85,167.62h-3.19a1.1,1.1,0,0,0,.38.83,1.39,1.39,0,0,0,.94.32,1.6,1.6,0,0,0,1.18-.48l.35.46a1.8,1.8,0,0,1-.71.47,2.37,2.37,0,0,1-.9.17,2.21,2.21,0,0,1-1.08-.26,1.66,1.66,0,0,1-.68-.71,1.9,1.9,0,0,1-.17-1,2.29,2.29,0,0,1,.34-1,2.08,2.08,0,0,1,1.8-1,1.87,1.87,0,0,1,1,.25,1.62,1.62,0,0,1,.62.72,2.12,2.12,0,0,1,.16,1.05C278.87,167.46,278.86,167.53,278.85,167.62Zm-2.67-1.33a1.4,1.4,0,0,0-.48.82h2.52a1.15,1.15,0,0,0-.33-.82,1.12,1.12,0,0,0-.83-.31A1.32,1.32,0,0,0,276.18,166.29Z" style="fill:#fff"/><path d="M174.23,154.44h6.41a.5.5,0,0,0,0-1h-6.41a.5.5,0,1,0,0,1Z" style="fill:#407bff"/><path d="M185.94,154.44h46.13a.5.5,0,0,0,0-1H185.94a.5.5,0,0,0,0,1Z" style="fill:#407bff"/></g><g id="freepik--character-4--inject-2"><path d="M397.61,207.68l18.06,206.48h2.85l-.76-8.69h39.81l.76,8.69h2.85L443.11,207.68h-2.85l.76,8.68h-39.8l-.76-8.68Zm3.86,11.53h39.8l2.47,28.2H403.93Zm2.71,31H444l2.46,28.19h-39.8Zm2.72,31h39.8l2.47,28.19h-39.8Zm2.72,31h39.8l2.47,28.2H412.08Zm2.71,31.05h39.81l2.46,28.19H414.8Zm45,59.23H417.51l-2.46-28.19h39.8Z" style="fill:#263238"/><path d="M397.61,207.68l18.06,206.48h2.85l-.76-8.69h39.81l.76,8.69h2.85L443.11,207.68h-2.85l.76,8.68h-39.8l-.76-8.68Zm3.86,11.53h39.8l2.47,28.2H403.93Zm2.71,31H444l2.46,28.19h-39.8Zm2.72,31h39.8l2.47,28.19h-39.8Zm2.72,31h39.8l2.47,28.2H412.08Zm2.71,31.05h39.81l2.46,28.19H414.8Zm45,59.23H417.51l-2.46-28.19h39.8Z" style="fill:#fff;opacity:.30000000000000004"/><path d="M422.51,219.22,417.44,224l-9.73-2.25v-1.92a.81.81,0,0,0-1.15-.73s-.47.33-.65.3c-.81-.11-2.49-2.12-2.49-2.12a.84.84,0,0,0-.82-.14l-.69.27a.8.8,0,0,0-.5.93l1.1,4.87a.81.81,0,0,0,.65.62l3.07.54s8.77,5.4,11.95,4.66,7.92-5.19,7.92-5.19Z" style="fill:#7f3e3b"/><polygon points="347.71 210.15 345.5 211.49 342.02 266.74 396.43 268.45 398.41 267.26 403.86 210.61 347.71 210.15" style="fill:#407bff"/><polygon points="400.06 212 345.5 211.49 340.04 267.93 394.6 268.43 400.06 212" style="fill:#407bff"/><polygon points="400.06 212 345.5 211.49 340.04 267.93 394.6 268.43 400.06 212" style="fill:#fff;opacity:.8"/><path d="M373,228l-29-.27-.79,8.1,29,.27a2.27,2.27,0,0,0,2.23-2l.39-4A1.84,1.84,0,0,0,373,228Z" style="fill:#407bff"/><path d="M343.7,242.22h-1.17l-.78,8.1h1.16a2.26,2.26,0,0,0,2.23-2l.39-4A1.83,1.83,0,0,0,343.7,242.22Z" style="fill:#407bff"/><path d="M343.7,242.22h-1.17l-.78,8.1h1.16a2.26,2.26,0,0,0,2.23-2l.39-4A1.83,1.83,0,0,0,343.7,242.22Z" style="fill:#fff;opacity:.5"/><polygon points="391.69 268.4 396.43 268.45 401.89 212.01 397.15 211.97 391.69 268.4" style="fill:#407bff"/><polygon points="391.69 268.4 396.43 268.45 401.89 212.01 397.15 211.97 391.69 268.4" style="fill:#fff;opacity:.30000000000000004"/><path d="M414.52,197.72s-3.67.29-3.66,2.83c0,1.61,1.27-1.05,3.07-1.87S414.52,197.72,414.52,197.72Z" style="fill:#263238"/><path d="M428.6,283.46s1.8,6.1,2.62,8.05c4.27,10.28,12.91,25.16,18.37,40.58l4.39-1.7a197,197,0,0,0-6.59-23.14c-2.19-6.26-6-12.61-8.3-19.47a64.17,64.17,0,0,1-1.25-8Z" style="fill:#7f3e3b"/><path d="M432.37,244.7s4.84,4.86,5.69,11.1-1,16.71,1.9,28l-11.21,3.07s-9.08-31.72-9.93-39.39Z" style="fill:#263238"/><path d="M425.1,273.76,428,263.69l3.5-5.64a57.6,57.6,0,0,1-1,16.92c-.95,4.21-1.74,7.67-2.29,10.1C427.59,282.79,426.41,278.6,425.1,273.76Z" style="opacity:.4"/><path d="M418.32,336.57a2.14,2.14,0,0,1-1.45-.42.45.45,0,0,1,0-.51.6.6,0,0,1,.38-.26c.83-.21,2.54.82,2.61.87a.1.1,0,0,1,.06.12.12.12,0,0,1-.1.09A8.57,8.57,0,0,1,418.32,336.57Zm-.76-1a.85.85,0,0,0-.23,0,.29.29,0,0,0-.23.15c-.1.15-.07.22,0,.26.22.33,1.47.37,2.39.28A5.42,5.42,0,0,0,417.56,335.58Z" style="fill:#407bff"/><path d="M419.82,336.46s0,0-.05,0c-.58-.28-1.75-1.39-1.63-1.94,0-.14.12-.3.45-.32a.87.87,0,0,1,.64.21,3.44,3.44,0,0,1,.73,1.94.11.11,0,0,1-.06.11A.11.11,0,0,1,419.82,336.46Zm-1.16-2h-.07c-.21,0-.23.09-.24.12,0,.34.73,1.2,1.33,1.58a2.72,2.72,0,0,0-.62-1.54.59.59,0,0,0-.4-.16Z" style="fill:#407bff"/><path d="M420.36,335.78l5.42.14a.43.43,0,0,1,.41.35l.87,4.42a.72.72,0,0,1-.56.86h-.15c-2-.08-3.69-.23-6.12-.28-2.86-.07-2.15.29-5.52.25-2,0-2.34-2.34-1.48-2.43,3.95-.4,4.39-1.58,5.95-3A1.7,1.7,0,0,1,420.36,335.78Z" style="fill:#263238"/><path d="M447.63,333.2a2.14,2.14,0,0,1-1.5.12.45.45,0,0,1-.16-.49.57.57,0,0,1,.26-.38c.71-.49,2.66-.12,2.75-.1a.11.11,0,0,1,.09.09.13.13,0,0,1-.05.13A9.12,9.12,0,0,1,447.63,333.2Zm-1.06-.66-.21.1a.38.38,0,0,0-.16.23c0,.17,0,.23.06.25.33.23,1.51-.17,2.34-.58A5.33,5.33,0,0,0,446.57,332.54Z" style="fill:#407bff"/><path d="M449,332.57s0,0-.05,0c-.65-.05-2.12-.68-2.21-1.24,0-.13,0-.32.31-.45a.85.85,0,0,1,.68,0c.77.28,1.33,1.51,1.36,1.56a.13.13,0,0,1,0,.12A.09.09,0,0,1,449,332.57Zm-1.81-1.5-.06,0c-.19.08-.18.17-.18.2.08.33,1.1.87,1.8,1a2.76,2.76,0,0,0-1.12-1.22.61.61,0,0,0-.44,0Z" style="fill:#407bff"/><path d="M449.27,331.74l5.11-1.77a.46.46,0,0,1,.52.18l2.36,3.85a.72.72,0,0,1-.23,1l-.13.06c-1.86.61-3.53,1.08-5.83,1.88-2.71.94-1.91,1-5.08,2.17-1.91.69-3-1.37-2.24-1.76,3.56-1.76,3.56-3,4.53-4.85A1.83,1.83,0,0,1,449.27,331.74Z" style="fill:#263238"/><path d="M415.6,283.37s-.17,6.35,0,8.46c.89,11.1,4.51,27.91,4.94,44.27h4.65a198.24,198.24,0,0,0,.79-27.29c-.23-5.73-1.75-11.77-1.78-17.83a64,64,0,0,1,1.27-8Z" style="fill:#7f3e3b"/><path d="M427.59,245.86a25.77,25.77,0,0,1,2.53,21.78c-4.37,13.05-3.27,19.46-3.27,19.46H414.68s0-17.07-.52-22.73c-.38-4-1.38-8.36-1.06-16Z" style="fill:#263238"/><polygon points="426.98 284.67 427.35 287.57 414.19 287.57 414.19 284.67 426.98 284.67" style="fill:#263238"/><polygon points="426.98 284.67 427.35 287.57 414.19 287.57 414.19 284.67 426.98 284.67" style="fill:#fff;opacity:.4"/><polygon points="439.96 281.18 427.72 284.82 428.6 287.57 440.78 284.03 439.96 281.18" style="fill:#263238"/><polygon points="439.96 281.18 427.72 284.82 428.6 287.57 440.78 284.03 439.96 281.18" style="fill:#fff;opacity:.4"/><path d="M423.4,216s-2.74-.29-2.69-5.32c0,0-2.53-1.15-4.17.33s1.48,5-.56,6.43C416,217.42,417.77,218.62,423.4,216Z" style="fill:#7f3e3b"/><path d="M411.42,203.6c0-.34-.23-.6-.45-.59s-.37.31-.35.64.22.6.44.59S411.44,203.93,411.42,203.6Z" style="fill:#263238"/><path d="M411.19,204.21l-1.78,2.35a2.21,2.21,0,0,0,2,.35Z" style="fill:#a02724"/><path d="M423.07,203.07c-.21,4.26-.2,6.07-2.32,8.29-3.26,2.27-8.4,2.15-9.47-2.09-1-3.82-.47-10.14,3.68-11.91a5.83,5.83,0,0,1,8.11,5.71Z" style="fill:#7f3e3b"/><path d="M412.05,202.6a.23.23,0,0,1-.18,0,1.59,1.59,0,0,0-1.38-.39.2.2,0,0,1-.24-.13.2.2,0,0,1,.13-.25,2,2,0,0,1,1.75.47.19.19,0,0,1,0,.27h0A.14.14,0,0,1,412.05,202.6Z" style="fill:#263238"/><path d="M411.06,203l-.93-.13S410.68,203.53,411.06,203Z" style="fill:#263238"/><path d="M418.75,212.37a5.66,5.66,0,0,1-2.28,2.09,15.84,15.84,0,0,1-.37-1.64A7.69,7.69,0,0,0,418.75,212.37Z" style="opacity:.2"/><path d="M425.47,216.67s0-3.38-4-2.75-6.91,2.54-7,4.51Z" style="fill:#407bff"/><path d="M425.47,216.67s0-3.38-4-2.75-6.91,2.54-7,4.51Z" style="opacity:.1"/><path d="M427.87,216.3s5.29.16,5.29,4.39a7,7,0,0,1-3,6Z" style="fill:#407bff"/><path d="M427.87,216.3s5.29.16,5.29,4.39a7,7,0,0,1-3,6Z" style="opacity:.1"/><path d="M433.93,245.22a34.59,34.59,0,0,1-3.17-11.42c-.53-6.24,3.28-17.34-3.49-17.55s-10.47.74-14.49,2.32-3.17,12.48-2.54,16.61,2.54,14.59,2.54,14.59S424.31,251.25,433.93,245.22Z" style="fill:#407bff"/><path d="M409.92,232.48a43.13,43.13,0,0,1-.1-7.31l4.59-.57A27.54,27.54,0,0,1,409.92,232.48Z" style="opacity:.1"/><path d="M406.12,223.86,401,228.67l-9.73-2.24v-2.07a.71.71,0,0,0-1-.65,4,4,0,0,1-.87.14c-.83-.11-2.44-1.93-2.44-1.93a.7.7,0,0,0-.72-.12l-2.06,1.92a.83.83,0,0,0-.4.88l2.21,3.18a1.26,1.26,0,0,0,.81.68l3,.58s8.78,5.4,11.95,4.66,7.93-5.18,7.93-5.18Z" style="fill:#7f3e3b"/><path d="M412.78,218.57s-3.17.92-7.75,4.94c0,0,.17,3.17,4.2,6.66,0,0,4.33-2.71,5.67-6.73S412.78,218.57,412.78,218.57Z" style="fill:#407bff"/><path d="M414.41,196.89s-3,1.38-2.21,3.54,1.25,4,.66,4.71,1.43.88,1.33-1.51c0,0,.26,3,1.79,3.37s2.58,4.84,1.3,7-1.58,7.1-.31,8.21,3.69,2.21,3.4,4.17,2.91.64,2.28-1.74c0,0,1.74,2.69,3.86.26s-1.27-4.65-1.27-4.65,2.57.79,2.63,2.17.91,2.06,1.91.53a3.49,3.49,0,0,0-.63-4.34s1.7-.28,1.91.91,2.16-.8.47-2.36-4.65-2.36-4.6-8.38-1.11-11.16-5.71-12.22S414.41,196.89,414.41,196.89Z" style="fill:#263238"/><path d="M415.49,204.52a3.25,3.25,0,0,0-1.08,2.27c0,1.16,1.06,1.48,2,.94s1.92-1.66,1.51-2.72A1.47,1.47,0,0,0,415.49,204.52Z" style="fill:#7f3e3b"/></g><g id="freepik--character-3--inject-2"><polygon points="343.11 277.42 286.32 277.18 284.65 278.5 284.25 310.56 283.5 318.66 282.43 330.16 282.22 332.44 281.99 334.91 335.84 335.2 338.31 332.7 343.11 277.42" style="fill:#407bff"/><polygon points="279.66 332.42 336.07 332.72 341.08 278.76 284.65 278.5 279.66 332.42" style="fill:#407bff"/><polygon points="279.66 332.42 336.07 332.72 341.08 278.76 284.65 278.5 279.66 332.42" style="fill:#fff;opacity:.8"/><path d="M311.21,281.79l-26.84-.14-.75,8.1,26.84.14a2.27,2.27,0,0,0,2.22-2l.37-4A1.84,1.84,0,0,0,311.21,281.79Z" style="fill:#407bff"/><polygon points="280.94 318.65 337.35 318.95 338.1 310.85 281.69 310.55 280.94 318.65" style="fill:#407bff"/><polygon points="279.87 330.15 279.43 334.9 335.84 335.2 336.28 330.45 279.87 330.15" style="fill:#407bff"/><polygon points="279.87 330.15 279.43 334.9 335.84 335.2 336.28 330.45 279.87 330.15" style="fill:#fff;opacity:.30000000000000004"/><path d="M319.76,343.06s.64,13.17.93,17.55c.81,11.95,3.92,47.75,3.92,47.75h5.32s2-16.44,1.45-30.56c-.24-5.83-2-11-2.39-15s1.87-10.35.31-16.14C327.82,341.2,319.76,343.06,319.76,343.06Z" style="fill:#ffc3bd"/><path d="M332.41,343.38s1.13,13.83,1.78,18.4c1.68,11.71,8.86,46.47,8.86,46.47l5.32-.24s-.12-18-2.53-32.21c-.81-4.75-2.1-8.85-2.61-12.23-.64-4.21.71-11.32-1.12-17C340.39,341.16,332.41,343.38,332.41,343.38Z" style="fill:#ffc3bd"/><path d="M337.89,316.09s9.39,8.73,9.06,37.22a46.11,46.11,0,0,1-28.56,1.48s-2.53-20.91,0-36.31Z" style="fill:#263238"/><path d="M318.69,275.75c0-.33-.22-.58-.44-.57s-.37.3-.34.63.22.58.43.57S318.71,276.08,318.69,275.75Z" style="fill:#263238"/><path d="M318.33,275.2l-.91-.14S318,275.69,318.33,275.2Z" style="fill:#263238"/><path d="M330.48,287.11s-2.68-.27-2.63-5.2c0,0-2.48-1.13-4.08.32s1.45,4.86-.54,6.29C323.23,288.52,325,289.7,330.48,287.11Z" style="fill:#ffc3bd"/><path d="M318.66,276.22l-1.74,2.3a2.16,2.16,0,0,0,1.92.34Z" style="fill:#ed893e"/><path d="M330.16,274.48c-.2,4.17-.19,5.95-2.27,8.11-3.19,2.23-8.22,2.11-9.27-2-.94-3.74-.46-9.92,3.61-11.66a5.71,5.71,0,0,1,7.93,5.59Z" style="fill:#ffc3bd"/><path d="M319.44,274.77a.17.17,0,0,1-.18,0,1.54,1.54,0,0,0-1.35-.37.19.19,0,0,1-.23-.13.21.21,0,0,1,.13-.25,2,2,0,0,1,1.71.46.19.19,0,0,1,0,.26h0A.13.13,0,0,1,319.44,274.77Z" style="fill:#263238"/><path d="M325.93,283.59a5.47,5.47,0,0,1-2.23,2c-.13-.54-.29-1.09-.36-1.6A7.82,7.82,0,0,0,325.93,283.59Z" style="opacity:.2"/><path d="M332.56,287.83s-1.55-3.73-6.34-2.19-5.85,4.22-5.85,4.22Z" style="fill:#407bff"/><path d="M332.56,287.83s-1.55-3.73-6.34-2.19-5.85,4.22-5.85,4.22Z" style="opacity:.2"/><path d="M336.21,288.63s6.19,5.72,3.52,11.32-7.17-2.3-7.17-2.3Z" style="fill:#407bff"/><path d="M336.21,288.63s6.19,5.72,3.52,11.32-7.17-2.3-7.17-2.3Z" style="opacity:.2"/><path d="M324.5,407.79l6,.15a.46.46,0,0,1,.46.38l1,4.88a.8.8,0,0,1-.62.94l-.17,0c-2.15-.09-4.06-.26-6.74-.32-3.15-.08-2.36.32-6.08.28-2.23,0-2.58-2.58-1.63-2.68,4.36-.44,4.84-1.74,6.55-3.25A1.93,1.93,0,0,1,324.5,407.79Z" style="fill:#263238"/><path d="M343.06,407.73l6,0a.47.47,0,0,1,.46.38l1,4.86a.81.81,0,0,1-.61,1l-.17,0c-2.15-.06-4.06-.19-6.73-.21-3.16,0-2.36.36-6.08.38-2.24,0-2.63-2.54-1.68-2.65,4.35-.51,4.81-1.82,6.5-3.36A1.87,1.87,0,0,1,343.06,407.73Z" style="fill:#263238"/><path d="M339.73,316.3s-8.59,6.31-22,3c0,0-4.22-19.91-1.39-25.91,2.52-5.36,7.56-6.07,11.57-6.33s10.29-.77,10.08,7.29S337.72,307.1,339.73,316.3Z" style="fill:#407bff"/><path d="M315.9,307.85a71.2,71.2,0,0,1-.53-8l5-1.8Z" style="opacity:.2"/><path d="M306.68,303.88l-11.48-2-.49-1a1.81,1.81,0,0,0-2-.94l-.52.11-1.34-1a1.8,1.8,0,0,0-2.2.07h0a1.78,1.78,0,0,0-.66,1.39v1.17a1.8,1.8,0,0,0,.33,1l.91,1.3a1.8,1.8,0,0,0,1.35.77l3.9.25,12.16,3.09Z" style="fill:#ffc3bd"/><path d="M322.54,290.43s-3.34-2.21-6.79,1.12-9.31,11.32-9.31,11.32l-2.08-.24-.27,5.93a8,8,0,0,0,6-.34c3-1.51,12.66-12.85,12.66-12.85S324,292,322.54,290.43Z" style="fill:#407bff"/><polygon points="305.94 301.72 305.94 305 305.02 305.43 305.94 306.05 305.94 309.63 303.1 309 303.1 301.72 305.94 301.72" style="fill:#407bff"/><polygon points="305.94 301.72 305.94 305 305.02 305.43 305.94 306.05 305.94 309.63 303.1 309 303.1 301.72 305.94 301.72" style="fill:#fff;opacity:.5"/><path d="M333.89,356.24q-1.17.09-2.43.12c-.5-13.8,3.5-18.87,3.5-18.87A63.51,63.51,0,0,0,333.89,356.24Z" style="opacity:.30000000000000004"/><path d="M324.64,267.34s6.71-2.33,7.92,4.49,7.29,8.56,3.92,13.11-13.08,1.14-13.25-2.69-.12-10.24-1.54-11.08c0,0,.85,2.64,0,2.64s-1.43-1-1.32-2.34c0,0,0,1.68-2,1.08s1.15-2.81,1.15-2.81a7.28,7.28,0,0,0-2,1.19c-.55.6-.7-.3,0-1.43C318,268.61,320.42,266.56,324.64,267.34Z" style="fill:#263238"/><path d="M322.74,275.89a3.24,3.24,0,0,0-1.05,2.23c-.05,1.13,1,1.45,2,.92s1.87-1.63,1.47-2.67A1.45,1.45,0,0,0,322.74,275.89Z" style="fill:#ffc3bd"/></g><g id="freepik--character-2--inject-2"><path d="M161.65,301.82l5.51-.76.42-1.35a1.08,1.08,0,0,1,1.31-.71l.63.17,2.38-1.25a1.06,1.06,0,0,1,.58-.11h0a1.08,1.08,0,0,1,1,1.1l-.06,2.17a.66.66,0,0,1,0,.14l-.25,1.64a1.09,1.09,0,0,1-.9.9l-3.45.54-6.33,1.35Z" style="fill:#ffb573"/><path d="M165.51,300.29a58.28,58.28,0,0,1-8.55,0c-1.51-.12-2.83-1.23-4-2.78l-4.77,7a10.69,10.69,0,0,0,3.86,2.7c6,1.9,14.43-1.54,14.43-1.54A5.38,5.38,0,0,0,165.51,300.29Z" style="fill:#263238"/><path d="M165.51,300.29a58.28,58.28,0,0,1-8.55,0c-1.51-.12-2.83-1.23-4-2.78l-4.77,7a10.69,10.69,0,0,0,3.86,2.7c6,1.9,14.43-1.54,14.43-1.54A5.38,5.38,0,0,0,165.51,300.29Z" style="opacity:.30000000000000004"/><polygon points="155.71 277 150.4 334.75 205.14 334.97 206.84 333.58 212.19 277.26 155.71 277" style="fill:#407bff"/><polygon points="148.95 332.27 205.37 332.48 210.29 278.52 153.87 278.31 148.95 332.27" style="fill:#407bff"/><polygon points="148.95 332.27 205.37 332.48 210.29 278.52 153.87 278.31 148.95 332.27" style="fill:#fff;opacity:.8"/><polygon points="150.21 318.5 206.62 318.71 207.36 310.61 150.94 310.4 150.21 318.5" style="fill:#407bff"/><polygon points="150.21 318.5 206.62 318.71 207.36 310.61 150.94 310.4 150.21 318.5" style="fill:#fff;opacity:.5"/><path d="M193.84,296.1,152.26,296l-.74,8.1,41.58.15a2.26,2.26,0,0,0,2.22-2l.37-4A1.85,1.85,0,0,0,193.84,296.1Z" style="fill:#407bff"/><path d="M193.84,296.1,152.26,296l-.74,8.1,41.58.15a2.26,2.26,0,0,0,2.22-2l.37-4A1.85,1.85,0,0,0,193.84,296.1Z" style="fill:#fff;opacity:.5"/><polygon points="152.84 289.6 209.26 289.81 210 281.71 153.58 281.5 152.84 289.6" style="fill:#407bff"/><polygon points="152.84 289.6 209.26 289.81 210 281.71 153.58 281.5 152.84 289.6" style="fill:#fff;opacity:.5"/><polygon points="149.16 330 148.72 334.75 205.14 334.96 205.57 330.21 149.16 330" style="fill:#407bff"/><polygon points="149.16 330 148.72 334.75 205.14 334.96 205.57 330.21 149.16 330" style="fill:#fff;opacity:.30000000000000004"/><path d="M145.39,284s3-.31,3-5.87c0,0,2.79-1.27,4.59.37s-1.62,5.48.62,7.09C153.57,285.54,151.6,286.86,145.39,284Z" style="fill:#ffb573"/><path d="M158.61,270.29c0-.37.24-.66.49-.64s.41.33.39.71-.25.65-.49.64S158.58,270.66,158.61,270.29Z" style="fill:#263238"/><path d="M158.86,271l2,2.6a2.45,2.45,0,0,1-2.16.39Z" style="fill:#ed893e"/><path d="M145.75,269.71c.23,4.7.22,6.7,2.56,9.15,3.6,2.5,9.26,2.37,10.45-2.31,1.06-4.21.52-11.18-4.06-13.14a6.44,6.44,0,0,0-8.95,6.3Z" style="fill:#ffb573"/><path d="M157.91,269.19a.23.23,0,0,0,.2,0,1.74,1.74,0,0,1,1.52-.43.22.22,0,0,0,.27-.15.23.23,0,0,0-.15-.27,2.17,2.17,0,0,0-1.92.51.21.21,0,0,0,0,.3h0A.19.19,0,0,0,157.91,269.19Z" style="fill:#263238"/><path d="M150.52,280a6.25,6.25,0,0,0,2.51,2.29c.15-.61.33-1.23.42-1.8A8.79,8.79,0,0,1,150.52,280Z" style="opacity:.2"/><path d="M143.31,284.81s.56-3.54,4.85-3.56c6.06,0,7.84,2.84,7.84,2.84Z" style="fill:#263238"/><path d="M143.31,284.81s.56-3.54,4.85-3.56c6.06,0,7.84,2.84,7.84,2.84Z" style="opacity:.30000000000000004"/><polygon points="141.97 403.03 142.51 411.99 147.53 411.81 147.82 403.21 141.97 403.03" style="fill:#ffb573"/><path d="M148.37,411.24a.13.13,0,0,1-.1-.1.14.14,0,0,1,.06-.13c.08-.05,1.91-1.1,2.78-.86a.62.62,0,0,1,.39.28.47.47,0,0,1,0,.54,2.24,2.24,0,0,1-1.54.41A9.63,9.63,0,0,1,148.37,411.24Zm.4-.17c1,.12,2.3.1,2.54-.24,0,0,.07-.12,0-.27a.32.32,0,0,0-.25-.17.85.85,0,0,0-.23,0A5.9,5.9,0,0,0,148.77,411.07Z" style="fill:#407bff"/><path d="M148.31,411.23a.11.11,0,0,1-.06-.11,3.57,3.57,0,0,1,.81-2,1,1,0,0,1,.69-.22c.34,0,.45.21.46.35.11.59-1.14,1.73-1.77,2h-.05A.08.08,0,0,1,148.31,411.23Zm1.35-2.12a.65.65,0,0,0-.42.16,2.89,2.89,0,0,0-.69,1.61c.65-.39,1.47-1.28,1.43-1.64,0,0,0-.12-.25-.14Z" style="fill:#407bff"/><path d="M147.84,410.51l-5.72,0a.45.45,0,0,0-.45.36l-1,4.66a.75.75,0,0,0,.58.91l.16,0c2.06-.05,3.89-.17,6.46-.18,3,0,2.26.36,5.82.39,2.15,0,2.53-2.42,1.62-2.54-4.17-.5-4.61-1.76-6.22-3.24A1.81,1.81,0,0,0,147.84,410.51Z" style="fill:#263238"/><polygon points="142.25 407.66 147.67 407.66 147.82 403.21 141.97 403.03 142.25 407.66" style="opacity:.2"/><path d="M138.27,324.87s-1.07,7.52,1.58,20.11c1.12,5.32,2.9,16.1,2.85,21.53,0,3.6-.79,5.23-2.06,14.25s.63,25.34.63,25.34l7.28.08s4.54-30.15,5.39-40.62c.43-5.32.63-21.37.63-21.37L152,324.87Z" style="fill:#407bff"/><path d="M147.23,337.63s1.63,11.49,7,20.9c.21-6.53.3-14.34.3-14.34l-.06-.5-3.72-5.18Z" style="opacity:.1"/><polygon points="163.55 403.22 164.46 412.16 169.47 411.77 169.4 403.16 163.55 403.22" style="fill:#ffb573"/><path d="M170.29,411.16a.12.12,0,0,1-.1-.09.12.12,0,0,1,.05-.14c.08-.05,1.85-1.17,2.74-1a.67.67,0,0,1,.4.28.47.47,0,0,1,0,.54,2.23,2.23,0,0,1-1.52.47A9.6,9.6,0,0,1,170.29,411.16Zm.39-.18c1,.07,2.3,0,2.53-.35,0,0,.06-.12,0-.27a.31.31,0,0,0-.25-.16.65.65,0,0,0-.24,0A5.79,5.79,0,0,0,170.68,411Z" style="fill:#407bff"/><path d="M170.22,411.16a.15.15,0,0,1-.06-.11,3.58,3.58,0,0,1,.72-2.06.92.92,0,0,1,.68-.25c.35,0,.46.19.48.33.14.58-1.07,1.78-1.68,2.08h-.14Zm1.27-2.18a.64.64,0,0,0-.42.18,2.88,2.88,0,0,0-.62,1.63c.63-.41,1.41-1.34,1.36-1.69,0,0,0-.12-.25-.13Z" style="fill:#407bff"/><path d="M169.72,410.45l-5.71.27a.45.45,0,0,0-.43.38l-.82,4.7a.77.77,0,0,0,.62.89h.16c2.06-.13,3.88-.33,6.45-.45,3-.14,2.27.26,5.83.15,2.15-.08,2.42-2.53,1.51-2.61-4.18-.33-4.67-1.56-6.35-3A1.89,1.89,0,0,0,169.72,410.45Z" style="fill:#263238"/><polygon points="169.4 403.16 163.55 403.22 164 407.63 169.44 407.31 169.4 403.16" style="opacity:.2"/><path d="M146,324.87a42.31,42.31,0,0,0,4.77,22c5.84,10.61,6.42,13.73,6.84,18.68.4,4.74.43,6.34,1.06,16.15s4.2,24.47,4.2,24.47l7.52-.48s0-31.05-1.27-42C168,353.87,162,324.87,162,324.87Z" style="fill:#407bff"/><path d="M143.31,283.58s-9.52,1.23-10.7,6.7,1.55,15.91,5.35,17.22S143.31,283.58,143.31,283.58Z" style="fill:#263238"/><path d="M139.49,288.69l-1.67-1s-2.35,3-3.82,14.49c1,2.67,2.39,4.79,4,5.33s2.69-3.28,3.54-8Z" style="opacity:.4"/><path d="M137.24,326.26s9.85,2.73,26.36,0a156.22,156.22,0,0,1,.59-27.67c1.78-13.66-1.54-14.61-10.8-15.08s-15.85-1-16.15,7.48C136.52,310.58,137.24,326.26,137.24,326.26Z" style="fill:#263238"/><path d="M159.9,291.38s.71,7.72,3.73,12.77h0c.14-1.85.32-3.72.56-5.56a37.21,37.21,0,0,0,.39-7.77L161.34,286Z" style="opacity:.4"/><path d="M183.49,302.72,189,302l.43-1.35a1.08,1.08,0,0,1,1.31-.72l.62.17,2.38-1.24a1.17,1.17,0,0,1,.58-.12h0a1.08,1.08,0,0,1,1,1.1l0,2.18s0,.09,0,.14l-.26,1.64a1.08,1.08,0,0,1-.9.9l-3.44.54-6.33,1.34Z" style="fill:#ffb573"/><path d="M159,284.09s6.89,0,10.09,4.64c2.68,3.88,5.46,12.12,9.74,12.47a58.28,58.28,0,0,0,8.55,0,5.35,5.35,0,0,1,1,5.35s-8.43,3.44-14.43,1.54-15.61-19.59-15.61-19.59Z" style="fill:#263238"/><path d="M153.82,272.25a11.72,11.72,0,0,0,.83-5.23s4.43,1.66,5.09-.41a2,2,0,0,0-1.46-2.62s2.19-.29.94-1.78-3.5-.95-3.5-.95,2.25-1.42.53-2.25-4.27,1.72-4.27,1.72,1.47-2.38-.24-2.79-3.8,4-3.8,4-4.52.45-4.63,2.05a1.44,1.44,0,0,0,1.48,1.61s-3,.47-2.49,2a1.09,1.09,0,0,0,1.78.64s-1.89,1.65-1.24,3.16c.47,1.09,1.3.54,1.3.54s-.53,2.15.36,3.18,1.24-.81,1.24-.81a4.42,4.42,0,0,0,1.56,3.29s1.42-1.39,4.27-.44Z" style="fill:#263238"/><path d="M154.12,271.3a3.61,3.61,0,0,1,1.18,2.51c0,1.28-1.16,1.63-2.21,1s-2.12-1.83-1.67-3A1.64,1.64,0,0,1,154.12,271.3Z" style="fill:#ffb573"/></g><g id="freepik--character-1--inject-2"><path d="M105.17,205.49l-.76,8.69H64.61l.76-8.69H62.52L44.46,412h2.85l.76-8.68h39.8L87.11,412H90L108,205.49Zm-3.47,39.73H61.9L64.36,217h39.81Zm-2.72,31H59.18l2.47-28.19h39.8Zm-2.71,31.05H56.46l2.47-28.2h39.8Zm-2.72,31H53.75l2.46-28.19H96Zm-2.72,31H51L53.5,341.2H93.3Zm-40,2.85H90.59l-2.47,28.2H48.32Z" style="fill:#263238"/><path d="M105.17,205.49l-.76,8.69H64.61l.76-8.69H62.52L44.46,412h2.85l.76-8.68h39.8L87.11,412H90L108,205.49Zm-3.47,39.73H61.9L64.36,217h39.81Zm-2.72,31H59.18l2.47-28.19h39.8Zm-2.71,31.05H56.46l2.47-28.2h39.8Zm-2.72,31H53.75l2.46-28.19H96Zm-2.72,31H51L53.5,341.2H93.3Zm-40,2.85H90.59l-2.47,28.2H48.32Z" style="fill:#fff;opacity:.30000000000000004"/><path d="M76.8,204.25,83.25,208l11.19-4.94.13-2.74a1.29,1.29,0,0,1,1.29-1.23H97L98.12,198a1.3,1.3,0,0,1,2,.25l.66,1a1.26,1.26,0,0,1,.21.84l-.35,3.32a1.3,1.3,0,0,1-.84,1.09l-3,1.1s-9.29,6.62-12.69,7.37-10.14-2.8-10.14-2.8Z" style="fill:#ff8b7b"/><path d="M161.21,149.71,109.7,150c-2.77,0-5.67,1.87-5.92,4.64l-3.56,51.51,54,1.91,1.83-1.37Z" style="fill:#407bff"/><polygon points="154.19 207.99 158.52 159.23 105.06 159.15 100.72 207.91 154.19 207.99" style="fill:#407bff"/><polygon points="154.19 207.99 158.52 159.23 105.06 159.15 100.72 207.91 154.19 207.99" style="fill:#fff;opacity:.8"/><path d="M155.31,195.35,119,195.29a2.27,2.27,0,0,0-2.21,2l-.36,4a1.84,1.84,0,0,0,1.85,2l36.35,0Z" style="fill:#407bff"/><path d="M156.6,180.88l-36.35,0a2.28,2.28,0,0,0-2.22,2l-.35,4a1.82,1.82,0,0,0,1.85,2l36.35.06Z" style="fill:#407bff"/><path d="M156.6,180.88l-36.35,0a2.28,2.28,0,0,0-2.22,2l-.35,4a1.82,1.82,0,0,0,1.85,2l36.35.06Z" style="fill:#fff;opacity:.5"/><path d="M106,168.87a3.69,3.69,0,0,1,3.62-3.32l48.31.07,1.26-14.12-51.37-.08a5.6,5.6,0,0,0-5.46,5L97.8,207.9h4.75Z" style="fill:#407bff"/><path d="M106,168.87a3.69,3.69,0,0,1,3.62-3.32l48.31.07,1.26-14.12-51.37-.08a5.6,5.6,0,0,0-5.46,5L97.8,207.9h4.75Z" style="fill:#fff;opacity:.30000000000000004"/><path d="M138.86,158.25a3.64,3.64,0,0,1-3.55,3.26,2.94,2.94,0,0,1-3-3.27,3.62,3.62,0,0,1,3.55-3.26A2.94,2.94,0,0,1,138.86,158.25Z" style="fill:#407bff"/><path d="M138.86,158.25a3.64,3.64,0,0,1-3.55,3.26,2.94,2.94,0,0,1-3-3.27,3.62,3.62,0,0,1,3.55-3.26A2.94,2.94,0,0,1,138.86,158.25Z" style="fill:#fff;opacity:.5"/><path d="M126.75,158.23a3.64,3.64,0,0,1-3.55,3.26,2.94,2.94,0,0,1-3-3.27,3.64,3.64,0,0,1,3.55-3.26A2.94,2.94,0,0,1,126.75,158.23Z" style="fill:#407bff"/><path d="M114.63,158.21a3.62,3.62,0,0,1-3.55,3.26,2.94,2.94,0,0,1-3-3.27,3.64,3.64,0,0,1,3.55-3.26A2.94,2.94,0,0,1,114.63,158.21Z" style="fill:#407bff"/><path d="M114.63,158.21a3.62,3.62,0,0,1-3.55,3.26,2.94,2.94,0,0,1-3-3.27,3.64,3.64,0,0,1,3.55-3.26A2.94,2.94,0,0,1,114.63,158.21Z" style="opacity:.2"/><path d="M113.05,159.24l-1-1,1-1a.47.47,0,0,0-.66-.66l-1,1-1-1a.47.47,0,0,0-.66.66l1,1c-.35.34-.7.68-1,1a.46.46,0,0,0,.65.66l1-1,1,1A.46.46,0,0,0,113.05,159.24Z" style="fill:#fff"/><path d="M125.42,157.77h-3.86a.47.47,0,0,0,0,.93h3.86a.47.47,0,0,0,0-.93Z" style="fill:#fff"/><polygon points="133.96 159.88 135.94 159.88 133.97 157.89 133.96 159.88" style="fill:#fff"/><polygon points="135.28 156.59 137.26 158.58 137.27 156.59 135.28 156.59" style="fill:#fff"/><polygon points="57.84 323.3 57.08 332.25 62.08 332.79 63.6 324.32 57.84 323.3" style="fill:#ff8b7b"/><path d="M63,332.79a.12.12,0,0,1-.08-.11.12.12,0,0,1,.08-.12c.08,0,2-.82,2.87-.46a.68.68,0,0,1,.35.34.49.49,0,0,1-.07.54,2.21,2.21,0,0,1-1.58.18A9.42,9.42,0,0,1,63,332.79Zm.42-.11c.95.26,2.26.43,2.55.13,0,0,.08-.11,0-.27a.32.32,0,0,0-.21-.21,1,1,0,0,0-.23-.06A5.71,5.71,0,0,0,63.37,332.68Z" style="fill:#407bff"/><path d="M62.89,332.77a.11.11,0,0,1,0-.11,3.56,3.56,0,0,1,1.09-1.9.93.93,0,0,1,.71-.11c.34.08.42.26.41.41,0,.6-1.38,1.55-2,1.73H63A.08.08,0,0,1,62.89,332.77Zm1.65-1.9a.69.69,0,0,0-.45.09,2.93,2.93,0,0,0-.91,1.5c.69-.29,1.64-1.06,1.65-1.41,0,0,0-.13-.22-.18Z" style="fill:#407bff"/><path d="M62.53,332l-5.67-.79a.45.45,0,0,0-.49.29L54.7,336a.76.76,0,0,0,.44,1,.42.42,0,0,0,.15,0c2.05.25,3.88.4,6.42.76,3,.42,2.19.67,5.71,1.22,2.12.32,2.85-2,2-2.28-4-1.1-4.31-2.41-5.69-4.11A1.85,1.85,0,0,0,62.53,332Z" style="fill:#263238"/><polygon points="63.6 324.32 57.84 323.3 57.44 327.97 62.8 328.76 63.6 324.32" style="fill:#263238;opacity:.2"/><path d="M86.24,181.77s4.05-1.9,3.66-.3-3.35,2.32-4.19,1.73S86.24,181.77,86.24,181.77Z" style="fill:#263238"/><path d="M75.8,200.65s3-.31,3-5.87c0,0,2.79-1.27,4.6.37s-1.63,5.48.61,7.09C84,202.24,82,203.56,75.8,200.65Z" style="fill:#ff8b7b"/><path d="M89,187c0-.37.24-.66.49-.64s.41.33.39.71-.25.65-.49.64S89,187.36,89,187Z" style="fill:#263238"/><path d="M89.27,187.66l2,2.6a2.45,2.45,0,0,1-2.16.39Z" style="fill:#ff5652"/><path d="M76.16,186.41c.23,4.7.22,6.7,2.57,9.15,3.59,2.5,9.25,2.37,10.44-2.31,1.06-4.21.52-11.18-4.06-13.14a6.44,6.44,0,0,0-9,6.3Z" style="fill:#ff8b7b"/><path d="M88.32,185.89a.23.23,0,0,0,.2,0,1.74,1.74,0,0,1,1.52-.43.22.22,0,0,0,.27-.15.23.23,0,0,0-.15-.27,2.17,2.17,0,0,0-1.92.51.21.21,0,0,0,0,.3h0A.19.19,0,0,0,88.32,185.89Z" style="fill:#263238"/><path d="M80.93,196.68A6.25,6.25,0,0,0,83.44,199c.16-.61.33-1.23.42-1.8A8.79,8.79,0,0,1,80.93,196.68Z" style="opacity:.2"/><path d="M78.7,196.27s.33-.4,1.65.18c0,0,3.08-3.46,3.63-5.95a3.76,3.76,0,0,0,1.73-3c.12-2.07.18-3.43,1-3.91s3.1-2.55,1.43-4.69-1.55.36-1.55.36-4.91-5.64-4.21-1.9c0,0-5.57-1.28-2.74,1.78,0,0-6.29,1.6-4.21,7.54A8.29,8.29,0,0,0,78.7,196.27Z" style="fill:#263238"/><path d="M84.53,188a3.61,3.61,0,0,1,1.18,2.51c.05,1.28-1.16,1.63-2.21,1s-2.12-1.83-1.67-3A1.65,1.65,0,0,1,84.53,188Z" style="fill:#ff8b7b"/><path d="M80.84,199.2a18.47,18.47,0,0,1,4,.8,5.57,5.57,0,0,0-4.14-2.7,4,4,0,0,0-4.42,2A20.38,20.38,0,0,1,80.84,199.2Z" style="fill:#407bff"/><path d="M80.84,199.2a18.47,18.47,0,0,1,4,.8,5.57,5.57,0,0,0-4.14-2.7,4,4,0,0,0-4.42,2A20.38,20.38,0,0,1,80.84,199.2Z" style="fill:#fff;opacity:.5"/><path d="M65.05,234.71s-2.57,5.9-1.47,21.89c0,0,2.08,18.89.8,25-2.31,11-6.18,13-7.52,44.41l6.88,1s9.09-31.78,11.17-42.51c1.28-6.66,3-26.84,3-26.84l.64-21.38Z" style="fill:#263238"/><polygon points="75.15 324.97 75.16 333.95 80.19 334.06 80.97 325.49 75.15 324.97" style="fill:#ff8b7b"/><path d="M81.06,333.54a.11.11,0,0,1-.09-.1.13.13,0,0,1,.06-.13c.09,0,2-1,2.83-.7a.63.63,0,0,1,.37.31.47.47,0,0,1,0,.54,2.25,2.25,0,0,1-1.56.32A8.61,8.61,0,0,1,81.06,333.54Zm.41-.14c1,.17,2.29.23,2.55-.09,0,0,.07-.12,0-.28a.35.35,0,0,0-.23-.18,1,1,0,0,0-.24-.05A5.8,5.8,0,0,0,81.47,333.4Z" style="fill:#407bff"/><path d="M81,333.53a.1.1,0,0,1,0-.11,3.5,3.5,0,0,1,.92-2,.92.92,0,0,1,.7-.18c.34.05.44.23.44.38.08.59-1.24,1.66-1.88,1.9h0A.08.08,0,0,1,81,333.53Zm1.47-2a.62.62,0,0,0-.43.14,2.83,2.83,0,0,0-.78,1.56c.67-.35,1.54-1.19,1.52-1.55,0,0,0-.12-.24-.15Z" style="fill:#407bff"/><path d="M80.57,332.78l-5.71-.3a.47.47,0,0,0-.47.33l-1.28,4.6a.76.76,0,0,0,.52.94.45.45,0,0,0,.16,0c2.06.07,3.9.06,6.46.2,3,.16,2.24.48,5.79.72,2.14.15,2.67-2.27,1.76-2.44-4.13-.74-4.49-2-6-3.6A1.91,1.91,0,0,0,80.57,332.78Z" style="fill:#263238"/><polygon points="75.16 330.13 80.54 330.22 80.97 325.49 75.15 324.97 75.16 330.13" style="fill:#263238;opacity:.2"/><path d="M77.65,260.64,76.25,258l-3.72-3.48s-1.18,15.08,2.84,27.06C76.25,275.57,77.2,265.6,77.65,260.64Z" style="opacity:.4"/><path d="M73.48,236.25s-1.19,5.7-1,18.29,4.81,22.17,4.75,29.69c-.11,10.95-4.78,16.86-2.85,43.7h7.36s5.83-33.25,6.65-44.41c.85-11.55-.06-46.32-.06-46.32Z" style="fill:#263238"/><path d="M74,199.79s-5.34.42-6.53,4.1a7.18,7.18,0,0,0,.86,6.31l2.88.82Z" style="fill:#407bff"/><path d="M74,199.79s-5.34.42-6.53,4.1a7.18,7.18,0,0,0,.86,6.31l2.88.82Z" style="opacity:.1"/><path d="M80.84,199.2c3.43.31,10.45,1.9,11.17,9s-2.62,32.3-2.62,32.3-13.3.47-25.65-3.09a138.16,138.16,0,0,0,4.75-30.16C68.71,201.82,72.77,198.48,80.84,199.2Z" style="fill:#407bff"/><path d="M85.44,207s2.38,7.07,6.29,11.58c.27-3.55.43-6.8.36-9.05Z" style="opacity:.1"/><path d="M96,208.16l5.7,4.82,11.88-2.93.6-2.68a1.29,1.29,0,0,1,1.48-1l1.09.19,1.32-.85a1.3,1.3,0,0,1,1.89.58l.48,1.11a1.3,1.3,0,0,1,.06.87l-.92,3.21a1.31,1.31,0,0,1-1,.92l-3.16.57s-10.29,4.91-13.78,5.06-9.49-4.51-9.49-4.51Z" style="fill:#ff8b7b"/><path d="M86.28,200.56S92,202,98.6,208.29a13.1,13.1,0,0,1-6.82,7.47S80.13,203.76,86.28,200.56Z" style="fill:#407bff"/><polygon points="56.58 324.09 56.38 326.62 63.86 327.69 64.58 325.44 56.58 324.09" style="fill:#263238"/><polygon points="56.58 324.09 56.38 326.62 63.86 327.69 64.58 325.44 56.58 324.09" style="fill:#fff;opacity:.30000000000000004"/><polygon points="74.06 326.23 74.3 328.76 81.91 328.75 82.35 326.28 74.06 326.23" style="fill:#263238"/><polygon points="74.06 326.23 74.3 328.76 81.91 328.75 82.35 326.28 74.06 326.23" style="fill:#fff;opacity:.30000000000000004"/></g></svg>