<svg xmlns="http://www.w3.org/2000/svg" xmlns:xlink="http://www.w3.org/1999/xlink" version="1.1" width="1000" height="1000" viewBox="0 0 1000 1000" xml:space="preserve">
<desc>Created with Fabric.js 3.5.0</desc>
<defs>
</defs>
<rect x="0" y="0" width="100%" height="100%" fill="rgba(255,255,255,0)"/>
<g transform="matrix(1.9139 0 0 1.9139 471.8169 464.8602)" id="831411">
<g style="" vector-effect="non-scaling-stroke">
		<g transform="matrix(1 0 0 1 12.284 173.997)">
<path style="stroke: none; stroke-width: 1; stroke-dasharray: none; stroke-linecap: butt; stroke-dashoffset: 0; stroke-linejoin: miter; stroke-miterlimit: 4; is-custom-font: none; font-file-url: none; fill: rgb(0,182,161); fill-rule: nonzero; opacity: 0.2;" transform=" translate(-249.784, -398.997)" d="M 249.784 431.102 C 308.912 431.102 356.845 416.728 356.845 398.997 C 356.845 381.266 308.912 366.892 249.784 366.892 C 190.656 366.892 142.723 381.266 142.723 398.997 C 142.723 416.728 190.656 431.102 249.784 431.102 Z" stroke-linecap="round"/>
</g>
		<g transform="matrix(1 0 0 1 12.451 165.583)">
<path style="stroke: none; stroke-width: 1; stroke-dasharray: none; stroke-linecap: butt; stroke-dashoffset: 0; stroke-linejoin: miter; stroke-miterlimit: 4; is-custom-font: none; font-file-url: none; fill: rgb(0,182,161); fill-rule: nonzero; opacity: 0.1;" transform=" translate(-249.951, -390.583)" d="M 249.951 414.071 C 293.21 414.071 328.278 403.555 328.278 390.583 C 328.278 377.611 293.21 367.095 249.951 367.095 C 206.692 367.095 171.624 377.611 171.624 390.583 C 171.624 403.555 206.692 414.071 249.951 414.071 Z" stroke-linecap="round"/>
</g>
		<g transform="matrix(1 0 0 1 12.531 163.897)">
<path style="stroke: none; stroke-width: 1; stroke-dasharray: none; stroke-linecap: butt; stroke-dashoffset: 0; stroke-linejoin: miter; stroke-miterlimit: 4; is-custom-font: none; font-file-url: none; fill: rgb(0,182,161); fill-rule: nonzero; opacity: 0.1;" transform=" translate(-250.031, -388.897)" d="M 250.031 406.485 C 282.423 406.485 308.682 398.61 308.682 388.897 C 308.682 379.183 282.423 371.309 250.031 371.309 C 217.639 371.309 191.38 379.183 191.38 388.897 C 191.38 398.61 217.639 406.485 250.031 406.485 Z" stroke-linecap="round"/>
</g>
		<g transform="matrix(1 0 0 1 7.939 30.4045)">
<path style="stroke: none; stroke-width: 1; stroke-dasharray: none; stroke-linecap: butt; stroke-dashoffset: 0; stroke-linejoin: miter; stroke-miterlimit: 4; is-custom-font: none; font-file-url: none; fill: rgb(0,113,100); fill-rule: nonzero; opacity: 1;" transform=" translate(-245.439, -255.4045)" d="M 385.878 251.907 H 105 V 258.902 H 385.878 V 251.907 Z" stroke-linecap="round"/>
</g>
		<g transform="matrix(1 0 0 1 9.851 -53.1422)">
<path style="stroke: none; stroke-width: 1; stroke-dasharray: none; stroke-linecap: butt; stroke-dashoffset: 0; stroke-linejoin: miter; stroke-miterlimit: 4; is-custom-font: none; font-file-url: none; fill: rgb(0,113,100); fill-rule: nonzero; opacity: 1;" transform=" translate(-247.351, -171.8578)" d="M 349.777 98.5887 H 144.925 C 142.136 98.5887 139.875 100.85 139.875 103.639 V 240.077 C 139.875 242.866 142.136 245.127 144.925 245.127 H 349.777 C 352.566 245.127 354.827 242.866 354.827 240.077 V 103.639 C 354.827 100.85 352.566 98.5887 349.777 98.5887 Z" stroke-linecap="round"/>
</g>
		<g transform="matrix(1 0 0 1 9.8505 -60.0352)">
<path style="stroke: none; stroke-width: 1; stroke-dasharray: none; stroke-linecap: butt; stroke-dashoffset: 0; stroke-linejoin: miter; stroke-miterlimit: 4; is-custom-font: none; font-file-url: none; fill: rgb(0,88,78); fill-rule: nonzero; opacity: 1;" transform=" translate(-247.3505, -164.9649)" d="M 348.803 99.1977 H 145.898 C 144.301 99.1977 142.769 99.8323 141.639 100.962 C 140.51 102.091 139.875 103.623 139.875 105.221 V 230.732 H 354.826 V 105.216 C 354.825 103.619 354.19 102.088 353.06 100.96 C 351.931 99.8316 350.4 99.1977 348.803 99.1977 Z" stroke-linecap="round"/>
</g>
		<g transform="matrix(1 0 0 1 9.8505 -119.0365)">
<path style="stroke: none; stroke-width: 1; stroke-dasharray: none; stroke-linecap: butt; stroke-dashoffset: 0; stroke-linejoin: miter; stroke-miterlimit: 4; is-custom-font: none; font-file-url: none; fill: rgb(0,60,54); fill-rule: nonzero; opacity: 1;" transform=" translate(-247.3505, -105.9635)" d="M 348.803 102.735 H 145.898 C 144.301 102.735 142.769 103.369 141.639 104.499 C 140.51 105.628 139.875 107.16 139.875 108.758 V 109.192 C 139.875 107.594 140.51 106.062 141.639 104.933 C 142.769 103.803 144.301 103.169 145.898 103.169 H 348.803 C 349.594 103.169 350.377 103.325 351.108 103.627 C 351.839 103.93 352.503 104.374 353.062 104.933 C 353.621 105.492 354.065 106.156 354.368 106.887 C 354.67 107.618 354.826 108.401 354.826 109.192 V 108.758 C 354.826 107.967 354.67 107.184 354.368 106.453 C 354.065 105.722 353.621 105.058 353.062 104.499 C 352.503 103.94 351.839 103.496 351.108 103.193 C 350.377 102.891 349.594 102.735 348.803 102.735 Z" stroke-linecap="round"/>
</g>
		<g transform="matrix(1 0 0 1 9.876 -58.3695)">
<path style="stroke: none; stroke-width: 1; stroke-dasharray: none; stroke-linecap: butt; stroke-dashoffset: 0; stroke-linejoin: miter; stroke-miterlimit: 4; is-custom-font: none; font-file-url: none; fill: rgb(0,127,113); fill-rule: nonzero; opacity: 1;" transform=" translate(-247.376, -166.6305)" d="M 148.254 107.962 H 346.498 V 225.299 H 148.254 V 107.962 Z" stroke-linecap="round"/>
</g>
		<g transform="matrix(1 0 0 1 -5.415 -100.4505)">
<path style="stroke: none; stroke-width: 1; stroke-dasharray: none; stroke-linecap: butt; stroke-dashoffset: 0; stroke-linejoin: miter; stroke-miterlimit: 4; is-custom-font: none; font-file-url: none; fill: rgb(0,164,146); fill-rule: nonzero; opacity: 1;" transform=" translate(-232.085, -124.5495)" d="M 288.373 123.163 H 175.797 C 175.155 123.163 174.635 123.683 174.635 124.325 V 124.774 C 174.635 125.415 175.155 125.936 175.797 125.936 H 288.373 C 289.015 125.936 289.535 125.415 289.535 124.774 V 124.325 C 289.535 123.683 289.015 123.163 288.373 123.163 Z" stroke-linecap="round"/>
</g>
		<g transform="matrix(1 0 0 1 -44.843 -109.319)">
<path style="stroke: none; stroke-width: 1; stroke-dasharray: none; stroke-linecap: butt; stroke-dashoffset: 0; stroke-linejoin: miter; stroke-miterlimit: 4; is-custom-font: none; font-file-url: none; fill: rgb(0,164,146); fill-rule: nonzero; opacity: 1;" transform=" translate(-192.657, -115.681)" d="M 228.648 113.901 H 156.666 C 155.842 113.901 155.174 114.569 155.174 115.393 V 115.969 C 155.174 116.793 155.842 117.461 156.666 117.461 H 228.648 C 229.472 117.461 230.14 116.793 230.14 115.969 V 115.393 C 230.14 114.569 229.472 113.901 228.648 113.901 Z" stroke-linecap="round"/>
</g>
		<g transform="matrix(1 0 0 1 -77.34 -100.4505)">
<path style="stroke: none; stroke-width: 1; stroke-dasharray: none; stroke-linecap: butt; stroke-dashoffset: 0; stroke-linejoin: miter; stroke-miterlimit: 4; is-custom-font: none; font-file-url: none; fill: rgb(0,164,146); fill-rule: nonzero; opacity: 1;" transform=" translate(-160.16, -124.5495)" d="M 163.984 123.163 H 156.336 C 155.694 123.163 155.174 123.683 155.174 124.325 V 124.774 C 155.174 125.415 155.694 125.936 156.336 125.936 H 163.984 C 164.626 125.936 165.146 125.415 165.146 124.774 V 124.325 C 165.146 123.683 164.626 123.163 163.984 123.163 Z" stroke-linecap="round"/>
</g>
		<g transform="matrix(1 0 0 1 -51.434 -92.3245)">
<path style="stroke: none; stroke-width: 1; stroke-dasharray: none; stroke-linecap: butt; stroke-dashoffset: 0; stroke-linejoin: miter; stroke-miterlimit: 4; is-custom-font: none; font-file-url: none; fill: rgb(0,164,146); fill-rule: nonzero; opacity: 1;" transform=" translate(-186.066, -132.6755)" d="M 215.072 131.814 H 157.06 C 156.661 131.814 156.337 132.137 156.337 132.537 V 132.814 C 156.337 133.213 156.661 133.537 157.06 133.537 H 215.072 C 215.471 133.537 215.795 133.213 215.795 132.814 V 132.537 C 215.795 132.137 215.471 131.814 215.072 131.814 Z" stroke-linecap="round"/>
</g>
		<g transform="matrix(1 0 0 1 -51.434 -85.3045)">
<path style="stroke: none; stroke-width: 1; stroke-dasharray: none; stroke-linecap: butt; stroke-dashoffset: 0; stroke-linejoin: miter; stroke-miterlimit: 4; is-custom-font: none; font-file-url: none; fill: rgb(0,164,146); fill-rule: nonzero; opacity: 1;" transform=" translate(-186.066, -139.6955)" d="M 215.072 138.834 H 157.06 C 156.661 138.834 156.337 139.157 156.337 139.557 V 139.834 C 156.337 140.233 156.661 140.557 157.06 140.557 H 215.072 C 215.471 140.557 215.795 140.233 215.795 139.834 V 139.557 C 215.795 139.157 215.471 138.834 215.072 138.834 Z" stroke-linecap="round"/>
</g>
		<g transform="matrix(1 0 0 1 -51.434 -78.2835)">
<path style="stroke: none; stroke-width: 1; stroke-dasharray: none; stroke-linecap: butt; stroke-dashoffset: 0; stroke-linejoin: miter; stroke-miterlimit: 4; is-custom-font: none; font-file-url: none; fill: rgb(0,164,146); fill-rule: nonzero; opacity: 1;" transform=" translate(-186.066, -146.7165)" d="M 215.072 145.855 H 157.06 C 156.661 145.855 156.337 146.178 156.337 146.578 V 146.855 C 156.337 147.254 156.661 147.578 157.06 147.578 H 215.072 C 215.471 147.578 215.795 147.254 215.795 146.855 V 146.578 C 215.795 146.178 215.471 145.855 215.072 145.855 Z" stroke-linecap="round"/>
</g>
		<g transform="matrix(1 0 0 1 -51.434 -71.2635)">
<path style="stroke: none; stroke-width: 1; stroke-dasharray: none; stroke-linecap: butt; stroke-dashoffset: 0; stroke-linejoin: miter; stroke-miterlimit: 4; is-custom-font: none; font-file-url: none; fill: rgb(0,164,146); fill-rule: nonzero; opacity: 1;" transform=" translate(-186.066, -153.7365)" d="M 215.072 152.875 H 157.06 C 156.661 152.875 156.337 153.198 156.337 153.598 V 153.875 C 156.337 154.274 156.661 154.598 157.06 154.598 H 215.072 C 215.471 154.598 215.795 154.274 215.795 153.875 V 153.598 C 215.795 153.198 215.471 152.875 215.072 152.875 Z" stroke-linecap="round"/>
</g>
		<g transform="matrix(1 0 0 1 -75.897 -64.2435)">
<path style="stroke: none; stroke-width: 1; stroke-dasharray: none; stroke-linecap: butt; stroke-dashoffset: 0; stroke-linejoin: miter; stroke-miterlimit: 4; is-custom-font: none; font-file-url: none; fill: rgb(0,164,146); fill-rule: nonzero; opacity: 1;" transform=" translate(-161.603, -160.7565)" d="M 166.146 159.895 H 157.06 C 156.661 159.895 156.337 160.218 156.337 160.618 V 160.895 C 156.337 161.294 156.661 161.618 157.06 161.618 H 166.146 C 166.545 161.618 166.869 161.294 166.869 160.895 V 160.618 C 166.869 160.218 166.545 159.895 166.146 159.895 Z" stroke-linecap="round"/>
</g>
		<g transform="matrix(1 0 0 1 -60.522 -64.2435)">
<path style="stroke: none; stroke-width: 1; stroke-dasharray: none; stroke-linecap: butt; stroke-dashoffset: 0; stroke-linejoin: miter; stroke-miterlimit: 4; is-custom-font: none; font-file-url: none; fill: rgb(0,164,146); fill-rule: nonzero; opacity: 1;" transform=" translate(-176.978, -160.7565)" d="M 181.521 159.895 H 172.435 C 172.036 159.895 171.712 160.218 171.712 160.618 V 160.895 C 171.712 161.294 172.036 161.618 172.435 161.618 H 181.521 C 181.92 161.618 182.244 161.294 182.244 160.895 V 160.618 C 182.244 160.218 181.92 159.895 181.521 159.895 Z" stroke-linecap="round"/>
</g>
		<g transform="matrix(1 0 0 1 -45.146 -64.2435)">
<path style="stroke: none; stroke-width: 1; stroke-dasharray: none; stroke-linecap: butt; stroke-dashoffset: 0; stroke-linejoin: miter; stroke-miterlimit: 4; is-custom-font: none; font-file-url: none; fill: rgb(0,164,146); fill-rule: nonzero; opacity: 1;" transform=" translate(-192.354, -160.7565)" d="M 196.897 159.895 H 187.811 C 187.412 159.895 187.088 160.218 187.088 160.618 V 160.895 C 187.088 161.294 187.412 161.618 187.811 161.618 H 196.897 C 197.296 161.618 197.62 161.294 197.62 160.895 V 160.618 C 197.62 160.218 197.296 159.895 196.897 159.895 Z" stroke-linecap="round"/>
</g>
		<g transform="matrix(1 0 0 1 -29.77 -64.2435)">
<path style="stroke: none; stroke-width: 1; stroke-dasharray: none; stroke-linecap: butt; stroke-dashoffset: 0; stroke-linejoin: miter; stroke-miterlimit: 4; is-custom-font: none; font-file-url: none; fill: rgb(0,164,146); fill-rule: nonzero; opacity: 1;" transform=" translate(-207.73, -160.7565)" d="M 212.273 159.895 H 203.187 C 202.788 159.895 202.464 160.218 202.464 160.618 V 160.895 C 202.464 161.294 202.788 161.618 203.187 161.618 H 212.273 C 212.672 161.618 212.996 161.294 212.996 160.895 V 160.618 C 212.996 160.218 212.672 159.895 212.273 159.895 Z" stroke-linecap="round"/>
</g>
		<g transform="matrix(1 0 0 1 -14.395 -64.2435)">
<path style="stroke: none; stroke-width: 1; stroke-dasharray: none; stroke-linecap: butt; stroke-dashoffset: 0; stroke-linejoin: miter; stroke-miterlimit: 4; is-custom-font: none; font-file-url: none; fill: rgb(0,164,146); fill-rule: nonzero; opacity: 1;" transform=" translate(-223.105, -160.7565)" d="M 227.648 159.895 H 218.562 C 218.163 159.895 217.839 160.218 217.839 160.618 V 160.895 C 217.839 161.294 218.163 161.618 218.562 161.618 H 227.648 C 228.047 161.618 228.371 161.294 228.371 160.895 V 160.618 C 228.371 160.218 228.047 159.895 227.648 159.895 Z" stroke-linecap="round"/>
</g>
		<g transform="matrix(1 0 0 1 0.981 -64.2435)">
<path style="stroke: none; stroke-width: 1; stroke-dasharray: none; stroke-linecap: butt; stroke-dashoffset: 0; stroke-linejoin: miter; stroke-miterlimit: 4; is-custom-font: none; font-file-url: none; fill: rgb(0,164,146); fill-rule: nonzero; opacity: 1;" transform=" translate(-238.481, -160.7565)" d="M 243.024 159.895 H 233.938 C 233.539 159.895 233.215 160.218 233.215 160.618 V 160.895 C 233.215 161.294 233.539 161.618 233.938 161.618 H 243.024 C 243.423 161.618 243.747 161.294 243.747 160.895 V 160.618 C 243.747 160.218 243.423 159.895 243.024 159.895 Z" stroke-linecap="round"/>
</g>
		<g transform="matrix(1 0 0 1 -51.434 -57.2225)">
<path style="stroke: none; stroke-width: 1; stroke-dasharray: none; stroke-linecap: butt; stroke-dashoffset: 0; stroke-linejoin: miter; stroke-miterlimit: 4; is-custom-font: none; font-file-url: none; fill: rgb(0,164,146); fill-rule: nonzero; opacity: 1;" transform=" translate(-186.066, -167.7775)" d="M 215.072 166.916 H 157.06 C 156.661 166.916 156.337 167.239 156.337 167.639 V 167.916 C 156.337 168.315 156.661 168.639 157.06 168.639 H 215.072 C 215.471 168.639 215.795 168.315 215.795 167.916 V 167.639 C 215.795 167.239 215.471 166.916 215.072 166.916 Z" stroke-linecap="round"/>
</g>
		<g transform="matrix(1 0 0 1 60.756 -80.9055)">
<path style="stroke: none; stroke-width: 1; stroke-dasharray: none; stroke-linecap: butt; stroke-dashoffset: 0; stroke-linejoin: miter; stroke-miterlimit: 4; is-custom-font: none; font-file-url: none; fill: rgb(0,164,146); fill-rule: nonzero; opacity: 1;" transform=" translate(-298.256, -144.0945)" d="M 333.857 142.893 H 262.655 C 262.099 142.893 261.648 143.344 261.648 143.9 V 144.289 C 261.648 144.845 262.099 145.296 262.655 145.296 H 333.857 C 334.413 145.296 334.864 144.845 334.864 144.289 V 143.9 C 334.864 143.344 334.413 142.893 333.857 142.893 Z" stroke-linecap="round"/>
</g>
		<g transform="matrix(1 0 0 1 60.756 -70.4015)">
<path style="stroke: none; stroke-width: 1; stroke-dasharray: none; stroke-linecap: butt; stroke-dashoffset: 0; stroke-linejoin: miter; stroke-miterlimit: 4; is-custom-font: none; font-file-url: none; fill: rgb(0,164,146); fill-rule: nonzero; opacity: 1;" transform=" translate(-298.256, -154.5985)" d="M 333.857 153.397 H 262.655 C 262.099 153.397 261.648 153.848 261.648 154.404 V 154.793 C 261.648 155.349 262.099 155.8 262.655 155.8 H 333.857 C 334.413 155.8 334.864 155.349 334.864 154.793 V 154.404 C 334.864 153.848 334.413 153.397 333.857 153.397 Z" stroke-linecap="round"/>
</g>
		<g transform="matrix(1 0 0 1 60.756 -60.5645)">
<path style="stroke: none; stroke-width: 1; stroke-dasharray: none; stroke-linecap: butt; stroke-dashoffset: 0; stroke-linejoin: miter; stroke-miterlimit: 4; is-custom-font: none; font-file-url: none; fill: rgb(0,164,146); fill-rule: nonzero; opacity: 1;" transform=" translate(-298.256, -164.4355)" d="M 333.857 163.234 H 262.655 C 262.099 163.234 261.648 163.685 261.648 164.241 V 164.63 C 261.648 165.186 262.099 165.637 262.655 165.637 H 333.857 C 334.413 165.637 334.864 165.186 334.864 164.63 V 164.241 C 334.864 163.685 334.413 163.234 333.857 163.234 Z" stroke-linecap="round"/>
</g>
		<g transform="matrix(1 0 0 1 60.756 -50.7275)">
<path style="stroke: none; stroke-width: 1; stroke-dasharray: none; stroke-linecap: butt; stroke-dashoffset: 0; stroke-linejoin: miter; stroke-miterlimit: 4; is-custom-font: none; font-file-url: none; fill: rgb(0,164,146); fill-rule: nonzero; opacity: 1;" transform=" translate(-298.256, -174.2725)" d="M 333.857 173.071 H 262.655 C 262.099 173.071 261.648 173.522 261.648 174.078 V 174.467 C 261.648 175.023 262.099 175.474 262.655 175.474 H 333.857 C 334.413 175.474 334.864 175.023 334.864 174.467 V 174.078 C 334.864 173.522 334.413 173.071 333.857 173.071 Z" stroke-linecap="round"/>
</g>
		<g transform="matrix(1 0 0 1 60.756 -40.8915)">
<path style="stroke: none; stroke-width: 1; stroke-dasharray: none; stroke-linecap: butt; stroke-dashoffset: 0; stroke-linejoin: miter; stroke-miterlimit: 4; is-custom-font: none; font-file-url: none; fill: rgb(0,164,146); fill-rule: nonzero; opacity: 1;" transform=" translate(-298.256, -184.1085)" d="M 333.857 182.907 H 262.655 C 262.099 182.907 261.648 183.358 261.648 183.914 V 184.303 C 261.648 184.859 262.099 185.31 262.655 185.31 H 333.857 C 334.413 185.31 334.864 184.859 334.864 184.303 V 183.914 C 334.864 183.358 334.413 182.907 333.857 182.907 Z" stroke-linecap="round"/>
</g>
		<g transform="matrix(1 0 0 1 43.542 -31.0545)">
<path style="stroke: none; stroke-width: 1; stroke-dasharray: none; stroke-linecap: butt; stroke-dashoffset: 0; stroke-linejoin: miter; stroke-miterlimit: 4; is-custom-font: none; font-file-url: none; fill: rgb(0,164,146); fill-rule: nonzero; opacity: 1;" transform=" translate(-281.042, -193.9455)" d="M 299.429 192.744 H 262.655 C 262.099 192.744 261.648 193.195 261.648 193.751 V 194.14 C 261.648 194.696 262.099 195.147 262.655 195.147 H 299.429 C 299.985 195.147 300.436 194.696 300.436 194.14 V 193.751 C 300.436 193.195 299.985 192.744 299.429 192.744 Z" stroke-linecap="round"/>
</g>
		<g transform="matrix(1 0 0 1 67.332 -24.3585)">
<path style="stroke: none; stroke-width: 1; stroke-dasharray: none; stroke-linecap: butt; stroke-dashoffset: 0; stroke-linejoin: miter; stroke-miterlimit: 4; is-custom-font: none; font-file-url: none; fill: rgb(0,164,146); fill-rule: nonzero; opacity: 1;" transform=" translate(-304.832, -200.6415)" d="M 323.219 199.44 H 286.445 C 285.889 199.44 285.438 199.891 285.438 200.447 V 200.836 C 285.438 201.392 285.889 201.843 286.445 201.843 H 323.219 C 323.775 201.843 324.226 201.392 324.226 200.836 V 200.447 C 324.226 199.891 323.775 199.44 323.219 199.44 Z" stroke-linecap="round"/>
</g>
		<g transform="matrix(1 0 0 1 67.332 -17.4245)">
<path style="stroke: none; stroke-width: 1; stroke-dasharray: none; stroke-linecap: butt; stroke-dashoffset: 0; stroke-linejoin: miter; stroke-miterlimit: 4; is-custom-font: none; font-file-url: none; fill: rgb(0,164,146); fill-rule: nonzero; opacity: 1;" transform=" translate(-304.832, -207.5755)" d="M 323.219 206.374 H 286.445 C 285.889 206.374 285.438 206.825 285.438 207.381 V 207.77 C 285.438 208.326 285.889 208.777 286.445 208.777 H 323.219 C 323.775 208.777 324.226 208.326 324.226 207.77 V 207.381 C 324.226 206.825 323.775 206.374 323.219 206.374 Z" stroke-linecap="round"/>
</g>
		<g transform="matrix(1 0 0 1 -62.8645 -17.4245)">
<path style="stroke: none; stroke-width: 1; stroke-dasharray: none; stroke-linecap: butt; stroke-dashoffset: 0; stroke-linejoin: miter; stroke-miterlimit: 4; is-custom-font: none; font-file-url: none; fill: rgb(0,164,146); fill-rule: nonzero; opacity: 1;" transform=" translate(-174.6355, -207.5755)" d="M 183.31 206.374 H 165.961 C 165.405 206.374 164.954 206.825 164.954 207.381 V 207.77 C 164.954 208.326 165.405 208.777 165.961 208.777 H 183.31 C 183.866 208.777 184.317 208.326 184.317 207.77 V 207.381 C 184.317 206.825 183.866 206.374 183.31 206.374 Z" stroke-linecap="round"/>
</g>
		<g transform="matrix(1 0 0 1 -62.8645 -23.1575)">
<path style="stroke: none; stroke-width: 1; stroke-dasharray: none; stroke-linecap: butt; stroke-dashoffset: 0; stroke-linejoin: miter; stroke-miterlimit: 4; is-custom-font: none; font-file-url: none; fill: rgb(0,164,146); fill-rule: nonzero; opacity: 1;" transform=" translate(-174.6355, -201.8425)" d="M 183.31 200.641 H 165.961 C 165.405 200.641 164.954 201.092 164.954 201.648 V 202.037 C 164.954 202.593 165.405 203.044 165.961 203.044 H 183.31 C 183.866 203.044 184.317 202.593 184.317 202.037 V 201.648 C 184.317 201.092 183.866 200.641 183.31 200.641 Z" stroke-linecap="round"/>
</g>
		<g transform="matrix(1 0 0 1 -62.8645 -28.8915)">
<path style="stroke: none; stroke-width: 1; stroke-dasharray: none; stroke-linecap: butt; stroke-dashoffset: 0; stroke-linejoin: miter; stroke-miterlimit: 4; is-custom-font: none; font-file-url: none; fill: rgb(0,164,146); fill-rule: nonzero; opacity: 1;" transform=" translate(-174.6355, -196.1085)" d="M 183.31 194.907 H 165.961 C 165.405 194.907 164.954 195.358 164.954 195.914 V 196.303 C 164.954 196.859 165.405 197.31 165.961 197.31 H 183.31 C 183.866 197.31 184.317 196.859 184.317 196.303 V 195.914 C 184.317 195.358 183.866 194.907 183.31 194.907 Z" stroke-linecap="round"/>
</g>
		<g transform="matrix(1 0 0 1 -62.8645 -34.6245)">
<path style="stroke: none; stroke-width: 1; stroke-dasharray: none; stroke-linecap: butt; stroke-dashoffset: 0; stroke-linejoin: miter; stroke-miterlimit: 4; is-custom-font: none; font-file-url: none; fill: rgb(0,164,146); fill-rule: nonzero; opacity: 1;" transform=" translate(-174.6355, -190.3755)" d="M 183.31 189.174 H 165.961 C 165.405 189.174 164.954 189.625 164.954 190.181 V 190.57 C 164.954 191.126 165.405 191.577 165.961 191.577 H 183.31 C 183.866 191.577 184.317 191.126 184.317 190.57 V 190.181 C 184.317 189.625 183.866 189.174 183.31 189.174 Z" stroke-linecap="round"/>
</g>
		<g transform="matrix(1 0 0 1 10.6025 -54.0305)">
<path style="stroke: none; stroke-width: 1; stroke-dasharray: none; stroke-linecap: butt; stroke-dashoffset: 0; stroke-linejoin: miter; stroke-miterlimit: 4; is-custom-font: none; font-file-url: none; fill: rgb(254,177,135); fill-rule: nonzero; opacity: 1;" transform=" translate(-248.1025, -170.9695)" d="M 259.116 162.679 H 237.089 V 179.26 H 259.116 V 162.679 Z" stroke-linecap="round"/>
</g>
		<g transform="matrix(1 0 0 1 10.6035 -45.855)">
<path style="stroke: none; stroke-width: 1; stroke-dasharray: none; stroke-linecap: butt; stroke-dashoffset: 0; stroke-linejoin: miter; stroke-miterlimit: 4; is-custom-font: none; font-file-url: none; fill: rgb(248,139,101); fill-rule: nonzero; opacity: 1;" transform=" translate(-248.1035, -179.145)" d="M 237.09 175.677 C 244.196 178.314 252.011 178.314 259.117 175.677 V 180.498 L 253.061 181.605 L 248.103 182.613 L 237.09 178.974 V 175.677 Z" stroke-linecap="round"/>
</g>
		<g transform="matrix(1 0 0 1 10.529 53.529)">
<path style="stroke: none; stroke-width: 1; stroke-dasharray: none; stroke-linecap: butt; stroke-dashoffset: 0; stroke-linejoin: miter; stroke-miterlimit: 4; is-custom-font: none; font-file-url: none; fill: rgb(33,33,33); fill-rule: nonzero; opacity: 1;" transform=" translate(-248.029, -278.529)" d="M 275.992 263.125 H 220.066 C 215.289 263.125 211.417 266.997 211.417 271.774 V 285.284 C 211.417 290.06 215.289 293.933 220.066 293.933 H 275.992 C 280.769 293.933 284.641 290.06 284.641 285.284 V 271.774 C 284.641 266.997 280.769 263.125 275.992 263.125 Z" stroke-linecap="round"/>
</g>
		<g transform="matrix(1 0 0 1 10.519 62.9235)">
<path style="stroke: none; stroke-width: 1; stroke-dasharray: none; stroke-linecap: butt; stroke-dashoffset: 0; stroke-linejoin: miter; stroke-miterlimit: 4; is-custom-font: none; font-file-url: none; fill: rgb(0,0,0); fill-rule: nonzero; opacity: 1;" transform=" translate(-248.019, -287.9235)" d="M 284.323 282.002 C 246.539 293.146 211.733 281.919 211.715 281.913 C 212.409 285.299 214.248 288.342 216.922 290.532 C 219.597 292.721 222.944 293.922 226.4 293.934 H 269.657 C 273.098 293.922 276.43 292.732 279.099 290.56 C 281.768 288.389 283.612 285.368 284.323 282.002 Z" stroke-linecap="round"/>
</g>
		<g transform="matrix(1 0 0 1 26.1158 -109.6876)">
<path style="stroke: none; stroke-width: 1; stroke-dasharray: none; stroke-linecap: butt; stroke-dashoffset: 0; stroke-linejoin: miter; stroke-miterlimit: 4; is-custom-font: none; font-file-url: none; fill: rgb(33,33,33); fill-rule: nonzero; opacity: 1;" transform=" translate(-263.6158, -115.3124)" d="M 251.67 113.579 L 267.049 98.2007 C 268.168 100.628 268.702 103.283 268.608 105.954 C 268.514 108.625 267.794 111.237 266.506 113.579 L 272.85 107.235 C 272.85 107.235 275.706 115.791 269.915 120.475 L 275.153 115.238 C 275.153 115.238 278.453 124.964 266.298 132.424 L 251.67 113.579 Z" stroke-linecap="round"/>
</g>
		<g transform="matrix(1 0 0 1 22.9216 -104.668)">
<path style="stroke: none; stroke-width: 1; stroke-dasharray: none; stroke-linecap: butt; stroke-dashoffset: 0; stroke-linejoin: miter; stroke-miterlimit: 4; is-custom-font: none; font-file-url: none; fill: rgb(0,0,0); fill-rule: nonzero; opacity: 1;" transform=" translate(-260.4216, -120.332)" d="M 264.254 129.789 L 269.098 130.425 L 269.135 130.395 C 269.173 130.016 270.415 116.601 255.009 110.239 L 251.67 113.578 L 264.254 129.789 Z" stroke-linecap="round"/>
</g>
		<g transform="matrix(1 0 0 1 29.055 -78.692)">
<path style="stroke: none; stroke-width: 1; stroke-dasharray: none; stroke-linecap: butt; stroke-dashoffset: 0; stroke-linejoin: miter; stroke-miterlimit: 4; is-custom-font: none; font-file-url: none; fill: rgb(254,177,135); fill-rule: nonzero; opacity: 1;" transform=" translate(-266.555, -146.308)" d="M 266.555 153.144 C 270.33 153.144 273.391 150.083 273.391 146.308 C 273.391 142.532 270.33 139.472 266.555 139.472 C 262.78 139.472 259.719 142.532 259.719 146.308 C 259.719 150.083 262.78 153.144 266.555 153.144 Z" stroke-linecap="round"/>
</g>
		<g transform="matrix(1 0 0 1 -7.701 -78.692)">
<path style="stroke: none; stroke-width: 1; stroke-dasharray: none; stroke-linecap: butt; stroke-dashoffset: 0; stroke-linejoin: miter; stroke-miterlimit: 4; is-custom-font: none; font-file-url: none; fill: rgb(254,177,135); fill-rule: nonzero; opacity: 1;" transform=" translate(-229.799, -146.308)" d="M 229.799 153.144 C 233.574 153.144 236.635 150.083 236.635 146.308 C 236.635 142.532 233.574 139.472 229.799 139.472 C 226.024 139.472 222.963 142.532 222.963 146.308 C 222.963 150.083 226.024 153.144 229.799 153.144 Z" stroke-linecap="round"/>
</g>
		<g transform="matrix(1 0 0 1 10.603 -82.1)">
<path style="stroke: none; stroke-width: 1; stroke-dasharray: none; stroke-linecap: butt; stroke-dashoffset: 0; stroke-linejoin: miter; stroke-miterlimit: 4; is-custom-font: none; font-file-url: none; fill: rgb(33,33,33); fill-rule: nonzero; opacity: 1;" transform=" translate(-248.103, -142.9)" d="M 251.534 113.294 H 244.672 C 234.837 113.294 226.864 121.267 226.864 131.102 V 154.698 C 226.864 164.533 234.837 172.506 244.672 172.506 H 251.534 C 261.369 172.506 269.342 164.533 269.342 154.698 V 131.102 C 269.342 121.267 261.369 113.294 251.534 113.294 Z" stroke-linecap="round"/>
</g>
		<g transform="matrix(1 0 0 1 9.3645 -52.1875)">
<path style="stroke: none; stroke-width: 1; stroke-dasharray: none; stroke-linecap: butt; stroke-dashoffset: 0; stroke-linejoin: miter; stroke-miterlimit: 4; is-custom-font: none; font-file-url: none; fill: rgb(33,33,33); fill-rule: nonzero; opacity: 1;" transform=" translate(-246.8645, -172.8125)" d="M 243.625 169.947 V 175.488 L 245.175 173.938 L 246.866 175.629 L 248.46 174.034 L 250.104 175.678 V 169.947 H 243.625 Z" stroke-linecap="round"/>
</g>
		<g transform="matrix(1 0 0 1 14.885 -53.0415)">
<path style="stroke: none; stroke-width: 1; stroke-dasharray: none; stroke-linecap: butt; stroke-dashoffset: 0; stroke-linejoin: miter; stroke-miterlimit: 4; is-custom-font: none; font-file-url: none; fill: rgb(33,33,33); fill-rule: nonzero; opacity: 1;" transform=" translate(-252.385, -171.9585)" d="M 249.296 169.536 L 250.107 174.224 L 251.391 172.94 L 252.791 174.34 L 254.112 173.019 L 255.474 174.381 V 169.632 L 249.296 169.536 Z" stroke-linecap="round"/>
</g>
		<g transform="matrix(1 0 0 1 3.6915 -53.044)">
<path style="stroke: none; stroke-width: 1; stroke-dasharray: none; stroke-linecap: butt; stroke-dashoffset: 0; stroke-linejoin: miter; stroke-miterlimit: 4; is-custom-font: none; font-file-url: none; fill: rgb(33,33,33); fill-rule: nonzero; opacity: 1;" transform=" translate(-241.1915, -171.956)" d="M 238.258 169.631 V 174.222 L 239.542 172.938 L 240.942 174.338 L 242.263 173.017 L 243.625 174.379 L 244.125 169.533 L 238.258 169.631 Z" stroke-linecap="round"/>
</g>
		<g transform="matrix(1 0 0 1 -34.2715 2.161)">
<path style="stroke: none; stroke-width: 1; stroke-dasharray: none; stroke-linecap: butt; stroke-dashoffset: 0; stroke-linejoin: miter; stroke-miterlimit: 4; is-custom-font: none; font-file-url: none; fill: rgb(254,177,135); fill-rule: nonzero; opacity: 1;" transform=" translate(-203.2285, -227.161)" d="M 198.617 221.717 L 196.234 236.525 H 210.223 V 219.867 L 200.323 217.797" stroke-linecap="round"/>
</g>
		<g transform="matrix(1 0 0 1 -34.5905 -1.775)">
<path style="stroke: none; stroke-width: 1; stroke-dasharray: none; stroke-linecap: butt; stroke-dashoffset: 0; stroke-linejoin: miter; stroke-miterlimit: 4; is-custom-font: none; font-file-url: none; fill: rgb(220,146,102); fill-rule: nonzero; opacity: 1;" transform=" translate(-202.9095, -223.225)" d="M 207.687 224.733 H 198.132 L 198.617 221.717 L 207.687 224.733 Z" stroke-linecap="round"/>
</g>
		<g transform="matrix(1 0 0 1 -29.2015 -20.3755)">
<path style="stroke: none; stroke-width: 1; stroke-dasharray: none; stroke-linecap: butt; stroke-dashoffset: 0; stroke-linejoin: miter; stroke-miterlimit: 4; is-custom-font: none; font-file-url: none; fill: rgb(0,74,66); fill-rule: nonzero; opacity: 1;" transform=" translate(-208.2985, -204.6245)" d="M 223.387 183.668 C 213.37 188.568 204.457 190.068 193.21 219.918 L 210.24 225.581 C 210.24 225.581 221.453 197.676 223.387 183.668 Z" stroke-linecap="round"/>
</g>
		<g transform="matrix(1 0 0 1 54.3145 2.161)">
<path style="stroke: none; stroke-width: 1; stroke-dasharray: none; stroke-linecap: butt; stroke-dashoffset: 0; stroke-linejoin: miter; stroke-miterlimit: 4; is-custom-font: none; font-file-url: none; fill: rgb(254,177,135); fill-rule: nonzero; opacity: 1;" transform=" translate(-291.8145, -227.161)" d="M 296.426 221.717 L 298.809 236.525 H 284.82 V 219.867 L 294.72 217.797" stroke-linecap="round"/>
</g>
		<g transform="matrix(1 0 0 1 54.6345 -1.775)">
<path style="stroke: none; stroke-width: 1; stroke-dasharray: none; stroke-linecap: butt; stroke-dashoffset: 0; stroke-linejoin: miter; stroke-miterlimit: 4; is-custom-font: none; font-file-url: none; fill: rgb(220,146,102); fill-rule: nonzero; opacity: 1;" transform=" translate(-292.1345, -223.225)" d="M 287.357 224.733 H 296.912 L 296.427 221.717 L 287.357 224.733 Z" stroke-linecap="round"/>
</g>
		<g transform="matrix(1 0 0 1 49.2405 -20.3755)">
<path style="stroke: none; stroke-width: 1; stroke-dasharray: none; stroke-linecap: butt; stroke-dashoffset: 0; stroke-linejoin: miter; stroke-miterlimit: 4; is-custom-font: none; font-file-url: none; fill: rgb(0,74,66); fill-rule: nonzero; opacity: 1;" transform=" translate(-286.7405, -204.6245)" d="M 271.652 183.668 C 281.669 188.568 290.582 190.068 301.829 219.918 L 284.799 225.581 C 284.799 225.581 273.59 197.676 271.652 183.668 Z" stroke-linecap="round"/>
</g>
		<g transform="matrix(1 0 0 1 9.9975 5.006)">
<path style="stroke: none; stroke-width: 1; stroke-dasharray: none; stroke-linecap: butt; stroke-dashoffset: 0; stroke-linejoin: miter; stroke-miterlimit: 4; is-custom-font: none; font-file-url: none; fill: rgb(0,113,100); fill-rule: nonzero; opacity: 1;" transform=" translate(-247.4975, -230.006)" d="M 252.996 281.918 H 242.003 C 223.267 281.918 211.635 273.045 211.635 252.431 L 207.935 212.161 C 207.961 203.134 211.558 194.484 217.941 188.101 C 224.324 181.718 232.973 178.12 242 178.094 H 252.993 C 262.019 178.12 270.668 181.717 277.051 188.099 C 283.434 194.482 287.033 203.13 287.06 212.157 L 281.233 249.996 C 281.235 273.784 271.733 281.918 252.996 281.918 Z" stroke-linecap="round"/>
</g>
		<g transform="matrix(1 0 0 1 9.7295 -27.286)">
<path style="stroke: none; stroke-width: 1; stroke-dasharray: none; stroke-linecap: butt; stroke-dashoffset: 0; stroke-linejoin: miter; stroke-miterlimit: 4; is-custom-font: none; font-file-url: none; fill: rgb(0,94,83); fill-rule: nonzero; opacity: 1;" transform=" translate(-247.2295, -197.714)" d="M 275.345 186.541 C 253.524 189.953 224.461 187.041 219.682 186.517 C 214.72 190.834 211.109 196.491 209.282 202.809 L 212.671 203.162 L 226.462 205.106 L 244.126 207.879 L 260.426 208.911 L 279.154 206.848 L 285.177 201.099 C 283.221 195.474 279.832 190.456 275.345 186.541 Z" stroke-linecap="round"/>
</g>
		<g transform="matrix(1 0 0 1 -6.0335 158.5389)">
<path style="stroke: none; stroke-width: 1; stroke-dasharray: none; stroke-linecap: butt; stroke-dashoffset: 0; stroke-linejoin: miter; stroke-miterlimit: 4; is-custom-font: none; font-file-url: none; fill: rgb(0,113,100); fill-rule: nonzero; opacity: 1;" transform=" translate(-231.4665, -383.5389)" d="M 221.954 384.984 C 221.954 388.012 226.213 387.553 231.467 387.553 C 236.721 387.553 240.979 388.012 240.979 384.984 C 240.979 381.956 236.72 379.5 231.467 379.5 C 226.214 379.5 221.954 381.951 221.954 384.984 Z" stroke-linecap="round"/>
</g>
		<g transform="matrix(1 0 0 1 -9.084 114.1005)">
<path style="stroke: none; stroke-width: 1; stroke-dasharray: none; stroke-linecap: butt; stroke-dashoffset: 0; stroke-linejoin: miter; stroke-miterlimit: 4; is-custom-font: none; font-file-url: none; fill: rgb(33,33,33); fill-rule: nonzero; opacity: 1;" transform=" translate(-228.416, -339.1005)" d="M 215.887 293.93 L 231.279 383.536 C 234.426 384.516 237.798 384.516 240.945 383.536 V 315.508 L 215.887 293.93 Z" stroke-linecap="round"/>
</g>
		<g transform="matrix(1 0 0 1 -7.5605 100.152)">
<path style="stroke: none; stroke-width: 1; stroke-dasharray: none; stroke-linecap: butt; stroke-dashoffset: 0; stroke-linejoin: miter; stroke-miterlimit: 4; is-custom-font: none; font-file-url: none; fill: rgb(0,0,0); fill-rule: nonzero; opacity: 1;" transform=" translate(-229.9395, -325.152)" d="M 240.946 317.01 L 240.127 315.51 L 239.222 315.379 L 218.932 313.279 L 221.923 329.064 C 224.413 329.189 235.673 323.998 240.773 337.025 L 240.947 336.125 L 240.946 317.01 Z" stroke-linecap="round"/>
</g>
		<g transform="matrix(1 0 0 1 27.127 158.5389)">
<path style="stroke: none; stroke-width: 1; stroke-dasharray: none; stroke-linecap: butt; stroke-dashoffset: 0; stroke-linejoin: miter; stroke-miterlimit: 4; is-custom-font: none; font-file-url: none; fill: rgb(0,113,100); fill-rule: nonzero; opacity: 1;" transform=" translate(-264.627, -383.5389)" d="M 274.139 384.984 C 274.139 388.012 269.881 387.553 264.628 387.553 C 259.375 387.553 255.115 388.012 255.115 384.984 C 255.115 381.956 259.374 379.5 264.628 379.5 C 269.882 379.5 274.139 381.951 274.139 384.984 Z" stroke-linecap="round"/>
</g>
		<g transform="matrix(1 0 0 1 30.178 114.1025)">
<path style="stroke: none; stroke-width: 1; stroke-dasharray: none; stroke-linecap: butt; stroke-dashoffset: 0; stroke-linejoin: miter; stroke-miterlimit: 4; is-custom-font: none; font-file-url: none; fill: rgb(33,33,33); fill-rule: nonzero; opacity: 1;" transform=" translate(-267.678, -339.1025)" d="M 280.208 293.93 L 264.816 383.54 C 261.668 384.52 258.296 384.52 255.148 383.54 V 315.508 L 280.208 293.93 Z" stroke-linecap="round"/>
</g>
		<g transform="matrix(1 0 0 1 28.6555 100.152)">
<path style="stroke: none; stroke-width: 1; stroke-dasharray: none; stroke-linecap: butt; stroke-dashoffset: 0; stroke-linejoin: miter; stroke-miterlimit: 4; is-custom-font: none; font-file-url: none; fill: rgb(0,0,0); fill-rule: nonzero; opacity: 1;" transform=" translate(-266.1555, -325.152)" d="M 255.148 317.01 L 255.969 315.51 L 256.874 315.379 L 277.163 313.279 L 274.173 329.064 C 271.683 329.189 260.423 323.998 255.323 337.025 L 255.148 336.125 V 317.01 Z" stroke-linecap="round"/>
</g>
		<g transform="matrix(1 0 0 1 10.528 117.2895)">
<path style="stroke: none; stroke-width: 1; stroke-dasharray: none; stroke-linecap: butt; stroke-dashoffset: 0; stroke-linejoin: miter; stroke-miterlimit: 4; is-custom-font: none; font-file-url: none; fill: rgb(0,137,121); fill-rule: nonzero; opacity: 1;" transform=" translate(-248.028, -342.2895)" d="M 245.588 313.09 V 371.489 C 245.588 372.267 246.219 372.898 246.997 372.898 H 249.059 C 249.837 372.898 250.468 372.267 250.468 371.489 V 313.09 C 250.468 312.312 249.837 311.681 249.059 311.681 H 246.997 C 246.219 311.681 245.588 312.312 245.588 313.09 Z" stroke-linecap="round"/>
</g>
		<g transform="matrix(1 0 0 1 10.5285 99.845)">
<path style="stroke: none; stroke-width: 1; stroke-dasharray: none; stroke-linecap: butt; stroke-dashoffset: 0; stroke-linejoin: miter; stroke-miterlimit: 4; is-custom-font: none; font-file-url: none; fill: rgb(0,180,160); fill-rule: nonzero; opacity: 1;" transform=" translate(-248.0285, -324.845)" d="M 246.736 309.998 H 250.651 C 252.078 309.998 253.447 310.565 254.456 311.574 C 255.465 312.583 256.032 313.952 256.032 315.379 V 332.979 C 256.033 334.758 255.326 336.465 254.069 337.724 C 252.811 338.983 251.105 339.691 249.325 339.692 H 246.736 C 244.956 339.692 243.249 338.985 241.991 337.726 C 240.732 336.468 240.025 334.761 240.025 332.981 V 316.709 C 240.025 314.929 240.732 313.222 241.991 311.963 C 243.249 310.705 244.956 309.998 246.736 309.998 V 309.998 Z" stroke-linecap="round"/>
</g>
		<g transform="matrix(1 0 0 1 10.5475 89.532)">
<path style="stroke: none; stroke-width: 1; stroke-dasharray: none; stroke-linecap: butt; stroke-dashoffset: 0; stroke-linejoin: miter; stroke-miterlimit: 4; is-custom-font: none; font-file-url: none; fill: rgb(0,113,100); fill-rule: nonzero; opacity: 0.65;" transform=" translate(-248.0475, -314.532)" d="M 256.033 318.227 C 253.518 317.113 250.798 316.538 248.047 316.538 C 245.297 316.538 242.577 317.113 240.062 318.227 V 312.527 C 242.577 311.413 245.297 310.837 248.047 310.837 C 250.798 310.837 253.518 311.413 256.033 312.527 V 318.227 Z" stroke-linecap="round"/>
</g>
		<g transform="matrix(1 0 0 1 -42.1345 45.4715)">
<path style="stroke: none; stroke-width: 1; stroke-dasharray: none; stroke-linecap: butt; stroke-dashoffset: 0; stroke-linejoin: miter; stroke-miterlimit: 4; is-custom-font: none; font-file-url: none; fill: rgb(0,113,100); fill-rule: nonzero; opacity: 1;" transform=" translate(-195.3655, -270.4715)" d="M 211.388 295.062 H 201.227 C 194.823 295.058 188.674 292.556 184.086 288.088 C 179.498 283.62 176.834 277.539 176.66 271.137 C 176.487 264.736 178.817 258.519 183.156 253.809 C 187.495 249.099 193.5 246.268 199.894 245.917 C 200.041 245.893 200.189 245.881 200.338 245.881 H 201.228 C 201.946 245.894 202.631 246.189 203.134 246.702 C 203.637 247.215 203.919 247.905 203.919 248.623 C 203.919 249.342 203.637 250.031 203.134 250.544 C 202.631 251.057 201.946 251.352 201.228 251.366 C 196.161 251.366 191.301 253.379 187.718 256.962 C 184.135 260.545 182.122 265.404 182.122 270.471 C 182.122 275.538 184.135 280.398 187.718 283.981 C 191.301 287.564 196.161 289.577 201.228 289.577 H 211.389 C 212.107 289.59 212.792 289.885 213.295 290.398 C 213.798 290.911 214.08 291.601 214.08 292.319 C 214.08 293.038 213.798 293.727 213.295 294.24 C 212.792 294.753 212.107 295.048 211.389 295.062 H 211.388 Z" stroke-linecap="round"/>
</g>
		<g transform="matrix(1 0 0 1 -38.107 22.732)">
<path style="stroke: none; stroke-width: 1; stroke-dasharray: none; stroke-linecap: butt; stroke-dashoffset: 0; stroke-linejoin: miter; stroke-miterlimit: 4; is-custom-font: none; font-file-url: none; fill: rgb(0,155,137); fill-rule: nonzero; opacity: 1;" transform=" translate(-199.393, -247.732)" d="M 204.556 243.149 H 194.23 C 192.108 243.149 190.387 244.869 190.387 246.992 V 248.472 C 190.387 250.594 192.108 252.315 194.23 252.315 H 204.556 C 206.678 252.315 208.399 250.594 208.399 248.472 V 246.992 C 208.399 244.869 206.678 243.149 204.556 243.149 Z" stroke-linecap="round"/>
</g>
		<g transform="matrix(1 0 0 1 -38.107 20.5735)">
<path style="stroke: none; stroke-width: 1; stroke-dasharray: none; stroke-linecap: butt; stroke-dashoffset: 0; stroke-linejoin: miter; stroke-miterlimit: 4; is-custom-font: none; font-file-url: none; fill: rgb(0,113,100); fill-rule: nonzero; opacity: 1;" transform=" translate(-199.393, -245.5735)" d="M 194.97 243.676 H 203.816 C 204.983 243.681 206.103 244.131 206.95 244.933 C 207.796 245.736 208.305 246.831 208.373 247.996 C 208.373 247.908 208.399 247.823 208.399 247.733 C 208.394 246.519 207.91 245.356 207.051 244.498 C 206.193 243.639 205.03 243.155 203.816 243.151 H 194.97 C 193.756 243.155 192.593 243.639 191.735 244.498 C 190.876 245.356 190.392 246.519 190.387 247.733 C 190.387 247.824 190.408 247.908 190.414 247.996 C 190.481 246.831 190.99 245.736 191.836 244.933 C 192.683 244.131 193.803 243.681 194.97 243.676 Z" stroke-linecap="round"/>
</g>
		<g transform="matrix(1 0 0 1 62.013 45.4713)">
<path style="stroke: none; stroke-width: 1; stroke-dasharray: none; stroke-linecap: butt; stroke-dashoffset: 0; stroke-linejoin: miter; stroke-miterlimit: 4; is-custom-font: none; font-file-url: none; fill: rgb(0,113,100); fill-rule: nonzero; opacity: 1;" transform=" translate(-299.513, -270.4712)" d="M 283.49 295.062 H 293.651 C 300.055 295.058 306.204 292.556 310.792 288.088 C 315.38 283.62 318.044 277.539 318.218 271.137 C 318.391 264.736 316.061 258.519 311.722 253.809 C 307.383 249.099 301.378 246.268 294.984 245.917 C 294.837 245.893 294.689 245.881 294.54 245.881 H 293.65 C 293.285 245.874 292.923 245.94 292.584 246.074 C 292.245 246.209 291.937 246.41 291.677 246.665 C 291.416 246.921 291.21 247.225 291.068 247.561 C 290.927 247.898 290.855 248.259 290.855 248.623 C 290.855 248.988 290.927 249.349 291.068 249.685 C 291.21 250.021 291.416 250.326 291.677 250.581 C 291.937 250.837 292.245 251.037 292.584 251.172 C 292.923 251.307 293.285 251.373 293.65 251.366 C 298.717 251.366 303.577 253.379 307.16 256.962 C 310.743 260.545 312.755 265.404 312.755 270.471 C 312.755 275.538 310.743 280.398 307.16 283.981 C 303.577 287.564 298.717 289.577 293.65 289.577 H 283.49 C 282.772 289.59 282.087 289.885 281.584 290.398 C 281.081 290.911 280.799 291.601 280.799 292.319 C 280.799 293.038 281.081 293.727 281.584 294.24 C 282.087 294.753 282.772 295.048 283.49 295.062 Z" stroke-linecap="round"/>
</g>
		<g transform="matrix(1 0 0 1 57.985 22.732)">
<path style="stroke: none; stroke-width: 1; stroke-dasharray: none; stroke-linecap: butt; stroke-dashoffset: 0; stroke-linejoin: miter; stroke-miterlimit: 4; is-custom-font: none; font-file-url: none; fill: rgb(0,155,137); fill-rule: nonzero; opacity: 1;" transform=" translate(-295.485, -247.732)" d="M 300.648 243.149 H 290.322 C 288.2 243.149 286.479 244.869 286.479 246.992 V 248.472 C 286.479 250.594 288.2 252.315 290.322 252.315 H 300.648 C 302.77 252.315 304.491 250.594 304.491 248.472 V 246.992 C 304.491 244.869 302.77 243.149 300.648 243.149 Z" stroke-linecap="round"/>
</g>
		<g transform="matrix(1 0 0 1 57.985 20.5725)">
<path style="stroke: none; stroke-width: 1; stroke-dasharray: none; stroke-linecap: butt; stroke-dashoffset: 0; stroke-linejoin: miter; stroke-miterlimit: 4; is-custom-font: none; font-file-url: none; fill: rgb(0,113,100); fill-rule: nonzero; opacity: 1;" transform=" translate(-295.485, -245.5725)" d="M 299.908 243.675 H 291.062 C 289.895 243.68 288.775 244.13 287.928 244.932 C 287.082 245.735 286.573 246.83 286.505 247.995 C 286.505 247.907 286.479 247.822 286.479 247.732 C 286.484 246.518 286.968 245.355 287.827 244.497 C 288.685 243.638 289.848 243.154 291.062 243.15 H 299.908 C 301.122 243.154 302.285 243.638 303.143 244.497 C 304.002 245.355 304.486 246.518 304.491 247.732 C 304.491 247.823 304.469 247.907 304.464 247.995 C 304.397 246.83 303.888 245.735 303.042 244.932 C 302.195 244.13 301.075 243.68 299.908 243.675 Z" stroke-linecap="round"/>
</g>
		<g transform="matrix(1 0 0 1 10.528 73.3445)">
<path style="stroke: none; stroke-width: 1; stroke-dasharray: none; stroke-linecap: butt; stroke-dashoffset: 0; stroke-linejoin: miter; stroke-miterlimit: 4; is-custom-font: none; font-file-url: none; fill: rgb(0,155,137); fill-rule: nonzero; opacity: 1;" transform=" translate(-248.028, -298.3445)" d="M 208.348 287.322 H 287.709 C 289.156 287.322 290.59 287.607 291.927 288.161 C 293.264 288.715 294.48 289.527 295.503 290.55 C 296.527 291.574 297.339 292.789 297.892 294.126 C 298.446 295.463 298.731 296.897 298.731 298.344 C 298.731 299.792 298.446 301.225 297.892 302.562 C 297.339 303.9 296.527 305.115 295.503 306.138 C 294.48 307.162 293.264 307.974 291.927 308.528 C 290.59 309.082 289.156 309.367 287.709 309.367 H 208.348 C 205.425 309.367 202.621 308.205 200.554 306.138 C 198.487 304.071 197.325 301.268 197.325 298.344 C 197.325 295.421 198.487 292.617 200.554 290.55 C 202.621 288.483 205.425 287.322 208.348 287.322 V 287.322 Z" stroke-linecap="round"/>
</g>
		<g transform="matrix(1 0 0 1 10.5285 68.092)">
<path style="stroke: none; stroke-width: 1; stroke-dasharray: none; stroke-linecap: butt; stroke-dashoffset: 0; stroke-linejoin: miter; stroke-miterlimit: 4; is-custom-font: none; font-file-url: none; fill: rgb(0,113,100); fill-rule: nonzero; opacity: 1;" transform=" translate(-248.0285, -293.092)" d="M 208.346 288.355 H 287.707 C 290.537 288.364 293.256 289.458 295.303 291.413 C 297.35 293.368 298.568 296.034 298.707 298.861 C 298.715 298.689 298.733 298.519 298.733 298.345 C 298.724 295.424 297.56 292.626 295.495 290.561 C 293.43 288.495 290.632 287.331 287.711 287.323 H 208.346 C 205.425 287.331 202.627 288.495 200.562 290.561 C 198.497 292.626 197.333 295.424 197.324 298.345 C 197.324 298.519 197.342 298.69 197.35 298.861 C 197.489 296.034 198.706 293.369 200.752 291.414 C 202.798 289.46 205.516 288.364 208.346 288.355 Z" stroke-linecap="round"/>
</g>
		<g transform="matrix(1 0 0 1 10.5265 9.1735)">
<path style="stroke: none; stroke-width: 1; stroke-dasharray: none; stroke-linecap: butt; stroke-dashoffset: 0; stroke-linejoin: miter; stroke-miterlimit: 4; is-custom-font: none; font-file-url: none; fill: rgb(0,155,137); fill-rule: nonzero; opacity: 1;" transform=" translate(-248.0265, -234.1735)" d="M 261.477 277.454 H 232.847 C 227.339 277.438 222.06 275.242 218.165 271.347 C 214.27 267.452 212.075 262.174 212.059 256.666 L 206.859 211.681 C 206.875 206.172 209.07 200.894 212.965 196.999 C 216.86 193.104 222.139 190.909 227.647 190.893 H 268.406 C 273.914 190.909 279.193 193.104 283.088 196.999 C 286.983 200.894 289.178 206.172 289.194 211.681 L 282.265 256.666 C 282.249 262.174 280.054 267.452 276.159 271.348 C 272.264 275.243 266.985 277.438 261.477 277.454 Z" stroke-linecap="round"/>
</g>
		<g transform="matrix(1 0 0 1 10.528 -23.554)">
<path style="stroke: none; stroke-width: 1; stroke-dasharray: none; stroke-linecap: butt; stroke-dashoffset: 0; stroke-linejoin: miter; stroke-miterlimit: 4; is-custom-font: none; font-file-url: none; fill: rgb(3,194,172); fill-rule: nonzero; opacity: 1;" transform=" translate(-248.028, -201.446)" d="M 227.651 191.767 H 268.406 C 273.806 191.785 278.988 193.898 282.86 197.662 C 286.732 201.426 288.992 206.546 289.163 211.944 L 289.194 211.68 C 289.178 206.171 286.983 200.893 283.088 196.998 C 279.193 193.103 273.914 190.908 268.406 190.892 H 227.651 C 222.143 190.908 216.864 193.103 212.969 196.998 C 209.074 200.893 206.878 206.171 206.862 211.68 L 206.891 212 C 207.048 206.592 209.302 201.458 213.176 197.682 C 217.05 193.906 222.241 191.785 227.651 191.767 Z" stroke-linecap="round"/>
</g>
		<g transform="matrix(1 0 0 1 10.5285 83.6455)">
<path style="stroke: none; stroke-width: 1; stroke-dasharray: none; stroke-linecap: butt; stroke-dashoffset: 0; stroke-linejoin: miter; stroke-miterlimit: 4; is-custom-font: none; font-file-url: none; fill: rgb(0,113,100); fill-rule: nonzero; opacity: 1;" transform=" translate(-248.0285, -308.6455)" d="M 283.826 303.77 H 212.231 C 209.973 303.77 208.143 305.6 208.143 307.858 V 309.433 C 208.143 311.69 209.973 313.521 212.231 313.521 H 283.826 C 286.084 313.521 287.914 311.69 287.914 309.433 V 307.858 C 287.914 305.6 286.084 303.77 283.826 303.77 Z" stroke-linecap="round"/>
</g>
		<g transform="matrix(1 0 0 1 10.5285 93.2275)">
<path style="stroke: none; stroke-width: 1; stroke-dasharray: none; stroke-linecap: butt; stroke-dashoffset: 0; stroke-linejoin: miter; stroke-miterlimit: 4; is-custom-font: none; font-file-url: none; fill: rgb(0,113,100); fill-rule: nonzero; opacity: 1;" transform=" translate(-248.0285, -318.2275)" d="M 266.442 313.352 H 229.615 C 228.061 313.352 226.801 314.612 226.801 316.166 V 320.289 C 226.801 321.843 228.061 323.103 229.615 323.103 H 266.442 C 267.996 323.103 269.256 321.843 269.256 320.289 V 316.166 C 269.256 314.612 267.996 313.352 266.442 313.352 Z" stroke-linecap="round"/>
</g>
		<g transform="matrix(1 0 0 1 10.5295 81.285)">
<path style="stroke: none; stroke-width: 1; stroke-dasharray: none; stroke-linecap: butt; stroke-dashoffset: 0; stroke-linejoin: miter; stroke-miterlimit: 4; is-custom-font: none; font-file-url: none; fill: rgb(0,55,48); fill-rule: nonzero; opacity: 1;" transform=" translate(-248.0295, -306.285)" d="M 213.019 304.081 H 283.039 C 284.302 304.086 285.515 304.58 286.421 305.461 C 287.327 306.341 287.857 307.538 287.899 308.801 C 287.899 308.747 287.915 308.701 287.915 308.645 C 287.911 307.353 287.396 306.115 286.482 305.201 C 285.569 304.288 284.331 303.773 283.039 303.769 H 213.019 C 211.727 303.773 210.489 304.288 209.576 305.201 C 208.662 306.115 208.148 307.353 208.144 308.645 C 208.144 308.699 208.158 308.745 208.16 308.801 C 208.202 307.538 208.732 306.341 209.638 305.461 C 210.544 304.581 211.756 304.086 213.019 304.081 Z" stroke-linecap="round"/>
</g>
		<g transform="matrix(1 0 0 1 10.528 88.723)">
<path style="stroke: none; stroke-width: 1; stroke-dasharray: none; stroke-linecap: butt; stroke-dashoffset: 0; stroke-linejoin: miter; stroke-miterlimit: 4; is-custom-font: none; font-file-url: none; fill: rgb(0,137,121); fill-rule: nonzero; opacity: 1;" transform=" translate(-248.028, -313.723)" d="M 279.189 311.283 H 216.867 C 215.737 311.283 214.821 312.199 214.821 313.329 V 314.117 C 214.821 315.247 215.737 316.163 216.867 316.163 H 279.189 C 280.319 316.163 281.235 315.247 281.235 314.117 V 313.329 C 281.235 312.199 280.319 311.283 279.189 311.283 Z" stroke-linecap="round"/>
</g>
		<g transform="matrix(1 0 0 1 10.5285 87.5425)">
<path style="stroke: none; stroke-width: 1; stroke-dasharray: none; stroke-linecap: butt; stroke-dashoffset: 0; stroke-linejoin: miter; stroke-miterlimit: 4; is-custom-font: none; font-file-url: none; fill: rgb(0,39,34); fill-rule: nonzero; opacity: 1;" transform=" translate(-248.0285, -312.5425)" d="M 217.262 311.441 H 278.795 C 279.427 311.443 280.034 311.691 280.487 312.131 C 280.941 312.571 281.206 313.17 281.227 313.802 C 281.227 313.776 281.235 313.751 281.235 313.723 C 281.233 313.076 280.975 312.457 280.518 312 C 280.061 311.543 279.441 311.285 278.795 311.283 H 217.262 C 216.615 311.285 215.996 311.542 215.539 311.999 C 215.081 312.457 214.824 313.076 214.822 313.723 C 214.822 313.75 214.829 313.775 214.829 313.802 C 214.85 313.17 215.116 312.571 215.57 312.131 C 216.023 311.691 216.63 311.443 217.262 311.441 Z" stroke-linecap="round"/>
</g>
		<g transform="matrix(1 0 0 1 10.529 145.679)">
<path style="stroke: none; stroke-width: 1; stroke-dasharray: none; stroke-linecap: butt; stroke-dashoffset: 0; stroke-linejoin: miter; stroke-miterlimit: 4; is-custom-font: none; font-file-url: none; fill: rgb(0,180,160); fill-rule: nonzero; opacity: 1;" transform=" translate(-248.029, -370.679)" d="M 243.59 376.688 V 369.109 C 243.593 367.932 244.062 366.805 244.894 365.974 C 245.726 365.142 246.853 364.673 248.029 364.67 C 249.205 364.673 250.332 365.142 251.164 365.974 C 251.996 366.805 252.465 367.932 252.468 369.109 V 376.688" stroke-linecap="round"/>
</g>
		<g transform="matrix(1 0 0 1 11.4073 154.511)">
<path style="stroke: none; stroke-width: 1; stroke-dasharray: none; stroke-linecap: butt; stroke-dashoffset: 0; stroke-linejoin: miter; stroke-miterlimit: 4; is-custom-font: none; font-file-url: none; fill: rgb(0,137,121); fill-rule: nonzero; opacity: 1;" transform=" translate(-248.9074, -379.511)" d="M 214.832 384.912 C 214.436 384.912 214.051 384.777 213.743 384.528 C 213.434 384.279 213.22 383.932 213.137 383.545 C 213.053 383.157 213.105 382.753 213.284 382.399 C 213.462 382.045 213.757 381.764 214.118 381.601 C 225.055 376.663 236.918 374.11 248.918 374.11 C 260.918 374.11 272.781 376.663 283.718 381.601 C 284.131 381.793 284.451 382.141 284.609 382.568 C 284.767 382.995 284.751 383.467 284.564 383.883 C 284.376 384.298 284.033 384.622 283.608 384.786 C 283.183 384.95 282.711 384.94 282.293 384.758 C 271.803 380.024 260.426 377.576 248.918 377.576 C 237.41 377.576 226.033 380.024 215.543 384.758 C 215.32 384.859 215.077 384.912 214.832 384.912 Z" stroke-linecap="round"/>
</g>
		<g transform="matrix(1 0 0 1 10.8755 150.766)">
<path style="stroke: none; stroke-width: 1; stroke-dasharray: none; stroke-linecap: butt; stroke-dashoffset: 0; stroke-linejoin: miter; stroke-miterlimit: 4; is-custom-font: none; font-file-url: none; fill: rgb(0,113,100); fill-rule: nonzero; opacity: 1;" transform=" translate(-248.3755, -375.766)" d="M 254.377 372.898 H 242.374 C 241.46 372.898 240.719 373.639 240.719 374.553 V 376.979 C 240.719 377.893 241.46 378.634 242.374 378.634 H 254.377 C 255.291 378.634 256.032 377.893 256.032 376.979 V 374.553 C 256.032 373.639 255.291 372.898 254.377 372.898 Z" stroke-linecap="round"/>
</g>
		<g transform="matrix(1 0 0 1 10.8725 158.454)">
<path style="stroke: none; stroke-width: 1; stroke-dasharray: none; stroke-linecap: butt; stroke-dashoffset: 0; stroke-linejoin: miter; stroke-miterlimit: 4; is-custom-font: none; font-file-url: none; fill: rgb(0,137,121); fill-rule: nonzero; opacity: 1;" transform=" translate(-248.3725, -383.454)" d="M 248.57 375.766 H 248.175 C 247.611 375.766 247.153 376.223 247.153 376.788 V 390.12 C 247.153 390.684 247.611 391.142 248.175 391.142 H 248.57 C 249.134 391.142 249.592 390.684 249.592 390.12 V 376.788 C 249.592 376.223 249.134 375.766 248.57 375.766 Z" stroke-linecap="round"/>
</g>
		<g transform="matrix(1 0 0 1 10.8755 167.537)">
<path style="stroke: none; stroke-width: 1; stroke-dasharray: none; stroke-linecap: butt; stroke-dashoffset: 0; stroke-linejoin: miter; stroke-miterlimit: 4; is-custom-font: none; font-file-url: none; fill: rgb(0,113,100); fill-rule: nonzero; opacity: 1;" transform=" translate(-248.3755, -392.537)" d="M 248.376 386.135 C 249.253 386.135 250.093 386.483 250.713 387.103 C 251.333 387.723 251.681 388.564 251.681 389.441 V 395.691 C 251.666 396.557 251.311 397.384 250.692 397.991 C 250.074 398.599 249.242 398.939 248.375 398.939 C 247.508 398.939 246.676 398.598 246.058 397.99 C 245.44 397.383 245.085 396.556 245.07 395.69 V 389.441 C 245.07 388.564 245.418 387.723 246.038 387.103 C 246.658 386.483 247.499 386.135 248.376 386.135 Z" stroke-linecap="round"/>
</g>
		<g transform="matrix(1 0 0 1 48.499 161.862)">
<path style="stroke: none; stroke-width: 1; stroke-dasharray: none; stroke-linecap: butt; stroke-dashoffset: 0; stroke-linejoin: miter; stroke-miterlimit: 4; is-custom-font: none; font-file-url: none; fill: rgb(0,113,100); fill-rule: nonzero; opacity: 1;" transform=" translate(-285.999, -386.862)" d="M 285.999 393.102 C 289.445 393.102 292.239 390.308 292.239 386.862 C 292.239 383.415 289.445 380.622 285.999 380.622 C 282.553 380.622 279.759 383.415 279.759 386.862 C 279.759 390.308 282.553 393.102 285.999 393.102 Z" stroke-linecap="round"/>
</g>
		<g transform="matrix(1 0 0 1 48.499 158.782)">
<path style="stroke: none; stroke-width: 1; stroke-dasharray: none; stroke-linecap: butt; stroke-dashoffset: 0; stroke-linejoin: miter; stroke-miterlimit: 4; is-custom-font: none; font-file-url: none; fill: rgb(0,113,100); fill-rule: nonzero; opacity: 1;" transform=" translate(-285.999, -383.782)" d="M 285.999 380.781 C 287.639 380.781 289.213 381.428 290.38 382.582 C 291.546 383.735 292.212 385.301 292.231 386.942 C 292.231 386.915 292.239 386.89 292.239 386.862 C 292.239 385.207 291.582 383.62 290.411 382.449 C 289.241 381.279 287.654 380.622 285.999 380.622 C 284.344 380.622 282.757 381.279 281.587 382.449 C 280.416 383.62 279.759 385.207 279.759 386.862 C 279.759 386.889 279.767 386.915 279.767 386.942 C 279.787 385.302 280.452 383.735 281.618 382.582 C 282.785 381.429 284.359 380.782 285.999 380.781 Z" stroke-linecap="round"/>
</g>
		<g transform="matrix(1 0 0 1 48.499 161.862)">
<path style="stroke: none; stroke-width: 1; stroke-dasharray: none; stroke-linecap: butt; stroke-dashoffset: 0; stroke-linejoin: miter; stroke-miterlimit: 4; is-custom-font: none; font-file-url: none; fill: rgb(0,155,137); fill-rule: nonzero; opacity: 1;" transform=" translate(-285.999, -386.862)" d="M 285.999 390.583 C 288.054 390.583 289.72 388.917 289.72 386.862 C 289.72 384.807 288.054 383.141 285.999 383.141 C 283.944 383.141 282.278 384.807 282.278 386.862 C 282.278 388.917 283.944 390.583 285.999 390.583 Z" stroke-linecap="round"/>
</g>
		<g transform="matrix(1 0 0 1 48.499 161.862)">
<path style="stroke: none; stroke-width: 1; stroke-dasharray: none; stroke-linecap: butt; stroke-dashoffset: 0; stroke-linejoin: miter; stroke-miterlimit: 4; is-custom-font: none; font-file-url: none; fill: rgb(0,137,121); fill-rule: nonzero; opacity: 1;" transform=" translate(-285.999, -386.862)" d="M 285.999 388.356 C 286.824 388.356 287.493 387.687 287.493 386.862 C 287.493 386.037 286.824 385.368 285.999 385.368 C 285.174 385.368 284.505 386.037 284.505 386.862 C 284.505 387.687 285.174 388.356 285.999 388.356 Z" stroke-linecap="round"/>
</g>
		<g transform="matrix(1 0 0 1 48.499 161.1325)">
<path style="stroke: none; stroke-width: 1; stroke-dasharray: none; stroke-linecap: butt; stroke-dashoffset: 0; stroke-linejoin: miter; stroke-miterlimit: 4; is-custom-font: none; font-file-url: none; fill: rgb(4,4,4); fill-rule: nonzero; opacity: 1;" transform=" translate(-285.999, -386.1325)" d="M 285.999 385.448 C 286.387 385.449 286.759 385.601 287.036 385.872 C 287.314 386.143 287.475 386.511 287.485 386.899 C 287.485 386.886 287.493 386.874 287.493 386.86 C 287.493 386.463 287.336 386.083 287.055 385.803 C 286.775 385.523 286.395 385.366 285.999 385.366 C 285.603 385.366 285.223 385.523 284.943 385.803 C 284.662 386.083 284.505 386.463 284.505 386.86 C 284.505 386.874 284.512 386.886 284.512 386.899 C 284.522 386.511 284.683 386.142 284.961 385.871 C 285.239 385.6 285.611 385.448 285.999 385.448 Z" stroke-linecap="round"/>
</g>
		<g transform="matrix(1 0 0 1 -24.401 161.862)">
<path style="stroke: none; stroke-width: 1; stroke-dasharray: none; stroke-linecap: butt; stroke-dashoffset: 0; stroke-linejoin: miter; stroke-miterlimit: 4; is-custom-font: none; font-file-url: none; fill: rgb(0,113,100); fill-rule: nonzero; opacity: 1;" transform=" translate(-213.099, -386.862)" d="M 213.099 393.102 C 216.545 393.102 219.339 390.308 219.339 386.862 C 219.339 383.415 216.545 380.622 213.099 380.622 C 209.653 380.622 206.859 383.415 206.859 386.862 C 206.859 390.308 209.653 393.102 213.099 393.102 Z" stroke-linecap="round"/>
</g>
		<g transform="matrix(1 0 0 1 -24.401 158.782)">
<path style="stroke: none; stroke-width: 1; stroke-dasharray: none; stroke-linecap: butt; stroke-dashoffset: 0; stroke-linejoin: miter; stroke-miterlimit: 4; is-custom-font: none; font-file-url: none; fill: rgb(0,137,121); fill-rule: nonzero; opacity: 1;" transform=" translate(-213.099, -383.782)" d="M 213.099 380.781 C 214.739 380.781 216.313 381.428 217.48 382.582 C 218.646 383.735 219.312 385.301 219.331 386.942 C 219.331 386.915 219.339 386.89 219.339 386.862 C 219.339 385.207 218.682 383.62 217.511 382.449 C 216.341 381.279 214.754 380.622 213.099 380.622 C 211.444 380.622 209.857 381.279 208.687 382.449 C 207.516 383.62 206.859 385.207 206.859 386.862 C 206.859 386.889 206.867 386.915 206.867 386.942 C 206.887 385.302 207.552 383.735 208.718 382.582 C 209.885 381.429 211.459 380.782 213.099 380.781 Z" stroke-linecap="round"/>
</g>
		<g transform="matrix(1 0 0 1 -24.401 161.862)">
<path style="stroke: none; stroke-width: 1; stroke-dasharray: none; stroke-linecap: butt; stroke-dashoffset: 0; stroke-linejoin: miter; stroke-miterlimit: 4; is-custom-font: none; font-file-url: none; fill: rgb(0,155,137); fill-rule: nonzero; opacity: 1;" transform=" translate(-213.099, -386.862)" d="M 213.099 390.583 C 215.154 390.583 216.82 388.917 216.82 386.862 C 216.82 384.807 215.154 383.141 213.099 383.141 C 211.044 383.141 209.378 384.807 209.378 386.862 C 209.378 388.917 211.044 390.583 213.099 390.583 Z" stroke-linecap="round"/>
</g>
		<g transform="matrix(1 0 0 1 -24.401 161.862)">
<path style="stroke: none; stroke-width: 1; stroke-dasharray: none; stroke-linecap: butt; stroke-dashoffset: 0; stroke-linejoin: miter; stroke-miterlimit: 4; is-custom-font: none; font-file-url: none; fill: rgb(0,137,121); fill-rule: nonzero; opacity: 1;" transform=" translate(-213.099, -386.862)" d="M 213.099 388.356 C 213.924 388.356 214.593 387.687 214.593 386.862 C 214.593 386.037 213.924 385.368 213.099 385.368 C 212.274 385.368 211.605 386.037 211.605 386.862 C 211.605 387.687 212.274 388.356 213.099 388.356 Z" stroke-linecap="round"/>
</g>
		<g transform="matrix(1 0 0 1 -24.4005 161.1515)">
<path style="stroke: none; stroke-width: 1; stroke-dasharray: none; stroke-linecap: butt; stroke-dashoffset: 0; stroke-linejoin: miter; stroke-miterlimit: 4; is-custom-font: none; font-file-url: none; fill: rgb(4,4,4); fill-rule: nonzero; opacity: 1;" transform=" translate(-213.0995, -386.1515)" d="M 213.099 385.448 C 213.487 385.449 213.859 385.601 214.136 385.872 C 214.414 386.143 214.575 386.511 214.585 386.899 C 214.585 386.886 214.593 386.874 214.593 386.86 C 214.583 386.47 214.421 386.1 214.142 385.828 C 213.863 385.557 213.489 385.404 213.099 385.404 C 212.71 385.404 212.336 385.557 212.057 385.828 C 211.778 386.1 211.616 386.47 211.606 386.86 C 211.606 386.874 211.613 386.886 211.613 386.899 C 211.623 386.511 211.784 386.143 212.062 385.872 C 212.339 385.601 212.711 385.449 213.099 385.448 Z" stroke-linecap="round"/>
</g>
		<g transform="matrix(1 0 0 1 10.5285 4.6585)">
<path style="stroke: none; stroke-width: 1; stroke-dasharray: none; stroke-linecap: butt; stroke-dashoffset: 0; stroke-linejoin: miter; stroke-miterlimit: 4; is-custom-font: none; font-file-url: none; fill: rgb(0,113,100); fill-rule: nonzero; opacity: 1;" transform=" translate(-248.0285, -229.6585)" d="M 260.721 219.479 H 235.336 C 230.622 219.479 226.801 223.3 226.801 228.014 V 231.303 C 226.801 236.016 230.622 239.838 235.336 239.838 H 260.721 C 265.435 239.838 269.256 236.016 269.256 231.303 V 228.014 C 269.256 223.3 265.435 219.479 260.721 219.479 Z" stroke-linecap="round"/>
</g>
		<g transform="matrix(1 0 0 1 10.528 -0.3475)">
<path style="stroke: none; stroke-width: 1; stroke-dasharray: none; stroke-linecap: butt; stroke-dashoffset: 0; stroke-linejoin: miter; stroke-miterlimit: 4; is-custom-font: none; font-file-url: none; fill: rgb(0,62,55); fill-rule: nonzero; opacity: 1;" transform=" translate(-248.028, -224.6525)" d="M 259.078 219.479 H 236.978 C 234.281 219.487 231.697 220.562 229.789 222.469 C 227.882 224.376 226.807 226.961 226.799 229.658 C 226.799 229.715 226.806 229.77 226.807 229.826 C 226.858 227.159 227.951 224.618 229.852 222.747 C 231.753 220.876 234.311 219.823 236.978 219.815 H 259.078 C 261.745 219.823 264.303 220.876 266.204 222.747 C 268.105 224.618 269.198 227.159 269.249 229.826 C 269.249 229.77 269.257 229.715 269.257 229.658 C 269.249 226.961 268.174 224.376 266.267 222.469 C 264.36 220.562 261.775 219.487 259.078 219.479 Z" stroke-linecap="round"/>
</g>
		<g transform="matrix(1 0 0 1 10.529 42.9105)">
<path style="stroke: none; stroke-width: 1; stroke-dasharray: none; stroke-linecap: butt; stroke-dashoffset: 0; stroke-linejoin: miter; stroke-miterlimit: 4; is-custom-font: none; font-file-url: none; fill: rgb(0,88,78); fill-rule: nonzero; opacity: 1;" transform=" translate(-248.029, -267.9105)" d="M 250.072 227.176 H 245.986 C 244.446 227.176 243.197 228.424 243.197 229.965 V 305.856 C 243.197 307.396 244.446 308.645 245.986 308.645 H 250.072 C 251.612 308.645 252.861 307.396 252.861 305.856 V 229.965 C 252.861 228.424 251.612 227.176 250.072 227.176 Z" stroke-linecap="round"/>
</g>
		<g transform="matrix(1 0 0 1 10.5285 8.304)">
<path style="stroke: none; stroke-width: 1; stroke-dasharray: none; stroke-linecap: butt; stroke-dashoffset: 0; stroke-linejoin: miter; stroke-miterlimit: 4; is-custom-font: none; font-file-url: none; fill: rgb(0,0,0); fill-rule: nonzero; opacity: 1;" transform=" translate(-248.0285, -233.304)" d="M 251.249 232.255 H 244.808 C 244.49 232.255 244.233 232.512 244.233 232.83 V 233.778 C 244.233 234.095 244.49 234.353 244.808 234.353 H 251.249 C 251.567 234.353 251.824 234.095 251.824 233.778 V 232.83 C 251.824 232.512 251.567 232.255 251.249 232.255 Z" stroke-linecap="round"/>
</g>
		<g transform="matrix(1 0 0 1 10.5285 8.2505)">
<path style="stroke: none; stroke-width: 1; stroke-dasharray: none; stroke-linecap: butt; stroke-dashoffset: 0; stroke-linejoin: miter; stroke-miterlimit: 4; is-custom-font: none; font-file-url: none; fill: rgb(0,37,33); fill-rule: nonzero; opacity: 1;" transform=" translate(-248.0285, -233.2505)" d="M 251.249 232.255 H 244.808 C 244.49 232.255 244.233 232.512 244.233 232.83 V 233.671 C 244.233 233.988 244.49 234.246 244.808 234.246 H 251.249 C 251.567 234.246 251.824 233.988 251.824 233.671 V 232.83 C 251.824 232.512 251.567 232.255 251.249 232.255 Z" stroke-linecap="round"/>
</g>
		<g transform="matrix(1 0 0 1 10.5285 14.078)">
<path style="stroke: none; stroke-width: 1; stroke-dasharray: none; stroke-linecap: butt; stroke-dashoffset: 0; stroke-linejoin: miter; stroke-miterlimit: 4; is-custom-font: none; font-file-url: none; fill: rgb(0,0,0); fill-rule: nonzero; opacity: 1;" transform=" translate(-248.0285, -239.078)" d="M 251.249 238.029 H 244.808 C 244.49 238.029 244.233 238.286 244.233 238.604 V 239.552 C 244.233 239.869 244.49 240.127 244.808 240.127 H 251.249 C 251.567 240.127 251.824 239.869 251.824 239.552 V 238.604 C 251.824 238.286 251.567 238.029 251.249 238.029 Z" stroke-linecap="round"/>
</g>
		<g transform="matrix(1 0 0 1 10.5285 14.0245)">
<path style="stroke: none; stroke-width: 1; stroke-dasharray: none; stroke-linecap: butt; stroke-dashoffset: 0; stroke-linejoin: miter; stroke-miterlimit: 4; is-custom-font: none; font-file-url: none; fill: rgb(0,37,33); fill-rule: nonzero; opacity: 1;" transform=" translate(-248.0285, -239.0245)" d="M 251.249 238.029 H 244.808 C 244.49 238.029 244.233 238.286 244.233 238.604 V 239.445 C 244.233 239.762 244.49 240.02 244.808 240.02 H 251.249 C 251.567 240.02 251.824 239.762 251.824 239.445 V 238.604 C 251.824 238.286 251.567 238.029 251.249 238.029 Z" stroke-linecap="round"/>
</g>
		<g transform="matrix(1 0 0 1 10.5285 19.564)">
<path style="stroke: none; stroke-width: 1; stroke-dasharray: none; stroke-linecap: butt; stroke-dashoffset: 0; stroke-linejoin: miter; stroke-miterlimit: 4; is-custom-font: none; font-file-url: none; fill: rgb(0,0,0); fill-rule: nonzero; opacity: 1;" transform=" translate(-248.0285, -244.564)" d="M 251.249 243.515 H 244.808 C 244.49 243.515 244.233 243.772 244.233 244.09 V 245.038 C 244.233 245.355 244.49 245.613 244.808 245.613 H 251.249 C 251.567 245.613 251.824 245.355 251.824 245.038 V 244.09 C 251.824 243.772 251.567 243.515 251.249 243.515 Z" stroke-linecap="round"/>
</g>
		<g transform="matrix(1 0 0 1 10.5285 19.5105)">
<path style="stroke: none; stroke-width: 1; stroke-dasharray: none; stroke-linecap: butt; stroke-dashoffset: 0; stroke-linejoin: miter; stroke-miterlimit: 4; is-custom-font: none; font-file-url: none; fill: rgb(0,37,33); fill-rule: nonzero; opacity: 1;" transform=" translate(-248.0285, -244.5105)" d="M 251.249 243.515 H 244.808 C 244.49 243.515 244.233 243.772 244.233 244.09 V 244.931 C 244.233 245.248 244.49 245.506 244.808 245.506 H 251.249 C 251.567 245.506 251.824 245.248 251.824 244.931 V 244.09 C 251.824 243.772 251.567 243.515 251.249 243.515 Z" stroke-linecap="round"/>
</g>
		<g transform="matrix(1 0 0 1 10.5285 25.049)">
<path style="stroke: none; stroke-width: 1; stroke-dasharray: none; stroke-linecap: butt; stroke-dashoffset: 0; stroke-linejoin: miter; stroke-miterlimit: 4; is-custom-font: none; font-file-url: none; fill: rgb(0,0,0); fill-rule: nonzero; opacity: 1;" transform=" translate(-248.0285, -250.049)" d="M 251.249 249 H 244.808 C 244.49 249 244.233 249.257 244.233 249.575 V 250.523 C 244.233 250.84 244.49 251.098 244.808 251.098 H 251.249 C 251.567 251.098 251.824 250.84 251.824 250.523 V 249.575 C 251.824 249.257 251.567 249 251.249 249 Z" stroke-linecap="round"/>
</g>
		<g transform="matrix(1 0 0 1 10.5285 24.9955)">
<path style="stroke: none; stroke-width: 1; stroke-dasharray: none; stroke-linecap: butt; stroke-dashoffset: 0; stroke-linejoin: miter; stroke-miterlimit: 4; is-custom-font: none; font-file-url: none; fill: rgb(0,37,33); fill-rule: nonzero; opacity: 1;" transform=" translate(-248.0285, -249.9955)" d="M 251.249 249 H 244.808 C 244.49 249 244.233 249.257 244.233 249.575 V 250.416 C 244.233 250.733 244.49 250.991 244.808 250.991 H 251.249 C 251.567 250.991 251.824 250.733 251.824 250.416 V 249.575 C 251.824 249.257 251.567 249 251.249 249 Z" stroke-linecap="round"/>
</g>
		<g transform="matrix(1 0 0 1 10.5285 30.535)">
<path style="stroke: none; stroke-width: 1; stroke-dasharray: none; stroke-linecap: butt; stroke-dashoffset: 0; stroke-linejoin: miter; stroke-miterlimit: 4; is-custom-font: none; font-file-url: none; fill: rgb(0,0,0); fill-rule: nonzero; opacity: 1;" transform=" translate(-248.0285, -255.535)" d="M 251.249 254.486 H 244.808 C 244.49 254.486 244.233 254.743 244.233 255.061 V 256.009 C 244.233 256.326 244.49 256.584 244.808 256.584 H 251.249 C 251.567 256.584 251.824 256.326 251.824 256.009 V 255.061 C 251.824 254.743 251.567 254.486 251.249 254.486 Z" stroke-linecap="round"/>
</g>
		<g transform="matrix(1 0 0 1 10.5285 30.4815)">
<path style="stroke: none; stroke-width: 1; stroke-dasharray: none; stroke-linecap: butt; stroke-dashoffset: 0; stroke-linejoin: miter; stroke-miterlimit: 4; is-custom-font: none; font-file-url: none; fill: rgb(0,37,33); fill-rule: nonzero; opacity: 1;" transform=" translate(-248.0285, -255.4815)" d="M 251.249 254.486 H 244.808 C 244.49 254.486 244.233 254.743 244.233 255.061 V 255.902 C 244.233 256.219 244.49 256.477 244.808 256.477 H 251.249 C 251.567 256.477 251.824 256.219 251.824 255.902 V 255.061 C 251.824 254.743 251.567 254.486 251.249 254.486 Z" stroke-linecap="round"/>
</g>
		<g transform="matrix(1 0 0 1 10.5285 36.02)">
<path style="stroke: none; stroke-width: 1; stroke-dasharray: none; stroke-linecap: butt; stroke-dashoffset: 0; stroke-linejoin: miter; stroke-miterlimit: 4; is-custom-font: none; font-file-url: none; fill: rgb(0,0,0); fill-rule: nonzero; opacity: 1;" transform=" translate(-248.0285, -261.02)" d="M 251.249 259.971 H 244.808 C 244.49 259.971 244.233 260.228 244.233 260.546 V 261.494 C 244.233 261.811 244.49 262.069 244.808 262.069 H 251.249 C 251.567 262.069 251.824 261.811 251.824 261.494 V 260.546 C 251.824 260.228 251.567 259.971 251.249 259.971 Z" stroke-linecap="round"/>
</g>
		<g transform="matrix(1 0 0 1 10.5285 35.9665)">
<path style="stroke: none; stroke-width: 1; stroke-dasharray: none; stroke-linecap: butt; stroke-dashoffset: 0; stroke-linejoin: miter; stroke-miterlimit: 4; is-custom-font: none; font-file-url: none; fill: rgb(0,37,33); fill-rule: nonzero; opacity: 1;" transform=" translate(-248.0285, -260.9665)" d="M 251.249 259.971 H 244.808 C 244.49 259.971 244.233 260.228 244.233 260.546 V 261.387 C 244.233 261.704 244.49 261.962 244.808 261.962 H 251.249 C 251.567 261.962 251.824 261.704 251.824 261.387 V 260.546 C 251.824 260.228 251.567 259.971 251.249 259.971 Z" stroke-linecap="round"/>
</g>
		<g transform="matrix(1 0 0 1 10.5285 41.506)">
<path style="stroke: none; stroke-width: 1; stroke-dasharray: none; stroke-linecap: butt; stroke-dashoffset: 0; stroke-linejoin: miter; stroke-miterlimit: 4; is-custom-font: none; font-file-url: none; fill: rgb(0,0,0); fill-rule: nonzero; opacity: 1;" transform=" translate(-248.0285, -266.506)" d="M 251.249 265.457 H 244.808 C 244.49 265.457 244.233 265.714 244.233 266.032 V 266.98 C 244.233 267.297 244.49 267.555 244.808 267.555 H 251.249 C 251.567 267.555 251.824 267.297 251.824 266.98 V 266.032 C 251.824 265.714 251.567 265.457 251.249 265.457 Z" stroke-linecap="round"/>
</g>
		<g transform="matrix(1 0 0 1 10.5285 41.4525)">
<path style="stroke: none; stroke-width: 1; stroke-dasharray: none; stroke-linecap: butt; stroke-dashoffset: 0; stroke-linejoin: miter; stroke-miterlimit: 4; is-custom-font: none; font-file-url: none; fill: rgb(0,37,33); fill-rule: nonzero; opacity: 1;" transform=" translate(-248.0285, -266.4525)" d="M 251.249 265.457 H 244.808 C 244.49 265.457 244.233 265.714 244.233 266.032 V 266.873 C 244.233 267.19 244.49 267.448 244.808 267.448 H 251.249 C 251.567 267.448 251.824 267.19 251.824 266.873 V 266.032 C 251.824 265.714 251.567 265.457 251.249 265.457 Z" stroke-linecap="round"/>
</g>
		<g transform="matrix(1 0 0 1 10.5285 46.991)">
<path style="stroke: none; stroke-width: 1; stroke-dasharray: none; stroke-linecap: butt; stroke-dashoffset: 0; stroke-linejoin: miter; stroke-miterlimit: 4; is-custom-font: none; font-file-url: none; fill: rgb(0,0,0); fill-rule: nonzero; opacity: 1;" transform=" translate(-248.0285, -271.991)" d="M 251.249 270.942 H 244.808 C 244.49 270.942 244.233 271.199 244.233 271.517 V 272.465 C 244.233 272.782 244.49 273.04 244.808 273.04 H 251.249 C 251.567 273.04 251.824 272.782 251.824 272.465 V 271.517 C 251.824 271.199 251.567 270.942 251.249 270.942 Z" stroke-linecap="round"/>
</g>
		<g transform="matrix(1 0 0 1 10.5285 46.9375)">
<path style="stroke: none; stroke-width: 1; stroke-dasharray: none; stroke-linecap: butt; stroke-dashoffset: 0; stroke-linejoin: miter; stroke-miterlimit: 4; is-custom-font: none; font-file-url: none; fill: rgb(0,37,33); fill-rule: nonzero; opacity: 1;" transform=" translate(-248.0285, -271.9375)" d="M 251.249 270.942 H 244.808 C 244.49 270.942 244.233 271.199 244.233 271.517 V 272.358 C 244.233 272.675 244.49 272.933 244.808 272.933 H 251.249 C 251.567 272.933 251.824 272.675 251.824 272.358 V 271.517 C 251.824 271.199 251.567 270.942 251.249 270.942 Z" stroke-linecap="round"/>
</g>
		<g transform="matrix(1 0 0 1 10.5285 52.477)">
<path style="stroke: none; stroke-width: 1; stroke-dasharray: none; stroke-linecap: butt; stroke-dashoffset: 0; stroke-linejoin: miter; stroke-miterlimit: 4; is-custom-font: none; font-file-url: none; fill: rgb(0,0,0); fill-rule: nonzero; opacity: 1;" transform=" translate(-248.0285, -277.477)" d="M 251.249 276.428 H 244.808 C 244.49 276.428 244.233 276.685 244.233 277.003 V 277.951 C 244.233 278.268 244.49 278.526 244.808 278.526 H 251.249 C 251.567 278.526 251.824 278.268 251.824 277.951 V 277.003 C 251.824 276.685 251.567 276.428 251.249 276.428 Z" stroke-linecap="round"/>
</g>
		<g transform="matrix(1 0 0 1 10.5285 52.4235)">
<path style="stroke: none; stroke-width: 1; stroke-dasharray: none; stroke-linecap: butt; stroke-dashoffset: 0; stroke-linejoin: miter; stroke-miterlimit: 4; is-custom-font: none; font-file-url: none; fill: rgb(0,37,33); fill-rule: nonzero; opacity: 1;" transform=" translate(-248.0285, -277.4235)" d="M 251.249 276.428 H 244.808 C 244.49 276.428 244.233 276.685 244.233 277.003 V 277.844 C 244.233 278.161 244.49 278.419 244.808 278.419 H 251.249 C 251.567 278.419 251.824 278.161 251.824 277.844 V 277.003 C 251.824 276.685 251.567 276.428 251.249 276.428 Z" stroke-linecap="round"/>
</g>
		<g transform="matrix(1 0 0 1 10.5285 57.962)">
<path style="stroke: none; stroke-width: 1; stroke-dasharray: none; stroke-linecap: butt; stroke-dashoffset: 0; stroke-linejoin: miter; stroke-miterlimit: 4; is-custom-font: none; font-file-url: none; fill: rgb(0,0,0); fill-rule: nonzero; opacity: 1;" transform=" translate(-248.0285, -282.962)" d="M 251.249 281.913 H 244.808 C 244.49 281.913 244.233 282.17 244.233 282.488 V 283.436 C 244.233 283.753 244.49 284.011 244.808 284.011 H 251.249 C 251.567 284.011 251.824 283.753 251.824 283.436 V 282.488 C 251.824 282.17 251.567 281.913 251.249 281.913 Z" stroke-linecap="round"/>
</g>
		<g transform="matrix(1 0 0 1 10.5285 57.9085)">
<path style="stroke: none; stroke-width: 1; stroke-dasharray: none; stroke-linecap: butt; stroke-dashoffset: 0; stroke-linejoin: miter; stroke-miterlimit: 4; is-custom-font: none; font-file-url: none; fill: rgb(0,37,33); fill-rule: nonzero; opacity: 1;" transform=" translate(-248.0285, -282.9085)" d="M 251.249 281.913 H 244.808 C 244.49 281.913 244.233 282.17 244.233 282.488 V 283.329 C 244.233 283.646 244.49 283.904 244.808 283.904 H 251.249 C 251.567 283.904 251.824 283.646 251.824 283.329 V 282.488 C 251.824 282.17 251.567 281.913 251.249 281.913 Z" stroke-linecap="round"/>
</g>
		<g transform="matrix(1 0 0 1 10.5285 63.448)">
<path style="stroke: none; stroke-width: 1; stroke-dasharray: none; stroke-linecap: butt; stroke-dashoffset: 0; stroke-linejoin: miter; stroke-miterlimit: 4; is-custom-font: none; font-file-url: none; fill: rgb(0,0,0); fill-rule: nonzero; opacity: 1;" transform=" translate(-248.0285, -288.448)" d="M 251.249 287.399 H 244.808 C 244.49 287.399 244.233 287.656 244.233 287.974 V 288.922 C 244.233 289.239 244.49 289.497 244.808 289.497 H 251.249 C 251.567 289.497 251.824 289.239 251.824 288.922 V 287.974 C 251.824 287.656 251.567 287.399 251.249 287.399 Z" stroke-linecap="round"/>
</g>
		<g transform="matrix(1 0 0 1 10.5285 63.3945)">
<path style="stroke: none; stroke-width: 1; stroke-dasharray: none; stroke-linecap: butt; stroke-dashoffset: 0; stroke-linejoin: miter; stroke-miterlimit: 4; is-custom-font: none; font-file-url: none; fill: rgb(0,37,33); fill-rule: nonzero; opacity: 1;" transform=" translate(-248.0285, -288.3945)" d="M 251.249 287.399 H 244.808 C 244.49 287.399 244.233 287.656 244.233 287.974 V 288.815 C 244.233 289.132 244.49 289.39 244.808 289.39 H 251.249 C 251.567 289.39 251.824 289.132 251.824 288.815 V 287.974 C 251.824 287.656 251.567 287.399 251.249 287.399 Z" stroke-linecap="round"/>
</g>
		<g transform="matrix(1 0 0 1 10.5285 68.933)">
<path style="stroke: none; stroke-width: 1; stroke-dasharray: none; stroke-linecap: butt; stroke-dashoffset: 0; stroke-linejoin: miter; stroke-miterlimit: 4; is-custom-font: none; font-file-url: none; fill: rgb(0,0,0); fill-rule: nonzero; opacity: 1;" transform=" translate(-248.0285, -293.933)" d="M 251.249 292.884 H 244.808 C 244.49 292.884 244.233 293.141 244.233 293.459 V 294.407 C 244.233 294.724 244.49 294.982 244.808 294.982 H 251.249 C 251.567 294.982 251.824 294.724 251.824 294.407 V 293.459 C 251.824 293.141 251.567 292.884 251.249 292.884 Z" stroke-linecap="round"/>
</g>
		<g transform="matrix(1 0 0 1 10.5285 68.8795)">
<path style="stroke: none; stroke-width: 1; stroke-dasharray: none; stroke-linecap: butt; stroke-dashoffset: 0; stroke-linejoin: miter; stroke-miterlimit: 4; is-custom-font: none; font-file-url: none; fill: rgb(0,37,33); fill-rule: nonzero; opacity: 1;" transform=" translate(-248.0285, -293.8795)" d="M 251.249 292.884 H 244.808 C 244.49 292.884 244.233 293.141 244.233 293.459 V 294.3 C 244.233 294.617 244.49 294.875 244.808 294.875 H 251.249 C 251.567 294.875 251.824 294.617 251.824 294.3 V 293.459 C 251.824 293.141 251.567 292.884 251.249 292.884 Z" stroke-linecap="round"/>
</g>
		<g transform="matrix(1 0 0 1 10.5285 74.419)">
<path style="stroke: none; stroke-width: 1; stroke-dasharray: none; stroke-linecap: butt; stroke-dashoffset: 0; stroke-linejoin: miter; stroke-miterlimit: 4; is-custom-font: none; font-file-url: none; fill: rgb(0,0,0); fill-rule: nonzero; opacity: 1;" transform=" translate(-248.0285, -299.419)" d="M 251.249 298.37 H 244.808 C 244.49 298.37 244.233 298.627 244.233 298.945 V 299.893 C 244.233 300.21 244.49 300.468 244.808 300.468 H 251.249 C 251.567 300.468 251.824 300.21 251.824 299.893 V 298.945 C 251.824 298.627 251.567 298.37 251.249 298.37 Z" stroke-linecap="round"/>
</g>
		<g transform="matrix(1 0 0 1 10.5285 74.3655)">
<path style="stroke: none; stroke-width: 1; stroke-dasharray: none; stroke-linecap: butt; stroke-dashoffset: 0; stroke-linejoin: miter; stroke-miterlimit: 4; is-custom-font: none; font-file-url: none; fill: rgb(0,37,33); fill-rule: nonzero; opacity: 1;" transform=" translate(-248.0285, -299.3655)" d="M 251.249 298.37 H 244.808 C 244.49 298.37 244.233 298.627 244.233 298.945 V 299.786 C 244.233 300.103 244.49 300.361 244.808 300.361 H 251.249 C 251.567 300.361 251.824 300.103 251.824 299.786 V 298.945 C 251.824 298.627 251.567 298.37 251.249 298.37 Z" stroke-linecap="round"/>
</g>
		<g transform="matrix(1 0 0 1 102.985 13.5177)">
<path style="stroke: none; stroke-width: 1; stroke-dasharray: none; stroke-linecap: butt; stroke-dashoffset: 0; stroke-linejoin: miter; stroke-miterlimit: 4; is-custom-font: none; font-file-url: none; fill: rgb(0,83,102); fill-rule: nonzero; opacity: 1;" transform=" translate(-340.4851, -238.5177)" d="M 340.486 244.47 C 339.309 244.47 338.158 244.121 337.179 243.467 C 336.2 242.813 335.437 241.884 334.986 240.796 C 334.536 239.709 334.418 238.512 334.647 237.358 C 334.877 236.203 335.443 235.142 336.276 234.31 C 337.108 233.477 338.168 232.91 339.323 232.68 C 340.477 232.45 341.674 232.568 342.762 233.018 C 343.849 233.469 344.779 234.231 345.433 235.21 C 346.088 236.189 346.437 237.34 346.437 238.517 C 346.436 240.095 345.808 241.608 344.693 242.724 C 343.577 243.84 342.064 244.468 340.486 244.47 Z M 340.486 234.33 C 339.658 234.33 338.848 234.575 338.159 235.035 C 337.47 235.495 336.933 236.149 336.616 236.915 C 336.299 237.68 336.216 238.522 336.377 239.335 C 336.539 240.147 336.938 240.893 337.524 241.479 C 338.109 242.065 338.856 242.464 339.668 242.625 C 340.481 242.787 341.323 242.704 342.088 242.387 C 342.853 242.07 343.507 241.533 343.968 240.844 C 344.428 240.155 344.673 239.345 344.673 238.517 C 344.672 237.406 344.231 236.341 343.446 235.556 C 342.661 234.77 341.596 234.328 340.486 234.327 V 234.33 Z" stroke-linecap="round"/>
</g>
		<g transform="matrix(1 0 0 1 93.205 15.928)">
<path style="stroke: none; stroke-width: 1; stroke-dasharray: none; stroke-linecap: butt; stroke-dashoffset: 0; stroke-linejoin: miter; stroke-miterlimit: 4; is-custom-font: none; font-file-url: none; fill: rgb(0,182,161); fill-rule: nonzero; opacity: 1;" transform=" translate(-330.705, -240.928)" d="M 340.357 230.123 V 242.082 C 340.349 244.639 339.33 247.09 337.521 248.898 C 335.713 250.706 333.262 251.725 330.705 251.733 C 328.148 251.725 325.697 250.706 323.888 248.898 C 322.08 247.09 321.061 244.639 321.053 242.082 V 230.123 H 340.357 Z" stroke-linecap="round"/>
</g>
		<g transform="matrix(1 0 0 1 93.205 26.7325)">
<path style="stroke: none; stroke-width: 1; stroke-dasharray: none; stroke-linecap: butt; stroke-dashoffset: 0; stroke-linejoin: miter; stroke-miterlimit: 4; is-custom-font: none; font-file-url: none; fill: rgb(0,83,102); fill-rule: nonzero; opacity: 1;" transform=" translate(-330.705, -251.7325)" d="M 339.587 250.418 H 321.823 C 321.325 250.418 320.922 250.821 320.922 251.319 V 252.146 C 320.922 252.643 321.325 253.047 321.823 253.047 H 339.587 C 340.085 253.047 340.488 252.643 340.488 252.146 V 251.319 C 340.488 250.821 340.085 250.418 339.587 250.418 Z" stroke-linecap="round"/>
</g>
		<g transform="matrix(1 0 0 1 59.8705 -150.8625)">
<path style="stroke: none; stroke-width: 1; stroke-dasharray: none; stroke-linecap: butt; stroke-dashoffset: 0; stroke-linejoin: miter; stroke-miterlimit: 4; is-custom-font: none; font-file-url: none; fill: rgb(0,82,72); fill-rule: nonzero; opacity: 1;" transform=" translate(-297.3705, -74.1375)" d="M 278 52 L 281.528 91.848 L 297.37 96.275 L 313.207 91.85 L 316.741 52 H 278 Z M 309.2 65.031 L 308.755 70.037 L 307.41 85.046 L 297.37 87.819 H 297.364 L 287.334 85.043 L 286.634 77.195 H 291.549 L 291.914 81.268 L 297.368 82.74 L 297.374 82.734 L 302.834 81.262 L 303.578 74.48 L 286.4 74.528 L 285.913 69.887 L 303.991 69.677 L 304.356 64.71 L 285.428 64.763 L 285.11 60.147 H 309.635 L 309.2 65.031 Z" stroke-linecap="round"/>
</g>
		<g transform="matrix(1 0 0 1 -28.2173 -150.9433)">
<path style="stroke: none; stroke-width: 1; stroke-dasharray: none; stroke-linecap: butt; stroke-dashoffset: 0; stroke-linejoin: miter; stroke-miterlimit: 4; is-custom-font: none; font-file-url: none; fill: rgb(0,82,72); fill-rule: nonzero; opacity: 1;" transform=" translate(-209.2827, -74.0567)" d="M 190.004 53.46 L 192.867 90.087 C 192.888 90.3559 192.989 90.6124 193.156 90.8237 C 193.324 91.035 193.551 91.1914 193.808 91.273 L 208.872 96.05 C 209.139 96.1345 209.425 96.1345 209.691 96.05 L 224.756 91.274 C 225.013 91.1924 225.24 91.036 225.408 90.8247 C 225.575 90.6134 225.676 90.3569 225.697 90.088 L 228.561 53.46 C 228.576 53.2738 228.551 53.0866 228.49 52.9101 C 228.429 52.7337 228.332 52.5718 228.205 52.4347 C 228.078 52.2976 227.924 52.1882 227.753 52.1134 C 227.582 52.0386 227.397 52 227.21 52 H 191.354 C 191.167 52.0001 190.983 52.0388 190.812 52.1137 C 190.641 52.1886 190.487 52.298 190.36 52.4351 C 190.233 52.5722 190.136 52.734 190.075 52.9103 C 190.014 53.0867 189.99 53.2739 190.004 53.46 Z M 221.219 64.824 H 202.56 L 203.123 70.017 H 220.813 L 219.656 84.817 L 209.282 88.11 L 198.904 84.821 L 198.304 77.087 H 203.749 V 80.88 L 209.427 82.4 L 215.072 80.876 L 215.51 74.83 H 198.127 L 196.973 60.07 H 221.59 L 221.219 64.824 Z" stroke-linecap="round"/>
</g>
</g>
</g>
</svg>