<svg xmlns="http://www.w3.org/2000/svg" width="475" height="450" fill="none" viewBox="0 0 475 450"><path fill="#34DCE7" d="M249.784 431.102C308.912 431.102 356.845 416.728 356.845 398.997C356.845 381.266 308.912 366.892 249.784 366.892C190.656 366.892 142.723 381.266 142.723 398.997C142.723 416.728 190.656 431.102 249.784 431.102Z" opacity=".2"/><path fill="#34DCE7" d="M249.951 414.071C293.21 414.071 328.278 403.555 328.278 390.583C328.278 377.611 293.21 367.095 249.951 367.095C206.692 367.095 171.624 377.611 171.624 390.583C171.624 403.555 206.692 414.071 249.951 414.071Z" opacity=".1"/><path fill="#34DCE7" d="M250.031 406.485C282.423 406.485 308.682 398.61 308.682 388.897C308.682 379.183 282.423 371.309 250.031 371.309C217.639 371.309 191.38 379.183 191.38 388.897C191.38 398.61 217.639 406.485 250.031 406.485Z" opacity=".1"/><path fill="#224DC2" d="M385.878 251.907H105V258.902H385.878V251.907Z"/><path fill="#224DC2" d="M349.777 98.5887H144.925C142.136 98.5887 139.875 100.85 139.875 103.639V240.077C139.875 242.866 142.136 245.127 144.925 245.127H349.777C352.566 245.127 354.827 242.866 354.827 240.077V103.639C354.827 100.85 352.566 98.5887 349.777 98.5887Z"/><path fill="#1F4489" d="M348.803 99.1977H145.898C144.301 99.1977 142.769 99.8323 141.639 100.962C140.51 102.091 139.875 103.623 139.875 105.221V230.732H354.826V105.216C354.825 103.619 354.19 102.088 353.06 100.96C351.931 99.8316 350.4 99.1977 348.803 99.1977Z"/><path fill="#479EE8" d="M348.803 102.735H145.898C144.301 102.735 142.769 103.369 141.639 104.499C140.51 105.628 139.875 107.16 139.875 108.758V109.192C139.875 107.594 140.51 106.062 141.639 104.933C142.769 103.803 144.301 103.169 145.898 103.169H348.803C349.594 103.169 350.377 103.325 351.108 103.627C351.839 103.93 352.503 104.374 353.062 104.933C353.621 105.492 354.065 106.156 354.368 106.887C354.67 107.618 354.826 108.401 354.826 109.192V108.758C354.826 107.967 354.67 107.184 354.368 106.453C354.065 105.722 353.621 105.058 353.062 104.499C352.503 103.94 351.839 103.496 351.108 103.193C350.377 102.891 349.594 102.735 348.803 102.735Z"/><path fill="#2A5FD1" d="M148.254 107.962H346.498V225.299H148.254V107.962Z"/><path fill="#4795FA" d="M288.373 123.163H175.797C175.155 123.163 174.635 123.683 174.635 124.325V124.774C174.635 125.415 175.155 125.936 175.797 125.936H288.373C289.015 125.936 289.535 125.415 289.535 124.774V124.325C289.535 123.683 289.015 123.163 288.373 123.163Z"/><path fill="#4795FA" d="M228.648 113.901H156.666C155.842 113.901 155.174 114.569 155.174 115.393V115.969C155.174 116.793 155.842 117.461 156.666 117.461H228.648C229.472 117.461 230.14 116.793 230.14 115.969V115.393C230.14 114.569 229.472 113.901 228.648 113.901Z"/><path fill="#4795FA" d="M163.984 123.163H156.336C155.694 123.163 155.174 123.683 155.174 124.325V124.774C155.174 125.415 155.694 125.936 156.336 125.936H163.984C164.626 125.936 165.146 125.415 165.146 124.774V124.325C165.146 123.683 164.626 123.163 163.984 123.163Z"/><path fill="#4795FA" d="M215.072 131.814H157.06C156.661 131.814 156.337 132.137 156.337 132.537V132.814C156.337 133.213 156.661 133.537 157.06 133.537H215.072C215.471 133.537 215.795 133.213 215.795 132.814V132.537C215.795 132.137 215.471 131.814 215.072 131.814Z"/><path fill="#4795FA" d="M215.072 138.834H157.06C156.661 138.834 156.337 139.157 156.337 139.557V139.834C156.337 140.233 156.661 140.557 157.06 140.557H215.072C215.471 140.557 215.795 140.233 215.795 139.834V139.557C215.795 139.157 215.471 138.834 215.072 138.834Z"/><path fill="#4795FA" d="M215.072 145.855H157.06C156.661 145.855 156.337 146.178 156.337 146.578V146.855C156.337 147.254 156.661 147.578 157.06 147.578H215.072C215.471 147.578 215.795 147.254 215.795 146.855V146.578C215.795 146.178 215.471 145.855 215.072 145.855Z"/><path fill="#4795FA" d="M215.072 152.875H157.06C156.661 152.875 156.337 153.198 156.337 153.598V153.875C156.337 154.274 156.661 154.598 157.06 154.598H215.072C215.471 154.598 215.795 154.274 215.795 153.875V153.598C215.795 153.198 215.471 152.875 215.072 152.875Z"/><path fill="#4795FA" d="M166.146 159.895H157.06C156.661 159.895 156.337 160.218 156.337 160.618V160.895C156.337 161.294 156.661 161.618 157.06 161.618H166.146C166.545 161.618 166.869 161.294 166.869 160.895V160.618C166.869 160.218 166.545 159.895 166.146 159.895Z"/><path fill="#4795FA" d="M181.521 159.895H172.435C172.036 159.895 171.712 160.218 171.712 160.618V160.895C171.712 161.294 172.036 161.618 172.435 161.618H181.521C181.92 161.618 182.244 161.294 182.244 160.895V160.618C182.244 160.218 181.92 159.895 181.521 159.895Z"/><path fill="#4795FA" d="M196.897 159.895H187.811C187.412 159.895 187.088 160.218 187.088 160.618V160.895C187.088 161.294 187.412 161.618 187.811 161.618H196.897C197.296 161.618 197.62 161.294 197.62 160.895V160.618C197.62 160.218 197.296 159.895 196.897 159.895Z"/><path fill="#4795FA" d="M212.273 159.895H203.187C202.788 159.895 202.464 160.218 202.464 160.618V160.895C202.464 161.294 202.788 161.618 203.187 161.618H212.273C212.672 161.618 212.996 161.294 212.996 160.895V160.618C212.996 160.218 212.672 159.895 212.273 159.895Z"/><path fill="#4795FA" d="M227.648 159.895H218.562C218.163 159.895 217.839 160.218 217.839 160.618V160.895C217.839 161.294 218.163 161.618 218.562 161.618H227.648C228.047 161.618 228.371 161.294 228.371 160.895V160.618C228.371 160.218 228.047 159.895 227.648 159.895Z"/><path fill="#4795FA" d="M243.024 159.895H233.938C233.539 159.895 233.215 160.218 233.215 160.618V160.895C233.215 161.294 233.539 161.618 233.938 161.618H243.024C243.423 161.618 243.747 161.294 243.747 160.895V160.618C243.747 160.218 243.423 159.895 243.024 159.895Z"/><path fill="#4795FA" d="M215.072 166.916H157.06C156.661 166.916 156.337 167.239 156.337 167.639V167.916C156.337 168.315 156.661 168.639 157.06 168.639H215.072C215.471 168.639 215.795 168.315 215.795 167.916V167.639C215.795 167.239 215.471 166.916 215.072 166.916Z"/><path fill="#4795FA" d="M333.857 142.893H262.655C262.099 142.893 261.648 143.344 261.648 143.9V144.289C261.648 144.845 262.099 145.296 262.655 145.296H333.857C334.413 145.296 334.864 144.845 334.864 144.289V143.9C334.864 143.344 334.413 142.893 333.857 142.893Z"/><path fill="#4795FA" d="M333.857 153.397H262.655C262.099 153.397 261.648 153.848 261.648 154.404V154.793C261.648 155.349 262.099 155.8 262.655 155.8H333.857C334.413 155.8 334.864 155.349 334.864 154.793V154.404C334.864 153.848 334.413 153.397 333.857 153.397Z"/><path fill="#4795FA" d="M333.857 163.234H262.655C262.099 163.234 261.648 163.685 261.648 164.241V164.63C261.648 165.186 262.099 165.637 262.655 165.637H333.857C334.413 165.637 334.864 165.186 334.864 164.63V164.241C334.864 163.685 334.413 163.234 333.857 163.234Z"/><path fill="#4795FA" d="M333.857 173.071H262.655C262.099 173.071 261.648 173.522 261.648 174.078V174.467C261.648 175.023 262.099 175.474 262.655 175.474H333.857C334.413 175.474 334.864 175.023 334.864 174.467V174.078C334.864 173.522 334.413 173.071 333.857 173.071Z"/><path fill="#4795FA" d="M333.857 182.907H262.655C262.099 182.907 261.648 183.358 261.648 183.914V184.303C261.648 184.859 262.099 185.31 262.655 185.31H333.857C334.413 185.31 334.864 184.859 334.864 184.303V183.914C334.864 183.358 334.413 182.907 333.857 182.907Z"/><path fill="#4795FA" d="M299.429 192.744H262.655C262.099 192.744 261.648 193.195 261.648 193.751V194.14C261.648 194.696 262.099 195.147 262.655 195.147H299.429C299.985 195.147 300.436 194.696 300.436 194.14V193.751C300.436 193.195 299.985 192.744 299.429 192.744Z"/><path fill="#4795FA" d="M323.219 199.44H286.445C285.889 199.44 285.438 199.891 285.438 200.447V200.836C285.438 201.392 285.889 201.843 286.445 201.843H323.219C323.775 201.843 324.226 201.392 324.226 200.836V200.447C324.226 199.891 323.775 199.44 323.219 199.44Z"/><path fill="#4795FA" d="M323.219 206.374H286.445C285.889 206.374 285.438 206.825 285.438 207.381V207.77C285.438 208.326 285.889 208.777 286.445 208.777H323.219C323.775 208.777 324.226 208.326 324.226 207.77V207.381C324.226 206.825 323.775 206.374 323.219 206.374Z"/><path fill="#4795FA" d="M183.31 206.374H165.961C165.405 206.374 164.954 206.825 164.954 207.381V207.77C164.954 208.326 165.405 208.777 165.961 208.777H183.31C183.866 208.777 184.317 208.326 184.317 207.77V207.381C184.317 206.825 183.866 206.374 183.31 206.374Z"/><path fill="#4795FA" d="M183.31 200.641H165.961C165.405 200.641 164.954 201.092 164.954 201.648V202.037C164.954 202.593 165.405 203.044 165.961 203.044H183.31C183.866 203.044 184.317 202.593 184.317 202.037V201.648C184.317 201.092 183.866 200.641 183.31 200.641Z"/><path fill="#4795FA" d="M183.31 194.907H165.961C165.405 194.907 164.954 195.358 164.954 195.914V196.303C164.954 196.859 165.405 197.31 165.961 197.31H183.31C183.866 197.31 184.317 196.859 184.317 196.303V195.914C184.317 195.358 183.866 194.907 183.31 194.907Z"/><path fill="#4795FA" d="M183.31 189.174H165.961C165.405 189.174 164.954 189.625 164.954 190.181V190.57C164.954 191.126 165.405 191.577 165.961 191.577H183.31C183.866 191.577 184.317 191.126 184.317 190.57V190.181C184.317 189.625 183.866 189.174 183.31 189.174Z"/><path fill="#FEB187" d="M259.116 162.679H237.089V179.26H259.116V162.679Z"/><path fill="#F88B65" d="M237.09 175.677C244.196 178.314 252.011 178.314 259.117 175.677V180.498L253.061 181.605L248.103 182.613L237.09 178.974V175.677Z"/><path fill="#333049" d="M275.992 263.125H220.066C215.289 263.125 211.417 266.997 211.417 271.774V285.284C211.417 290.06 215.289 293.933 220.066 293.933H275.992C280.769 293.933 284.641 290.06 284.641 285.284V271.774C284.641 266.997 280.769 263.125 275.992 263.125Z"/><path fill="#28243F" d="M284.323 282.002C246.539 293.146 211.733 281.919 211.715 281.913C212.409 285.299 214.248 288.342 216.922 290.532C219.597 292.721 222.944 293.922 226.4 293.934H269.657C273.098 293.922 276.43 292.732 279.099 290.56C281.768 288.389 283.612 285.368 284.323 282.002Z"/><path fill="#333049" d="M251.67 113.579L267.049 98.2007C268.168 100.628 268.702 103.283 268.608 105.954C268.514 108.625 267.794 111.237 266.506 113.579L272.85 107.235C272.85 107.235 275.706 115.791 269.915 120.475L275.153 115.238C275.153 115.238 278.453 124.964 266.298 132.424L251.67 113.579Z"/><path fill="#28243F" d="M264.254 129.789L269.098 130.425L269.135 130.395C269.173 130.016 270.415 116.601 255.009 110.239L251.67 113.578L264.254 129.789Z"/><path fill="#FEB187" d="M266.555 153.144C270.33 153.144 273.391 150.083 273.391 146.308C273.391 142.532 270.33 139.472 266.555 139.472C262.78 139.472 259.719 142.532 259.719 146.308C259.719 150.083 262.78 153.144 266.555 153.144Z"/><path fill="#FEB187" d="M229.799 153.144C233.574 153.144 236.635 150.083 236.635 146.308C236.635 142.532 233.574 139.472 229.799 139.472C226.024 139.472 222.963 142.532 222.963 146.308C222.963 150.083 226.024 153.144 229.799 153.144Z"/><path fill="#333049" d="M251.534 113.294H244.672C234.837 113.294 226.864 121.267 226.864 131.102V154.698C226.864 164.533 234.837 172.506 244.672 172.506H251.534C261.369 172.506 269.342 164.533 269.342 154.698V131.102C269.342 121.267 261.369 113.294 251.534 113.294Z"/><path fill="#333049" d="M243.625 169.947V175.488L245.175 173.938L246.866 175.629L248.46 174.034L250.104 175.678V169.947H243.625Z"/><path fill="#333049" d="M249.296 169.536L250.107 174.224L251.391 172.94L252.791 174.34L254.112 173.019L255.474 174.381V169.632L249.296 169.536Z"/><path fill="#333049" d="M238.258 169.631V174.222L239.542 172.938L240.942 174.338L242.263 173.017L243.625 174.379L244.125 169.533L238.258 169.631Z"/><path fill="#FEB187" d="M198.617 221.717L196.234 236.525H210.223V219.867L200.323 217.797"/><path fill="#DC9266" d="M207.687 224.733H198.132L198.617 221.717L207.687 224.733Z"/><path fill="#0C2898" d="M223.387 183.668C213.37 188.568 204.457 190.068 193.21 219.918L210.24 225.581C210.24 225.581 221.453 197.676 223.387 183.668Z"/><path fill="#FEB187" d="M296.426 221.717L298.809 236.525H284.82V219.867L294.72 217.797"/><path fill="#DC9266" d="M287.357 224.733H296.912L296.427 221.717L287.357 224.733Z"/><path fill="#0C2898" d="M271.652 183.668C281.669 188.568 290.582 190.068 301.829 219.918L284.799 225.581C284.799 225.581 273.59 197.676 271.652 183.668Z"/><path fill="#224DC2" d="M252.996 281.918H242.003C223.267 281.918 211.635 273.045 211.635 252.431L207.935 212.161C207.961 203.134 211.558 194.484 217.941 188.101C224.324 181.718 232.973 178.12 242 178.094H252.993C262.019 178.12 270.668 181.717 277.051 188.099C283.434 194.482 287.033 203.13 287.06 212.157L281.233 249.996C281.235 273.784 271.733 281.918 252.996 281.918Z"/><path fill="#133AAF" d="M275.345 186.541C253.524 189.953 224.461 187.041 219.682 186.517C214.72 190.834 211.109 196.491 209.282 202.809L212.671 203.162L226.462 205.106L244.126 207.879L260.426 208.911L279.154 206.848L285.177 201.099C283.221 195.474 279.832 190.456 275.345 186.541Z"/><path fill="#224DC2" d="M221.954 384.984C221.954 388.012 226.213 387.553 231.467 387.553C236.721 387.553 240.979 388.012 240.979 384.984C240.979 381.956 236.72 379.5 231.467 379.5C226.214 379.5 221.954 381.951 221.954 384.984Z"/><path fill="#333049" d="M215.887 293.93L231.279 383.536C234.426 384.516 237.798 384.516 240.945 383.536V315.508L215.887 293.93Z"/><path fill="#28243F" d="M240.946 317.01L240.127 315.51L239.222 315.379L218.932 313.279L221.923 329.064C224.413 329.189 235.673 323.998 240.773 337.025L240.947 336.125L240.946 317.01Z"/><path fill="#224DC2" d="M274.139 384.984C274.139 388.012 269.881 387.553 264.628 387.553C259.375 387.553 255.115 388.012 255.115 384.984C255.115 381.956 259.374 379.5 264.628 379.5C269.882 379.5 274.139 381.951 274.139 384.984Z"/><path fill="#333049" d="M280.208 293.93L264.816 383.54C261.668 384.52 258.296 384.52 255.148 383.54V315.508L280.208 293.93Z"/><path fill="#28243F" d="M255.148 317.01L255.969 315.51L256.874 315.379L277.163 313.279L274.173 329.064C271.683 329.189 260.423 323.998 255.323 337.025L255.148 336.125V317.01Z"/><path fill="#2273DB" d="M245.588 313.09V371.489C245.588 372.267 246.219 372.898 246.997 372.898H249.059C249.837 372.898 250.468 372.267 250.468 371.489V313.09C250.468 312.312 249.837 311.681 249.059 311.681H246.997C246.219 311.681 245.588 312.312 245.588 313.09Z"/><path fill="#22A4FD" d="M246.736 309.998H250.651C252.078 309.998 253.447 310.565 254.456 311.574C255.465 312.583 256.032 313.952 256.032 315.379V332.979C256.033 334.758 255.326 336.465 254.069 337.724C252.811 338.983 251.105 339.691 249.325 339.692H246.736C244.956 339.692 243.249 338.985 241.991 337.726C240.732 336.468 240.025 334.761 240.025 332.981V316.709C240.025 314.929 240.732 313.222 241.991 311.963C243.249 310.705 244.956 309.998 246.736 309.998V309.998Z"/><path fill="#224DC2" d="M256.033 318.227C253.518 317.113 250.798 316.538 248.047 316.538C245.297 316.538 242.577 317.113 240.062 318.227V312.527C242.577 311.413 245.297 310.837 248.047 310.837C250.798 310.837 253.518 311.413 256.033 312.527V318.227Z" opacity=".65"/><path fill="#224DC2" d="M211.388 295.062H201.227C194.823 295.058 188.674 292.556 184.086 288.088C179.498 283.62 176.834 277.539 176.66 271.137C176.487 264.736 178.817 258.519 183.156 253.809C187.495 249.099 193.5 246.268 199.894 245.917C200.041 245.893 200.189 245.881 200.338 245.881H201.228C201.946 245.894 202.631 246.189 203.134 246.702C203.637 247.215 203.919 247.905 203.919 248.623C203.919 249.342 203.637 250.031 203.134 250.544C202.631 251.057 201.946 251.352 201.228 251.366C196.161 251.366 191.301 253.379 187.718 256.962C184.135 260.545 182.122 265.404 182.122 270.471C182.122 275.538 184.135 280.398 187.718 283.981C191.301 287.564 196.161 289.577 201.228 289.577H211.389C212.107 289.59 212.792 289.885 213.295 290.398C213.798 290.911 214.08 291.601 214.08 292.319C214.08 293.038 213.798 293.727 213.295 294.24C212.792 294.753 212.107 295.048 211.389 295.062H211.388Z"/><path fill="#4895FA" d="M204.556 243.149H194.23C192.108 243.149 190.387 244.869 190.387 246.992V248.472C190.387 250.594 192.108 252.315 194.23 252.315H204.556C206.678 252.315 208.399 250.594 208.399 248.472V246.992C208.399 244.869 206.678 243.149 204.556 243.149Z"/><path fill="#224DC2" d="M194.97 243.676H203.816C204.983 243.681 206.103 244.131 206.95 244.933C207.796 245.736 208.305 246.831 208.373 247.996C208.373 247.908 208.399 247.823 208.399 247.733C208.394 246.519 207.91 245.356 207.051 244.498C206.193 243.639 205.03 243.155 203.816 243.151H194.97C193.756 243.155 192.593 243.639 191.735 244.498C190.876 245.356 190.392 246.519 190.387 247.733C190.387 247.824 190.408 247.908 190.414 247.996C190.481 246.831 190.99 245.736 191.836 244.933C192.683 244.131 193.803 243.681 194.97 243.676Z"/><path fill="#224DC2" d="M283.49 295.062H293.651C300.055 295.058 306.204 292.556 310.792 288.088C315.38 283.62 318.044 277.539 318.218 271.137C318.391 264.736 316.061 258.519 311.722 253.809C307.383 249.099 301.378 246.268 294.984 245.917C294.837 245.893 294.689 245.881 294.54 245.881H293.65C293.285 245.874 292.923 245.94 292.584 246.074C292.245 246.209 291.937 246.41 291.677 246.665C291.416 246.921 291.21 247.225 291.068 247.561C290.927 247.898 290.855 248.259 290.855 248.623C290.855 248.988 290.927 249.349 291.068 249.685C291.21 250.021 291.416 250.326 291.677 250.581C291.937 250.837 292.245 251.037 292.584 251.172C292.923 251.307 293.285 251.373 293.65 251.366C298.717 251.366 303.577 253.379 307.16 256.962C310.743 260.545 312.755 265.404 312.755 270.471C312.755 275.538 310.743 280.398 307.16 283.981C303.577 287.564 298.717 289.577 293.65 289.577H283.49C282.772 289.59 282.087 289.885 281.584 290.398C281.081 290.911 280.799 291.601 280.799 292.319C280.799 293.038 281.081 293.727 281.584 294.24C282.087 294.753 282.772 295.048 283.49 295.062Z"/><path fill="#4895FA" d="M300.648 243.149H290.322C288.2 243.149 286.479 244.869 286.479 246.992V248.472C286.479 250.594 288.2 252.315 290.322 252.315H300.648C302.77 252.315 304.491 250.594 304.491 248.472V246.992C304.491 244.869 302.77 243.149 300.648 243.149Z"/><path fill="#224DC2" d="M299.908 243.675H291.062C289.895 243.68 288.775 244.13 287.928 244.932C287.082 245.735 286.573 246.83 286.505 247.995C286.505 247.907 286.479 247.822 286.479 247.732C286.484 246.518 286.968 245.355 287.827 244.497C288.685 243.638 289.848 243.154 291.062 243.15H299.908C301.122 243.154 302.285 243.638 303.143 244.497C304.002 245.355 304.486 246.518 304.491 247.732C304.491 247.823 304.469 247.907 304.464 247.995C304.397 246.83 303.888 245.735 303.042 244.932C302.195 244.13 301.075 243.68 299.908 243.675Z"/><path fill="#4895FA" d="M208.348 287.322H287.709C289.156 287.322 290.59 287.607 291.927 288.161C293.264 288.715 294.48 289.527 295.503 290.55C296.527 291.574 297.339 292.789 297.892 294.126C298.446 295.463 298.731 296.897 298.731 298.344C298.731 299.792 298.446 301.225 297.892 302.562C297.339 303.9 296.527 305.115 295.503 306.138C294.48 307.162 293.264 307.974 291.927 308.528C290.59 309.082 289.156 309.367 287.709 309.367H208.348C205.425 309.367 202.621 308.205 200.554 306.138C198.487 304.071 197.325 301.268 197.325 298.344C197.325 295.421 198.487 292.617 200.554 290.55C202.621 288.483 205.425 287.322 208.348 287.322V287.322Z"/><path fill="#224DC2" d="M208.346 288.355H287.707C290.537 288.364 293.256 289.458 295.303 291.413C297.35 293.368 298.568 296.034 298.707 298.861C298.715 298.689 298.733 298.519 298.733 298.345C298.724 295.424 297.56 292.626 295.495 290.561C293.43 288.495 290.632 287.331 287.711 287.323H208.346C205.425 287.331 202.627 288.495 200.562 290.561C198.497 292.626 197.333 295.424 197.324 298.345C197.324 298.519 197.342 298.69 197.35 298.861C197.489 296.034 198.706 293.369 200.752 291.414C202.798 289.46 205.516 288.364 208.346 288.355Z"/><path fill="#4895FA" d="M261.477 277.454H232.847C227.339 277.438 222.06 275.242 218.165 271.347C214.27 267.452 212.075 262.174 212.059 256.666L206.859 211.681C206.875 206.172 209.07 200.894 212.965 196.999C216.86 193.104 222.139 190.909 227.647 190.893H268.406C273.914 190.909 279.193 193.104 283.088 196.999C286.983 200.894 289.178 206.172 289.194 211.681L282.265 256.666C282.249 262.174 280.054 267.452 276.159 271.348C272.264 275.243 266.985 277.438 261.477 277.454Z"/><path fill="#52FFFD" d="M227.651 191.767H268.406C273.806 191.785 278.988 193.898 282.86 197.662C286.732 201.426 288.992 206.546 289.163 211.944L289.194 211.68C289.178 206.171 286.983 200.893 283.088 196.998C279.193 193.103 273.914 190.908 268.406 190.892H227.651C222.143 190.908 216.864 193.103 212.969 196.998C209.074 200.893 206.878 206.171 206.862 211.68L206.891 212C207.048 206.592 209.302 201.458 213.176 197.682C217.05 193.906 222.241 191.785 227.651 191.767Z"/><path fill="#224DC2" d="M283.826 303.77H212.231C209.973 303.77 208.143 305.6 208.143 307.858V309.433C208.143 311.69 209.973 313.521 212.231 313.521H283.826C286.084 313.521 287.914 311.69 287.914 309.433V307.858C287.914 305.6 286.084 303.77 283.826 303.77Z"/><path fill="#224DC2" d="M266.442 313.352H229.615C228.061 313.352 226.801 314.612 226.801 316.166V320.289C226.801 321.843 228.061 323.103 229.615 323.103H266.442C267.996 323.103 269.256 321.843 269.256 320.289V316.166C269.256 314.612 267.996 313.352 266.442 313.352Z"/><path fill="#2293F0" d="M213.019 304.081H283.039C284.302 304.086 285.515 304.58 286.421 305.461C287.327 306.341 287.857 307.538 287.899 308.801C287.899 308.747 287.915 308.701 287.915 308.645C287.911 307.353 287.396 306.115 286.482 305.201C285.569 304.288 284.331 303.773 283.039 303.769H213.019C211.727 303.773 210.489 304.288 209.576 305.201C208.662 306.115 208.148 307.353 208.144 308.645C208.144 308.699 208.158 308.745 208.16 308.801C208.202 307.538 208.732 306.341 209.638 305.461C210.544 304.581 211.756 304.086 213.019 304.081Z"/><path fill="#2273DB" d="M279.189 311.283H216.867C215.737 311.283 214.821 312.199 214.821 313.329V314.117C214.821 315.247 215.737 316.163 216.867 316.163H279.189C280.319 316.163 281.235 315.247 281.235 314.117V313.329C281.235 312.199 280.319 311.283 279.189 311.283Z"/><path fill="#22B2FF" d="M217.262 311.441H278.795C279.427 311.443 280.034 311.691 280.487 312.131C280.941 312.571 281.206 313.17 281.227 313.802C281.227 313.776 281.235 313.751 281.235 313.723C281.233 313.076 280.975 312.457 280.518 312C280.061 311.543 279.441 311.285 278.795 311.283H217.262C216.615 311.285 215.996 311.542 215.539 311.999C215.081 312.457 214.824 313.076 214.822 313.723C214.822 313.75 214.829 313.775 214.829 313.802C214.85 313.17 215.116 312.571 215.57 312.131C216.023 311.691 216.63 311.443 217.262 311.441Z"/><path fill="#22A4FD" d="M243.59 376.688V369.109C243.593 367.932 244.062 366.805 244.894 365.974C245.726 365.142 246.853 364.673 248.029 364.67C249.205 364.673 250.332 365.142 251.164 365.974C251.996 366.805 252.465 367.932 252.468 369.109V376.688"/><path fill="#2273DB" d="M214.832 384.912C214.436 384.912 214.051 384.777 213.743 384.528C213.434 384.279 213.22 383.932 213.137 383.545C213.053 383.157 213.105 382.753 213.284 382.399C213.462 382.045 213.757 381.764 214.118 381.601C225.055 376.663 236.918 374.11 248.918 374.11C260.918 374.11 272.781 376.663 283.718 381.601C284.131 381.793 284.451 382.141 284.609 382.568C284.767 382.995 284.751 383.467 284.564 383.883C284.376 384.298 284.033 384.622 283.608 384.786C283.183 384.95 282.711 384.94 282.293 384.758C271.803 380.024 260.426 377.576 248.918 377.576C237.41 377.576 226.033 380.024 215.543 384.758C215.32 384.859 215.077 384.912 214.832 384.912Z"/><path fill="#224DC2" d="M254.377 372.898H242.374C241.46 372.898 240.719 373.639 240.719 374.553V376.979C240.719 377.893 241.46 378.634 242.374 378.634H254.377C255.291 378.634 256.032 377.893 256.032 376.979V374.553C256.032 373.639 255.291 372.898 254.377 372.898Z"/><path fill="#2273DB" d="M248.57 375.766H248.175C247.611 375.766 247.153 376.223 247.153 376.788V390.12C247.153 390.684 247.611 391.142 248.175 391.142H248.57C249.134 391.142 249.592 390.684 249.592 390.12V376.788C249.592 376.223 249.134 375.766 248.57 375.766Z"/><path fill="#224DC2" d="M248.376 386.135C249.253 386.135 250.093 386.483 250.713 387.103C251.333 387.723 251.681 388.564 251.681 389.441V395.691C251.666 396.557 251.311 397.384 250.692 397.991C250.074 398.599 249.242 398.939 248.375 398.939C247.508 398.939 246.676 398.598 246.058 397.99C245.44 397.383 245.085 396.556 245.07 395.69V389.441C245.07 388.564 245.418 387.723 246.038 387.103C246.658 386.483 247.499 386.135 248.376 386.135Z"/><path fill="#224DC2" d="M285.999 393.102C289.445 393.102 292.239 390.308 292.239 386.862C292.239 383.415 289.445 380.622 285.999 380.622C282.553 380.622 279.759 383.415 279.759 386.862C279.759 390.308 282.553 393.102 285.999 393.102Z"/><path fill="#224DC2" d="M285.999 380.781C287.639 380.781 289.213 381.428 290.38 382.582C291.546 383.735 292.212 385.301 292.231 386.942C292.231 386.915 292.239 386.89 292.239 386.862C292.239 385.207 291.582 383.62 290.411 382.449C289.241 381.279 287.654 380.622 285.999 380.622C284.344 380.622 282.757 381.279 281.587 382.449C280.416 383.62 279.759 385.207 279.759 386.862C279.759 386.889 279.767 386.915 279.767 386.942C279.787 385.302 280.452 383.735 281.618 382.582C282.785 381.429 284.359 380.782 285.999 380.781Z"/><path fill="#67A5FF" d="M285.999 390.583C288.054 390.583 289.72 388.917 289.72 386.862C289.72 384.807 288.054 383.141 285.999 383.141C283.944 383.141 282.278 384.807 282.278 386.862C282.278 388.917 283.944 390.583 285.999 390.583Z"/><path fill="#2273DB" d="M285.999 388.356C286.824 388.356 287.493 387.687 287.493 386.862C287.493 386.037 286.824 385.368 285.999 385.368C285.174 385.368 284.505 386.037 284.505 386.862C284.505 387.687 285.174 388.356 285.999 388.356Z"/><path fill="#5FFFFF" d="M285.999 385.448C286.387 385.449 286.759 385.601 287.036 385.872C287.314 386.143 287.475 386.511 287.485 386.899C287.485 386.886 287.493 386.874 287.493 386.86C287.493 386.463 287.336 386.083 287.055 385.803C286.775 385.523 286.395 385.366 285.999 385.366C285.603 385.366 285.223 385.523 284.943 385.803C284.662 386.083 284.505 386.463 284.505 386.86C284.505 386.874 284.512 386.886 284.512 386.899C284.522 386.511 284.683 386.142 284.961 385.871C285.239 385.6 285.611 385.448 285.999 385.448Z"/><path fill="#224DC2" d="M213.099 393.102C216.545 393.102 219.339 390.308 219.339 386.862C219.339 383.415 216.545 380.622 213.099 380.622C209.653 380.622 206.859 383.415 206.859 386.862C206.859 390.308 209.653 393.102 213.099 393.102Z"/><path fill="#2273DB" d="M213.099 380.781C214.739 380.781 216.313 381.428 217.48 382.582C218.646 383.735 219.312 385.301 219.331 386.942C219.331 386.915 219.339 386.89 219.339 386.862C219.339 385.207 218.682 383.62 217.511 382.449C216.341 381.279 214.754 380.622 213.099 380.622C211.444 380.622 209.857 381.279 208.687 382.449C207.516 383.62 206.859 385.207 206.859 386.862C206.859 386.889 206.867 386.915 206.867 386.942C206.887 385.302 207.552 383.735 208.718 382.582C209.885 381.429 211.459 380.782 213.099 380.781Z"/><path fill="#67A5FF" d="M213.099 390.583C215.154 390.583 216.82 388.917 216.82 386.862C216.82 384.807 215.154 383.141 213.099 383.141C211.044 383.141 209.378 384.807 209.378 386.862C209.378 388.917 211.044 390.583 213.099 390.583Z"/><path fill="#2273DB" d="M213.099 388.356C213.924 388.356 214.593 387.687 214.593 386.862C214.593 386.037 213.924 385.368 213.099 385.368C212.274 385.368 211.605 386.037 211.605 386.862C211.605 387.687 212.274 388.356 213.099 388.356Z"/><path fill="#5FFFFF" d="M213.099 385.448C213.487 385.449 213.859 385.601 214.136 385.872C214.414 386.143 214.575 386.511 214.585 386.899C214.585 386.886 214.593 386.874 214.593 386.86C214.583 386.47 214.421 386.1 214.142 385.828C213.863 385.557 213.489 385.404 213.099 385.404C212.71 385.404 212.336 385.557 212.057 385.828C211.778 386.1 211.616 386.47 211.606 386.86C211.606 386.874 211.613 386.886 211.613 386.899C211.623 386.511 211.784 386.143 212.062 385.872C212.339 385.601 212.711 385.449 213.099 385.448Z"/><path fill="#224DC2" d="M260.721 219.479H235.336C230.622 219.479 226.801 223.3 226.801 228.014V231.303C226.801 236.016 230.622 239.838 235.336 239.838H260.721C265.435 239.838 269.256 236.016 269.256 231.303V228.014C269.256 223.3 265.435 219.479 260.721 219.479Z"/><path fill="#226EE5" d="M259.078 219.479H236.978C234.281 219.487 231.697 220.562 229.789 222.469C227.882 224.376 226.807 226.961 226.799 229.658C226.799 229.715 226.806 229.77 226.807 229.826C226.858 227.159 227.951 224.618 229.852 222.747C231.753 220.876 234.311 219.823 236.978 219.815H259.078C261.745 219.823 264.303 220.876 266.204 222.747C268.105 224.618 269.198 227.159 269.249 229.826C269.249 229.77 269.257 229.715 269.257 229.658C269.249 226.961 268.174 224.376 266.267 222.469C264.36 220.562 261.775 219.487 259.078 219.479Z"/><path fill="#111F9A" d="M250.072 227.176H245.986C244.446 227.176 243.197 228.424 243.197 229.965V305.856C243.197 307.396 244.446 308.645 245.986 308.645H250.072C251.612 308.645 252.861 307.396 252.861 305.856V229.965C252.861 228.424 251.612 227.176 250.072 227.176Z"/><path fill="#1159C9" d="M251.249 232.255H244.808C244.49 232.255 244.233 232.512 244.233 232.83V233.778C244.233 234.095 244.49 234.353 244.808 234.353H251.249C251.567 234.353 251.824 234.095 251.824 233.778V232.83C251.824 232.512 251.567 232.255 251.249 232.255Z"/><path fill="#111B54" d="M251.249 232.255H244.808C244.49 232.255 244.233 232.512 244.233 232.83V233.671C244.233 233.988 244.49 234.246 244.808 234.246H251.249C251.567 234.246 251.824 233.988 251.824 233.671V232.83C251.824 232.512 251.567 232.255 251.249 232.255Z"/><path fill="#1159C9" d="M251.249 238.029H244.808C244.49 238.029 244.233 238.286 244.233 238.604V239.552C244.233 239.869 244.49 240.127 244.808 240.127H251.249C251.567 240.127 251.824 239.869 251.824 239.552V238.604C251.824 238.286 251.567 238.029 251.249 238.029Z"/><path fill="#111B54" d="M251.249 238.029H244.808C244.49 238.029 244.233 238.286 244.233 238.604V239.445C244.233 239.762 244.49 240.02 244.808 240.02H251.249C251.567 240.02 251.824 239.762 251.824 239.445V238.604C251.824 238.286 251.567 238.029 251.249 238.029Z"/><path fill="#1159C9" d="M251.249 243.515H244.808C244.49 243.515 244.233 243.772 244.233 244.09V245.038C244.233 245.355 244.49 245.613 244.808 245.613H251.249C251.567 245.613 251.824 245.355 251.824 245.038V244.09C251.824 243.772 251.567 243.515 251.249 243.515Z"/><path fill="#111B54" d="M251.249 243.515H244.808C244.49 243.515 244.233 243.772 244.233 244.09V244.931C244.233 245.248 244.49 245.506 244.808 245.506H251.249C251.567 245.506 251.824 245.248 251.824 244.931V244.09C251.824 243.772 251.567 243.515 251.249 243.515Z"/><path fill="#1159C9" d="M251.249 249H244.808C244.49 249 244.233 249.257 244.233 249.575V250.523C244.233 250.84 244.49 251.098 244.808 251.098H251.249C251.567 251.098 251.824 250.84 251.824 250.523V249.575C251.824 249.257 251.567 249 251.249 249Z"/><path fill="#111B54" d="M251.249 249H244.808C244.49 249 244.233 249.257 244.233 249.575V250.416C244.233 250.733 244.49 250.991 244.808 250.991H251.249C251.567 250.991 251.824 250.733 251.824 250.416V249.575C251.824 249.257 251.567 249 251.249 249Z"/><path fill="#1159C9" d="M251.249 254.486H244.808C244.49 254.486 244.233 254.743 244.233 255.061V256.009C244.233 256.326 244.49 256.584 244.808 256.584H251.249C251.567 256.584 251.824 256.326 251.824 256.009V255.061C251.824 254.743 251.567 254.486 251.249 254.486Z"/><path fill="#111B54" d="M251.249 254.486H244.808C244.49 254.486 244.233 254.743 244.233 255.061V255.902C244.233 256.219 244.49 256.477 244.808 256.477H251.249C251.567 256.477 251.824 256.219 251.824 255.902V255.061C251.824 254.743 251.567 254.486 251.249 254.486Z"/><path fill="#1159C9" d="M251.249 259.971H244.808C244.49 259.971 244.233 260.228 244.233 260.546V261.494C244.233 261.811 244.49 262.069 244.808 262.069H251.249C251.567 262.069 251.824 261.811 251.824 261.494V260.546C251.824 260.228 251.567 259.971 251.249 259.971Z"/><path fill="#111B54" d="M251.249 259.971H244.808C244.49 259.971 244.233 260.228 244.233 260.546V261.387C244.233 261.704 244.49 261.962 244.808 261.962H251.249C251.567 261.962 251.824 261.704 251.824 261.387V260.546C251.824 260.228 251.567 259.971 251.249 259.971Z"/><path fill="#1159C9" d="M251.249 265.457H244.808C244.49 265.457 244.233 265.714 244.233 266.032V266.98C244.233 267.297 244.49 267.555 244.808 267.555H251.249C251.567 267.555 251.824 267.297 251.824 266.98V266.032C251.824 265.714 251.567 265.457 251.249 265.457Z"/><path fill="#111B54" d="M251.249 265.457H244.808C244.49 265.457 244.233 265.714 244.233 266.032V266.873C244.233 267.19 244.49 267.448 244.808 267.448H251.249C251.567 267.448 251.824 267.19 251.824 266.873V266.032C251.824 265.714 251.567 265.457 251.249 265.457Z"/><path fill="#1159C9" d="M251.249 270.942H244.808C244.49 270.942 244.233 271.199 244.233 271.517V272.465C244.233 272.782 244.49 273.04 244.808 273.04H251.249C251.567 273.04 251.824 272.782 251.824 272.465V271.517C251.824 271.199 251.567 270.942 251.249 270.942Z"/><path fill="#111B54" d="M251.249 270.942H244.808C244.49 270.942 244.233 271.199 244.233 271.517V272.358C244.233 272.675 244.49 272.933 244.808 272.933H251.249C251.567 272.933 251.824 272.675 251.824 272.358V271.517C251.824 271.199 251.567 270.942 251.249 270.942Z"/><path fill="#1159C9" d="M251.249 276.428H244.808C244.49 276.428 244.233 276.685 244.233 277.003V277.951C244.233 278.268 244.49 278.526 244.808 278.526H251.249C251.567 278.526 251.824 278.268 251.824 277.951V277.003C251.824 276.685 251.567 276.428 251.249 276.428Z"/><path fill="#111B54" d="M251.249 276.428H244.808C244.49 276.428 244.233 276.685 244.233 277.003V277.844C244.233 278.161 244.49 278.419 244.808 278.419H251.249C251.567 278.419 251.824 278.161 251.824 277.844V277.003C251.824 276.685 251.567 276.428 251.249 276.428Z"/><path fill="#1159C9" d="M251.249 281.913H244.808C244.49 281.913 244.233 282.17 244.233 282.488V283.436C244.233 283.753 244.49 284.011 244.808 284.011H251.249C251.567 284.011 251.824 283.753 251.824 283.436V282.488C251.824 282.17 251.567 281.913 251.249 281.913Z"/><path fill="#111B54" d="M251.249 281.913H244.808C244.49 281.913 244.233 282.17 244.233 282.488V283.329C244.233 283.646 244.49 283.904 244.808 283.904H251.249C251.567 283.904 251.824 283.646 251.824 283.329V282.488C251.824 282.17 251.567 281.913 251.249 281.913Z"/><path fill="#1159C9" d="M251.249 287.399H244.808C244.49 287.399 244.233 287.656 244.233 287.974V288.922C244.233 289.239 244.49 289.497 244.808 289.497H251.249C251.567 289.497 251.824 289.239 251.824 288.922V287.974C251.824 287.656 251.567 287.399 251.249 287.399Z"/><path fill="#111B54" d="M251.249 287.399H244.808C244.49 287.399 244.233 287.656 244.233 287.974V288.815C244.233 289.132 244.49 289.39 244.808 289.39H251.249C251.567 289.39 251.824 289.132 251.824 288.815V287.974C251.824 287.656 251.567 287.399 251.249 287.399Z"/><path fill="#1159C9" d="M251.249 292.884H244.808C244.49 292.884 244.233 293.141 244.233 293.459V294.407C244.233 294.724 244.49 294.982 244.808 294.982H251.249C251.567 294.982 251.824 294.724 251.824 294.407V293.459C251.824 293.141 251.567 292.884 251.249 292.884Z"/><path fill="#111B54" d="M251.249 292.884H244.808C244.49 292.884 244.233 293.141 244.233 293.459V294.3C244.233 294.617 244.49 294.875 244.808 294.875H251.249C251.567 294.875 251.824 294.617 251.824 294.3V293.459C251.824 293.141 251.567 292.884 251.249 292.884Z"/><path fill="#1159C9" d="M251.249 298.37H244.808C244.49 298.37 244.233 298.627 244.233 298.945V299.893C244.233 300.21 244.49 300.468 244.808 300.468H251.249C251.567 300.468 251.824 300.21 251.824 299.893V298.945C251.824 298.627 251.567 298.37 251.249 298.37Z"/><path fill="#111B54" d="M251.249 298.37H244.808C244.49 298.37 244.233 298.627 244.233 298.945V299.786C244.233 300.103 244.49 300.361 244.808 300.361H251.249C251.567 300.361 251.824 300.103 251.824 299.786V298.945C251.824 298.627 251.567 298.37 251.249 298.37Z"/><path fill="#34C6E7" d="M340.486 244.47C339.309 244.47 338.158 244.121 337.179 243.467C336.2 242.813 335.437 241.884 334.986 240.796C334.536 239.709 334.418 238.512 334.647 237.358C334.877 236.203 335.443 235.142 336.276 234.31C337.108 233.477 338.168 232.91 339.323 232.68C340.477 232.45 341.674 232.568 342.762 233.018C343.849 233.469 344.779 234.231 345.433 235.21C346.088 236.189 346.437 237.34 346.437 238.517C346.436 240.095 345.808 241.608 344.693 242.724C343.577 243.84 342.064 244.468 340.486 244.47ZM340.486 234.33C339.658 234.33 338.848 234.575 338.159 235.035C337.47 235.495 336.933 236.149 336.616 236.915C336.299 237.68 336.216 238.522 336.377 239.335C336.539 240.147 336.938 240.893 337.524 241.479C338.109 242.065 338.856 242.464 339.668 242.625C340.481 242.787 341.323 242.704 342.088 242.387C342.853 242.07 343.507 241.533 343.968 240.844C344.428 240.155 344.673 239.345 344.673 238.517C344.672 237.406 344.231 236.341 343.446 235.556C342.661 234.77 341.596 234.328 340.486 234.327V234.33Z"/><path fill="#34DCE7" d="M340.357 230.123V242.082C340.349 244.639 339.33 247.09 337.521 248.898C335.713 250.706 333.262 251.725 330.705 251.733C328.148 251.725 325.697 250.706 323.888 248.898C322.08 247.09 321.061 244.639 321.053 242.082V230.123H340.357Z"/><path fill="#34C6E7" d="M339.587 250.418H321.823C321.325 250.418 320.922 250.821 320.922 251.319V252.146C320.922 252.643 321.325 253.047 321.823 253.047H339.587C340.085 253.047 340.488 252.643 340.488 252.146V251.319C340.488 250.821 340.085 250.418 339.587 250.418Z"/><path fill="#2753CC" d="M278 52L281.528 91.848L297.37 96.275L313.207 91.85L316.741 52H278ZM309.2 65.031L308.755 70.037L307.41 85.046L297.37 87.819H297.364L287.334 85.043L286.634 77.195H291.549L291.914 81.268L297.368 82.74L297.374 82.734L302.834 81.262L303.578 74.48L286.4 74.528L285.913 69.887L303.991 69.677L304.356 64.71L285.428 64.763L285.11 60.147H309.635L309.2 65.031Z"/><path fill="#2753CC" d="M190.004 53.46L192.867 90.087C192.888 90.3559 192.989 90.6124 193.156 90.8237C193.324 91.035 193.551 91.1914 193.808 91.273L208.872 96.05C209.139 96.1345 209.425 96.1345 209.691 96.05L224.756 91.274C225.013 91.1924 225.24 91.036 225.408 90.8247C225.575 90.6134 225.676 90.3569 225.697 90.088L228.561 53.46C228.576 53.2738 228.551 53.0866 228.49 52.9101C228.429 52.7337 228.332 52.5718 228.205 52.4347C228.078 52.2976 227.924 52.1882 227.753 52.1134C227.582 52.0386 227.397 52 227.21 52H191.354C191.167 52.0001 190.983 52.0388 190.812 52.1137C190.641 52.1886 190.487 52.298 190.36 52.4351C190.233 52.5722 190.136 52.734 190.075 52.9103C190.014 53.0867 189.99 53.2739 190.004 53.46ZM221.219 64.824H202.56L203.123 70.017H220.813L219.656 84.817L209.282 88.11L198.904 84.821L198.304 77.087H203.749V80.88L209.427 82.4L215.072 80.876L215.51 74.83H198.127L196.973 60.07H221.59L221.219 64.824Z"/></svg>