<svg width="1920" height="1080" viewBox="0 0 1920 1080" fill="none" xmlns="http://www.w3.org/2000/svg">
<rect width="1920" height="1080" fill="#E5E5E5"/>
<rect width="1920" height="1080" fill="#D6F5FF"/>
<path d="M1498 509.699L1495.96 508.398L1497.26 506.354L1496.7 506L1495.4 508.044L1493.36 506.743L1493 507.301L1495.04 508.601L1493.74 510.645L1494.3 511L1495.6 508.956L1497.64 510.256L1498 509.699Z" fill="black"/>
<path d="M664 640.699L661.956 639.398L663.257 637.354L662.699 637L661.398 639.044L659.355 637.743L659 638.301L661.044 639.601L659.743 641.645L660.301 642L661.602 639.956L663.645 641.256L664 640.699Z" fill="black"/>
<path d="M137 254.699L134.956 253.398L136.257 251.354L135.699 251L134.398 253.044L132.355 251.743L132 252.301L134.044 253.601L132.743 255.645L133.301 256L134.602 253.956L136.645 255.256L137 254.699Z" fill="black"/>
<path d="M766 356.699L763.956 355.398L765.257 353.354L764.699 353L763.398 355.044L761.355 353.743L761 354.301L763.044 355.601L761.743 357.645L762.301 358L763.602 355.956L765.645 357.256L766 356.699Z" fill="black"/>
<path d="M443 504.699L440.956 503.398L442.257 501.354L441.699 501L440.398 503.044L438.355 501.743L438 502.301L440.044 503.601L438.743 505.645L439.301 506L440.602 503.956L442.645 505.256L443 504.699Z" fill="black"/>
<path d="M1780 886.699L1777.96 885.398L1779.26 883.354L1778.7 883L1777.4 885.044L1775.36 883.743L1775 884.301L1777.04 885.601L1775.74 887.645L1776.3 888L1777.6 885.956L1779.64 887.256L1780 886.699Z" fill="black"/>
<path d="M1209 163.699L1206.96 162.398L1208.26 160.354L1207.7 160L1206.4 162.044L1204.36 160.743L1204 161.301L1206.04 162.601L1204.74 164.645L1205.3 165L1206.6 162.956L1208.64 164.256L1209 163.699Z" fill="black"/>
<path d="M950 481.699L947.956 480.398L949.257 478.354L948.699 478L947.398 480.044L945.355 478.743L945 479.301L947.044 480.601L945.743 482.645L946.301 483L947.602 480.956L949.645 482.256L950 481.699Z" fill="black"/>
<path d="M1493 995.699L1490.96 994.398L1492.26 992.354L1491.7 992L1490.4 994.044L1488.36 992.743L1488 993.301L1490.04 994.601L1488.74 996.645L1489.3 997L1490.6 994.956L1492.64 996.256L1493 995.699Z" fill="black"/>
<path d="M207 681.699L204.956 680.398L206.257 678.354L205.699 678L204.398 680.044L202.355 678.743L202 679.301L204.044 680.601L202.743 682.645L203.301 683L204.602 680.956L206.645 682.256L207 681.699Z" fill="black"/>
<path d="M75 392.699L72.9556 391.398L74.2566 389.354L73.699 389L72.398 391.044L70.3555 389.743L70 390.301L72.0444 391.601L70.7434 393.645L71.301 394L72.602 391.956L74.6445 393.256L75 392.699Z" fill="black"/>
<path d="M80 108.699L77.9556 107.398L79.2566 105.354L78.699 105L77.398 107.044L75.3555 105.743L75 106.301L77.0444 107.601L75.7434 109.645L76.301 110L77.602 107.956L79.6445 109.256L80 108.699Z" fill="black"/>
<path d="M1666 663.699L1663.96 662.398L1665.26 660.354L1664.7 660L1663.4 662.044L1661.36 660.743L1661 661.301L1663.04 662.601L1661.74 664.645L1662.3 665L1663.6 662.956L1665.64 664.256L1666 663.699Z" fill="black"/>
<path d="M1689 220.699L1686.96 219.398L1688.26 217.354L1687.7 217L1686.4 219.044L1684.36 217.743L1684 218.301L1686.04 219.601L1684.74 221.645L1685.3 222L1686.6 219.956L1688.64 221.256L1689 220.699Z" fill="black"/>
<path d="M1064 731.699L1061.96 730.398L1063.26 728.354L1062.7 728L1061.4 730.044L1059.36 728.743L1059 729.301L1061.04 730.601L1059.74 732.645L1060.3 733L1061.6 730.956L1063.64 732.256L1064 731.699Z" fill="black"/>
<path d="M132 977.699L129.956 976.398L131.257 974.354L130.699 974L129.398 976.044L127.355 974.743L127 975.301L129.044 976.601L127.743 978.645L128.301 979L129.602 976.956L131.645 978.256L132 977.699Z" fill="black"/>
<path d="M926.749 604.5C927.716 604.5 928.5 603.717 928.5 602.75C928.5 601.783 927.716 601 926.749 601C925.783 601 925 601.783 925 602.75C925 603.717 925.783 604.5 926.749 604.5Z" fill="#DB4437"/>
<path d="M1639.75 812.5C1640.72 812.5 1641.5 811.717 1641.5 810.75C1641.5 809.783 1640.72 809 1639.75 809C1638.78 809 1638 809.783 1638 810.75C1638 811.717 1638.78 812.5 1639.75 812.5Z" fill="#DB4437"/>
<path d="M952.749 724.5C953.716 724.5 954.5 723.717 954.5 722.75C954.5 721.783 953.716 721 952.749 721C951.783 721 951 721.783 951 722.75C951 723.717 951.783 724.5 952.749 724.5Z" fill="#DB4437"/>
<path d="M288.749 755.5C289.716 755.5 290.5 754.717 290.5 753.75C290.5 752.783 289.716 752 288.749 752C287.783 752 287 752.783 287 753.75C287 754.717 287.783 755.5 288.749 755.5Z" fill="#DB4437"/>
<path d="M1637.75 349.5C1638.72 349.5 1639.5 348.717 1639.5 347.75C1639.5 346.783 1638.72 346 1637.75 346C1636.78 346 1636 346.783 1636 347.75C1636 348.717 1636.78 349.5 1637.75 349.5Z" fill="#DB4437"/>
<path d="M1544.75 154.5C1545.72 154.5 1546.5 153.717 1546.5 152.75C1546.5 151.783 1545.72 151 1544.75 151C1543.78 151 1543 151.783 1543 152.75C1543 153.717 1543.78 154.5 1544.75 154.5Z" fill="#DB4437"/>
<path d="M106.749 974.5C107.716 974.5 108.5 973.717 108.5 972.75C108.5 971.783 107.716 971 106.749 971C105.783 971 105 971.783 105 972.75C105 973.717 105.783 974.5 106.749 974.5Z" fill="#DB4437"/>
<path d="M1803.75 646.5C1804.72 646.5 1805.5 645.717 1805.5 644.75C1805.5 643.783 1804.72 643 1803.75 643C1802.78 643 1802 643.783 1802 644.75C1802 645.717 1802.78 646.5 1803.75 646.5Z" fill="#DB4437"/>
<path d="M1432.75 777.5C1433.72 777.5 1434.5 776.717 1434.5 775.75C1434.5 774.783 1433.72 774 1432.75 774C1431.78 774 1431 774.783 1431 775.75C1431 776.717 1431.78 777.5 1432.75 777.5Z" fill="#DB4437"/>
<path d="M1094.75 978.5C1095.72 978.5 1096.5 977.717 1096.5 976.75C1096.5 975.783 1095.72 975 1094.75 975C1093.78 975 1093 975.783 1093 976.75C1093 977.717 1093.78 978.5 1094.75 978.5Z" fill="#DB4437"/>
<path d="M1218.75 403.5C1219.72 403.5 1220.5 402.717 1220.5 401.75C1220.5 400.783 1219.72 400 1218.75 400C1217.78 400 1217 400.783 1217 401.75C1217 402.717 1217.78 403.5 1218.75 403.5Z" fill="#DB4437"/>
<path d="M623.749 808.5C624.716 808.5 625.5 807.717 625.5 806.75C625.5 805.783 624.716 805 623.749 805C622.783 805 622 805.783 622 806.75C622 807.717 622.783 808.5 623.749 808.5Z" fill="#DB4437"/>
<path d="M154.749 498.5C155.716 498.5 156.5 497.717 156.5 496.75C156.5 495.783 155.716 495 154.749 495C153.783 495 153 495.783 153 496.75C153 497.717 153.783 498.5 154.749 498.5Z" fill="#DB4437"/>
<path d="M1191.75 225.5C1192.72 225.5 1193.5 224.717 1193.5 223.75C1193.5 222.783 1192.72 222 1191.75 222C1190.78 222 1190 222.783 1190 223.75C1190 224.717 1190.78 225.5 1191.75 225.5Z" fill="#DB4437"/>
<path d="M1578.75 459.5C1579.72 459.5 1580.5 458.717 1580.5 457.75C1580.5 456.783 1579.72 456 1578.75 456C1577.78 456 1577 456.783 1577 457.75C1577 458.717 1577.78 459.5 1578.75 459.5Z" fill="#DB4437"/>
<path d="M827.749 461.5C828.716 461.5 829.5 460.717 829.5 459.75C829.5 458.783 828.716 458 827.749 458C826.783 458 826 458.783 826 459.75C826 460.717 826.783 461.5 827.749 461.5Z" fill="#DB4437"/>
<path d="M480.749 751.5C481.716 751.5 482.5 750.717 482.5 749.75C482.5 748.783 481.716 748 480.749 748C479.783 748 479 748.783 479 749.75C479 750.717 479.783 751.5 480.749 751.5Z" fill="#DB4437"/>
<path d="M89.7493 293.5C90.716 293.5 91.5 292.717 91.5 291.75C91.5 290.783 90.716 290 89.7493 290C88.7825 290 88 290.783 88 291.75C88 292.717 88.7825 293.5 89.7493 293.5Z" fill="#DB4437"/>
<path d="M321.749 131.5C322.716 131.5 323.5 130.717 323.5 129.75C323.5 128.783 322.716 128 321.749 128C320.783 128 320 128.783 320 129.75C320 130.717 320.783 131.5 321.749 131.5Z" fill="#DB4437"/>
<path d="M997.749 255.5C998.716 255.5 999.5 254.717 999.5 253.75C999.5 252.783 998.716 252 997.749 252C996.783 252 996 252.783 996 253.75C996 254.717 996.783 255.5 997.749 255.5Z" fill="#DB4437"/>
<path d="M896.749 289.5C897.716 289.5 898.5 288.717 898.5 287.75C898.5 286.783 897.716 286 896.749 286C895.783 286 895 286.783 895 287.75C895 288.717 895.783 289.5 896.749 289.5Z" fill="#0093ED"/>
<path d="M1546.75 626.5C1547.72 626.5 1548.5 625.717 1548.5 624.75C1548.5 623.783 1547.72 623 1546.75 623C1545.78 623 1545 623.783 1545 624.75C1545 625.717 1545.78 626.5 1546.75 626.5Z" fill="#0093ED"/>
<path d="M1841.75 363.5C1842.72 363.5 1843.5 362.717 1843.5 361.75C1843.5 360.783 1842.72 360 1841.75 360C1840.78 360 1840 360.783 1840 361.75C1840 362.717 1840.78 363.5 1841.75 363.5Z" fill="#0093ED"/>
<path d="M1408.75 275.5C1409.72 275.5 1410.5 274.717 1410.5 273.75C1410.5 272.783 1409.72 272 1408.75 272C1407.78 272 1407 272.783 1407 273.75C1407 274.717 1407.78 275.5 1408.75 275.5Z" fill="#0093ED"/>
<path d="M1730.75 108.5C1731.72 108.5 1732.5 107.717 1732.5 106.75C1732.5 105.783 1731.72 105 1730.75 105C1729.78 105 1729 105.783 1729 106.75C1729 107.717 1729.78 108.5 1730.75 108.5Z" fill="#0093ED"/>
<path d="M1269.75 538.5C1270.72 538.5 1271.5 537.717 1271.5 536.75C1271.5 535.783 1270.72 535 1269.75 535C1268.78 535 1268 535.783 1268 536.75C1268 537.717 1268.78 538.5 1269.75 538.5Z" fill="#0093ED"/>
<path d="M362.749 536.5C363.716 536.5 364.5 535.717 364.5 534.75C364.5 533.783 363.716 533 362.749 533C361.783 533 361 533.783 361 534.75C361 535.717 361.783 536.5 362.749 536.5Z" fill="#0093ED"/>
<path d="M1735.75 901.5C1736.72 901.5 1737.5 900.717 1737.5 899.75C1737.5 898.783 1736.72 898 1735.75 898C1734.78 898 1734 898.783 1734 899.75C1734 900.717 1734.78 901.5 1735.75 901.5Z" fill="#0093ED"/>
<path d="M618.749 135.5C619.716 135.5 620.5 134.717 620.5 133.75C620.5 132.783 619.716 132 618.749 132C617.783 132 617 132.783 617 133.75C617 134.717 617.783 135.5 618.749 135.5Z" fill="#0093ED"/>
<path d="M1487.75 978.5C1488.72 978.5 1489.5 977.717 1489.5 976.75C1489.5 975.783 1488.72 975 1487.75 975C1486.78 975 1486 975.783 1486 976.75C1486 977.717 1486.78 978.5 1487.75 978.5Z" fill="#0093ED"/>
<path d="M786.749 921.5C787.716 921.5 788.5 920.717 788.5 919.75C788.5 918.783 787.716 918 786.749 918C785.783 918 785 918.783 785 919.75C785 920.717 785.783 921.5 786.749 921.5Z" fill="#0093ED"/>
<path d="M1049.75 113.5C1050.72 113.5 1051.5 112.717 1051.5 111.75C1051.5 110.783 1050.72 110 1049.75 110C1048.78 110 1048 110.783 1048 111.75C1048 112.717 1048.78 113.5 1049.75 113.5Z" fill="#0093ED"/>
<path d="M127.749 728.5C128.716 728.5 129.5 727.717 129.5 726.75C129.5 725.783 128.716 725 127.749 725C126.783 725 126 725.783 126 726.75C126 727.717 126.783 728.5 127.749 728.5Z" fill="#0093ED"/>
<path d="M524.749 358.5C525.716 358.5 526.5 357.717 526.5 356.75C526.5 355.783 525.716 355 524.749 355C523.783 355 523 355.783 523 356.75C523 357.717 523.783 358.5 524.749 358.5Z" fill="#0093ED"/>
<path d="M1170.75 825.5C1171.72 825.5 1172.5 824.717 1172.5 823.75C1172.5 822.783 1171.72 822 1170.75 822C1169.78 822 1169 822.783 1169 823.75C1169 824.717 1169.78 825.5 1170.75 825.5Z" fill="#0093ED"/>
<path d="M205.749 353.5C206.716 353.5 207.5 352.717 207.5 351.75C207.5 350.783 206.716 350 205.749 350C204.783 350 204 350.783 204 351.75C204 352.717 204.783 353.5 205.749 353.5Z" fill="#0093ED"/>
<path d="M677.749 608.5C678.716 608.5 679.5 607.717 679.5 606.75C679.5 605.783 678.716 605 677.749 605C676.783 605 676 605.783 676 606.75C676 607.717 676.783 608.5 677.749 608.5Z" fill="#0093ED"/>
<path d="M290.749 961.5C291.716 961.5 292.5 960.717 292.5 959.75C292.5 958.783 291.716 958 290.749 958C289.783 958 289 958.783 289 959.75C289 960.717 289.783 961.5 290.749 961.5Z" fill="#0093ED"/>
<path d="M59.7493 103.5C60.716 103.5 61.5 102.717 61.5 101.75C61.5 100.783 60.716 100 59.7493 100C58.7825 100 58 100.783 58 101.75C58 102.717 58.7825 103.5 59.7493 103.5Z" fill="#0093ED"/>
</svg>
