<svg width="1920" height="1080" viewBox="0 0 1920 1080" fill="none" xmlns="http://www.w3.org/2000/svg">
<rect width="1920" height="1080" fill="#E5E5E5"/>
<rect width="1920" height="1080" fill="#D6F5FF"/>
<path d="M425.771 538.047L424.638 537.327L425.359 536.196L425.05 536L424.329 537.131L423.197 536.411L423 536.72L424.133 537.439L423.412 538.571L423.721 538.767L424.442 537.636L425.574 538.356L425.771 538.047Z" fill="#F4B400"/>
<path d="M793.771 84.0471L792.638 83.3275L793.359 82.1961L793.05 82L792.329 83.1311L791.197 82.4111L791 82.7199L792.133 83.4394L791.412 84.5709L791.721 84.7674L792.442 83.6359L793.574 84.3558L793.771 84.0471Z" fill="#F4B400"/>
<path d="M82.771 283.047L81.638 282.327L82.359 281.196L82.05 281L81.329 282.131L80.197 281.411L80 281.72L81.133 282.439L80.412 283.571L80.721 283.767L81.442 282.636L82.574 283.356L82.771 283.047Z" fill="#F4B400"/>
<path d="M1502.77 844.047L1501.64 843.327L1502.36 842.196L1502.05 842L1501.33 843.131L1500.2 842.411L1500 842.72L1501.13 843.439L1500.41 844.571L1500.72 844.767L1501.44 843.636L1502.57 844.356L1502.77 844.047Z" fill="#F4B400"/>
<path d="M1743.77 439.047L1742.64 438.327L1743.36 437.196L1743.05 437L1742.33 438.131L1741.2 437.411L1741 437.72L1742.13 438.439L1741.41 439.571L1741.72 439.767L1742.44 438.636L1743.57 439.356L1743.77 439.047Z" fill="#F4B400"/>
<path d="M917.771 844.047L916.638 843.327L917.359 842.196L917.05 842L916.329 843.131L915.197 842.411L915 842.72L916.133 843.439L915.412 844.571L915.721 844.767L916.442 843.636L917.574 844.356L917.771 844.047Z" fill="#F4B400"/>
<path d="M233.771 723.047L232.638 722.327L233.359 721.196L233.05 721L232.329 722.131L231.197 721.411L231 721.72L232.133 722.439L231.412 723.571L231.721 723.767L232.442 722.636L233.574 723.356L233.771 723.047Z" fill="#F4B400"/>
<path d="M423.517 540.808L422.384 540.088L423.105 538.957L422.796 538.761L422.075 539.892L420.943 539.172L420.746 539.481L421.879 540.2L421.158 541.332L421.467 541.528L422.188 540.397L423.32 541.117L423.517 540.808Z" fill="#F4B400"/>
<path d="M1383.77 413.047L1382.64 412.327L1383.36 411.196L1383.05 411L1382.33 412.131L1381.2 411.411L1381 411.72L1382.13 412.439L1381.41 413.571L1381.72 413.767L1382.44 412.636L1383.57 413.356L1383.77 413.047Z" fill="#F4B400"/>
<path d="M790.5 228.589L789.069 227.679L789.98 226.248L789.589 226L788.679 227.431L787.249 226.52L787 226.91L788.431 227.82L787.52 229.251L787.911 229.5L788.821 228.069L790.251 228.979L790.5 228.589Z" fill="#F4B400"/>
<path d="M926.749 604.5C927.716 604.5 928.5 603.717 928.5 602.75C928.5 601.783 927.716 601 926.749 601C925.783 601 925 601.783 925 602.75C925 603.717 925.783 604.5 926.749 604.5Z" fill="#DB4437"/>
<path d="M1639.75 812.5C1640.72 812.5 1641.5 811.717 1641.5 810.75C1641.5 809.783 1640.72 809 1639.75 809C1638.78 809 1638 809.783 1638 810.75C1638 811.717 1638.78 812.5 1639.75 812.5Z" fill="#DB4437"/>
<path d="M952.749 724.5C953.716 724.5 954.5 723.717 954.5 722.75C954.5 721.783 953.716 721 952.749 721C951.783 721 951 721.783 951 722.75C951 723.717 951.783 724.5 952.749 724.5Z" fill="#DB4437"/>
<path d="M288.749 755.5C289.716 755.5 290.5 754.717 290.5 753.75C290.5 752.783 289.716 752 288.749 752C287.783 752 287 752.783 287 753.75C287 754.717 287.783 755.5 288.749 755.5Z" fill="#DB4437"/>
<path d="M1637.75 349.5C1638.72 349.5 1639.5 348.717 1639.5 347.75C1639.5 346.783 1638.72 346 1637.75 346C1636.78 346 1636 346.783 1636 347.75C1636 348.717 1636.78 349.5 1637.75 349.5Z" fill="#DB4437"/>
<path d="M1544.75 154.5C1545.72 154.5 1546.5 153.717 1546.5 152.75C1546.5 151.783 1545.72 151 1544.75 151C1543.78 151 1543 151.783 1543 152.75C1543 153.717 1543.78 154.5 1544.75 154.5Z" fill="#DB4437"/>
<path d="M106.749 974.5C107.716 974.5 108.5 973.717 108.5 972.75C108.5 971.783 107.716 971 106.749 971C105.783 971 105 971.783 105 972.75C105 973.717 105.783 974.5 106.749 974.5Z" fill="#DB4437"/>
<path d="M1803.75 646.5C1804.72 646.5 1805.5 645.717 1805.5 644.75C1805.5 643.783 1804.72 643 1803.75 643C1802.78 643 1802 643.783 1802 644.75C1802 645.717 1802.78 646.5 1803.75 646.5Z" fill="#DB4437"/>
<path d="M1432.75 777.5C1433.72 777.5 1434.5 776.717 1434.5 775.75C1434.5 774.783 1433.72 774 1432.75 774C1431.78 774 1431 774.783 1431 775.75C1431 776.717 1431.78 777.5 1432.75 777.5Z" fill="#DB4437"/>
<path d="M1094.75 978.5C1095.72 978.5 1096.5 977.717 1096.5 976.75C1096.5 975.783 1095.72 975 1094.75 975C1093.78 975 1093 975.783 1093 976.75C1093 977.717 1093.78 978.5 1094.75 978.5Z" fill="#DB4437"/>
<path d="M1218.75 403.5C1219.72 403.5 1220.5 402.717 1220.5 401.75C1220.5 400.783 1219.72 400 1218.75 400C1217.78 400 1217 400.783 1217 401.75C1217 402.717 1217.78 403.5 1218.75 403.5Z" fill="#DB4437"/>
<path d="M623.749 808.5C624.716 808.5 625.5 807.717 625.5 806.75C625.5 805.783 624.716 805 623.749 805C622.783 805 622 805.783 622 806.75C622 807.717 622.783 808.5 623.749 808.5Z" fill="#DB4437"/>
<path d="M154.749 498.5C155.716 498.5 156.5 497.717 156.5 496.75C156.5 495.783 155.716 495 154.749 495C153.783 495 153 495.783 153 496.75C153 497.717 153.783 498.5 154.749 498.5Z" fill="#DB4437"/>
<path d="M1191.75 225.5C1192.72 225.5 1193.5 224.717 1193.5 223.75C1193.5 222.783 1192.72 222 1191.75 222C1190.78 222 1190 222.783 1190 223.75C1190 224.717 1190.78 225.5 1191.75 225.5Z" fill="#DB4437"/>
<path d="M1578.75 459.5C1579.72 459.5 1580.5 458.717 1580.5 457.75C1580.5 456.783 1579.72 456 1578.75 456C1577.78 456 1577 456.783 1577 457.75C1577 458.717 1577.78 459.5 1578.75 459.5Z" fill="#DB4437"/>
<path d="M827.749 461.5C828.716 461.5 829.5 460.717 829.5 459.75C829.5 458.783 828.716 458 827.749 458C826.783 458 826 458.783 826 459.75C826 460.717 826.783 461.5 827.749 461.5Z" fill="#DB4437"/>
<path d="M480.749 751.5C481.716 751.5 482.5 750.717 482.5 749.75C482.5 748.783 481.716 748 480.749 748C479.783 748 479 748.783 479 749.75C479 750.717 479.783 751.5 480.749 751.5Z" fill="#DB4437"/>
<path d="M89.7493 293.5C90.716 293.5 91.5 292.717 91.5 291.75C91.5 290.783 90.716 290 89.7493 290C88.7825 290 88 290.783 88 291.75C88 292.717 88.7825 293.5 89.7493 293.5Z" fill="#DB4437"/>
<path d="M321.749 131.5C322.716 131.5 323.5 130.717 323.5 129.75C323.5 128.783 322.716 128 321.749 128C320.783 128 320 128.783 320 129.75C320 130.717 320.783 131.5 321.749 131.5Z" fill="#DB4437"/>
<path d="M997.749 255.5C998.716 255.5 999.5 254.717 999.5 253.75C999.5 252.783 998.716 252 997.749 252C996.783 252 996 252.783 996 253.75C996 254.717 996.783 255.5 997.749 255.5Z" fill="#DB4437"/>
<path d="M896.749 289.5C897.716 289.5 898.5 288.717 898.5 287.75C898.5 286.783 897.716 286 896.749 286C895.783 286 895 286.783 895 287.75C895 288.717 895.783 289.5 896.749 289.5Z" fill="#0093ED"/>
<path d="M1546.75 626.5C1547.72 626.5 1548.5 625.717 1548.5 624.75C1548.5 623.783 1547.72 623 1546.75 623C1545.78 623 1545 623.783 1545 624.75C1545 625.717 1545.78 626.5 1546.75 626.5Z" fill="#0093ED"/>
<path d="M1841.75 363.5C1842.72 363.5 1843.5 362.717 1843.5 361.75C1843.5 360.783 1842.72 360 1841.75 360C1840.78 360 1840 360.783 1840 361.75C1840 362.717 1840.78 363.5 1841.75 363.5Z" fill="#0093ED"/>
<path d="M1408.75 275.5C1409.72 275.5 1410.5 274.717 1410.5 273.75C1410.5 272.783 1409.72 272 1408.75 272C1407.78 272 1407 272.783 1407 273.75C1407 274.717 1407.78 275.5 1408.75 275.5Z" fill="#0093ED"/>
<path d="M1730.75 108.5C1731.72 108.5 1732.5 107.717 1732.5 106.75C1732.5 105.783 1731.72 105 1730.75 105C1729.78 105 1729 105.783 1729 106.75C1729 107.717 1729.78 108.5 1730.75 108.5Z" fill="#0093ED"/>
<path d="M1269.75 538.5C1270.72 538.5 1271.5 537.717 1271.5 536.75C1271.5 535.783 1270.72 535 1269.75 535C1268.78 535 1268 535.783 1268 536.75C1268 537.717 1268.78 538.5 1269.75 538.5Z" fill="#0093ED"/>
<path d="M362.749 536.5C363.716 536.5 364.5 535.717 364.5 534.75C364.5 533.783 363.716 533 362.749 533C361.783 533 361 533.783 361 534.75C361 535.717 361.783 536.5 362.749 536.5Z" fill="#0093ED"/>
<path d="M1735.75 901.5C1736.72 901.5 1737.5 900.717 1737.5 899.75C1737.5 898.783 1736.72 898 1735.75 898C1734.78 898 1734 898.783 1734 899.75C1734 900.717 1734.78 901.5 1735.75 901.5Z" fill="#0093ED"/>
<path d="M618.749 135.5C619.716 135.5 620.5 134.717 620.5 133.75C620.5 132.783 619.716 132 618.749 132C617.783 132 617 132.783 617 133.75C617 134.717 617.783 135.5 618.749 135.5Z" fill="#0093ED"/>
<path d="M1487.75 978.5C1488.72 978.5 1489.5 977.717 1489.5 976.75C1489.5 975.783 1488.72 975 1487.75 975C1486.78 975 1486 975.783 1486 976.75C1486 977.717 1486.78 978.5 1487.75 978.5Z" fill="#0093ED"/>
<path d="M786.749 921.5C787.716 921.5 788.5 920.717 788.5 919.75C788.5 918.783 787.716 918 786.749 918C785.783 918 785 918.783 785 919.75C785 920.717 785.783 921.5 786.749 921.5Z" fill="#0093ED"/>
<path d="M1049.75 113.5C1050.72 113.5 1051.5 112.717 1051.5 111.75C1051.5 110.783 1050.72 110 1049.75 110C1048.78 110 1048 110.783 1048 111.75C1048 112.717 1048.78 113.5 1049.75 113.5Z" fill="#0093ED"/>
<path d="M127.749 728.5C128.716 728.5 129.5 727.717 129.5 726.75C129.5 725.783 128.716 725 127.749 725C126.783 725 126 725.783 126 726.75C126 727.717 126.783 728.5 127.749 728.5Z" fill="#0093ED"/>
<path d="M524.749 358.5C525.716 358.5 526.5 357.717 526.5 356.75C526.5 355.783 525.716 355 524.749 355C523.783 355 523 355.783 523 356.75C523 357.717 523.783 358.5 524.749 358.5Z" fill="#0093ED"/>
<path d="M1170.75 825.5C1171.72 825.5 1172.5 824.717 1172.5 823.75C1172.5 822.783 1171.72 822 1170.75 822C1169.78 822 1169 822.783 1169 823.75C1169 824.717 1169.78 825.5 1170.75 825.5Z" fill="#0093ED"/>
<path d="M205.749 353.5C206.716 353.5 207.5 352.717 207.5 351.75C207.5 350.783 206.716 350 205.749 350C204.783 350 204 350.783 204 351.75C204 352.717 204.783 353.5 205.749 353.5Z" fill="#0093ED"/>
<path d="M677.749 608.5C678.716 608.5 679.5 607.717 679.5 606.75C679.5 605.783 678.716 605 677.749 605C676.783 605 676 605.783 676 606.75C676 607.717 676.783 608.5 677.749 608.5Z" fill="#0093ED"/>
<path d="M290.749 961.5C291.716 961.5 292.5 960.717 292.5 959.75C292.5 958.783 291.716 958 290.749 958C289.783 958 289 958.783 289 959.75C289 960.717 289.783 961.5 290.749 961.5Z" fill="#0093ED"/>
<path d="M59.7493 103.5C60.716 103.5 61.5 102.717 61.5 101.75C61.5 100.783 60.716 100 59.7493 100C58.7825 100 58 100.783 58 101.75C58 102.717 58.7825 103.5 59.7493 103.5Z" fill="#0093ED"/>
</svg>
